<svg id="Layer_1" data-name="Layer 1" xmlns="http://www.w3.org/2000/svg" viewBox="0 0 152.67 181"><defs><style>.cls-1{fill:#333;}</style></defs><title>single-sofa</title><path class="cls-1" d="M56.5,145.67a43.33,43.33,0,1,0,43.33-43.34A43.38,43.38,0,0,0,56.5,145.67Zm84.31,0a41,41,0,1,1-41-41A41,41,0,0,1,140.81,145.67Z" transform="translate(-23.25 -8)"/><path class="cls-1" d="M23.25,101H44.71V53.56a24.13,24.13,0,0,1,24.1-24.11h61.55a24.14,24.14,0,0,1,24.11,24.11V101h21.45V53.56A45.61,45.61,0,0,0,130.36,8H68.81A45.61,45.61,0,0,0,23.25,53.56Zm4.28-47.47A41.33,41.33,0,0,1,68.81,12.27h61.55a41.33,41.33,0,0,1,41.28,41.29V96.75h-12.9V53.56a28.41,28.41,0,0,0-28.38-28.38H68.81A28.41,28.41,0,0,0,40.43,53.56V96.75H27.53Z" transform="translate(-23.25 -8)"/><path class="cls-1" d="M136,84.47V36.18c0-5.06-4.53-9.18-10.1-9.18H72.69c-5.57,0-10.1,4.12-10.1,9.18V84.47c0,5.06,4.53,9.18,10.1,9.18h53.16C131.42,93.65,136,89.53,136,84.47Zm-69.77,0V36.18c0-3.26,2.92-5.92,6.51-5.92h53.16c3.59,0,6.51,2.66,6.51,5.92V84.47c0,3.26-2.92,5.91-6.51,5.91H72.69C69.1,90.38,66.18,87.73,66.18,84.47Z" transform="translate(-23.25 -8)"/></svg>