<svg viewBox="0 0 152.67 181" xmlns="http://www.w3.org/2000/svg"><g fill="#333" transform="translate(-23.25 -8)"><path d="m56.5 145.67a43.33 43.33 0 1 0 43.33-43.34 43.38 43.38 0 0 0 -43.33 43.34zm84.31 0a41 41 0 1 1 -41-41 41 41 0 0 1 41 41z"/><path d="m23.25 101h21.46v-47.44a24.13 24.13 0 0 1 24.1-24.11h61.55a24.14 24.14 0 0 1 24.11 24.11v47.44h21.45v-47.44a45.61 45.61 0 0 0 -45.56-45.56h-61.55a45.61 45.61 0 0 0 -45.56 45.56zm4.28-47.47a41.33 41.33 0 0 1 41.28-41.26h61.55a41.33 41.33 0 0 1 41.28 41.29v43.19h-12.9v-43.19a28.41 28.41 0 0 0 -28.38-28.38h-61.55a28.41 28.41 0 0 0 -28.38 28.38v43.19h-12.9z"/><path d="m136 84.47v-48.29c0-5.06-4.53-9.18-10.1-9.18h-53.21c-5.57 0-10.1 4.12-10.1 9.18v48.29c0 5.06 4.53 9.18 10.1 9.18h53.16c5.57 0 10.15-4.12 10.15-9.18zm-69.77 0v-48.29c0-3.26 2.92-5.92 6.51-5.92h53.16c3.59 0 6.51 2.66 6.51 5.92v48.29c0 3.26-2.92 5.91-6.51 5.91h-53.21c-3.59 0-6.51-2.65-6.51-5.91z"/></g></svg>