<svg viewBox="0 0 163.1 163.1" xmlns="http://www.w3.org/2000/svg"><path d="m99.55 180.1a81.52 81.52 0 0 1 -81.55-81.55 81.52 81.52 0 0 1 81.55-81.55 81.52 81.52 0 0 1 81.55 81.55 81.61 81.61 0 0 1 -81.55 81.55z" fill="#292b66" transform="translate(-18 -17)"/><g fill="none" stroke="#fff" stroke-linecap="round" stroke-linejoin="round"><path d="m26.75 46.62v69.86l54.8 23.25 54.67-23.25v-69.86l-54.67 23.24z" stroke-width=".6"/><path d="m136.22 46.62-55.32-23.38-42.07 18.18" stroke-width=".6"/><path d="m81.55 81.03v58.7" stroke-width=".6"/><path d="m135.18 116.35v-68.82l-1.04.39-53.11 22.59-53.63-22.72v68.3" stroke-width="4.17"/><path d="m81.03 81.42v57.4" stroke-width="4.17"/><path d="m136.22 116.48-55.32-23.37-42.07 18.18-12.08 5.19" stroke-width=".6"/></g></svg>