<svg enable-background="new 0 0 300 300" viewBox="0 0 300 300" xmlns="http://www.w3.org/2000/svg"><path d="m238.8 254.9c1 4-6.8 10.8-9.3 13-4.3 3.5-9.3 6-14.5 7.3-11 3-19.3-1-26.3-10-14.5-18.8-12-41-6-62 0 0 .3-5 1.3-5.8 0 .3-.3 2.5-.5 3.5l1.3-4.5c0 .3-.3.3-.5.3-.8-3 2.3-9 3.3-11.8l5.5-12.5c3.3-7.3 6-14.3 8.8-21.8 2.8-8.3 7.3-16 11-23.8.8-1.3 6-13.3 7-13 0 0-1 3-.8 3.3 1.8-4.3 3.3-8.5 4.8-13l-1.8 3.5c-.3-3.3 5.5-11.5.3-12.8-4.3-1-10.5 5.5-13.3 8-11.3 10.3-20 22.3-28.8 34.8-4.3 6-8 12-13.3 17.3-3.3 3-5.3 8.5-8 12.5-4.5 7.3-8.5 14.5-12.8 21.5-3 5.3-7.3 10.3-9.3 16-2.5 7-5.3 13.3-13 6-7.5-7.3-7.5-16.8-5.5-26.3 5.5-28.3 20.5-55.8 35-80.3 6.3-10.5 11.8-22.3 16-33.8.8-2 2.8-5.8.8-6.5-2.5-1-8.5 3.8-10.3 5-11.5 8.5-20.3 20-29 31.3-8.8 11.5-16.8 23.5-24.8 35.8-8.5 12.8-16.5 25.8-24.5 38.8-3.8 6.3-8 12.3-10.5 19-2.8 6.3-5 12.8-7.5 19.3-1.5 4-2.8 10.3-5.3 13.8-3.3 4.5-9.8 4.3-14 .8-3.8-3-4.8-7.8-4.5-12.5.8-13.8 6.8-28.5 12-41s10.8-24.5 15.5-37.3c9.5-26 23.5-51 30.8-78v2.5l1.5-9.3c1-6 .8-12-6.8-10.3-5.5 1.5-10 5.5-13.8 9.8-9 9.5-15.8 21.8-20.3 34-1 2.5-1.8 6.5-2 8-.3 2 .5 3.8-1.3 5.5-3 2.5-6.3.5-8.3-2.3-4-6-3.5-15.5-1.8-22.3 1.8-6 6-10.3 8.5-15.8.8-1.8.5-3.8 2-5.8l2.5-3.5c2.8-3 5.5-5.8 8.5-8.5 5.8-4.8 12-8.3 19.3-10.5 8-2.5 16.8-3 23 3.8 4 4.3 6.3 12 7.5 17.5 1.8 7.8-.8 17.5-3 24.8s-4.5 14.8-7 22c-2.3 7-5 13.8-7.5 20.8-2 5.5-3 10.8-4.8 16.3 13-20.3 27-41.3 43.8-59 8.3-8.8 28-37.8 41.8-21 6.3 7.8 8.5 19.5 4.8 28.8-3.5 8.5-9.8 16-13.5 24.3-9.8 22.3-21.3 44-28.3 67.5 9-15.5 18.3-31 28.8-45.8-2.5 3.5-5.5 7-7.8 10.8 4.5-7 8.5-13 9.5-14.3 8.8-12 18-23.8 29.3-33.8 6-5.5 14-12 22.8-12 10.3-.3 16.8 9 18.5 18.3 4 21.8-10.8 42-19.5 60.3.5-1 1.3-1.8 1.8-1.8.3 0-6.3 16.3-7 17.8-3 7-5.8 14-8.8 20.8-5.3 13-10.5 26.3-13.5 39.8-1.5 6.5-4.3 17.5 3 21.5 7 3.8 18.5 2.5 25.5 0 2.8-1 12.5-7 13.3-3zm-169.5-116c4.5-11.3 9.3-22.3 14.5-33 5.5-11.3 9.3-23 12.3-34.8-1.3 4-3 8-4.5 11.5-3.5 8.3-6.3 17-9.8 25.3-4.5 10.3-8.5 20.5-12.5 31zm79 27.3s7-10.8 13.5-21.3c-3.5 6-12.8 21.5-13.5 21.3zm14-22-.5.8c.2-.3.5-.6.5-.8zm1-1.3v-.3l-1 1.5zm18.7 70.8c-.8 1-.8 1.5 0 1.8.5-1.1.5-1.6 0-1.8zm2-6.3c2.5-7.5 5.8-15 9-22.3 4-8.5 9-18.5 10.8-27.5.8-1.5.8-2.3 0-2.5-2.5 3-3.5 9.8-5 13.5-2 4.8-4 9.5-6.3 14-4 8.3-6 16.6-8.5 24.8zm4.8-98.2.3-.5.3-.3c0 .3-.3.3-.3.3l.3-.3.5-.5.3-.3.5-.8-.5.5c-.3.3-1 1-1.5 2v-.3l-.5.8zm1.2-1.8-.3.3c.3 0 .3-.3.3-.3zm.5-.5 9.3-9.8c-3.3 3.1-6.3 6.3-9.3 9.8z" fill="#f78888"/><path d="m119.2 99.8c-8.7 11.7-16.8 23.9-24.5 35.9 1.8-5.5 2.8-10.8 4.8-16.3 2.5-7 5.3-13.8 7.5-20.8 2.5-7.3 4.8-14.8 7-22s4.8-17 3-24.8c-1.3-5.5-3.5-13.3-7.5-17.5-6.3-6.8-15-6.3-23-3.8-7.3 2.3-13.5 5.8-19.3 10.5-3 2.8-5.8 5.5-8.5 8.5l-2.5 3.5c-1.5 2-1.3 4-2 5.8-2.5 5.5-6.8 9.8-8.5 15.8-1.8 6.8-2.3 16.3 1.8 22.3 2 2.8 5.3 4.8 8.3 2.3 1.8-1.8 1-3.5 1.3-5.5.3-1.5 1-5.5 2-8 4.5-12.3 11.3-24.5 20.3-34 3.8-4.3 8.3-8.3 13.8-9.8 7.5-1.8 7.8 4.3 6.8 10.3l-1.5 9.3v-2.5c-7.3 27-21.3 52-30.8 78-4.8 12.8-10.3 24.8-15.5 37.3s-11.3 27.3-12 41c-.3 4.8.8 9.5 4.5 12.5 4.3 3.5 10.8 3.8 14-.8 2.5-3.5 3.8-9.8 5.3-13.8 2.5-6.5 4.8-13 7.5-19.3 2.5-6.8 6.8-12.8 10.5-19 8-13 16-26 24.5-38.8 4.3-6.6 8.6-13 13-19.4v-16.9zm-49.9 39.1c4-10.5 8-20.8 12.5-31 3.5-8.3 6.3-17 9.8-25.3 1.5-3.5 3.3-7.5 4.5-11.5-3 11.8-6.8 23.5-12.3 34.8-5.3 10.8-10 21.8-14.5 33z" fill="#f3d250"/><g fill="#90ccf4"><path d="m225.8 257.7c-7 2.5-18.5 3.8-25.5 0-7.3-4-4.5-15-3-21.5 3-13.5 8.3-26.8 13.5-39.8 3-6.8 5.8-13.8 8.8-20.8.8-1.5 7.3-17.8 7-17.8-.5 0-1.3.8-1.8 1.8 8.8-18.3 23.5-38.5 19.5-60.3-1.8-9.3-8.3-18.5-18.5-18.3-8.8 0-16.8 6.5-22.8 12-6.5 5.8-12.4 12.2-17.8 18.9v18.7c7.2-10 14.7-19.5 23.8-27.8 2.8-2.5 9-9 13.3-8 5.3 1.3-.5 9.5-.3 12.8l1.8-3.5c-1.5 4.5-3 8.8-4.8 13-.3-.3.8-3.3.8-3.3-1-.3-6.3 11.8-7 13-3.8 7.8-8.3 15.5-11 23.8-2.8 7.5-5.5 14.5-8.8 21.8l-5.5 12.5c-1 2.8-4 8.8-3.3 11.8.3 0 .5 0 .5-.3l-1.3 4.5c.3-1 .5-3.3.5-3.5-1 .8-1.3 5.8-1.3 5.8-6 21-8.5 43.3 6 62 7 9 15.3 13 26.3 10 5.3-1.3 10.3-3.8 14.5-7.3 2.5-2.3 10.3-9 9.3-13-.7-4-10.4 2-12.9 2.8zm-35.3-150.8-.5.8-1 1-.3.5-.8.8.5-.8v.3c.5-1 1.3-1.8 1.5-2l.6-.6c3-3.5 6-6.8 9.3-9.8zm-8.5 108.5c-.8-.3-.8-.8 0-1.8.5.3.5.8 0 1.8zm2-8c2.5-8.3 4.5-16.5 8.5-24.8 2.3-4.5 4.3-9.3 6.3-14 1.5-3.8 2.5-10.5 5-13.5.8.3.8 1 0 2.5-1.8 9-6.8 19-10.8 27.5-3.2 7.3-6.5 14.8-9 22.3z"/><path d="m190 107.4-.3.3c.3 0 .3-.3.3-.3z"/></g></svg>