<svg id="svg" version="1.1" xmlns="http://www.w3.org/2000/svg" xmlns:xlink="http://www.w3.org/1999/xlink" width="400" height="400" viewBox="0, 0, 400,400"><g id="svgg"><path id="path0" d="M220.553 104.725 C 220.664 104.903,219.690 105.269,218.390 105.538 C 217.089 105.806,215.884 106.245,215.713 106.513 C 215.541 106.781,214.561 107.421,213.537 107.936 C 212.512 108.451,211.340 109.183,210.932 109.563 C 210.524 109.943,209.895 110.422,209.533 110.627 C 208.034 111.478,202.345 117.026,201.120 118.832 C 200.394 119.903,199.590 120.784,199.332 120.790 C 198.645 120.805,193.601 126.396,192.979 127.833 C 192.685 128.511,191.635 130.041,190.645 131.233 L 188.844 133.400 189.745 134.400 C 190.240 134.950,191.134 136.068,191.732 136.885 C 192.330 137.702,193.354 138.958,194.009 139.675 C 194.664 140.392,195.200 141.118,195.200 141.289 C 195.200 141.460,195.560 141.600,196.000 141.600 C 196.440 141.600,196.800 141.430,196.800 141.223 C 196.800 140.332,205.687 131.911,210.800 127.955 C 214.715 124.927,216.602 123.600,216.994 123.600 C 217.245 123.600,217.798 123.276,218.225 122.879 C 221.049 120.254,225.149 121.032,223.634 123.905 C 222.831 125.426,222.000 127.551,222.000 128.080 C 222.000 128.388,221.834 128.811,221.632 129.020 C 221.429 129.229,220.878 130.570,220.406 132.000 C 219.935 133.430,218.931 135.882,218.175 137.449 C 217.419 139.016,216.800 140.591,216.800 140.949 C 216.800 141.307,216.665 141.601,216.500 141.603 C 216.175 141.607,215.200 143.515,215.200 144.149 C 215.200 144.364,213.850 147.272,212.200 150.613 C 210.550 153.953,209.200 156.892,209.200 157.143 C 209.200 157.395,209.011 157.600,208.780 157.600 C 208.548 157.600,208.078 158.275,207.735 159.100 C 207.391 159.925,206.988 160.690,206.838 160.800 C 206.689 160.910,206.303 161.540,205.981 162.200 C 205.658 162.860,204.631 164.691,203.697 166.270 C 202.764 167.848,202.000 169.333,202.000 169.570 C 202.000 169.806,201.841 170.000,201.646 170.000 C 201.451 170.000,200.975 170.675,200.589 171.500 C 200.203 172.325,199.579 173.450,199.201 174.000 C 198.823 174.550,198.066 175.810,197.519 176.800 C 196.972 177.790,195.911 179.650,195.162 180.934 C 193.421 183.919,191.164 188.089,188.957 192.400 C 188.000 194.270,187.078 195.980,186.908 196.200 C 186.589 196.614,182.730 204.374,182.010 206.049 C 181.786 206.572,181.435 207.270,181.230 207.600 C 180.548 208.701,177.200 216.050,177.200 216.446 C 177.200 216.661,176.750 217.682,176.200 218.715 C 175.650 219.748,175.090 221.180,174.955 221.897 C 174.821 222.614,174.579 223.200,174.419 223.200 C 174.258 223.200,173.792 224.325,173.383 225.700 C 172.973 227.075,172.529 228.290,172.394 228.400 C 172.260 228.510,171.822 229.680,171.420 231.000 C 171.018 232.320,170.551 233.580,170.381 233.800 C 170.211 234.020,169.943 234.920,169.785 235.800 C 169.628 236.680,169.275 237.670,169.001 238.000 C 168.727 238.330,168.279 239.815,168.006 241.300 C 167.733 242.785,167.369 244.000,167.198 244.000 C 167.027 244.000,166.789 244.585,166.669 245.300 C 166.075 248.825,165.517 251.478,165.218 252.200 C 165.035 252.640,164.669 254.170,164.403 255.600 C 164.138 257.030,163.743 259.100,163.526 260.200 C 162.749 264.138,162.692 271.199,163.415 273.800 C 163.783 275.120,164.275 276.965,164.509 277.900 C 164.743 278.835,165.084 279.600,165.267 279.600 C 165.450 279.600,165.600 279.831,165.600 280.113 C 165.600 281.519,169.723 286.571,172.944 289.113 C 173.871 289.844,177.137 291.200,177.972 291.200 C 180.002 291.200,183.822 287.790,184.263 285.584 C 184.393 284.933,184.632 284.400,184.794 284.400 C 184.955 284.400,185.471 283.232,185.939 281.805 C 187.378 277.423,188.720 274.843,192.450 269.288 C 193.083 268.347,193.600 267.500,193.600 267.406 C 193.600 267.312,194.320 266.208,195.200 264.951 C 196.080 263.695,196.800 262.455,196.800 262.196 C 196.800 261.936,197.158 261.400,197.595 261.005 C 198.032 260.609,198.608 259.681,198.875 258.943 C 199.142 258.204,199.505 257.600,199.680 257.600 C 199.856 257.600,200.000 257.438,200.000 257.240 C 200.000 257.042,200.715 255.737,201.589 254.340 C 202.463 252.943,203.492 251.170,203.876 250.400 C 204.260 249.630,204.718 248.820,204.895 248.600 C 205.652 247.655,209.600 240.785,209.600 240.411 C 209.600 240.185,209.750 240.000,209.932 240.000 C 210.115 240.000,210.512 239.505,210.815 238.900 C 211.118 238.295,211.581 237.530,211.845 237.200 C 212.108 236.870,213.087 235.160,214.020 233.400 C 216.643 228.454,218.850 225.221,221.392 222.600 C 224.045 219.866,229.200 213.408,229.200 212.820 C 229.200 212.604,229.560 212.235,230.000 212.000 C 230.440 211.765,230.800 211.389,230.800 211.165 C 230.800 210.941,231.765 209.372,232.945 207.679 C 234.124 205.985,235.524 203.970,236.055 203.200 C 236.586 202.430,237.871 200.630,238.910 199.200 C 241.314 195.892,241.323 195.878,241.800 195.122 C 242.327 194.287,246.069 189.365,247.485 187.645 C 248.098 186.900,248.765 186.000,248.966 185.645 C 249.167 185.290,249.437 184.910,249.567 184.800 C 249.696 184.690,250.875 183.272,252.188 181.649 C 253.500 180.027,255.030 178.210,255.589 177.612 C 256.147 177.015,257.503 175.484,258.602 174.211 C 259.701 172.937,261.002 171.529,261.494 171.081 C 262.047 170.577,262.255 170.102,262.041 169.833 C 261.684 169.388,261.075 166.861,259.601 159.717 C 258.809 155.879,258.799 155.574,259.425 154.617 C 261.983 150.714,252.330 160.067,244.400 169.176 C 243.190 170.565,241.930 172.001,241.600 172.365 C 239.896 174.248,231.383 185.181,230.296 186.882 C 229.916 187.477,229.280 188.287,228.882 188.682 C 228.485 189.077,227.010 191.110,225.604 193.200 C 224.199 195.290,222.914 197.094,222.750 197.208 C 222.585 197.323,222.254 197.863,222.015 198.408 C 221.622 199.303,220.166 201.534,219.265 202.621 C 219.073 202.853,218.395 203.843,217.758 204.821 C 217.121 205.800,216.465 206.660,216.300 206.733 C 216.135 206.807,216.000 207.201,216.000 207.609 C 216.000 208.017,215.450 208.947,214.779 209.675 C 214.107 210.404,213.262 211.630,212.900 212.400 C 212.538 213.170,212.142 213.890,212.020 214.000 C 211.394 214.564,207.200 221.385,207.200 221.839 C 207.200 222.042,206.840 222.432,206.400 222.707 C 205.960 222.982,205.600 223.446,205.600 223.738 C 205.600 224.031,204.880 225.275,204.000 226.504 C 203.120 227.733,202.400 228.859,202.400 229.006 C 202.400 229.153,202.032 229.752,201.583 230.337 C 199.323 233.276,197.974 235.687,198.196 236.387 C 198.326 236.797,198.250 237.245,198.028 237.383 C 197.805 237.521,197.268 238.436,196.834 239.417 C 196.400 240.397,195.971 241.200,195.881 241.200 C 195.638 241.200,197.164 236.364,197.774 235.200 C 198.062 234.650,198.535 233.255,198.825 232.100 C 199.114 230.945,199.497 230.000,199.676 230.000 C 199.854 230.000,200.000 229.735,200.000 229.412 C 200.000 229.088,200.450 227.840,201.000 226.637 C 201.550 225.435,202.001 224.215,202.001 223.926 C 202.002 223.637,202.360 222.815,202.796 222.100 C 203.232 221.384,203.793 219.989,204.042 219.000 C 204.291 218.010,204.632 217.200,204.800 217.200 C 204.968 217.200,205.442 216.122,205.853 214.803 C 206.264 213.485,206.735 212.405,206.900 212.403 C 207.065 212.402,207.200 212.212,207.200 211.983 C 207.200 211.754,207.740 210.412,208.400 209.000 C 209.060 207.588,209.600 206.156,209.600 205.817 C 209.600 205.478,209.758 205.200,209.951 205.200 C 210.145 205.200,210.522 204.615,210.789 203.900 C 211.057 203.185,211.799 201.509,212.438 200.176 C 213.077 198.843,213.600 197.538,213.600 197.276 C 213.600 197.014,213.766 196.800,213.968 196.800 C 214.171 196.800,214.463 196.215,214.618 195.500 C 214.773 194.785,215.237 193.722,215.650 193.138 C 216.062 192.554,216.400 191.829,216.400 191.527 C 216.400 191.225,216.664 190.602,216.986 190.142 C 217.308 189.681,217.458 189.191,217.319 189.053 C 217.180 188.914,217.263 188.800,217.502 188.800 C 217.742 188.800,218.148 188.125,218.405 187.300 C 218.988 185.426,220.898 181.445,221.300 181.267 C 221.465 181.193,221.600 180.919,221.600 180.656 C 221.600 180.394,222.134 179.104,222.787 177.790 C 223.441 176.475,223.981 175.240,223.987 175.044 C 223.994 174.848,224.354 173.948,224.786 173.044 C 225.218 172.140,225.838 170.770,226.164 170.000 C 226.734 168.653,227.985 166.415,228.400 166.000 C 228.510 165.890,228.927 165.170,229.327 164.400 C 230.832 161.505,231.568 160.188,231.899 159.800 C 232.086 159.580,232.591 158.773,233.020 158.007 C 233.449 157.241,234.025 156.373,234.300 156.079 C 234.575 155.784,234.800 155.286,234.800 154.971 C 234.800 154.657,234.982 154.400,235.204 154.400 C 235.577 154.400,235.974 153.733,238.200 149.368 C 238.640 148.506,239.135 147.740,239.300 147.667 C 239.465 147.593,239.600 147.306,239.600 147.028 C 239.600 146.564,240.355 144.731,241.198 143.149 C 241.389 142.791,241.663 141.801,241.808 140.949 C 241.952 140.097,242.342 138.795,242.675 138.055 C 243.397 136.451,243.299 127.296,242.550 126.361 C 242.303 126.053,241.971 124.900,241.813 123.800 C 241.655 122.700,241.400 121.620,241.246 121.400 C 241.093 121.180,240.631 119.965,240.219 118.700 C 239.807 117.435,239.355 116.400,239.215 116.400 C 239.075 116.400,238.742 115.796,238.475 115.057 C 238.208 114.319,237.632 113.391,237.195 112.995 C 236.758 112.600,236.400 112.098,236.400 111.881 C 236.400 111.539,234.612 109.450,233.400 108.377 C 231.102 106.341,230.400 105.890,228.916 105.493 C 227.972 105.241,227.200 104.891,227.200 104.717 C 227.200 104.543,225.659 104.400,223.776 104.400 C 221.893 104.400,220.443 104.546,220.553 104.725 M138.400 124.000 C 138.400 124.440,138.244 124.800,138.052 124.800 C 137.578 124.800,137.139 127.699,137.551 128.111 C 138.046 128.606,139.262 126.503,139.498 124.745 C 139.665 123.498,139.579 123.200,139.053 123.200 C 138.667 123.200,138.400 123.527,138.400 124.000 M98.154 223.230 C 97.908 223.764,97.484 224.674,97.211 225.253 C 96.918 225.875,96.827 226.814,96.990 227.553 C 97.297 228.952,98.000 229.245,98.000 227.974 C 98.000 227.519,98.190 226.792,98.422 226.358 C 98.654 225.924,98.789 224.825,98.722 223.915 C 98.607 222.354,98.575 222.316,98.154 223.230 " stroke="none" fill="#fb046b" fill-rule="evenodd"></path><path id="path1" d="M139.200 76.450 C 134.971 77.306,130.571 78.553,130.198 79.001 C 129.978 79.266,129.348 79.620,128.798 79.786 C 127.558 80.162,125.069 81.281,124.800 81.583 C 124.690 81.707,123.548 82.332,122.261 82.971 C 120.975 83.611,119.715 84.333,119.461 84.576 C 119.208 84.818,118.055 85.617,116.900 86.350 C 115.745 87.083,114.800 87.833,114.800 88.016 C 114.800 88.199,114.098 88.743,113.240 89.225 C 112.382 89.708,111.452 90.529,111.173 91.051 C 110.893 91.573,110.521 92.000,110.345 92.000 C 110.170 92.000,108.896 93.182,107.515 94.626 C 106.134 96.070,104.174 97.762,103.161 98.386 C 99.558 100.603,97.533 103.958,97.125 108.386 C 96.783 112.104,96.030 114.298,94.476 116.103 C 94.143 116.489,93.675 117.163,93.436 117.601 C 91.005 122.038,90.156 123.767,89.328 125.961 C 88.796 127.369,88.454 128.764,88.568 129.061 C 88.682 129.357,88.633 129.600,88.460 129.600 C 87.305 129.600,87.505 145.389,88.679 146.881 C 88.904 147.166,89.423 148.300,89.832 149.400 C 92.038 155.323,99.678 158.177,101.663 153.821 C 101.919 153.259,102.280 152.800,102.464 152.800 C 102.649 152.800,102.800 151.688,102.800 150.328 C 102.800 148.969,102.977 147.304,103.193 146.628 C 103.410 145.953,103.963 143.780,104.424 141.800 C 104.884 139.820,105.545 137.885,105.893 137.500 C 106.240 137.115,106.384 136.800,106.213 136.800 C 106.042 136.800,106.085 136.575,106.309 136.300 C 106.533 136.025,106.905 135.170,107.134 134.400 C 107.777 132.245,108.555 130.301,109.216 129.200 C 110.093 127.739,110.823 126.396,113.951 120.482 C 116.840 115.023,118.480 112.537,122.521 107.495 C 125.072 104.312,129.762 99.067,130.967 98.048 C 131.390 97.692,132.290 96.896,132.967 96.280 C 138.194 91.532,146.229 89.654,148.238 92.711 C 149.544 94.698,148.660 107.297,147.085 109.143 C 146.777 109.505,146.301 111.104,146.026 112.699 C 145.752 114.293,145.364 115.699,145.164 115.822 C 144.964 115.946,144.800 116.487,144.800 117.024 C 144.800 117.561,144.641 118.000,144.447 118.000 C 144.252 118.000,144.003 118.405,143.893 118.900 C 143.431 120.970,141.527 127.006,141.216 127.387 C 141.030 127.614,140.673 128.568,140.422 129.508 C 140.171 130.447,139.583 132.067,139.115 133.108 C 138.648 134.148,138.248 135.090,138.227 135.200 C 138.205 135.310,138.080 135.580,137.949 135.800 C 137.818 136.020,137.582 136.740,137.424 137.400 C 137.267 138.060,136.451 140.040,135.611 141.800 C 134.772 143.560,133.962 145.585,133.811 146.300 C 133.660 147.015,133.415 147.600,133.266 147.600 C 133.117 147.600,132.795 148.095,132.551 148.700 C 130.933 152.705,130.400 154.166,130.400 154.599 C 130.400 154.870,130.074 155.521,129.675 156.046 C 129.276 156.571,128.629 157.900,128.238 159.000 C 127.599 160.794,126.094 164.200,124.556 167.332 C 124.250 167.955,124.000 168.720,124.000 169.032 C 124.000 169.345,123.863 169.600,123.696 169.600 C 123.529 169.600,122.962 170.815,122.436 172.300 C 121.910 173.785,121.174 175.450,120.801 176.000 C 120.427 176.550,120.016 177.360,119.887 177.800 C 119.070 180.591,117.501 184.400,117.169 184.400 C 117.039 184.400,116.918 184.625,116.900 184.900 C 116.841 185.795,115.045 190.596,114.718 190.733 C 114.543 190.807,114.399 191.167,114.398 191.533 C 114.396 191.900,114.126 192.716,113.798 193.346 C 113.469 193.976,113.200 194.646,113.200 194.834 C 113.200 195.022,112.774 196.127,112.252 197.288 C 111.731 198.450,111.181 199.940,111.030 200.600 C 110.642 202.293,109.864 204.000,109.479 204.000 C 109.299 204.000,109.276 204.200,109.428 204.445 C 109.579 204.689,109.528 205.004,109.314 205.145 C 109.101 205.285,108.552 206.480,108.095 207.800 C 106.829 211.455,106.225 212.980,105.954 213.200 C 105.819 213.310,105.577 213.850,105.417 214.400 C 104.929 216.081,103.474 219.200,103.179 219.200 C 103.025 219.200,102.792 219.740,102.660 220.400 C 102.408 221.658,101.191 224.631,100.163 226.496 C 99.831 227.099,99.279 228.539,98.936 229.696 C 98.593 230.853,98.145 231.905,97.941 232.033 C 97.533 232.289,95.204 238.297,95.201 239.100 C 95.201 239.375,94.930 239.600,94.600 239.600 C 94.270 239.600,94.000 239.939,94.000 240.352 C 94.000 241.144,92.469 245.487,91.233 248.200 C 90.832 249.080,90.373 250.250,90.212 250.800 C 90.051 251.350,89.326 253.420,88.600 255.400 C 87.875 257.380,87.073 260.021,86.818 261.269 C 86.564 262.517,86.096 263.754,85.778 264.018 C 85.460 264.282,85.200 264.846,85.200 265.272 C 85.200 265.698,84.849 267.791,84.420 269.923 C 80.572 289.043,84.196 298.591,95.500 299.122 C 100.798 299.370,103.561 297.894,105.274 293.900 C 105.439 293.515,105.771 293.200,106.011 293.200 C 106.251 293.200,106.336 293.020,106.200 292.800 C 106.064 292.580,106.113 292.400,106.309 292.400 C 106.656 292.400,106.848 291.792,108.206 286.405 C 108.566 284.978,109.040 283.593,109.260 283.327 C 109.480 283.062,109.902 281.980,110.196 280.923 C 110.830 278.651,111.709 276.281,112.024 276.000 C 112.147 275.890,112.668 274.360,113.183 272.600 C 113.698 270.840,114.360 269.030,114.654 268.578 C 115.186 267.763,116.657 263.824,117.075 262.100 C 117.195 261.605,117.447 261.200,117.634 261.200 C 117.822 261.200,117.871 260.930,117.745 260.600 C 117.618 260.270,117.690 260.000,117.904 260.000 C 118.118 260.000,118.697 258.875,119.191 257.500 C 119.686 256.125,120.407 254.460,120.796 253.800 C 121.751 252.175,123.571 248.909,124.473 247.200 C 125.485 245.283,126.047 244.399,127.100 243.072 C 127.595 242.449,128.000 241.726,128.000 241.465 C 128.000 241.205,128.405 240.539,128.900 239.985 C 129.395 239.431,130.250 238.088,130.800 237.001 C 131.350 235.913,132.113 234.672,132.495 234.241 C 132.878 233.811,133.304 233.086,133.441 232.629 C 133.579 232.173,134.016 231.440,134.411 231.000 C 134.807 230.560,135.604 229.303,136.183 228.207 C 136.762 227.110,137.567 225.850,137.973 225.407 C 138.378 224.963,139.115 223.790,139.610 222.800 C 140.104 221.810,140.935 220.491,141.455 219.869 C 141.975 219.247,142.400 218.564,142.400 218.352 C 142.400 218.139,143.165 216.825,144.100 215.433 C 145.722 213.017,146.159 212.316,148.358 208.613 C 148.884 207.726,149.829 206.344,150.458 205.542 C 151.086 204.741,151.600 203.900,151.600 203.673 C 151.600 203.447,152.021 202.753,152.536 202.131 C 153.051 201.509,153.988 200.100,154.617 199.000 C 155.247 197.900,155.878 196.910,156.021 196.800 C 156.304 196.582,158.113 193.903,159.430 191.751 C 159.887 191.005,160.637 189.961,161.098 189.432 C 161.558 188.902,161.855 188.389,161.758 188.291 C 161.660 188.194,161.855 187.886,162.190 187.608 C 162.526 187.330,162.800 186.925,162.800 186.709 C 162.800 186.492,163.340 185.633,164.000 184.800 C 164.660 183.967,165.200 183.185,165.200 183.062 C 165.200 182.286,168.046 178.939,170.979 176.265 C 175.449 172.190,177.600 169.077,177.600 166.682 C 177.600 165.314,177.891 164.534,178.900 163.197 C 179.615 162.249,180.470 161.080,180.800 160.599 C 181.130 160.118,182.030 158.913,182.800 157.921 C 186.882 152.665,189.069 149.789,189.669 148.890 C 190.037 148.338,190.704 147.507,191.152 147.043 C 193.040 145.087,194.800 142.872,194.800 142.452 C 194.800 142.203,194.994 142.000,195.232 142.000 C 195.470 142.000,194.723 141.014,193.573 139.809 C 192.424 138.605,191.175 137.120,190.799 136.509 C 190.422 135.899,189.729 135.057,189.257 134.638 C 188.104 133.613,188.150 133.407,190.005 131.300 C 190.888 130.297,191.516 129.382,191.401 129.267 C 191.135 129.002,191.146 128.990,184.113 137.072 C 181.869 139.651,178.314 143.989,175.910 147.083 C 174.066 149.455,171.836 152.276,170.759 153.600 C 169.461 155.195,166.069 159.923,165.618 160.767 C 165.391 161.191,164.908 161.835,164.545 162.198 C 163.750 162.993,162.000 165.533,162.000 165.892 C 162.000 166.033,161.615 166.558,161.144 167.059 C 160.674 167.560,160.089 168.333,159.844 168.776 C 159.600 169.219,157.780 171.947,155.800 174.837 C 150.687 182.301,149.578 184.000,149.819 184.000 C 149.936 184.000,149.649 184.405,149.182 184.900 C 148.715 185.395,147.880 186.565,147.328 187.500 C 146.776 188.435,146.270 189.200,146.205 189.200 C 146.046 189.200,146.785 186.016,147.179 185.000 C 147.679 183.711,148.313 181.508,148.617 180.000 C 148.772 179.230,149.233 177.880,149.641 177.000 C 150.478 175.194,152.400 169.276,152.400 168.505 C 152.400 168.227,152.551 168.000,152.735 168.000 C 152.919 168.000,153.655 166.245,154.371 164.100 C 155.087 161.955,155.994 159.480,156.386 158.600 C 156.778 157.720,157.412 155.920,157.794 154.600 C 158.177 153.280,158.630 152.020,158.802 151.800 C 158.973 151.580,159.325 150.368,159.584 149.107 C 159.842 147.846,160.222 146.710,160.427 146.583 C 160.632 146.457,160.800 145.997,160.800 145.562 C 160.800 145.128,161.049 144.373,161.353 143.886 C 161.657 143.399,162.211 141.650,162.584 140.000 C 163.223 137.168,163.442 136.479,164.393 134.300 C 164.608 133.805,165.332 131.330,166.000 128.800 C 166.668 126.270,167.372 123.840,167.565 123.400 C 170.226 117.313,170.146 101.551,167.420 95.000 C 167.146 94.340,166.414 92.360,165.795 90.600 C 165.175 88.840,164.248 86.891,163.734 86.269 C 163.220 85.647,162.800 84.927,162.800 84.669 C 162.800 84.239,160.704 82.004,157.878 79.419 C 154.689 76.501,145.870 75.100,139.200 76.450 M199.818 119.018 C 198.722 120.114,198.589 120.400,199.173 120.400 C 199.378 120.400,199.930 119.860,200.400 119.200 C 201.445 117.732,201.185 117.651,199.818 119.018 M139.426 140.830 C 138.704 142.494,138.610 141.984,139.291 140.100 C 139.560 139.354,139.835 138.905,139.901 139.102 C 139.966 139.299,139.753 140.077,139.426 140.830 M292.889 140.500 C 292.313 141.204,291.816 147.039,292.306 147.342 C 292.701 147.586,293.597 145.530,294.362 142.627 C 294.907 140.556,293.961 139.190,292.889 140.500 M138.282 143.863 C 137.965 144.488,137.468 145.945,137.177 147.100 C 136.887 148.255,136.484 149.200,136.282 149.200 C 136.080 149.200,136.024 148.913,136.159 148.563 C 136.293 148.212,136.517 147.447,136.655 146.863 C 137.019 145.325,138.420 142.287,138.657 142.524 C 138.768 142.635,138.600 143.237,138.282 143.863 M135.214 151.832 C 134.784 152.694,134.425 153.259,134.416 153.087 C 134.387 152.522,135.606 149.873,135.804 150.070 C 135.910 150.177,135.645 150.969,135.214 151.832 M266.426 198.291 C 266.140 198.901,265.748 199.713,265.553 200.095 C 264.830 201.516,265.103 202.867,266.000 202.307 C 266.440 202.032,266.800 201.527,266.800 201.184 C 266.800 200.841,266.965 200.389,267.166 200.180 C 267.711 199.614,267.864 197.492,267.372 197.326 C 267.137 197.246,266.711 197.681,266.426 198.291 M251.200 246.400 C 251.200 246.840,251.380 247.200,251.600 247.200 C 251.820 247.200,252.000 246.840,252.000 246.400 C 252.000 245.960,251.820 245.600,251.600 245.600 C 251.380 245.600,251.200 245.960,251.200 246.400 M250.400 248.400 C 250.400 248.844,250.667 249.200,251.000 249.200 C 251.333 249.200,251.600 248.844,251.600 248.400 C 251.600 247.956,251.333 247.600,251.000 247.600 C 250.667 247.600,250.400 247.956,250.400 248.400 M248.639 256.738 C 248.500 256.961,248.582 257.265,248.820 257.412 C 249.435 257.793,249.832 257.272,249.318 256.758 C 249.031 256.471,248.807 256.464,248.639 256.738 M248.311 258.222 C 248.161 258.372,248.143 259.013,248.269 259.647 C 248.448 260.539,248.353 260.800,247.850 260.800 C 247.467 260.800,247.200 261.128,247.200 261.600 C 247.200 263.221,248.346 262.432,248.617 260.625 C 248.897 258.761,248.770 257.764,248.311 258.222 M246.643 263.433 C 246.025 265.042,246.374 267.200,247.252 267.200 C 248.002 267.200,248.077 267.033,247.879 265.807 C 247.754 265.041,247.821 264.311,248.026 264.184 C 248.232 264.057,248.400 263.693,248.400 263.376 C 248.400 262.595,246.946 262.642,246.643 263.433 M266.600 331.316 C 266.380 331.582,265.994 332.250,265.742 332.800 C 265.490 333.350,264.815 334.808,264.242 336.040 C 263.669 337.272,263.200 338.478,263.200 338.720 C 263.200 338.962,262.885 339.344,262.500 339.568 C 261.890 339.923,261.928 339.977,262.800 339.987 C 264.702 340.009,269.050 331.476,267.400 330.958 C 267.180 330.889,266.820 331.050,266.600 331.316 " stroke="none" fill="#fca314" fill-rule="evenodd"></path><path id="path2" d="M178.400 76.628 C 178.400 77.045,178.692 77.213,179.269 77.128 C 180.549 76.939,180.686 76.000,179.433 76.000 C 178.761 76.000,178.400 76.219,178.400 76.628 M190.497 116.900 C 190.100 117.717,189.574 119.439,187.386 127.103 C 186.993 128.479,186.779 129.712,186.909 129.843 C 187.307 130.240,188.068 129.555,187.853 128.993 C 187.741 128.703,187.886 128.376,188.175 128.265 C 188.463 128.154,188.828 127.374,188.985 126.532 C 189.143 125.689,189.415 124.820,189.591 124.600 C 189.767 124.380,190.141 123.120,190.422 121.800 C 190.702 120.480,191.098 119.183,191.301 118.918 C 191.503 118.652,191.560 118.260,191.428 118.045 C 191.295 117.831,191.370 117.542,191.593 117.404 C 192.185 117.039,192.092 116.000,191.468 116.000 C 191.175 116.000,190.738 116.405,190.497 116.900 M291.200 127.327 C 286.613 129.006,283.890 130.623,278.971 134.589 C 272.760 139.597,261.330 151.377,259.968 154.174 L 259.201 155.748 260.421 161.774 C 261.927 169.215,261.944 169.273,262.616 169.123 C 262.918 169.055,263.938 167.989,264.882 166.753 C 274.201 154.561,288.696 140.800,292.220 140.800 C 292.539 140.800,292.800 140.620,292.800 140.400 C 292.800 139.692,294.059 139.973,295.037 140.900 C 296.219 142.021,296.274 143.683,295.200 145.906 C 294.760 146.816,294.392 147.795,294.382 148.081 C 294.373 148.366,294.109 149.318,293.797 150.195 C 293.485 151.072,293.382 151.942,293.568 152.128 C 294.081 152.641,292.350 157.562,291.568 157.810 C 291.200 157.927,290.337 159.143,289.650 160.511 C 288.963 161.880,288.139 163.450,287.819 164.000 C 287.498 164.550,285.989 167.520,284.465 170.600 C 282.941 173.680,280.976 177.559,280.099 179.219 C 279.223 180.879,278.366 182.676,278.196 183.211 C 278.027 183.747,277.560 184.638,277.159 185.192 C 276.758 185.747,275.876 187.730,275.200 189.600 C 274.524 191.470,273.724 193.540,273.423 194.200 C 273.122 194.860,272.311 197.011,271.621 198.979 C 270.931 200.948,270.218 202.748,270.035 202.979 C 269.853 203.211,269.472 204.120,269.188 205.000 C 268.905 205.880,267.825 208.400,266.788 210.600 C 265.752 212.800,264.765 215.050,264.595 215.600 C 264.323 216.482,262.655 220.273,260.988 223.800 C 260.086 225.710,259.465 227.375,259.535 227.700 C 259.571 227.865,259.449 228.000,259.265 228.000 C 258.598 228.000,256.309 235.524,256.468 237.194 C 256.552 238.077,256.502 238.800,256.357 238.800 C 255.986 238.800,255.578 240.157,254.976 243.400 C 253.753 249.984,252.689 254.668,252.205 255.600 C 249.966 259.907,249.819 282.416,251.994 287.800 C 252.172 288.240,252.716 289.770,253.204 291.200 C 254.420 294.766,255.644 297.600,255.969 297.600 C 256.118 297.600,256.465 298.225,256.742 298.990 C 258.390 303.547,266.600 312.060,271.390 314.179 C 282.696 319.179,300.385 312.329,308.646 299.752 C 312.316 294.164,309.774 291.182,303.800 294.067 C 301.127 295.357,296.683 297.076,295.200 297.393 C 294.430 297.558,293.607 297.847,293.370 298.037 C 293.134 298.227,290.772 298.594,288.122 298.853 C 271.992 300.432,265.649 294.470,269.128 281.000 C 269.355 280.120,270.189 276.790,270.982 273.600 C 272.633 266.951,276.070 256.080,277.188 253.968 C 277.605 253.180,278.333 251.380,278.806 249.968 C 279.280 248.556,280.255 246.050,280.974 244.400 C 281.693 242.750,282.604 240.410,282.997 239.200 C 283.391 237.990,284.022 236.550,284.401 236.000 C 284.779 235.450,285.320 234.280,285.602 233.400 C 285.885 232.520,286.734 230.472,287.490 228.849 C 288.247 227.226,289.468 224.319,290.204 222.389 C 290.941 220.459,291.727 218.547,291.951 218.140 C 292.540 217.071,294.300 212.772,294.628 211.600 C 294.782 211.050,295.039 210.510,295.199 210.400 C 295.681 210.068,298.844 201.091,298.653 200.595 C 298.473 200.124,300.797 195.390,303.978 189.751 C 306.495 185.289,310.497 177.099,311.773 173.800 C 312.369 172.260,313.149 170.370,313.508 169.600 C 313.866 168.830,314.209 168.020,314.269 167.800 C 319.574 148.353,316.260 133.445,305.400 127.899 C 301.970 126.147,295.172 125.873,291.200 127.327 M186.400 131.000 C 186.400 131.330,186.580 131.600,186.800 131.600 C 187.020 131.600,187.200 131.330,187.200 131.000 C 187.200 130.670,187.020 130.400,186.800 130.400 C 186.580 130.400,186.400 130.670,186.400 131.000 M256.431 132.625 C 253.642 135.802,252.032 141.225,254.657 138.600 C 254.987 138.270,255.142 138.000,255.001 138.000 C 254.861 138.000,255.115 137.481,255.567 136.846 C 257.875 133.605,258.575 130.184,256.431 132.625 M245.909 150.700 C 245.141 151.574,244.622 153.200,245.111 153.200 C 245.641 153.200,246.662 151.943,246.980 150.900 C 247.307 149.826,246.765 149.725,245.909 150.700 M274.377 205.489 C 273.839 207.420,272.807 209.728,272.802 209.012 C 272.798 208.375,274.587 203.257,274.755 203.423 C 274.841 203.508,274.670 204.437,274.377 205.489 M270.982 214.582 C 270.086 216.469,269.823 216.205,270.691 214.291 C 271.057 213.484,271.426 212.893,271.512 212.979 C 271.598 213.065,271.359 213.786,270.982 214.582 M268.800 219.324 C 268.800 219.611,268.535 220.196,268.212 220.624 C 267.680 221.326,267.670 221.275,268.100 220.100 C 268.611 218.703,268.800 218.493,268.800 219.324 M266.046 225.060 C 265.382 226.347,264.830 227.269,264.819 227.109 C 264.790 226.662,266.935 222.402,267.104 222.571 C 267.186 222.653,266.710 223.773,266.046 225.060 M221.637 227.265 C 221.395 227.961,221.287 228.621,221.398 228.732 C 221.710 229.044,221.992 228.622,222.384 227.254 C 222.855 225.614,222.209 225.624,221.637 227.265 M143.411 237.932 C 142.833 238.704,142.603 239.699,142.555 241.638 C 142.473 244.878,142.125 246.552,141.187 248.222 C 140.283 249.832,140.039 251.676,140.700 251.898 C 140.975 251.991,141.200 251.782,141.200 251.433 C 141.200 251.085,141.366 250.800,141.568 250.800 C 141.771 250.800,142.062 250.215,142.214 249.500 C 142.367 248.785,142.643 248.012,142.827 247.782 C 143.253 247.251,144.485 239.020,144.323 237.797 L 144.200 236.877 143.411 237.932 " stroke="none" fill="#a423bb" fill-rule="evenodd"></path><path id="path3" d="M191.183 130.100 C 190.440 131.035,190.148 131.546,190.535 131.236 C 191.263 130.651,192.977 128.400,192.694 128.400 C 192.606 128.400,191.926 129.165,191.183 130.100 M189.983 135.100 C 190.726 136.035,191.406 136.800,191.494 136.800 C 191.777 136.800,190.063 134.549,189.335 133.964 C 188.948 133.654,189.240 134.165,189.983 135.100 M192.627 138.600 C 193.214 139.370,193.838 140.000,194.013 140.000 C 194.188 140.000,193.774 139.370,193.092 138.600 C 192.411 137.830,191.787 137.200,191.706 137.200 C 191.625 137.200,192.040 137.830,192.627 138.600 " stroke="none" fill="#fc643c" fill-rule="evenodd"></path><path id="path4" d="M140.313 118.545 C 140.167 119.306,140.275 119.453,140.866 119.299 C 141.715 119.077,141.872 117.600,141.047 117.600 C 140.742 117.600,140.412 118.025,140.313 118.545 M189.062 132.331 C 188.157 133.331,188.223 133.704,189.500 134.830 L 190.600 135.800 189.700 134.774 C 188.624 133.548,188.599 133.285,189.462 132.331 C 189.826 131.929,190.034 131.600,189.924 131.600 C 189.814 131.600,189.426 131.929,189.062 132.331 M191.164 137.133 C 191.380 137.536,191.871 138.121,192.255 138.433 C 192.687 138.784,192.590 138.504,192.001 137.700 C 190.951 136.265,190.557 135.998,191.164 137.133 M120.400 168.600 C 120.400 168.930,120.670 169.200,121.000 169.200 C 121.330 169.200,121.600 168.930,121.600 168.600 C 121.600 168.270,121.330 168.000,121.000 168.000 C 120.670 168.000,120.400 168.270,120.400 168.600 M98.754 223.900 C 98.927 225.950,99.058 225.852,99.291 223.500 C 99.378 222.619,99.265 222.000,99.017 222.000 C 98.757 222.000,98.656 222.731,98.754 223.900 M97.200 230.200 C 97.200 230.530,97.380 230.800,97.600 230.800 C 97.820 230.800,98.000 230.530,98.000 230.200 C 98.000 229.870,97.820 229.600,97.600 229.600 C 97.380 229.600,97.200 229.870,97.200 230.200 M246.643 344.633 C 246.296 345.536,246.329 345.602,247.000 345.345 C 247.330 345.218,247.600 344.864,247.600 344.557 C 247.600 343.799,246.943 343.851,246.643 344.633 " stroke="none" fill="#fc6434" fill-rule="evenodd"></path><path id="path5" d="M190.392 116.500 C 190.022 117.263,190.035 117.304,190.478 116.765 C 190.765 116.416,191.270 116.025,191.600 115.896 C 192.086 115.707,192.070 115.657,191.514 115.632 C 191.137 115.614,190.632 116.005,190.392 116.500 M186.900 130.012 C 186.405 130.211,186.014 130.605,186.032 130.887 C 186.056 131.289,186.107 131.291,186.265 130.900 C 186.376 130.625,186.711 130.400,187.010 130.400 C 187.308 130.400,187.664 130.220,187.800 130.000 C 188.087 129.536,188.085 129.536,186.900 130.012 M246.650 149.714 C 245.993 150.194,246.001 150.229,246.773 150.229 C 247.228 150.229,247.600 149.997,247.600 149.714 C 247.600 149.431,247.544 149.200,247.476 149.200 C 247.409 149.200,247.036 149.431,246.650 149.714 M259.269 154.839 C 258.794 155.599,259.378 160.755,259.882 160.251 C 259.977 160.156,259.864 159.043,259.630 157.778 C 259.318 156.090,259.326 155.331,259.659 154.929 C 259.909 154.627,260.037 154.303,259.942 154.209 C 259.847 154.114,259.544 154.397,259.269 154.839 M260.053 161.400 C 260.029 162.350,261.504 168.472,261.546 167.600 C 261.562 167.270,261.237 165.560,260.824 163.800 C 260.411 162.040,260.064 160.960,260.053 161.400 M261.600 168.961 C 261.600 169.640,262.253 170.164,262.530 169.707 C 262.632 169.538,262.465 169.168,262.158 168.884 C 261.700 168.461,261.600 168.474,261.600 168.961 " stroke="none" fill="#d41494" fill-rule="evenodd"></path></g></svg>