<?xml version="1.0" encoding="iso-8859-1"?>
<!-- Generator: Adobe Illustrator 19.0.0, SVG Export Plug-In . SVG Version: 6.00 Build 0)  -->
<svg version="1.1" id="Layer_1" xmlns="http://www.w3.org/2000/svg" xmlns:xlink="http://www.w3.org/1999/xlink" x="0px" y="0px"
	 viewBox="0 0 512 512" style="enable-background:new 0 0 512 512;" xml:space="preserve">
<g>
	<g>
		<path d="M364.392,28.392C347.012,9.436,322.752,0,296.084,0h-72c-26.672,0-50.928,8.436-68.308,27.392
			c-17.38,18.956-25.676,45.024-23.364,71.592L148.408,284H371.76l15.996-186.016C390.064,71.412,381.768,47.344,364.392,28.392z"/>
	</g>
</g>
<g>
	<g>
		<path d="M376.084,300h-5.72H149.796h-5.712C124.236,300,104,312.152,104,332v24c0,18.496,16,33.764,32,35.764V504
			c0,2.208,5.876,8,8.084,8h16c2.208,0-0.084-5.792-0.084-8V396h192v108c0,2.208,5.876,8,8.084,8h16c2.208,0-0.084-5.792-0.084-8
			V391.764c20-2,32-17.268,32-35.764v-24C408,312.152,395.932,300,376.084,300z"/>
	</g>
</g>
<g>
</g>
<g>
</g>
<g>
</g>
<g>
</g>
<g>
</g>
<g>
</g>
<g>
</g>
<g>
</g>
<g>
</g>
<g>
</g>
<g>
</g>
<g>
</g>
<g>
</g>
<g>
</g>
<g>
</g>
</svg>
