<svg enable-background="new 0 0 500 500" viewBox="0 0 500 500" xmlns="http://www.w3.org/2000/svg" xmlns:xlink="http://www.w3.org/1999/xlink"><clipPath id="a"><path d="m380.3 272-62.7-4-189.4-122.6-.8-16.6 51.1-45.8 201.8 112.5z"/></clipPath><path d="m-175.8 153.5h.6v-1.2h-.6z" fill="#211d28"/><g fill="#332f3a"><path d="m119.7 227v158.9l6.4.4-.8-144z"/><path d="m125.3 387.6c-1.2.7-3.2.7-4.6 0s-1.4-1.8-.2-2.4c1.2-.7 3.3-.7 4.6 0 1.3.6 1.4 1.7.2 2.4z"/><path d="m168.4 266.5-44.2 103.1-.4 6.7 46.7-106.8z"/><path d="m123.2 253.9 46.8 144.2.6-5.4-44-138.6z"/><path d="m134.9 261.8c20.1 10.1 52.7 10.1 73-.2 20.2-10.3 20.3-26.8.2-36.9s-52.7-10.1-73 .2c-20.2 10.3-20.3 26.8-.2 36.9z"/><path d="m138.1 384.3c-9.9-4.9-15.4-11.8-15.6-19.2-.2-7.2 4.7-14 13.7-19.2 19.3-11 51.8-11.1 71-.2 8.9 5.1 13.8 11.8 13.5 19-.2 7.4-6 14.5-15.9 19.5-9.4 4.8-21.5 7.2-33.6 7.2-11.9-.1-23.9-2.4-33.1-7.1zm-.1-36c-8 4.6-12.4 10.5-12.2 16.7.2 6.4 5.1 12.4 14 16.8 17.7 8.9 45.6 8.8 63.4-.2 8.8-4.5 14-10.7 14.2-17.1.2-6.1-4.1-12-12-16.5-9-5.1-21.3-7.7-33.5-7.7-12.4.1-24.8 2.8-33.9 8z"/><path d="m223.4 226.9-.1 158.9-6.5.3.9-143.9z"/><path d="m217.7 387.4c1.2.7 3.2.7 4.6 0s1.4-1.8.2-2.4c-1.2-.7-3.3-.7-4.6 0-1.4.7-1.4 1.7-.2 2.4z"/><path d="m119.9 226.7 103.2-1.9v18.4l-103.1-1z"/><path d="m168.6 411.9c1.6.8 4.3.8 5.9 0s1.6-2.2 0-3-4.3-.8-5.9 0-1.6 2.2 0 3z"/><path d="m175.6 410.2-.9-150.9h-6.6l-.7 151.3z"/><path d="m174.8 266.5 44.2 103 .4 6.6-46.7-106.6z"/><path d="m219.8 253.8-46.7 144.3-.8-5.4 44-138.7z"/></g><path d="m134.9 246.4c20.1 10.2 52.9 10.1 73.2-.2s20.4-26.9.2-37.1c-20.1-10.2-52.9-10.1-73.2.2s-20.4 26.9-.2 37.1z" fill="#464051"/><path d="m203.7 244.9c20.3-10.3 20.4-26.9.2-37.1-2.8-1.4-5.9-2.6-9.1-3.6 4.8 1.2 9.4 2.8 13.4 4.9 20.1 10.2 20.1 26.7-.2 37.1-17.4 8.8-44.1 10.1-64.1 3.8 19.4 4.8 43.6 3.1 59.8-5.1z" fill="#706c7f"/><path d="m134.9 182.8c13.2 6.7 31.9 8.9 48.9 6.8l.1.1v38.6s-21 3.2-39.8-3c-25.2-8.4-24.3-21.1-24.3-21.1v-38.6c.5 6.2 5.5 12.4 15.1 17.2z" fill="#332f3a"/><path d="m120.1 163.7c2-1 4.3.1 4.6 2.1.7 5.3 5.1 10.6 13.1 14.7 11.5 5.8 27.7 7.8 42.6 6 1.8-.2 3.4 1 3.4 2.6v2c-17 2.2-35.8 0-49-6.8-11.1-5.6-16.1-13.2-14.9-20.6z" fill="#464051"/><path d="m133.6 252h10.4v-51.1h-10.4z" fill="#332f3a"/><path d="m234.2 101.9-95.2 82.4" fill="none"/><g clip-path="url(#a)"><path d="m130.7 131.1 211 121.4 50.2-29-211-121.5z" fill="#c78134"/><path d="m374.6 228.3 4.5 2.6-11.9 6.9-4.6-2.6z" fill="#bf772f"/><path d="m335.4 220.5 31 17.8-11.9 6.9-31-17.9z" fill="#bf772f"/><path d="m351.2 200.1 40.7 23.4-12 6.9-40.6-23.4z" fill="#bf772f"/><path d="m286.7 191.4-115.3-66.3 11.9-7 115.3 66.4z" fill="#bf772f"/><path d="m170.6 125.5 28.1 16.2-12 6.9-43.2-24.9 11.9-6.9 14 8.1z" fill="#bf772f"/><path d="m247.9 140.7-11.8 6.8-67.2-38.6 12-6.9z" fill="#bf772f"/><path d="m250.7 186.4-11.9 6.9-75.7-43.5 11.9-7z" fill="#bf772f"/><path d="m251.9 187 43.6 25.2-12 6.8-43.6-25z" fill="#bf772f"/><path d="m346.2 201.6-3 1.8-75.7-43.6 3.1-1.7z" fill="#cc8433"/><path d="m269.9 167.9-2.1 1.2-75.7-43.5 2.1-1.2z" fill="#cc8433"/><path d="m289.8 189.5-3 1.7-44.1-25.3 3.1-1.7z" fill="#cc8433"/><path d="m198.4 141.7-3.1 1.8-28.9-16.6 3-1.8z" fill="#cc8433"/><path d="m334.1 244.4-3 1.8-46.1-26.5 3-1.7z" fill="#cc8433"/><path d="m373.3 227.8-3 1.7-44-25.3 3-1.8z" fill="#cc8433"/><path d="m321 223.3-2.2 1.2-119.5-68.9 2.1-1.2z" fill="#cc8433"/><g fill="#99582c"><path d="m142.7 124.2 211 121.4.8-.4-211-121.5z"/><path d="m155.4 116.8 211 121.5.8-.5-210.9-121.4z"/><path d="m168.1 109.4 211 121.5.8-.5-211-121.5z"/><path d="m339.1 207.1 12.2-7.1-1.1-.7-12.3 7.2z"/><path d="m362.6 235.2 12.3-7.1-1.2-.7-12.3 7.2z"/><path d="m236.9 148.4 12.3-7.1-1.1-.7-12.3 7.1z"/><path d="m323.4 227.4 12.2-7.1-1.1-.7-12.2 7.1z"/><path d="m187.8 149.3 12.3-7.1-1.2-.7-12.3 7.1z"/><path d="m171.5 125 12.3-7.2-1.2-.6-12.2 7.1z"/><path d="m287.8 192.2 12.2-7.1-1.2-.7-12.2 7.1z"/><path d="m284.6 219.8 12.6-7.3-1.3-.7-12.4 7.3z"/><path d="m163.2 149.6 12.6-7.2-1.2-.7-12.5 7.3z"/><path d="m239.8 194 12.5-7.2-1.1-.7-12.6 7.3z"/><path d="m314 182.8c-4.7-2.7-9.5-5.5-14.1-8.3-33.3-20.2-75.9-45.8-120.9-71.3l.4-.3c45 25.5 87.7 51.1 120.9 71.2 18.2 11.1 37.3 21.4 55.8 31.3 11.3 6.1 22.9 12.4 34.3 18.8l-.4.3c-11.4-6.4-23-12.7-34.3-18.8-13.8-7.3-27.9-14.9-41.7-22.9z"/><path d="m223.1 135.5c-17.1-9.1-34.6-18.4-51.5-28l.4-.3c16.9 9.7 34.4 19 51.5 28 22 11.7 44.8 23.8 65.8 36.4 28.8 17.4 59.1 36.5 92 58l-.4.3c-32.9-21.5-63.1-40.6-92-58-21-12.7-43.8-24.8-65.8-36.4z"/><path d="m258.7 158.3c-17.4-10.1-36-19.7-54-29.1-12.2-6.3-24.8-12.8-37-19.5l.4-.3c12.3 6.7 24.8 13.2 37 19.5 18 9.3 36.7 19 54 29.1 31.8 18.5 61.7 38.7 90.7 58.2 8.3 5.6 16.8 11.3 25.3 17l-.4.3c-8.6-5.7-17.1-11.4-25.4-17-28.9-19.6-58.8-39.7-90.6-58.2z"/><path d="m272.4 175c-7.8-4.1-15.7-8.3-23.4-12.4-30-15.9-60.9-32.3-91.9-46.7l.4-.3c31 14.4 61.9 30.8 91.8 46.7 7.7 4.1 15.7 8.4 23.4 12.4 41.8 22 73.3 41.4 98.6 60.6l-.4.3c-25.1-19.2-56.7-38.6-98.5-60.6z"/><path d="m248.7 181.1c-33.1-19.6-67-39.8-101.8-59.3l.4-.3c34.8 19.5 68.7 39.7 101.8 59.3 35 20.8 71 42.2 108 62.8l-.4.3c-11.3-6.3-22.4-12.6-33.5-19-25.4-14.6-50.1-29.4-74.5-43.8z"/><path d="m292 203c23.2 13.3 52.5 29 61.8 31.2 1.4.3 2.4.3 2.8 0 6.4-4.1-45-34.6-45.5-34.9-3.8-2.2-73.1-39.2-78-36.3-.5.3-.4.9.2 1.7 4.1 5.4 31.3 22.6 56.5 37.1.8.4 1.5.8 2.2 1.2zm61.9 30.8c-16.7-3.8-111.9-58.8-119.8-69.1-.5-.7-.6-1.1-.3-1.3 4.2-2.4 68.3 31.2 77 36.2 6.5 3.7 50.7 30.9 45.3 34.3-.3.1-1.1.1-2.2-.1z"/><path d="m308.6 228.4c-17.1-9.8-34.8-19.8-51-30.3-35-22.6-74.7-47.7-117.7-72.2l.4-.3c43.1 24.4 82.8 49.6 117.9 72.2 16.2 10.4 33.9 20.5 51 30.2 12.4 7.1 25.1 14.3 37.3 21.7l-.5.3c-12.3-7.3-25-14.6-37.4-21.6z"/><path d="m203.6 170.8c-.3.2-.9.3-1.6.2-.8-.1-2-.3-3.3-.8l-1.8-1.1c2.4.9 4.1 1.4 5.1 1.5.5.1.9 0 1.1-.1.1-.1.2-.2.1-.5-1.5-4.6-46.6-31.1-66.3-42.5l.4-.2c19 11 65 37.9 66.6 42.8 0 .4 0 .6-.3.7z"/></g><path d="m131.1 131.3 210.6 121.2h.1v10h-.1l-211-121.6v-9.8z" fill="#a35a19"/><path d="m283.6 219.1 1.3.8v9.8l-1.3-.7z" fill="#894c22"/><path d="m240 194.1v9.8l-1.2-.8v-9.8z" fill="#894c22"/><path d="m163.3 149.8v9.8l-1.2-.7v-9.8z" fill="#894c22"/><path d="m341.8 252.5 50.1-29v9.9l-50.1 29.1z" fill="#b26b24"/><path d="m354.5 245.2v9.9l-.9.5v-10z" fill="#99582c"/><path d="m367.1 237.9h.1v9.8l-.8.5v-9.9z" fill="#99582c"/><path d="m380 230.4v9.9l-.9.5v-9.9z" fill="#99582c"/><path d="m380.8 229.9.5-.3c.1.9.1 1.8.2 2.8.2 2.2.3 4.5.4 6.8l-.5.3c-.1-2.3-.3-4.7-.4-7-.1-.9-.1-1.8-.2-2.6z" fill="#99582c"/><path d="m389.9 225v-.3l.5-.3-.1.7c-.2 1.9-.3 3.8-.3 5.7 0 1.4.1 2.5.4 3.6l-.5.3c-.3-1.1-.5-2.4-.5-3.8.1-2 .3-4.1.5-5.9z" fill="#99582c"/><path d="m374.7 233.4.5-.3c-.1 1.9 0 3.9.1 5.9.1 1.3.1 2.6.1 3.8l-.5.3c0-1.4-.1-2.8-.1-4.1-.1-1.8-.1-3.8-.1-5.6z" fill="#99582c"/><path d="m370.8 238.3c.1-.9.1-1.8.2-2.6l.5-.3c0 .9-.1 2-.2 3-.1 1.2-.2 2.5-.2 3.7s.1 2.3.4 3.2l-.5.3c-.3-1-.5-2.2-.5-3.5s.1-2.5.3-3.8z" fill="#99582c"/><path d="m357.4 248.2c-.2-.9-.5-2.1-.7-4.3l.4-.2h.1c.3 2.3.5 3.5.7 4.5.2.9.3 1.6.3 2.7 0 .7-.1 1.5-.1 2.2l-.5.3c.1-.8.2-1.7.2-2.5-.1-1.2-.2-1.8-.4-2.7z" fill="#99582c"/><path d="m346.4 249.8c.5 3.7.7 6.8.7 9.5l-.5.3c0-2.6-.3-5.8-.7-9.5z" fill="#99582c"/><path d="m393.3 212.9-1.4.8-211.1-121.4 1.2-.7z" fill="#706c7f"/><path d="m391.9 213.7 1.4-.8v19.7l-1.4.8z" fill="#464051"/><path d="m181.2 92.5 210.7 121.2v9.9l-.1.1-211-121.7v-9.7z" fill="#332f3a"/></g></svg>