<svg enable-background="new 0 0 500 500" viewBox="0 0 500 500" xmlns="http://www.w3.org/2000/svg" xmlns:xlink="http://www.w3.org/1999/xlink"><clipPath id="a"><path d="m461.5 292-92.9-6-280.5-181.5-1.2-24.6 75.6-67.9 299 166.7z"/></clipPath><path d="m-175.8 153.5h.6v-1.2h-.6z" fill="#211d28"/><g fill="#332f3a"><path d="m75.4 225.3v235.4l9.6.5-1.3-213.2z"/><path d="m83.8 463.1c-1.8 1-4.8 1-6.8 0s-2.1-2.6-.3-3.6 4.9-1 6.8 0 2.1 2.6.3 3.6z"/><path d="m147.6 283.8-65.5 152.7-.6 9.9 69.2-158.1z"/><path d="m80.6 265.2 69.3 213.5 1-8-65.2-205.2z"/><path d="m98 276.9c29.8 15 78.1 14.9 108.1-.3 29.9-15.2 30.1-39.7.3-54.7s-78.1-14.9-108.1.3c-29.9 15.2-30.1 39.7-.3 54.7z"/><path d="m102.7 458.3c-14.6-7.3-22.8-17.5-23.1-28.5-.3-10.6 6.9-20.7 20.3-28.4 28.6-16.3 76.7-16.5 105.1-.3 13.2 7.5 20.4 17.5 20 28.1-.3 11-8.9 21.5-23.5 28.9-13.9 7.1-31.8 10.6-49.7 10.6-17.7 0-35.4-3.5-49.1-10.4zm-.2-53.3c-11.9 6.8-18.4 15.6-18.1 24.7.3 9.5 7.6 18.3 20.7 24.9 26.2 13.2 67.5 13.1 93.9-.3 13.1-6.6 20.7-15.8 21-25.3.3-9-6-17.7-17.8-24.4-13.4-7.6-31.5-11.4-49.6-11.4-18.2.1-36.5 4-50.1 11.8z"/><path d="m229 225.1-.1 235.4-9.6.5 1.3-213.2z"/><path d="m220.6 462.9c1.8 1 4.8 1 6.8 0s2.1-2.6.3-3.6-4.9-1-6.8 0c-2 1-2.1 2.6-.3 3.6z"/><path d="m75.7 224.8 152.9-2.7v27.2l-152.7-1.5z"/><path d="m147.9 499.1c2.4 1.2 6.3 1.2 8.7 0s2.4-3.2 0-4.4-6.3-1.2-8.7 0-2.4 3.2 0 4.4z"/><path d="m158.3 496.6-1.4-223.4h-9.7l-1.1 224z"/><path d="m157.1 283.8 65.5 152.5.5 9.9-69.2-157.9z"/><path d="m223.7 265-69.2 213.7-1.1-8 65.2-205.4z"/></g><path d="m97.9 254c29.8 15.1 78.4 14.9 108.4-.3s30.2-39.8.3-54.9c-29.8-15.1-78.4-14.9-108.4.3s-30.2 39.8-.3 54.9z" fill="#464051"/><path d="m199.9 251.8c30-15.2 30.2-39.8.3-54.9-4.2-2.1-8.7-3.9-13.5-5.4 7.1 1.8 13.9 4.2 19.8 7.2 29.8 15.1 29.7 39.6-.3 54.9-25.8 13.1-65.3 15-94.9 5.7 28.7 7.2 64.6 4.7 88.6-7.5z" fill="#706c7f"/><path d="m97.9 159.8c19.6 9.9 47.3 13.2 72.4 10l.2.1v57.2s-31.1 4.8-58.9-4.5c-37.3-12.5-36-31.3-36-31.3v-57.2c.8 9.4 8.2 18.6 22.3 25.7z" fill="#332f3a"/><path d="m76.1 131.5c2.9-1.5 6.4.2 6.8 3.1 1 7.9 7.5 15.7 19.4 21.7 17.1 8.6 41.1 11.6 63.1 8.9 2.7-.3 5.1 1.5 5.1 3.9v3c-25.2 3.2-53 0-72.6-10-16.5-8.3-23.8-19.6-22-30.5z" fill="#464051"/><path d="m96.1 262.3h15.4v-75.6h-15.4z" fill="#332f3a"/><path d="m245 40-141 122" fill="none"/><g clip-path="url(#a)"><path d="m91.8 83.3 312.5 179.8 74.3-43-312.5-179.9z" fill="#c78134"/><path d="m453 227.2 6.7 3.8-17.6 10.3-6.8-3.9z" fill="#bf772f"/><path d="m395 215.6 45.9 26.4-17.7 10.2-45.9-26.4z" fill="#bf772f"/><path d="m418.4 185.4 60.2 34.7-17.7 10.2-60.2-34.6z" fill="#bf772f"/><path d="m322.8 172.6-170.8-98.3 17.7-10.3 170.8 98.4z" fill="#bf772f"/><path d="m150.8 75 41.6 23.9-17.7 10.3-64-36.9 17.7-10.2 20.7 11.9z" fill="#bf772f"/><path d="m265.4 97.4-17.6 10.2-99.4-57.2 17.7-10.2z" fill="#bf772f"/><path d="m269.5 165.1-17.7 10.3-112.1-64.5 17.7-10.3z" fill="#bf772f"/><path d="m271.3 166.1 64.5 37.2-17.7 10.2-64.6-37.1z" fill="#bf772f"/><path d="m411 187.7-4.5 2.6-112.1-64.5 4.5-2.6z" fill="#cc8433"/><path d="m297.9 137.8-3.1 1.8-112.1-64.5 3.1-1.8z" fill="#cc8433"/><path d="m327.4 169.7-4.5 2.6-65.2-37.5 4.5-2.6z" fill="#cc8433"/><path d="m192 99-4.5 2.6-42.9-24.6 4.5-2.6z" fill="#cc8433"/><path d="m393 251.1-4.5 2.6-68.2-39.2 4.5-2.6z" fill="#cc8433"/><path d="m451.1 226.4-4.5 2.6-65.2-37.5 4.5-2.6z" fill="#cc8433"/><path d="m373.6 219.8-3.2 1.8-177.1-102 3.1-1.8z" fill="#cc8433"/><g fill="#99582c"><path d="m109.5 73 312.5 179.9 1.2-.7-312.5-179.9z"/><path d="m128.4 62.1 312.5 179.9 1.2-.7-312.5-179.9z"/><path d="m147.2 51.1 312.5 179.9 1.2-.7-312.5-179.9z"/><path d="m400.4 195.8 18.1-10.5-1.7-1-18.2 10.6z"/><path d="m435.2 237.5 18.2-10.6-1.7-1-18.2 10.6z"/><path d="m249.1 108.8 18.2-10.5-1.7-1-18.2 10.5z"/><path d="m377.2 225.9 18.1-10.6-1.7-1-18.1 10.6z"/><path d="m176.3 110.2 18.2-10.5-1.7-1-18.2 10.5z"/><path d="m152.2 74.2 18.2-10.6-1.8-.9-18.1 10.5z"/><path d="m324.4 173.7 18.1-10.5-1.7-1-18.1 10.5z"/><path d="m319.7 214.6 18.6-10.8-1.8-1-18.5 10.8z"/><path d="m139.9 110.7 18.6-10.7-1.7-1-18.6 10.7z"/><path d="m253.4 176.4 18.5-10.7-1.7-1-18.6 10.8z"/><path d="m363.2 159.8c-7-4-14-8.2-20.9-12.3-49.3-29.9-112.4-67.8-179.1-105.6l.6-.4c66.7 37.8 129.9 75.7 179.1 105.5 27 16.4 55.3 31.7 82.7 46.4 16.7 9 33.9 18.3 50.8 27.8l-.6.4c-16.9-9.5-34.1-18.8-50.8-27.8-20.4-10.9-41.3-22.2-61.8-34z"/><path d="m228.6 89.7c-25.4-13.5-51.3-27.2-76.3-41.5l.6-.4c25 14.3 50.9 28.1 76.3 41.5 32.6 17.3 66.3 35.2 97.4 53.9 42.7 25.7 87.5 54 136.2 85.9l-.6.4c-48.7-31.9-93.5-60.2-136.2-85.9-31.1-18.7-64.8-36.6-97.4-53.9z"/><path d="m281.4 123.5c-25.7-15-53.3-29.2-80-43.1-18.1-9.4-36.7-19-54.8-28.9l.6-.4c18.2 9.9 36.7 19.5 54.8 28.9 26.7 13.8 54.4 28.2 80 43.1 47.1 27.4 91.4 57.3 134.3 86.2 12.3 8.3 24.9 16.7 37.5 25.2l-.6.4c-12.7-8.4-25.3-16.9-37.6-25.2-42.9-29-87.2-58.8-134.2-86.2z"/><path d="m301.7 148.3c-11.5-6-23.3-12.3-34.7-18.4-44.4-23.6-90.2-47.9-136.1-69.2l.6-.4c45.9 21.3 91.7 45.6 136 69.2 11.4 6.1 23.3 12.4 34.7 18.4 61.9 32.6 108.6 61.3 146 89.8l-.6.4c-37.3-28.5-84.1-57.3-145.9-89.8z"/><path d="m266.5 157.3c-49-29.1-99.2-59-150.8-87.8l.6-.4c51.6 28.9 101.8 58.8 150.8 87.9 51.9 30.8 105.2 62.5 160 93l-.6.4c-16.7-9.3-33.2-18.7-49.6-28.1-37.6-21.7-74.3-43.6-110.4-65z"/><path d="m330.7 189.7c34.3 19.7 77.7 43 91.6 46.2 2.1.5 3.5.5 4.2 0 9.5-6.1-66.6-51.3-67.4-51.7-5.6-3.2-108.2-58-115.5-53.8-.7.4-.6 1.3.3 2.5 6.1 8 46.4 33.4 83.7 55 1 .6 2 1.2 3.1 1.8zm91.6 45.6c-24.8-5.7-165.8-87.1-177.4-102.4-.8-1-.9-1.6-.4-1.9 6.2-3.6 101.1 46.2 114 53.6 9.6 5.5 75.1 45.7 67.1 50.8-.5.3-1.6.3-3.3-.1z"/><path d="m355.2 227.3c-25.3-14.5-51.5-29.4-75.6-44.9-51.9-33.4-110.6-70.7-174.4-106.9l.6-.4c63.8 36.2 122.6 73.5 174.6 106.9 24 15.4 50.2 30.4 75.5 44.8 18.4 10.5 37.2 21.2 55.3 32.2l-.6.4c-18.2-10.9-37-21.6-55.4-32.1z"/><path d="m199.7 142.1c-.5.3-1.3.4-2.4.3-1.2-.1-2.9-.5-4.9-1.2l-2.7-1.6c3.6 1.4 6 2 7.5 2.2.8.1 1.3 0 1.7-.2.2-.1.3-.3.2-.7-2.2-6.8-69-46.1-98.2-62.9l.6-.3c28.2 16.3 96.3 56.2 98.7 63.4 0 .5-.1.8-.5 1z"/></g><path d="m92.3 83.6 312 179.5h.1v14.7h-.1l-312.5-180.1v-14.4z" fill="#a35a19"/><path d="m318.2 213.6 1.9 1.1v14.6l-1.9-1.1z" fill="#894c22"/><path d="m253.7 176.5v14.5l-1.9-1.1v-14.5z" fill="#894c22"/><path d="m140 111v14.5l-1.8-1.1v-14.5z" fill="#894c22"/><path d="m404.4 263.1 74.2-43v14.7l-74.2 43z" fill="#b26b24"/><path d="m423.2 252.2v14.7l-1.3.7v-14.7z" fill="#99582c"/><path d="m441.9 241.4h.2v14.5l-1.3.8v-14.7z" fill="#99582c"/><path d="m461 230.3v14.7l-1.3.7v-14.7z" fill="#99582c"/><path d="m462.2 229.6.7-.4c.1 1.4.2 2.7.3 4.1.3 3.3.5 6.7.6 10l-.7.4c-.1-3.4-.4-7-.6-10.4-.1-1.2-.2-2.5-.3-3.7z" fill="#99582c"/><path d="m475.6 222.3v-.5l.8-.5-.1 1c-.3 2.8-.5 5.7-.5 8.4 0 2 .2 3.7.6 5.3l-.7.4c-.4-1.7-.7-3.6-.7-5.7.1-2.6.4-5.7.6-8.4z" fill="#99582c"/><path d="m453.2 234.8.8-.4c-.2 2.8 0 5.8.2 8.7.1 1.9.2 3.9.2 5.7l-.7.4c0-2-.1-4.1-.2-6.1-.3-2.7-.4-5.6-.3-8.3z" fill="#99582c"/><path d="m447.3 242c.1-1.3.2-2.6.3-3.9l.8-.4c0 1.4-.2 3-.3 4.4-.2 1.8-.3 3.7-.3 5.5s.2 3.4.6 4.8l-.7.4c-.5-1.5-.7-3.2-.7-5.2-.1-1.8.1-3.7.3-5.6z" fill="#99582c"/><path d="m427.5 256.7c-.3-1.3-.7-3.1-1.1-6.4l.6-.3h.1c.4 3.4.8 5.2 1.1 6.6s.5 2.3.5 4c0 1.1-.1 2.2-.2 3.3l-.8.5c.2-1.2.3-2.5.3-3.7 0-1.8-.2-2.7-.5-4z" fill="#99582c"/><path d="m411.3 259.1c.7 5.5 1 10.1 1.1 14.1l-.7.4c0-3.9-.4-8.6-1-14.1z" fill="#99582c"/><path d="m480.7 204.4-2.1 1.2-312.6-179.8 1.8-1.1z" fill="#706c7f"/><path d="m478.6 205.6 2.1-1.2v29.2l-2.1 1.2z" fill="#464051"/><path d="m166.5 26.1 312.1 179.5v14.7l-.1.1-312.5-180.2v-14.4z" fill="#332f3a"/></g></svg>