<svg enable-background="new 0 0 1000 1000" viewBox="0 0 1000 1000" xmlns="http://www.w3.org/2000/svg"><path d="m443.5 371.7-403.7 234.3 518.3 299.6 401.8-232.4z" fill="#e1f4fb"/><path d="m959.9 673.2v8.4l-401.8 232.4v-8.4z" fill="#8dc2c9"/><path d="m39.8 606v8.4l518.3 299.6v-8.4z" fill="#afd5db"/><path d="m434.9 193.5v183l517.8 301.7-.4-183.5z" fill="#eac075"/><path d="m441.8 197.5-394.3 229.4-.4 183.4 36.5-21.3-.2-7.5 243.5-141.6 6.3 3.8 108.2-62.8z" fill="#f7d48f"/><path d="m959.5 490-7.2 4.7.4 183 7.2-4.3z" fill="#dba858"/><path d="m959.5 490-7.2 4.7-517.4-301.2 7.2-4.3z" fill="#ffe9c2"/><path d="m40.2 422.1 7.3 4.8 401.7-233.6-7.1-4.3z" fill="#ffe9c2"/><path d="m333.2 282.9-6.3 3.7v153.3l6.3 3.8z" fill="#eac075"/><path d="m326.9 286.6-243.5 140.6v154.3l243.5-141.6z" fill="#fff"/><path d="m167.8 367.9h-3.2l-.4 166.6 3.6-2.1z" fill="#f7d48f"/><path d="m254.2 318h-3.2l-.4 166.6 3.6-2.1z" fill="#f7d48f"/><path d="m40.2 422.1 7.3 4.8-.4 183.4-7.3-4.3z" fill="#eac075"/><g clip-rule="evenodd" fill-rule="evenodd"><path d="m468 543.9v.2c0 .1-.1.1-.1.2-.1.1-.1.1-.2.2 0 0-.1.1-.1.1s-.1.1-.1.1l-17.6 10.3v2.8l17.5-10.2s.1-.1.1-.1c.1 0 .1-.1.1-.1.1-.1.1-.1.1-.2s0 0 0-.1c0 0 0-.1.1-.1v-.1-.1z" fill="#1f4351"/><path d="m449.2 555.2h-.1c-.2.1-.5.1-.8.1-.3 0-.6 0-.8-.1-.3-.1-.5-.2-.7-.3l-20.3-11.7c-.4-.2-.7-.6-.6-.9v2.8c0 .3.2.7.7.9l20.3 11.7c.1.1.2.1.3.2.1 0 .2.1.3.1h.1.1.2.2.2.1.1.2.3.1.1.2c.2-.1.3-.1.5-.2v-2.8c-.2.1-.5.2-.7.2z" fill="#294f5e"/><path d="m467.4 543c.9.5.9 1.3 0 1.8l-17.5 10.2c-.9.5-2.3.5-3.1 0l-20.3-11.7c-.9-.5-.9-1.3 0-1.8l17.5-10.2c.9-.5 2.3-.5 3.1 0z" fill="#376375"/><path d="m446.9 495.8.7 13.7-.7 36.5-3.6-2.1v-50.2z" fill="#041d33"/><path d="m446.9 495.8 3.6-2-.1 50.1-3.5 2.1z" fill="#08355c"/><path d="m432.1 512.4-2.9-1.7v-2.2l2.9 1.7z" fill="#367c83"/><path d="m465.1 486c0-.4.1-.7.1-1l-2.9-1.7c0 .4 0 .8-.1 1.2v.2c-.1.4-.2.8-.3 1.2v.1c-.1.4-.3.8-.5 1.3-.2.4-.4.8-.6 1.2-.2.4-.5.8-.7 1.1 0 0-.1.1-.1.1-.2.3-.5.6-.8.9-.1.1-.1.1-.2.2-.2.2-.4.4-.7.6-.1.1-.2.2-.3.3-.3.3-.7.5-1 .7l2.9 1.7c.3-.2.7-.4 1-.7.1-.1.2-.2.3-.3s.3-.3.5-.4c.1-.1.1-.1.2-.2s.1-.1.2-.2.1-.1.2-.2c.1-.2.3-.3.4-.5 0-.1.1-.1.1-.2 0 0 .1-.1.1-.1 0-.1.1-.1.1-.2.1-.2.2-.3.3-.5.1-.1.2-.3.3-.5.1-.1.1-.2.2-.4s.2-.3.2-.5c.1-.1.1-.3.2-.4.1-.2.1-.3.2-.5s.1-.3.2-.5c0-.1.1-.2.1-.2v-.1c0-.1 0-.1.1-.2.1-.2.1-.4.1-.6 0-.1 0-.2.1-.4 0-.1 0-.1 0-.2.1 0 .1-.1.1-.1z" fill="#041d33"/><path d="m465.2 484.9-2.9-1.6-.1-30 2.9 1.7z" fill="#041d33"/><path d="m465.1 455-2.9-1.7 1.9-1.1 2.9 1.7z" fill="#46aab4"/><path d="m456.9 492.5-27.7 16 2.9 1.7 27.7-16z" fill="#46aab4"/><path d="m467 453.9-1.9 1.1.1 29.9c0 3.4-2.4 7.5-5.3 9.2l-27.8 16v2.2l27.8-16c4-2.3 7.3-7.9 7.2-12.6z" fill="#08355c"/><path d="m477.1 498.1c0 .1 0 .2-.1.3 0 .1-.1.2-.2.3v.1c-.1.1-.2.2-.3.3s-.2.1-.2.2c-.1 0-.1.1-.2.1l-26.9 15.6v4.3l26.9-15.6c.1 0 .1-.1.2-.1.1-.1.2-.1.2-.2.1-.1.1-.1.2-.2 0 0 0 0 0-.1 0 0 0 0 0-.1 0 0 0-.1.1-.1 0-.1.1-.1.1-.2v-.1c0-.1 0-.1 0-.2z" fill="#1f4351"/><path d="m448.1 515.6c-.1 0-.1 0-.2 0-.4.1-.8.1-1.2.1 0 0 0 0-.1 0-.4 0-.8 0-1.2-.1-.4-.1-.8-.2-1.1-.4l-31.2-18c-.7-.4-1-.9-1-1.4v4.3c0 .5.3 1 1 1.4l31.2 18c.2.1.3.2.5.2.1.1.3.1.4.1s.1 0 .2.1h.1c.1 0 .2 0 .3.1h.3.3.1.2.4c.1 0 .3 0 .4-.1h.2.2c.1 0 .2 0 .3-.1.3-.1.5-.2.7-.3v-4.3c-.1.1-.4.3-.8.4z" fill="#294f5e"/><path d="m476.1 496.7c1.3.8 1.3 2 0 2.8l-26.9 15.6c-1.3.8-3.5.8-4.8 0l-31.2-18c-1.3-.8-1.3-2 0-2.8l26.9-15.6c1.3-.8 3.5-.8 4.8 0z" fill="#376375"/><path d="m482.5 461.7-.1 21.8c0 .2 0 .4-.1.5 0 .2-.1.3-.1.4 0 .1-.1.2-.1.2-.1.1-.2.3-.4.4l3.7-2.2c.1-.1.3-.2.4-.4h.1c0-.1.1-.1.1-.2s0-.1.1-.1v-.1-.1s0 0 0-.1v-.1-.1-.1-.1-21.8z" fill="#05345e"/><path d="m481.1 458.2c.1.2.3.3.4.5.1.2.2.3.3.5.1.2.2.4.3.6.1.2.2.4.2.6.1.2.1.4.1.6 0 .2.1.4.1.6l3.7-2.2v-.1-.1-.1-.1-.1-.1-.1-.1-.1-.1-.1-.1-.1s0-.1-.1-.1v-.1s0-.1-.1-.1c0 0 0-.1-.1-.1 0 0-.1-.1-.1-.1 0-.1-.1-.1-.1-.1-.1-.1-.1-.2-.2-.3 0-.1-.1-.1-.1-.2s-.1-.1-.1-.1-.1-.1-.1-.1-.1-.1-.1-.1-.1-.1-.1-.1 0-.1-.1-.1c0 0-.1-.1-.1-.1s-.1-.1-.1-.1-.1-.1-.1-.1 0 0-.1 0-.1-.1-.1-.1-.1-.1-.1-.1-.1 0-.1-.1c0 0-.1 0-.1-.1l-31.2-18h-.1s-.1 0-.1-.1h-.1-.1-.1s0 0-.1 0h-.1-.1-.1s0 0-.1 0 0 0 0 0h-.1-.1-.1c-.1 0-.1 0-.2 0s-.1.1-.2.1l-3.7 2.2c.1-.1.2-.1.4-.1h.4c.1 0 .3 0 .4.1.2.1.3.1.5.2l31.2 18c.2.1.3.2.5.3-.1-.5 0-.4.2-.3z" fill="#084478"/><path d="m480.1 457.5-31.2-18c-1.3-.8-2.4-.1-2.4 1.4l-.1 21.8c0 1.5 1.1 3.4 2.4 4.2l31.2 18c1.3.8 2.4.1 2.4-1.4l.1-21.8c0-1.6-1-3.4-2.4-4.2z" fill="#032747"/><path d="m395.6 460.6-.1 62-6.8 4 .2-66z" fill="#828994"/><path d="m388.9 460.6-.2 66-6.5-3.8.1-62.2z" fill="#98a0ad"/><path d="m309.9 519.7-.1 53.9-6.8 4 .2-57.9z" fill="#828994"/><path d="m303.2 519.7-.2 57.9-6.5-3.8.1-54.1z" fill="#98a0ad"/><path d="m321.8 624.3v.2c0 .1-.1.1-.1.2-.1.1-.1.1-.2.2 0 0-.1.1-.2.1 0 0-.1.1-.1.1l-17.5 10.2v2.8l17.5-10.2s.1-.1.1-.1c.1 0 .1-.1.1-.1.1 0 .1-.1.1-.1s0 0 0-.1c0 0 0-.1.1-.1v-.1-.1z" fill="#05345e"/><path d="m303 635.6h-.1c-.2.1-.5.1-.8.1-.3 0-.5 0-.8-.1-.3-.1-.5-.2-.7-.3l-20.3-11.7c-.4-.3-.6-.6-.6-.9v2.8c0 .3.2.7.6.9l20.3 11.7c.1.1.2.1.3.2.1 0 .2.1.3.1h.1.1.2.2.2.1.1.2.3.1.1.2c.2-.1.3-.1.5-.2v-2.8c-.1.1-.3.2-.6.2z" fill="#032747"/><path d="m321.2 623.4c.9.5.9 1.3 0 1.8l-17.5 10.2c-.9.5-2.3.5-3.1 0l-20.3-11.7c-.9-.5-.9-1.3 0-1.8l17.5-10.2c.9-.5 2.3-.5 3.1 0z" fill="#084478"/><path d="m300.8 576.2.6 13.7-.7 36.5-3.6-2.1.1-50.2z" fill="#041d33"/><path d="m300.8 576.2 3.5-2v50.1l-3.6 2.1z" fill="#08355c"/><path d="m317.3 573.9-29.8 17.2c-.4.2-.7.4-1.1.5-.1 0-.1 0-.2.1-.3.1-.6.2-.9.2h-.1c-.3 0-.6 0-.9 0-.3-.1-.6-.2-.8-.3l3.1 1.8c.1.1.2.1.3.1s.2.1.3.1h.2.1.3.4.1.1.2c.2 0 .3-.1.5-.1.1 0 .1 0 .2-.1.1 0 .1 0 .2-.1.1 0 .2-.1.3-.1.3-.1.5-.2.8-.4l29.8-17.2z" fill="#041d33"/><path d="m320.4 575.7-29.8 17.2c-3.2 1.8-5.7.4-5.7-3.3l-.1-32.1-2.1 1.2.1 32.1c0 4.9 3.5 6.9 7.8 4.5l29.8-17.2z" fill="#08355c"/><path d="m333.2 577c0 .1 0 .2-.1.4 0 .1-.1.2-.2.3v.1c-.1.1-.2.2-.3.3s-.2.1-.2.2c-.1 0-.1.1-.2.1l-26.9 15.6-.5 1.8.5 2.5 26.9-15.6c.1 0 .1-.1.2-.1.1-.1.2-.1.2-.2l.2-.2s0 0 0-.1c0 0 0 0 0-.1 0 0 0-.1.1-.1 0-.1.1-.1.1-.2v-.1c0-.1 0-.1 0-.2z" fill="#05345e"/><path d="m304.3 594.4c-.1 0-.1 0-.2 0-.4.1-.8.1-1.2.1-.4 0-.8 0-1.2-.1 0 0 0 0-.1 0-.4-.1-.8-.2-1.1-.4l-31.2-18c-.7-.4-1-.9-1-1.4v4.3c0 .5.3 1 1 1.4l31.2 18c.2.1.3.2.5.2.1.1.3.1.4.1s.1 0 .2.1h.1c.1 0 .2 0 .3.1h.3.3.1.2.4c.1 0 .3 0 .4-.1h.2.2c.1 0 .2 0 .3-.1.3-.1.5-.2.7-.3v-4.3c-.1.2-.5.3-.8.4z" fill="#032747"/><path d="m332.2 575.6c1.3.8 1.3 2 0 2.8l-26.9 15.6c-1.3.8-3.5.8-4.8 0l-31.2-18c-1.3-.8-1.3-2 0-2.8l26.9-15.6c1.3-.8 3.5-.8 4.8 0z" fill="#084478"/><path d="m543.4 591.9v.2c0 .1-.1.1-.1.2-.1.1-.1.1-.2.2 0 0-.1.1-.1.1s-.1.1-.1.1l-17.6 10.3v2.8l17.5-10.2s.1-.1.1-.1c.1 0 .1-.1.1-.1.1 0 .1-.1.1-.1s0 0 0-.1c0 0 0-.1.1-.1v-.1-.1z" fill="#05345e"/><path d="m524.6 603.3h-.1c-.2.1-.5.1-.8.1-.3 0-.6 0-.8-.1-.3-.1-.5-.2-.7-.3l-20.3-11.7c-.4-.2-.6-.6-.6-.9v2.8c0 .3.2.7.6.9l20.3 11.7c.1.1.2.1.3.2.1 0 .2.1.3.1h.1.1.2.2.2.1.1.2.3.1.1.2c.2-.1.3-.1.5-.2v-2.8c-.1 0-.4.1-.6.2z" fill="#032747"/><path d="m542.7 591c.9.5.9 1.3 0 1.8l-17.4 10.2c-.9.5-2.3.5-3.1 0l-20.3-11.7c-.9-.5-.9-1.3 0-1.8l17.5-10.2c.9-.5 2.3-.5 3.1 0z" fill="#084478"/><path d="m522.3 543.9.7 13.6-.7 36.5-3.6-2.1v-50.1z" fill="#041d33"/><path d="m522.3 543.9 3.6-2.1-.1 50.2-3.5 2z" fill="#08355c"/><path d="m507.5 560.4-2.9-1.6v-2.3l2.8 1.7z" fill="#367c83"/><path d="m540.5 534c0-.4.1-.7.1-1l-2.9-1.7c0 .4 0 .8-.1 1.2v.2c-.1.4-.1.8-.3 1.2v.1c-.1.4-.3.8-.5 1.3-.2.4-.4.8-.6 1.2-.2.4-.5.8-.7 1.1 0 0-.1.1-.1.1-.2.3-.5.6-.8.9-.1.1-.1.1-.2.2-.2.2-.4.4-.7.6-.1.1-.2.2-.3.3-.3.3-.7.5-1 .7l2.9 1.7c.3-.2.7-.4 1-.7.1-.1.2-.2.3-.3.2-.1.3-.3.5-.4l.2-.2.2-.2.2-.2c.1-.2.3-.3.4-.5 0-.1.1-.1.1-.2 0 0 .1-.1.1-.1.1-.1.1-.1.1-.2.1-.2.2-.3.3-.5.1-.1.2-.3.3-.5.1-.1.1-.2.2-.4s.2-.3.2-.5c.1-.1.1-.3.2-.4.1-.2.1-.3.2-.5s.1-.3.2-.5c0-.1.1-.2.1-.3v-.1c0-.1 0-.1.1-.2.1-.2.1-.4.1-.6 0-.1 0-.2.1-.4 0-.1 0-.1 0-.2 0 .1.1.1.1 0z" fill="#041d33"/><path d="m540.5 533-2.8-1.7-.1-29.9 2.9 1.6z" fill="#041d33"/><path d="m540.5 503-2.9-1.6 1.9-1.2 2.9 1.7z" fill="#46aab4"/><path d="m532.3 540.5-27.7 16 2.8 1.7 27.8-16z" fill="#46aab4"/><path d="m542.4 501.9-1.9 1.1.1 29.9c0 3.4-2.4 7.5-5.3 9.2l-27.8 16v2.2l27.8-16c4-2.3 7.3-7.9 7.2-12.6z" fill="#08355c"/><path d="m552.4 546.2c0 .1 0 .2-.1.3 0 .1-.1.2-.2.3v.1c-.1.1-.2.2-.3.3s-.2.1-.2.2c-.1 0-.1.1-.2.2l-26.9 15.6v4.3l26.9-15.6c.1 0 .1-.1.2-.1.1-.1.2-.1.2-.2l.2-.2s0 0 0-.1c0 0 0 0 0-.1 0 0 0-.1.1-.1 0-.1.1-.1.1-.2v-.1c0-.1 0-.1 0-.2z" fill="#1f4351"/><path d="m523.5 563.6c-.1 0-.1 0-.2 0-.4.1-.8.1-1.2.1-.4 0-.8 0-1.2-.1-.4-.1-.8-.2-1.1-.4l-31.2-18c-.7-.4-1-.9-1-1.4v4.3c0 .5.3 1 1 1.4l31.2 18c.2.1.3.2.5.2.1.1.3.1.4.1h.2.1c.1 0 .2 0 .3.1h.3.3.1.2.4c.1 0 .3 0 .4-.1h.2.2c.1 0 .2 0 .3-.1.3-.1.5-.2.7-.3v-4.3c-.2.3-.5.4-.9.5z" fill="#294f5e"/><path d="m551.4 544.7c1.3.8 1.3 2 0 2.8l-26.9 15.6c-1.3.8-3.5.8-4.8 0l-31.2-18c-1.3-.8-1.3-2 0-2.8l26.9-15.6c1.3-.8 3.5-.8 4.8 0z" fill="#376375"/><path d="m557.9 509.7v21.8.5c0 .2-.1.3-.1.4 0 .1-.1.1-.1.2-.1.1-.2.3-.4.4l3.7-2.2c.1-.1.3-.2.4-.4h.1c0-.1.1-.1.1-.2s0-.1.1-.1v-.1-.1s0 0 0-.1 0 0 0-.1v-.1-.1-.1-.1-21.8z" fill="#05345e"/><path d="m556.4 506.3c.1.2.3.3.4.5.1.2.2.3.3.5.1.2.2.4.3.6.1.2.2.4.2.6.1.2.1.4.1.6v.6l3.7-2.2v-.1-.1-.1-.1-.1-.1-.1-.1-.1-.1-.1-.1-.1s0-.1-.1-.1v-.1s0 0 0 0 0-.1-.1-.1c0 0 0-.1-.1-.1 0-.1-.1-.1-.1-.1 0-.1-.1-.1-.1-.1-.1-.1-.1-.2-.2-.3 0-.1-.1-.1-.1-.2s-.1-.1-.1-.1-.1-.1-.1-.1-.1-.1-.1-.1-.1-.1-.1-.1-.1-.1-.1-.1-.1-.1-.1-.1-.1-.1-.1-.1-.1-.1-.1-.1 0 0-.1 0-.1-.1-.1-.1-.1-.1-.1-.1-.1 0-.1-.1c0 0-.1 0-.1-.1l-31.2-18h-.1s-.1 0-.1-.1h-.1-.1-.1s0 0-.1 0h-.1-.1-.1s0 0-.1 0h-.1-.1-.1c-.1 0-.1 0-.2 0s-.1.1-.2.1l-3.7 2.2c.1-.1.2-.1.4-.1h.4c.1 0 .3 0 .4.1.2.1.3.1.5.2l31.2 18c.2.1.3.2.5.3.1-.6.2-.5.3-.3z" fill="#084478"/><path d="m555.5 505.5-31.2-18c-1.3-.8-2.4-.1-2.4 1.4v21.8c0 1.5 1.1 3.4 2.4 4.2l31.2 18c1.3.8 2.4.1 2.4-1.4v-21.8c0-1.5-1.1-3.4-2.4-4.2z" fill="#032747"/><path d="m407.2 675v.2c0 .1-.1.1-.1.2 0 .1-.1.1-.2.2 0 0-.1.1-.1.1-.1 0-.1.1-.1.1l-17.5 10.2v2.8l17.5-10.2s.1-.1.1-.1c.1 0 .1-.1.1-.1.1 0 .1-.1.1-.1s0 0 0-.1c0 0 0-.1.1-.1v-.1-.1z" fill="#05345e"/><path d="m388.4 686.3h-.1c-.3.1-.5.1-.8.1-.3 0-.6 0-.8-.1-.3-.1-.5-.2-.7-.3l-20.3-11.7c-.4-.3-.7-.6-.6-.9v2.8c0 .3.2.7.7.9l20.3 11.7c.1.1.2.1.3.2.1 0 .2.1.3.1h.1.1.2.2.2.1.1.3.3.1.1.2c.2-.1.3-.1.5-.2v-2.8c-.3.1-.6.2-.8.2z" fill="#032747"/><path d="m406.6 674.1c.9.5.9 1.3 0 1.8l-17.5 10.2c-.9.5-2.3.5-3.1 0l-20.3-11.7c-.9-.5-.9-1.3 0-1.8l17.5-10.2c.9-.5 2.3-.5 3.1 0z" fill="#084478"/><path d="m386.2 626.9.6 13.7-.7 36.5-3.6-2.1v-50.2z" fill="#041d33"/><path d="m386.2 626.9 3.5-2.1v50.2l-3.6 2.1z" fill="#08355c"/><path d="m402.6 624.6-29.8 17.2c-.4.2-.7.4-1.1.5-.1 0-.1 0-.2.1-.3.1-.6.2-.9.2h-.1c-.3 0-.6 0-.9 0 0 0 0 0-.1 0-.3-.1-.6-.2-.8-.3l3.1 1.8c.1 0 .2.1.3.1s.2.1.3.1h.2.1.3.4.1.1.2c.2 0 .3-.1.5-.1.1 0 .1-.1.2-.1s.1 0 .2-.1c.1 0 .2-.1.3-.1.3-.1.5-.2.8-.4l29.8-17.2z" fill="#041d33"/><path d="m405.7 626.4-29.7 17.2c-3.2 1.8-5.7.4-5.7-3.3l-.1-32.1-2.1 1.2.1 32.1c0 4.9 3.5 6.9 7.8 4.5l29.8-17.2z" fill="#08355c"/><path d="m418.6 627.7c0 .1 0 .2-.1.3 0 .1-.1.2-.2.3v.1c-.1.1-.2.2-.3.3s-.2.1-.2.2c-.1 0-.1.1-.2.1l-26.9 15.6-.5 1.8.5 2.5 26.9-15.6c.1 0 .1-.1.2-.1.1-.1.2-.1.2-.2l.2-.2s0 0 0-.1c0 0 0 0 0-.1 0 0 0-.1.1-.1 0-.1.1-.1.1-.2v-.1c0-.1 0-.1 0-.2z" fill="#05345e"/><path d="m389.6 645.1c-.1 0-.1 0-.2 0-.4.1-.8.1-1.2.1-.4 0-.8 0-1.2-.1-.4-.1-.8-.2-1.1-.4l-31.2-18c-.7-.4-1-.9-1-1.4v4.3c0 .5.3 1 1 1.4l31.2 18c.2.1.3.2.5.2.1.1.3.1.4.1s.1 0 .2.1h.1c.1 0 .2 0 .3.1h.3.3.1.2.4c.1 0 .3 0 .4-.1h.2.2c.1 0 .2 0 .3-.1.3-.1.5-.2.7-.3v-4.3c-.1.2-.5.3-.9.4z" fill="#032747"/><path d="m417.6 626.3c1.3.8 1.3 2 0 2.8l-26.9 15.6c-1.3.8-3.5.8-4.8 0l-31.2-18c-1.3-.8-1.3-2 0-2.8l26.9-15.6c1.3-.8 3.5-.8 4.8 0z" fill="#084478"/><path d="m564.9 565.7-.2 62.1-6.7 3.9.1-66z" fill="#e6e6e6"/><path d="m558.1 565.7-.1 66-6.6-3.8.1-62.2z" fill="#d1d1d1"/><path d="m463.3 602.6 6.8-3.9-.2 83.6-6.7 3.9z" fill="#e6e6e6"/><path d="m463.3 602.6-.1 83.6-6.6-3.8.1-83.6z" fill="#d1d1d1"/><path d="m577.7 553.8v11.2c-39.5 23-79 45.9-118.5 68.9v-11.2c39.5-22.9 79-45.9 118.5-68.9z" fill="#f0f0f0"/><path d="m386.4 443.9 191.3 110c-39.5 23-79 45.9-118.5 68.9l-191.3-110c39.5-23 79-46 118.5-68.9z" fill="#fafafa"/><path d="m459.2 622.7v11.2l-191.3-110v-11.2z" fill="#e6e6e6"/><path d="m316.4 530.2c.5.3.8.9.8 1.4s-.3.7-.8.5c-.9-.4-.9-.9-.8-1.4s.4-.7.8-.5z" fill="#ecf3f6"/><path d="m300.4 553.5v21.8c0 .2 0 .4-.1.5 0 .2-.1.3-.1.4 0 .1-.1.1-.1.2-.1.1-.2.3-.4.4l3.7-2.2c.1-.1.3-.2.4-.4 0-.1.1-.1.1-.2s0-.1.1-.1v-.1-.1s0 0 0-.1 0 0 0-.1v-.1-.1-.1-.1-21.8z" fill="#05345e"/><path d="m299 550.1c.1.2.3.3.4.5.1.2.2.3.3.5l.3.6c.1.2.2.4.2.6.1.2.1.4.1.6v.6l3.7-2.2v-.1-.1-.1-.1-.1-.1-.1-.1-.1-.1-.1-.1-.1s0-.1-.1-.1v-.1s0-.1-.1-.1c0 0 0-.1-.1-.1 0 0 0-.1-.1-.1 0 0-.1-.1-.1-.1-.1-.1-.1-.2-.2-.3s-.1-.1-.1-.2-.1-.1-.1-.1-.1-.1-.1-.1-.1-.1-.1-.1-.1-.1-.1-.1 0-.1-.1-.1c0 0-.1-.1-.1-.1s-.1-.1-.1-.1-.1-.1-.1-.1 0 0-.1 0-.1-.1-.1-.1-.1-.1-.1-.1-.1 0-.1-.1c0 0-.1 0-.1-.1l-31.2-18h-.1-.1-.1-.1-.1s0 0-.1 0h-.1-.1-.1s0 0-.1 0h-.1-.1c-.1 0-.1 0-.1 0-.1 0-.1 0-.2 0s-.1.1-.2.1l-3.7 2.2c.1-.1.2-.1.4-.1h.4c.1 0 .3 0 .4.1.2.1.3.1.5.2l31.2 18c.2.1.3.2.5.3 0-.7.1-.6.3-.4z" fill="#084478"/><path d="m298 549.3-31.2-18c-1.3-.8-2.4-.1-2.4 1.4l-.1 21.8c0 1.5 1.1 3.4 2.4 4.2l31.2 18c1.3.8 2.4.1 2.4-1.4v-21.8c.1-1.5-.9-3.4-2.3-4.2z" fill="#032747"/><path d="m282.7 590.8-.1-32.1-3.1-1.8.1 32.1c0 1.5.3 2.8.9 3.7.4.6.8 1 1.3 1.3l3.1 1.8c-1.3-.8-2.2-2.5-2.2-5z" fill="#041d33"/><path d="m282.6 558.7-3.1-1.8 2.1-1.2 3.1 1.8z" fill="#041d33"/><path d="m290.5 592.9c-3.2 1.8-5.7.4-5.7-3.3l-.1-32.1-2.1 1.2.1 32.1c0 4.9 3.5 6.9 7.8 4.5z" fill="#08355c"/><path d="m385.9 604.2v21.8c0 .2 0 .4-.1.5 0 .2-.1.3-.1.4 0 .1-.1.1-.1.2-.1.1-.2.3-.4.4l3.7-2.2c.1-.1.3-.2.4-.4h.1c0-.1.1-.1.1-.2s0-.1.1-.1v-.1-.1s0 0 0-.1 0 0 0-.1v-.1-.1-.1-.1-21.8z" fill="#05345e"/><path d="m384.4 600.8c.1.2.3.3.4.5.1.2.2.3.3.5l.3.6c.1.2.2.4.2.6.1.2.1.4.1.6 0 .2.1.4 0 .6l3.7-2.2v-.1-.1-.1-.1-.1-.1-.1-.1-.1-.1-.1-.1-.1-.1-.1s0-.1-.1-.1c0 0 0-.1-.1-.1 0 0-.1-.1-.1-.1s-.1-.1-.1-.1c-.1-.1-.1-.2-.2-.3s-.1-.1-.1-.2-.1-.1-.1-.1-.1-.1-.1-.1-.1-.1-.1-.1-.1-.1-.1-.1-.1-.1-.1-.1-.1-.1-.1-.1-.1-.1-.1-.1-.1-.1-.1-.1 0 0-.1 0-.1-.1-.1-.1-.1-.1-.1-.1-.1 0-.1-.1c0 0-.1 0-.1-.1l-31.2-18h-.1s-.1 0-.1-.1h-.1-.1-.1s0 0-.1 0h-.1-.1-.1s0 0-.1 0h-.1-.1-.1c-.1 0-.1 0-.2 0s-.1.1-.2.1l-3.7 2.2c.1-.1.2-.1.4-.1h.4c.1 0 .3 0 .4.1.2.1.3.1.5.2l31.2 18c.2.1.3.2.5.3-.1-.6.1-.5.2-.3z" fill="#084478"/><path d="m383.5 600-31.2-18c-1.3-.8-2.4-.1-2.4 1.4l-.1 21.8c0 1.5 1.1 3.4 2.4 4.2l31.2 18c1.3.8 2.4.1 2.4-1.4v-21.8c.1-1.6-1-3.4-2.3-4.2z" fill="#032747"/><path d="m368.1 641.5-.1-32.1-3.1-1.8.1 32.1c0 1.5.3 2.8.9 3.7.4.6.8 1 1.3 1.3l3.1 1.8c-1.3-.8-2.2-2.5-2.2-5z" fill="#041d33"/><path d="m368.1 609.4-3.1-1.8 2-1.2 3.1 1.8z" fill="#041d33"/><path d="m376 643.6c-3.2 1.8-5.7.4-5.7-3.3l-.1-32.1-2.1 1.2.1 32.1c0 4.9 3.5 6.9 7.8 4.5z" fill="#08355c"/><path d="m619 633.3v.2c0 .1-.1.1-.1.2-.1.1-.1.1-.2.2 0 0-.1.1-.1.1s-.1.1-.1.1l-17.5 10.2v2.8l17.5-10.2s.1-.1.1-.1c.1 0 .1-.1.1-.1.1-.1.1-.1.1-.2s0 0 0-.1c0 0 0-.1.1-.1v-.1-.1z" fill="#1f4351"/><path d="m600.2 644.6h-.1c-.2.1-.5.1-.8.1-.3 0-.6 0-.8-.1-.3-.1-.5-.2-.7-.3l-20.3-11.7c-.4-.2-.7-.6-.6-.9v2.8c0 .3.2.7.7.9l20.3 11.7c.1.1.2.1.3.2.1 0 .2.1.3.1h.1.1.2.2.2.1.1.2.3.1.1.2c.2-.1.3-.1.5-.2v-2.8c-.2.1-.5.1-.7.2z" fill="#294f5e"/><path d="m618.4 632.4c.9.5.9 1.3 0 1.8l-17.5 10.2c-.9.5-2.3.5-3.1 0l-20.3-11.7c-.9-.5-.9-1.3 0-1.8l17.5-10.2c.9-.5 2.3-.5 3.1 0z" fill="#376375"/><path d="m597.9 585.2.7 13.7-.7 36.5-3.6-2.1v-50.2z" fill="#041d33"/><path d="m597.9 585.2 3.6-2.1-.1 50.2-3.5 2.1z" fill="#08355c"/><path d="m583.1 601.8-2.9-1.7v-2.2l2.9 1.7z" fill="#367c83"/><path d="m616.1 575.3c0-.4.1-.7.1-1l-2.9-1.7c0 .4 0 .8-.1 1.2v.2c-.1.4-.2.8-.3 1.2v.1c-.1.4-.3.8-.5 1.3-.2.4-.4.8-.6 1.2-.2.4-.5.8-.7 1.1 0 0-.1.1-.1.1-.2.3-.5.6-.8.9-.1.1-.1.1-.2.2-.2.2-.4.4-.7.6-.1.1-.2.2-.3.3-.3.3-.7.5-1 .7l2.9 1.7c.3-.2.7-.4 1-.7l.3-.3c.1-.1.3-.3.5-.4.1-.1.1-.1.2-.2s.1-.1.2-.2.1-.1.2-.2c.1-.2.3-.3.4-.5 0-.1.1-.1.1-.2 0 0 .1-.1.1-.1 0-.1.1-.1.1-.2.1-.2.2-.3.3-.5.1-.1.2-.3.3-.5.1-.1.1-.2.2-.4s.2-.3.2-.5c.1-.1.1-.3.2-.4.1-.2.1-.3.2-.5s.1-.3.2-.5c0-.1.1-.2.1-.2v-.1c0-.1 0-.1.1-.2.1-.2.1-.4.1-.6 0-.1 0-.2.1-.4 0-.1 0-.1 0-.2.1.1.1 0 .1-.1z" fill="#041d33"/><path d="m616.2 574.3-2.9-1.7-.1-29.9 2.9 1.7z" fill="#041d33"/><path d="m616.1 544.4-2.9-1.7 1.9-1.1 2.9 1.6z" fill="#46aab4"/><path d="m608 581.9-27.8 16 2.9 1.7 27.7-16.1z" fill="#46aab4"/><path d="m618 543.2-1.9 1.1.1 29.9c0 3.4-2.4 7.5-5.3 9.2l-27.8 16v2.2l27.8-16c4-2.3 7.3-7.9 7.2-12.6z" fill="#08355c"/><path d="m628.1 587.5c0 .1 0 .2-.1.3 0 .1-.1.2-.2.3v.1c-.1.1-.2.2-.3.3s-.2.1-.2.2c-.1 0-.1.1-.2.1l-26.9 15.6v4.3l26.9-15.6c.1 0 .1-.1.2-.1.1-.1.2-.1.2-.2.1-.1.1-.1.2-.2 0 0 0 0 0-.1 0 0 0 0 0-.1 0 0 0-.1.1-.1 0-.1.1-.1.1-.2v-.1c0-.1 0-.1 0-.2z" fill="#1f4351"/><path d="m599.1 604.9c-.1 0-.1 0-.2 0-.4.1-.8.1-1.2.1 0 0 0 0-.1 0-.4 0-.8 0-1.2-.1-.4-.1-.8-.2-1.1-.4l-31.2-18c-.7-.4-1-.9-1-1.4v4.3c0 .5.3 1 1 1.4l31.2 18c.2.1.3.2.5.2.1.1.3.1.4.1s.1 0 .2.1h.1c.1 0 .2 0 .3.1h.3.3.1.2.4c.1 0 .3 0 .4-.1h.2.2c.1 0 .2 0 .3-.1.3-.1.5-.2.7-.3v-4.3c-.1.2-.4.3-.8.4z" fill="#294f5e"/><path d="m627.1 586.1c1.3.8 1.3 2 0 2.8l-26.9 15.6c-1.3.8-3.5.8-4.8 0l-31.2-18c-1.3-.8-1.3-2 0-2.8l26.9-15.6c1.3-.8 3.5-.8 4.8 0z" fill="#376375"/><path d="m633.5 551-.1 21.8c0 .2 0 .4-.1.5 0 .2-.1.3-.1.4 0 .1-.1.2-.1.2-.1.1-.2.3-.4.4l3.7-2.2c.1-.1.3-.2.4-.4h.1c0-.1.1-.1.1-.2s0-.1.1-.1v-.1-.1s0 0 0-.1v-.1-.1-.1-.1-21.8z" fill="#05345e"/><path d="m632.1 547.6c.1.2.3.3.4.5.1.2.2.3.3.5.1.2.2.4.3.6.1.2.2.4.2.6.1.2.1.4.1.6 0 .2.1.4.1.6l3.7-2.2v-.1-.1-.1-.1-.1-.1-.1-.1-.1-.1-.1-.1-.1s0-.1-.1-.1v-.1s0-.1-.1-.1c0 0 0-.1-.1-.1 0 0-.1-.1-.1-.1 0-.1-.1-.1-.1-.1-.1-.1-.1-.2-.2-.3 0-.1-.1-.1-.1-.2s-.1-.1-.1-.1-.1-.1-.1-.1-.1-.1-.1-.1-.1-.1-.1-.1 0-.1-.1-.1c0 0-.1-.1-.1-.1s-.1-.1-.1-.1-.1-.1-.1-.1 0 0-.1 0-.1-.1-.1-.1-.1-.1-.1-.1-.1 0-.1-.1c0 0-.1 0-.1-.1l-31.2-18h-.1s-.1 0-.1-.1h-.1-.1-.1s0 0-.1 0h-.1-.1-.1s0 0-.1 0h-.1-.1-.1c-.1 0-.1 0-.2 0s-.1.1-.2.1l-3.7 2.2c.1-.1.2-.1.4-.1h.4c.1 0 .3 0 .4.1.2.1.3.1.5.2l31.2 18c.2.1.3.2.5.3-.1-.6 0-.4.2-.3z" fill="#084478"/><path d="m631.1 546.8-31.2-18c-1.3-.8-2.4-.1-2.4 1.4l-.1 21.8c0 1.5 1.1 3.4 2.4 4.2l31.2 18c1.3.8 2.4.1 2.4-1.4l.1-21.8c0-1.5-1-3.4-2.4-4.2z" fill="#032747"/><path d="m546.6 550-.1 62-6.8 3.9.2-65.9z" fill="#828994"/><path d="m539.9 550-.2 65.9-6.5-3.8.1-62.1z" fill="#98a0ad"/><path d="m460.9 609.1-.1 53.9-6.8 3.9.2-57.8z" fill="#828994"/><path d="m454.2 609.1-.2 57.8-6.5-3.8.1-54z" fill="#98a0ad"/><path d="m472.8 713.7v.2c0 .1-.1.1-.1.2-.1.1-.1.1-.2.2 0 0-.1.1-.2.1 0 0-.1.1-.1.1l-17.5 10.2v2.8l17.5-10.2s.1-.1.1-.1c.1 0 .1-.1.1-.1.1 0 .1-.1.1-.1s0 0 0-.1c0 0 0-.1.1-.1v-.1-.1z" fill="#05345e"/><path d="m454 725h-.1c-.2.1-.5.1-.8.1-.3 0-.5 0-.8-.1-.3-.1-.5-.2-.7-.3l-20.3-11.7c-.4-.3-.6-.6-.6-.9v2.8c0 .3.2.7.6.9l20.3 11.7c.1.1.2.1.3.2.1 0 .2.1.3.1h.1.1.2.2.2.1.1.2.3.1.1.2c.2-.1.3-.1.5-.2v-2.8c-.1.1-.3.1-.6.2z" fill="#032747"/><path d="m472.2 712.8c.9.5.9 1.3 0 1.8l-17.5 10.2c-.9.5-2.3.5-3.1 0l-20.3-11.8c-.9-.5-.9-1.3 0-1.8l17.5-10.2c.9-.5 2.3-.5 3.1 0z" fill="#084478"/><path d="m451.8 665.6.6 13.7-.7 36.5-3.6-2.1.1-50.2z" fill="#041d33"/><path d="m451.8 665.6 3.5-2.1v50.2l-3.6 2.1z" fill="#08355c"/><path d="m468.3 663.3-29.8 17.2c-.4.2-.7.4-1.1.5-.1 0-.1 0-.2.1-.3.1-.6.2-.9.2h-.1c-.3 0-.6 0-.9 0-.3-.1-.6-.2-.8-.3l3.1 1.8c.1.1.2.1.3.1s.2.1.3.1h.2.1.3.4.1.1.2c.2 0 .3-.1.5-.1.1 0 .1 0 .2-.1.1 0 .1 0 .2-.1.1 0 .2-.1.3-.1.3-.1.5-.2.8-.4l29.8-17.2z" fill="#041d33"/><path d="m471.4 665.1-29.8 17.2c-3.2 1.8-5.7.4-5.7-3.3l-.1-32.1-2.1 1.2.1 32.1c0 4.9 3.5 6.9 7.8 4.5l29.8-17.2z" fill="#08355c"/><path d="m484.2 666.4c0 .1 0 .2-.1.4 0 .1-.1.2-.2.3v.1c-.1.1-.2.2-.3.3s-.2.1-.2.2c-.1 0-.1.1-.2.1l-26.9 15.6-.5 1.8.5 2.5 26.9-15.6c.1 0 .1-.1.2-.1.1-.1.2-.1.2-.2l.2-.2s0 0 0-.1c0 0 0 0 0-.1 0 0 0-.1.1-.1 0-.1.1-.1.1-.2v-.1c0-.1 0-.1 0-.2z" fill="#05345e"/><path d="m455.3 683.8c-.1 0-.1 0-.2 0-.4.1-.8.1-1.2.1-.4 0-.8 0-1.2-.1 0 0 0 0-.1 0-.4-.1-.8-.2-1.1-.4l-31.2-18c-.7-.4-1-.9-1-1.4v4.3c0 .5.3 1 1 1.4l31.2 18c.2.1.3.2.5.2.1.1.3.1.4.1s.1 0 .2.1h.1c.1 0 .2 0 .3.1h.3.3.1.2.4c.1 0 .3 0 .4-.1h.2.2c.1 0 .2 0 .3-.1.3-.1.5-.2.7-.3v-4.3c-.1.2-.5.3-.8.4z" fill="#032747"/><path d="m483.2 665c1.3.8 1.3 2 0 2.8l-26.9 15.6c-1.3.8-3.5.8-4.8 0l-31.2-18c-1.3-.8-1.3-2 0-2.8l26.9-15.6c1.3-.8 3.5-.8 4.8 0z" fill="#084478"/><path d="m694.4 681.3v.2c0 .1-.1.1-.1.2-.1.1-.1.1-.2.2 0 0-.1.1-.1.1s-.1.1-.1.1l-17.5 10.2v2.8l17.5-10.2s.1-.1.1-.1c.1 0 .1-.1.1-.1.1 0 .1-.1.1-.1s0 0 0-.1c0 0 0-.1.1-.1v-.1-.1z" fill="#05345e"/><path d="m675.6 692.6h-.1c-.2.1-.5.1-.8.1-.3 0-.6 0-.8-.1-.3-.1-.5-.2-.7-.3l-20.3-11.7c-.4-.2-.6-.6-.6-.9v2.8c0 .3.2.7.6.9l20.3 11.7c.1.1.2.1.3.2.1 0 .2.1.3.1h.1.1.2.2.2.1.1.2.3.1.1.2c.2-.1.3-.1.5-.2v-2.8c-.1.1-.4.2-.6.2z" fill="#032747"/><path d="m693.7 680.4c.9.5.9 1.3 0 1.8l-17.5 10.2c-.9.5-2.3.5-3.1 0l-20.3-11.7c-.9-.5-.9-1.3 0-1.8l17.5-10.2c.9-.5 2.3-.5 3.1 0z" fill="#084478"/><path d="m673.3 633.2.7 13.7-.7 36.5-3.6-2.1v-50.2z" fill="#041d33"/><path d="m673.3 633.2 3.6-2-.1 50.1-3.5 2.1z" fill="#08355c"/><path d="m658.5 649.8-2.9-1.7v-2.2l2.8 1.7z" fill="#367c83"/><path d="m691.5 623.4c0-.4.1-.7.1-1l-2.9-1.7c0 .4 0 .8-.1 1.2v.2c-.1.4-.1.8-.3 1.2v.1c-.1.4-.3.8-.5 1.3-.2.4-.4.8-.6 1.2-.2.4-.5.8-.7 1.1 0 0-.1.1-.1.1-.2.3-.5.6-.8.9-.1.1-.1.1-.2.2-.2.2-.4.4-.7.6-.1.1-.2.2-.3.3-.3.3-.7.5-1 .7l2.9 1.7c.3-.2.7-.4 1-.7l.3-.3c.2-.1.3-.3.5-.4.1-.1.1-.1.2-.2s.1-.1.2-.2.1-.1.2-.2c.1-.2.3-.3.4-.5 0-.1.1-.1.1-.2 0 0 .1-.1.1-.1.1-.1.1-.1.1-.2.1-.2.2-.3.3-.5.1-.1.2-.3.3-.5.1-.1.1-.2.2-.4s.2-.3.2-.5c.1-.1.1-.3.2-.4.1-.2.1-.3.2-.5s.1-.3.2-.5c0-.1.1-.2.1-.3v-.1c0-.1 0-.1.1-.2.1-.2.1-.4.1-.6 0-.1 0-.2.1-.4 0-.1 0-.1 0-.2 0 .1.1 0 .1 0z" fill="#041d33"/><path d="m691.5 622.3-2.8-1.6-.1-30 2.9 1.7z" fill="#041d33"/><path d="m691.5 592.4-2.9-1.7 1.9-1.1 2.9 1.7z" fill="#46aab4"/><path d="m683.3 629.9-27.7 16 2.8 1.7 27.8-16z" fill="#46aab4"/><path d="m693.4 591.3-1.9 1.1.1 29.9c0 3.4-2.4 7.5-5.3 9.2l-27.8 16v2.2l27.8-16c4-2.3 7.3-7.9 7.2-12.6z" fill="#08355c"/><path d="m703.4 635.5c0 .1 0 .2-.1.3 0 .1-.1.2-.2.3v.1c-.1.1-.2.2-.3.3s-.2.1-.2.2c-.1 0-.1.1-.2.2l-26.9 15.6v4.3l26.9-15.6c.1 0 .1-.1.2-.1.1-.1.2-.1.2-.2l.2-.2s0 0 0-.1c0 0 0 0 0-.1 0 0 0-.1.1-.1 0-.1.1-.1.1-.2v-.1c0-.1 0-.1 0-.2z" fill="#1f4351"/><path d="m674.5 653c-.1 0-.1 0-.2 0-.4.1-.8.1-1.2.1-.4 0-.8 0-1.2-.1-.4-.1-.8-.2-1.1-.4l-31.2-18c-.7-.4-1-.9-1-1.4v4.3c0 .5.3 1 1 1.4l31.2 18c.2.1.3.2.5.2.1.1.3.1.4.1h.2.1c.1 0 .2 0 .3.1h.3.3.1.2.4c.1 0 .3 0 .4-.1h.2.2c.1 0 .2 0 .3-.1.3-.1.5-.2.7-.3v-4.3c-.2.2-.5.4-.9.5z" fill="#294f5e"/><path d="m702.4 634.1c1.3.8 1.3 2 0 2.8l-26.9 15.6c-1.3.8-3.5.8-4.8 0l-31.2-18c-1.3-.8-1.3-2 0-2.8l26.9-15.6c1.3-.8 3.5-.8 4.8 0z" fill="#376375"/><path d="m708.9 599.1v21.8.5c0 .2-.1.3-.1.4 0 .1-.1.1-.1.2-.1.1-.2.3-.4.4l3.7-2.2c.1-.1.3-.2.4-.4h.1c0-.1.1-.1.1-.2s0-.1.1-.1v-.1-.1s0 0 0-.1 0 0 0-.1v-.1-.1-.1-.1-21.8z" fill="#05345e"/><path d="m707.4 595.6c.1.2.3.3.4.5.1.2.2.3.3.5.1.2.2.4.3.6.1.2.2.4.2.6.1.2.1.4.1.6v.6l3.7-2.2v-.1-.1-.1-.1-.1-.1-.1-.1-.1-.1-.1-.1-.1s0-.1-.1-.1v-.1s0 0 0 0 0-.1-.1-.1c0 0 0-.1-.1-.1 0-.1-.1-.1-.1-.1 0-.1-.1-.1-.1-.1-.1-.1-.1-.2-.2-.3 0-.1-.1-.1-.1-.2s-.1-.1-.1-.1-.1-.1-.1-.1-.1-.1-.1-.1-.1-.1-.1-.1-.1-.1-.1-.1-.1-.1-.1-.1-.1-.1-.1-.1-.1-.1-.1-.1 0 0-.1 0-.1-.1-.1-.1-.1-.1-.1-.1-.1 0-.1-.1c0 0-.1 0-.1-.1l-31.2-18h-.1s-.1 0-.1-.1h-.1-.1-.1s0 0-.1 0h-.1-.1-.1s0 0-.1 0h-.1-.1-.1c-.1 0-.1 0-.2 0s-.1.1-.2.1l-3.7 2.2c.1-.1.2-.1.4-.1h.4c.1 0 .3 0 .4.1.2.1.3.1.5.2l31.2 18c.2.1.3.2.5.3.1-.5.2-.4.3-.3z" fill="#084478"/><path d="m706.5 594.9-31.2-18c-1.3-.8-2.4-.1-2.4 1.4v21.8c0 1.5 1.1 3.4 2.4 4.2l31.2 18c1.3.8 2.4.1 2.4-1.4v-21.8c0-1.6-1.1-3.4-2.4-4.2z" fill="#032747"/><path d="m558.2 764.3v.2c0 .1-.1.1-.1.2 0 .1-.1.1-.2.2 0 0-.1.1-.1.1-.1 0-.1.1-.1.1l-17.5 10.2v2.8l17.5-10.2s.1-.1.1-.1c.1 0 .1-.1.1-.1.1 0 .1-.1.1-.1s0 0 0-.1c0 0 0-.1.1-.1v-.1-.1z" fill="#05345e"/><path d="m539.4 775.7h-.1c-.3.1-.5.1-.8.1-.3 0-.6 0-.8-.1-.3-.1-.5-.2-.7-.3l-20.3-11.7c-.4-.3-.7-.6-.6-.9v2.8c0 .3.2.7.7.9l20.3 11.7c.1.1.2.1.3.2.1 0 .2.1.3.1h.1.1.2.2.2.1.1.3.3.1.1.2c.2-.1.3-.1.5-.2v-2.8c-.3 0-.6.1-.8.2z" fill="#032747"/><path d="m557.6 763.4c.9.5.9 1.3 0 1.8l-17.5 10.2c-.9.5-2.3.5-3.1 0l-20.3-11.7c-.9-.5-.9-1.3 0-1.8l17.5-10.2c.9-.5 2.3-.5 3.1 0z" fill="#084478"/><path d="m537.2 716.3.6 13.7-.7 36.4-3.6-2v-50.2z" fill="#041d33"/><path d="m537.2 716.3 3.5-2.1v50.2l-3.6 2z" fill="#08355c"/><path d="m553.6 714-29.8 17.2c-.4.2-.7.4-1.1.5-.1 0-.1 0-.2.1-.3.1-.6.2-.9.2h-.1c-.3 0-.6 0-.9 0 0 0 0 0-.1 0-.3-.1-.6-.2-.8-.3l3.1 1.8c.1 0 .2.1.3.1s.2.1.3.1h.2.1.3.4.1.1.2c.2 0 .3-.1.5-.1.1 0 .1-.1.2-.1s.1 0 .2-.1c.1 0 .2-.1.3-.1.3-.1.5-.2.8-.4l29.8-17.2z" fill="#041d33"/><path d="m556.7 715.8-29.7 17.2c-3.2 1.8-5.7.4-5.7-3.3l-.1-32.1-2.1 1.2.1 32.1c0 4.9 3.5 6.9 7.8 4.5l29.8-17.2z" fill="#08355c"/><path d="m569.6 717.1c0 .1 0 .2-.1.3 0 .1-.1.2-.2.3v.1c-.1.1-.2.2-.3.3s-.2.1-.2.2c-.1 0-.1.1-.2.1l-26.9 15.6-.5 1.8.5 2.5 26.9-15.6c.1 0 .1-.1.2-.1.1-.1.2-.1.2-.2l.2-.2s0 0 0-.1c0 0 0 0 0-.1 0 0 0-.1.1-.1 0-.1.1-.1.1-.2v-.1c0-.1 0-.1 0-.2z" fill="#05345e"/><path d="m540.6 734.5c-.1 0-.1 0-.2 0-.4.1-.8.1-1.2.1-.4 0-.8 0-1.2-.1-.4-.1-.8-.2-1.1-.4l-31.2-18c-.7-.4-1-.9-1-1.4v4.3c0 .5.3 1 1 1.4l31.2 18c.2.1.3.2.5.2.1.1.3.1.4.1s.1 0 .2.1h.1c.1 0 .2 0 .3.1h.3.3.1.2.4c.1 0 .3 0 .4-.1h.2.2c.1 0 .2 0 .3-.1.3-.1.5-.2.7-.3v-4.3c-.1.2-.5.3-.9.4z" fill="#032747"/><path d="m568.6 715.6c1.3.8 1.3 2 0 2.8l-26.9 15.6c-1.3.8-3.5.8-4.8 0l-31.2-18c-1.3-.8-1.3-2 0-2.8l26.9-15.6c1.3-.8 3.5-.8 4.8 0z" fill="#084478"/><path d="m715.9 655.1-.2 62-6.7 4 .1-66z" fill="#e6e6e6"/><path d="m709.1 655.1-.1 66-6.6-3.8.1-62.2z" fill="#d1d1d1"/><path d="m614.3 692 6.8-3.9-.2 83.5-6.7 4z" fill="#e6e6e6"/><path d="m614.3 692-.1 83.6-6.6-3.9.2-83.5z" fill="#d1d1d1"/><path d="m728.7 643.2v11.2c-39.5 23-79 45.9-118.5 68.9v-11.2c39.5-23 79-45.9 118.5-68.9z" fill="#f0f0f0"/><path d="m537.4 533.2 191.3 110c-39.5 23-79 45.9-118.5 68.9l-191.3-110c39.5-23 79-45.9 118.5-68.9z" fill="#fafafa"/><path d="m610.2 712.1v11.1l-191.3-110v-11.1z" fill="#e6e6e6"/><path d="m467.4 619.6c.5.3.8.9.8 1.4s-.3.7-.8.5c-.9-.4-.9-.9-.8-1.4s.4-.8.8-.5z" fill="#ecf3f6"/><path d="m451.4 642.9v21.8c0 .2 0 .4-.1.5 0 .2-.1.3-.1.4 0 .1-.1.1-.1.2-.1.1-.2.3-.4.4l3.7-2.2c.1-.1.3-.2.4-.4 0-.1.1-.1.1-.2s0-.1.1-.1v-.1-.1s0 0 0-.1 0 0 0-.1v-.1-.1-.1-.1-21.8z" fill="#05345e"/><path d="m450 639.4c.1.2.3.3.4.5.1.2.2.3.3.5l.3.6c.1.2.2.4.2.6.1.2.1.4.1.6v.6l3.7-2.2v-.1-.1-.1-.1-.1-.1-.1-.1-.1-.1-.1-.1-.1s0-.1-.1-.1v-.1s0-.1-.1-.1c0 0 0-.1-.1-.1 0 0 0-.1-.1-.1 0 0-.1-.1-.1-.1-.1-.1-.1-.2-.2-.3s-.1-.1-.1-.2-.1-.1-.1-.1-.1-.1-.1-.1-.1-.1-.1-.1-.1-.1-.1-.1 0-.1-.1-.1c0 0-.1-.1-.1-.1s-.1-.1-.1-.1-.1-.1-.1-.1 0 0-.1 0-.1-.1-.1-.1-.1-.1-.1-.1-.1 0-.1-.1c0 0-.1 0-.1-.1l-31.2-18h-.1-.1-.1-.1-.1s0 0-.1 0h-.1-.1-.1s0 0-.1 0h-.1-.1c-.1 0-.1 0-.1 0-.1 0-.1 0-.2 0s-.1.1-.2.1l-3.7 2.2c.1-.1.2-.1.4-.1h.4c.1 0 .3 0 .4.1.2.1.3.1.5.2l31.2 18c.2.1.3.2.5.3 0-.6.1-.5.3-.4z" fill="#084478"/><path d="m449 638.7-31.2-18c-1.3-.8-2.4-.1-2.4 1.4l-.1 21.8c0 1.5 1.1 3.4 2.4 4.2l31.2 18c1.3.8 2.4.1 2.4-1.4v-21.8c.1-1.6-.9-3.4-2.3-4.2z" fill="#032747"/><path d="m433.7 680.2-.1-32.1-3.1-1.8.1 32.1c0 1.5.3 2.8.9 3.7.4.6.8 1 1.3 1.3l3.1 1.8c-1.3-.8-2.2-2.5-2.2-5z" fill="#041d33"/><path d="m433.6 648.1-3.1-1.8 2.1-1.2 3.1 1.8z" fill="#041d33"/><path d="m441.5 682.3c-3.2 1.8-5.7.4-5.7-3.3l-.1-32.1-2.1 1.2.1 32.1c0 4.9 3.5 6.9 7.8 4.5z" fill="#08355c"/><path d="m536.9 693.5v21.8c0 .2 0 .4-.1.5 0 .2-.1.3-.1.4 0 .1-.1.1-.1.2-.1.1-.2.3-.4.4l3.7-2.2c.1-.1.3-.2.4-.4h.1c0-.1.1-.1.1-.2s0-.1.1-.1v-.1-.1s0 0 0-.1 0 0 0-.1v-.1-.1-.1-.1-21.8z" fill="#05345e"/><path d="m535.4 690.1c.1.2.3.3.4.5.1.2.2.3.3.5.1.2.2.4.3.6.1.2.2.4.2.6.1.2.1.4.1.6 0 .2.1.4 0 .6l3.7-2.2v-.1-.1-.1-.1-.1-.1-.1-.1-.1-.1-.1-.1-.1-.1-.1s0-.1-.1-.1c0 0 0-.1-.1-.1 0 0-.1-.1-.1-.1s-.1-.1-.1-.1c-.1-.1-.1-.2-.2-.3s-.1-.1-.1-.2-.1-.1-.1-.1-.1-.1-.1-.1-.1-.1-.1-.1-.1-.1-.1-.1-.1-.1-.1-.1-.1-.1-.1-.1-.1-.1-.1-.1-.1-.1-.1-.1 0 0-.1 0-.1-.1-.1-.1-.1-.1-.1-.1-.1 0-.1-.1c0 0-.1 0-.1-.1l-31.2-18h-.1s-.1 0-.1-.1h-.1-.1-.1s0 0-.1 0h-.1-.1-.1s0 0-.1 0h-.1-.1-.1c-.1 0-.1 0-.2 0s-.1.1-.2.1l-3.7 2.2c.1-.1.2-.1.4-.1h.4c.1 0 .3 0 .4.1.2.1.3.1.5.2l31.2 18c.2.1.3.2.5.3-.1-.6.1-.4.2-.3z" fill="#084478"/><path d="m534.5 689.4-31.2-18c-1.3-.8-2.4-.1-2.4 1.4l-.1 21.8c0 1.5 1.1 3.4 2.4 4.2l31.2 18c1.3.8 2.4.1 2.4-1.4v-21.8c.1-1.6-1-3.5-2.3-4.2z" fill="#032747"/><path d="m519.1 730.9-.1-32.1-3-1.8.1 32.1c0 1.5.3 2.8.9 3.7.4.6.8 1 1.3 1.3l3.1 1.8c-1.4-.8-2.3-2.6-2.3-5z" fill="#041d33"/><path d="m519.1 698.8-3.1-1.8 2-1.2 3.1 1.8z" fill="#041d33"/><path d="m527 733c-3.2 1.8-5.7.4-5.7-3.3l-.1-32.1-2.1 1.2.1 32.1c0 4.9 3.5 6.9 7.8 4.5z" fill="#08355c"/><path d="m765.1 437.4 7.2-4.1-.3 86.3-5 4.1h-2.2l-1.5-19.2z" fill="#1a1a1a"/><path d="m764.8 523.7 7.2-4.1 119.2 68.8-7.2 4.2-87-46.4z" fill="#363636"/><path d="m768.1 435.7-.3 86.3 119.2 68.8.3-86.3z" fill="#131313"/><path d="m888.9 502.8 8.7-4.2-.3 100.3-7.2 4.2z" fill="#1a1a1a"/><path d="m759 426.9 7.2-4.1 131.4 75.8-7.2 4.2-115.6-64.4z" fill="#363636"/><path d="m884 592.6-119.2-68.8.2-86.3 119.2 68.8zm-125-165.7-.3 100.3 131.3 75.8.3-100.3z" fill="#252525"/></g></svg>