<svg enable-background="new 0 0 500 500" viewBox="0 0 500 500" xmlns="http://www.w3.org/2000/svg"><path d="m461.5 307.7-2.3-1.4-34.9-69.6 5.6 3z" fill="#6d3c30"/><path d="m443.4 252.6 21 53.3-2.9 1.8-24.1-51.9z" fill="#4f2920"/><path d="m337.8 379.3 3.9-2.3 2.7-81.3-5.6 3.1z" fill="#4f2920"/><path d="m337.8 379.3-2.6-1.6-1.4-79.7 5.6 3.1z" fill="#6d3c30"/><path d="m236.5 320.6 4-2.3 2.6-81.2-5.6 3z" fill="#4f2920"/><path d="m236.5 320.6-2.6-1.5-1.4-79.8 5.6 3.1z" fill="#6d3c30"/><path d="m231.9 260.5.2-84.5s116.8-16.4 134.8-96c0 0 9.6 70.8-23.5 139.3z" fill="#e0ba9e"/><path d="m233.9 171.2s30.2-84.3 131.1-110.8l-112.9 116.8z" fill="#e0ba9e"/><path d="m432.7 72.9c-98.5-56.9-188.4 43.8-200.9 96.4v91.2l15 8.8v-89.9s3-21 31.8-53.8c35.1-40.1 88.2-67.6 139-40.5z" fill="#e5bca4"/><path d="m362.8 233c-28.6 10.1-55.4 7.3-71.6-2.1-19.8-11.4-37.4-89.1-39.2-62 3.7-54.9 106.6-141 180.8-96.1 78.7 47.8-6.4 137.8-70 160.2z" fill="#e0ba9e"/><path d="m246.9 241.4v27.9l80.7 46.6v-27.9z" fill="#e5bca4"/><path d="m434.4 238.9c-39.4-22.7-162-2.5-202 21l112.5 66.5c39.6-22.5 129.1-64.6 89.5-87.5z" fill="#e0ba9e"/><path d="m387.7 201.7c-39-23.4-115.9 18.4-140.2 39.4-.2.2-.4.2-.6.3l80.6 46.5c28.3-16 99.2-62.8 60.2-86.2z" fill="#ffe6cf"/><path d="m246.9 241.4 80.7 46.7c0 .1-47.4-36.1-80.7-46.7z" fill="#fff6ee"/><path d="m248.3 270.1v-27.8l-1.4-.9v27.9z" fill="#e0ba9e" opacity=".4"/><path d="m432.7 72.9c-105.8-61.1-198.5 60.3-200.9 97.9l15 8.7v-.1s3-21 31.8-53.8c35.1-40.1 88.2-67.6 139-40.5z" fill="#ffdcc5"/><path d="m392.4 205.1c-1.3-1.2-2.9-2.3-4.7-3.4-39-23.4-115.9 18.4-140.2 39.4-.2.2-.4.2-.6.3l21.7 12.5c16.5-20.2 68.1-77.2 123.8-48.8z" fill="#e0ba9e" opacity=".3"/><path d="m417.7 85.1c-50.8-27.1-103.9.4-139 40.5-26.9 30.7-31.3 51-31.8 53.6v62.3c.2-.1.4-.2.6-.3 16.2-14 55.7-37.2 91.8-44.2 21.6-109.8 97.1-98.4 97.1-98.4-4.5-4.8-10.7-9.3-18.7-13.5z" fill="#e0ba9e" opacity=".3"/><path d="m344.9 306.1v-70.7s105-38.4 123-118c0 0 .9 6.1 1.2 16.5.8 24.4-28.6 88.5-24.9 118.6z" fill="#e0ba9e"/><path d="m417.7 85.1c48.9 26.1 29.4 61-6.2 91.8s-84 49.4-84 49.4v89.6l17.3 10.5v-91.1s30.1-7.4 74.1-40.4c20-15 41-37.7 50-61.2-.2-6.7-.6-11.7-.9-14.3-.1-.6-.1-1.3-.2-1.9 0-.1 0-.2 0-.2-2.1-16.1-12.6-31.5-35.1-44.5z" fill="#e5bca4"/><path d="m231.9 170.8s5.4 6.6 15.5 8.4c-.1 0-8.7-6.2-15.5-8.4z" fill="#fff6ee"/><path d="m360.7 306.4c20.3-107.3 92.4-93.9 108.3-172.5 0 0-.9 2.6-3.1 7.1-13 26.7-37.3 48.5-62.2 64.9-35.6 23.8-58.8 29.5-58.8 29.5s0 85.3 0 91.1c21.1-12.9 99.4-47.6 99.4-74-.1-.1-7.3 27-83.6 53.9z" fill="#e0ba9e" opacity=".4"/><path d="m417.7 85.1c48.9 26.1 29.4 61-6.2 91.8-34.2 29.6-80.2 47.9-83.7 49.3l17 9.2s30.1-7.4 74.1-40.4c20-15 41-37.7 50-61.2-.2-6.7-.6-11.7-.9-14.3-.1-.6-.1-1.3-.2-1.9 0-.1 0-.2 0-.2-2.1-16.1-12.6-31.5-35.1-44.5z" fill="#ffdcc5"/><path d="m327.6 316v-27.8l-1.4-.9v27.9z" fill="#e0ba9e" opacity=".4"/><path d="m327.8 226.2s6.9 7.3 17 9.2c.1 0-10.1-7-17-9.2z" fill="#fff6ee"/><path d="m393.1 76.1s94.5 22 32.9 87.2c-.1-.1 68.2-61.2-32.9-87.2z" fill="#fff6ee"/><path d="m118.5 453.7c-16 0-31.9-3.5-44-10.5-12.3-7.1-19.1-16.7-19.1-27.1 0-10.5 6.9-20.2 19.3-27.4 24.5-14.1 64.2-14.2 88.6-.2 12.3 7.1 19.1 16.7 19.1 27.1 0 10.5-6.9 20.2-19.3 27.4-12.4 7.1-28.5 10.7-44.6 10.7zm-40.9-60c-10.6 6.1-16.4 14.1-16.4 22.4 0 8.2 5.7 16.1 16.2 22.1 22.8 13.1 59.9 13.1 82.8-.2 10.6-6.1 16.4-14.1 16.4-22.4 0-8.2-5.7-16.1-16.2-22.1-22.8-13.1-59.9-13-82.8.2z" fill="#211d28"/><path d="m80.6 440.9-5.9-3.4 85.6-49.4 5.9 3.4z" fill="#211d28"/><path d="m71.9 391.7 5.8-3.3 85.6 49.3-5.9 3.4z" fill="#211d28"/><path d="m118.5 449.6c-16 0-31.9-3.5-44-10.5-12.4-7.1-19.1-16.7-19.1-27.1 0-10.5 6.9-20.2 19.3-27.4 24.5-14.1 64.2-14.2 88.6-.2 12.3 7.1 19.1 16.7 19.1 27.1 0 10.5-6.9 20.2-19.3 27.4-12.4 7.1-28.5 10.7-44.6 10.7zm-40.9-60c-10.6 6.1-16.5 14.1-16.5 22.4 0 8.2 5.7 16.1 16.2 22.1 22.8 13.1 59.9 13.1 82.8-.2 10.6-6.1 16.4-14.1 16.4-22.4 0-8.2-5.7-16.1-16.2-22.1-22.7-13.1-59.8-13-82.7.2z" fill="#332f3a"/><path d="m78.3 435.7-6-3.5 84.8-48.9 6 3.5z" fill="#332f3a"/><path d="m74.5 386.6 6-3.5 84.6 48.8-6.1 3.4z" fill="#332f3a"/><path d="m145.8 427.7-6-3.5v-157l6 3.5z" fill="#332f3a"/><path d="m145.8 427.7 6-3.5v-157l-6 3.5z" fill="#211d28"/><path d="m92.5 427.5-6-3.4v-157.1l6 3.5z" fill="#332f3a"/><path d="m92.5 427.5 6-3.4v-157.1l-6 3.5z" fill="#211d28"/><path d="m118.9 412.3-6.3-3.6v-162.8l6.3 3.7z" fill="#332f3a"/><path d="m118.8 412.3 6.3-3.6v-162.8l-6.3 3.7z" fill="#211d28"/><path d="m20.8 256.8h196.2v12.6h-196.2z" fill="#4f2920"/><path d="m49.7 227.7c38.5-22.2 100.6-22.3 138.8-.3 38.2 22.1 38 57.9-.4 80.1-38.5 22.2-100.6 22.3-138.8.3-38.2-22-38-57.9.4-80.1z" fill="#4f2920"/><path d="m49.7 217.7c38.4-22.2 100.6-22.3 138.8-.3 38.2 22.1 38 57.9-.4 80.1s-100.6 22.3-138.8.3c-38.2-22-38-57.9.4-80.1z" fill="#633927"/><path d="m112.7 314.2 31.1-18 .4.2 1.5-.9-.4-.2 71.4-41.3c.1.6.1 1.1.1 1.7l-101.3 58.5c-.8 0-1.8 0-2.8 0z" fill="#47271c"/><path d="m122.8 282.3-1.5.9.2.1-44.6 25.7c-.7-.2-1.4-.4-2-.6l68.3-39.4.8.4 1.5-.9-.8-.4 57.4-33.2.7.4 1.5-.9-.7-.4 3.1-1.8c.3.4.7.8 1 1.2l-84.9 49z" fill="#47271c"/><path d="m47.4 296.7 139.1-80.3c.5.3 1 .6 1.6.9l-139.2 80.3c-.5-.3-1-.6-1.5-.9z" fill="#47271c"/><path d="m28.5 280 96.5-55.7.2.1 1.5-.9-.2-.1 31.1-18c.7.2 1.4.3 2.1.5l-130.3 75.4c-.3-.4-.6-.8-.9-1.3z" fill="#47271c"/><path d="m103.8 210.3-1.5.9.4.2-81.9 47.3c0-.6 0-1.2 0-1.8l96.8-55.9h3l-16.5 9.5z" fill="#47271c"/><path d="m121.3 283.2 1.5-.9.2.1 22.4 13 .4.2-1.5.9-.4-.3-22.4-12.9z" fill="#47271c"/><path d="m102.2 211.2 1.6-.9.4.2 22.4 12.9.2.2-1.6.8-.2-.1-22.3-12.9z" fill="#47271c"/><path d="m181.5 221.2 22.2 12.9.7.4-1.5.9-.7-.4-22.3-12.9z" fill="#47271c"/><path d="m122.5 255.3 22.3 12.8.7.5-1.5.8-.8-.4-22.2-12.8z" fill="#47271c"/><path d="m37.2 229.9 41-23.7c5.7-1.5 11.6-2.7 17.5-3.6l-52.9 30.5z" fill="#683c26"/><path d="m68.5 235.6-47.4 27.4c-.2-1.4-.3-2.9-.4-4.3l43.8-25.3z" fill="#683c26"/><path d="m125.6 285.7-42.8 24.7c-1.9-.4-3.7-.9-5.5-1.3l44.4-25.7z" fill="#683c26"/><path d="m124.5 224.2-58.1 33.5-5.6-3.3 58-33.5z" fill="#683c26"/><path d="m148.8 286.8 66.9-38.7c.6 2 .9 3.9 1.1 5.9l-62.4 36z" fill="#683c26"/><path d="m197.9 230.5 4.7-2.7c1.5 1.4 2.8 2.8 4.1 4.2l-3.1 1.8z" fill="#683c26"/><path d="m46 292.6 136-78.5c1.4.7 2.8 1.4 4.2 2.2l-136.2 78.6z" fill="#683c26"/><path d="m202.9 286.7c-4.1 3.9-9 7.6-14.8 10.9-6.8 3.9-14.3 7.1-22.3 9.7l36.4-21z" fill="#683c26"/><path d="m188.1 297.6c-20 11.5-46.3 17.1-72.4 16.7l101.3-58.5c.6 15-9 30.3-28.9 41.8z" fill="#5b2f22"/><path d="m125 224.3-96.5 55.7c-5-6.8-7.6-14.1-7.7-21.4l81.9-47.3z" fill="#5b2f22"/><path d="m123 282.4 84.9-49c5.3 6.6 8.3 13.6 9 20.7l-71.4 41.3z" fill="#5b2f22"/><path d="m143.2 269-68.3 39.4c-9.2-2.6-17.9-6.2-25.6-10.6-.1-.1-.2-.1-.4-.2l71.9-41.5z" fill="#5b2f22"/><path d="m144.8 268.1-22.4-12.9 57.4-33.2 22.4 13z" fill="#5b2f22"/><g fill="#47271c"><path d="m34.4 229.1c.7-.7 1.5-1.5 2.3-2.2 12.1-6.6 23.6-12.8 34.5-18.6 1.3-.4 2.5-.8 3.8-1.2-.2.1-.5.3-.7.4-12.4 6.7-25.8 14-39.9 21.6z"/><path d="m23.7 244.3c.2-.5.4-.9.6-1.4 14.6-9.1 29.6-18.1 45.2-26.5 8.3-4.5 16.8-9.1 25.6-13.6.8-.1 1.5-.2 2.3-.3-9.2 4.9-18.3 9.7-27 14.4-16.2 8.7-31.7 18-46.7 27.4z"/><path d="m21.2 252.6c.1-.4.1-.7.2-1.1 6.1-3.8 12.4-7.5 18.7-11.1 24.2-13.7 50-26.8 76.2-39.3h1.8c-26.6 12.7-52.8 25.9-77.3 39.8-6.5 3.8-13.1 7.7-19.6 11.7z"/><path d="m83.5 232.9c-9.1 6-18.7 12.2-27.9 18.1-10.6 6.8-21.2 13.7-31.8 20.7-.1-.3-.2-.5-.3-.8 10.4-6.8 20.9-13.6 31.3-20.4 9.2-6 18.8-12.1 27.9-18.1 17.3-11.3 34-21.6 50.5-30.9.5 0 .9.1 1.4.1-16.7 9.5-33.6 19.8-51.1 31.3z"/><path d="m41.5 292.7c-.2-.2-.5-.3-.7-.5 21.8-12.2 43.6-24.3 65.2-36.2 25.1-13.8 50.5-27.9 75.7-42.1.3.1.6.3.9.4-25.3 14.3-50.7 28.3-75.8 42.2-21.7 11.9-43.5 24-65.3 36.2z"/><path d="m152.7 224.2c-33.4 19.1-73.3 39.5-87.1 41.7-2.1.4-3.7.3-4.6-.3-9.3-5.4 74-58.9 79-61.7.1 0 1-.5 2.5-1.4.4.1.8.1 1.2.2-1.3.7-2.3 1.3-3 1.7-11.5 6.6-86.8 56.3-79 60.8.6.3 1.8.4 3.5.1 16-2.6 68.5-30.2 108.7-54.7.3.1.7.3 1 .4-6.5 4-13.2 7.9-19.6 11.6-.8.6-1.7 1.1-2.6 1.6z"/><path d="m55.9 301.3c-.3-.1-.6-.3-.9-.4 32.6-17.3 65-33.4 95.4-48.4 17.2-8.5 33.6-17.6 49.7-26.9.2.2.4.4.7.5-16 9.2-32.5 18.4-49.6 26.8-30.3 15-62.7 31.2-95.3 48.4z"/><path d="m90.9 295.1c.6.4 1 .9.9 1.5 0 2.3-4.4 6.6-12.9 12.9-.3-.1-.7-.2-1-.3 9.7-7.1 12.8-10.8 12.8-12.6 0-.5-.2-.8-.6-1.1-.3-.2-.7-.2-1.3-.2-4 0-13.4 3.8-25.1 9.3-.3-.1-.6-.3-1-.4 12-5.7 21.7-9.6 26-9.6 1 .1 1.7.3 2.2.5z"/><path d="m99.3 313.2c-.4 0-.8-.1-1.3-.2 11.3-7.6 22.4-15.1 33.5-22.6 25.8-17.5 52-35.4 79.5-52.7.1.2.3.5.4.7-27.3 17.2-53.4 35-79.1 52.4-10.9 7.5-21.9 15-33 22.4z"/><path d="m145.5 291.7c-10.2 7.5-20.6 15.1-31.2 22.6-.5 0-.9 0-1.4 0 10.9-7.6 21.4-15.3 31.8-22.9 3.9-2.8 7.7-5.7 11.6-8.5 19-13.9 38.4-26.4 58.3-37.9.1.3.2.5.3.8-19.8 11.4-38.9 23.8-57.7 37.6-3.9 2.6-7.8 5.4-11.7 8.3z"/><path d="m147.7 311.7c20.6-16.4 43.5-33.2 68.9-49.4-.1.4-.1.7-.2 1.1-24.5 15.8-46.7 32.1-66.9 48-.5.1-1.1.2-1.8.3z"/></g><path d="m51.4 296.8c-38.2-22.1-38-57.9.4-80.1 1.2-.7 2.3-1.3 3.5-1.9-1.9.9-3.8 1.9-5.6 3-38.4 22.2-38.6 58.1-.4 80.1 37.1 21.4 96.6 21.9 135.2 1.7-38.6 19.1-96.7 18.2-133.1-2.8z" fill="#845138"/></svg>