<svg enable-background="new 0 0 500 500" viewBox="0 0 500 500" xmlns="http://www.w3.org/2000/svg" xmlns:xlink="http://www.w3.org/1999/xlink"><linearGradient id="a"><stop offset="0" stop-color="#8ca0a6"/><stop offset=".2239" stop-color="#73878c"/><stop offset=".298" stop-color="#7b8f94"/><stop offset=".4121" stop-color="#8fa4a9"/><stop offset=".552" stop-color="#b1c6cd"/><stop offset=".711" stop-color="#dff5fd"/><stop offset=".7164" stop-color="#e1f7ff"/><stop offset=".793" stop-color="#ddf1f8"/><stop offset=".9009" stop-color="#d1e2e6"/><stop offset="1" stop-color="#c2cecf"/></linearGradient><linearGradient id="b" gradientUnits="userSpaceOnUse" x1="125.4827" x2="136.9725" xlink:href="#a" y1="293.2471" y2="293.2471"/><linearGradient id="c" gradientUnits="userSpaceOnUse" x1="228.8805" x2="240.3703" xlink:href="#a" y1="233.279" y2="233.279"/><linearGradient id="d" gradientUnits="userSpaceOnUse" x1="50.8064" x2="62.2963" xlink:href="#a" y1="247.2319" y2="247.2319"/><linearGradient id="e" gradientUnits="userSpaceOnUse" x1="148.4612" x2="159.9498" xlink:href="#a" y1="187.2638" y2="187.2638"/><linearGradient id="f" gradientUnits="userSpaceOnUse" x1="170.092" x2="54.7633" y1="157.1025" y2="207.2249"><stop offset="0" stop-color="#c07546"/><stop offset="1" stop-color="#ad623e"/></linearGradient><linearGradient id="g" gradientUnits="userSpaceOnUse" x1="74.2564" x2="228.0852" y1="201.0202" y2="201.0202"><stop offset="0" stop-color="#c77b48"/><stop offset="1" stop-color="#bc7243"/></linearGradient><linearGradient id="h"><stop offset="0" stop-color="#c07545"/><stop offset=".3383" stop-color="#e3a96d"/><stop offset=".4679" stop-color="#e1a66b"/><stop offset=".5656" stop-color="#db9c63"/><stop offset=".6526" stop-color="#d08c55"/><stop offset=".7164" stop-color="#c47b47"/><stop offset=".8816" stop-color="#b36940"/><stop offset="1" stop-color="#ad623e"/></linearGradient><linearGradient id="i" gradientUnits="userSpaceOnUse" x1="179.8801" x2="198.154" xlink:href="#h" y1="209.1349" y2="240.7863"/><linearGradient id="j" gradientUnits="userSpaceOnUse" x1="101.91" x2="109.6593" xlink:href="#h" y1="106.498" y2="119.9202"/><linearGradient id="k" gradientUnits="userSpaceOnUse" x1="314.9499" x2="372.7845" y1="376.7684" y2="428.6012"><stop offset="0" stop-color="#acb7b8"/><stop offset=".3425" stop-color="#b5c0c0"/><stop offset=".5672" stop-color="#bec8c8"/><stop offset="1" stop-color="#e4e8e8"/></linearGradient><linearGradient id="l" gradientUnits="userSpaceOnUse" x1="339.6687" x2="389.3954" y1="418.8103" y2="418.8103"><stop offset="0" stop-color="#9faaae"/><stop offset=".2188" stop-color="#a3adb1"/><stop offset=".419" stop-color="#aeb7ba"/><stop offset=".6121" stop-color="#c0c8ca"/><stop offset=".8006" stop-color="#dadfe0"/><stop offset=".9844" stop-color="#fcfcfc"/><stop offset="1" stop-color="#fff"/></linearGradient><linearGradient id="m" gradientUnits="userSpaceOnUse" x1="366.3934" x2="388.125" y1="417.4936" y2="417.4936"><stop offset="0" stop-color="#b7c2c5"/><stop offset=".2065" stop-color="#bec8ca"/><stop offset=".4989" stop-color="#d0d7d9"/><stop offset=".8409" stop-color="#eef1f2"/><stop offset="1" stop-color="#fff"/></linearGradient><linearGradient id="n"><stop offset="0" stop-color="#acb7b8"/><stop offset=".2572" stop-color="#b5bfc0"/><stop offset=".6787" stop-color="#ced5d5"/><stop offset="1" stop-color="#e5e9e9"/></linearGradient><linearGradient id="o" gradientUnits="userSpaceOnUse" x1="341.7361" x2="375.4998" xlink:href="#n" y1="420.4802" y2="420.4802"/><linearGradient id="p" gradientUnits="userSpaceOnUse" x1="316.6266" x2="375.7156" xlink:href="#n" y1="400.3418" y2="400.3418"/><linearGradient id="q" gradientUnits="userSpaceOnUse" x1="340.1976" x2="353.3022" y1="353.6766" y2="353.6766"><stop offset="0" stop-color="#bec8c8"/><stop offset=".3476" stop-color="#acb7b8"/><stop offset=".4399" stop-color="#b5bfc0"/><stop offset=".5912" stop-color="#ced5d5"/><stop offset=".7065" stop-color="#e5e9e9"/><stop offset=".8373" stop-color="#d4dada"/><stop offset="1" stop-color="#c2cacb"/></linearGradient><linearGradient id="r" gradientUnits="userSpaceOnUse" x1="341.7972" x2="353.3023" y1="336.73" y2="336.73"><stop offset="0" stop-color="#879191"/><stop offset=".9047" stop-color="#98a2a3"/><stop offset="1" stop-color="#9aa4a5"/></linearGradient><linearGradient id="s" gradientUnits="userSpaceOnUse" x1="233.8486" x2="457.4374" y1="284.4709" y2="284.4709"><stop offset="0" stop-color="#52555b"/><stop offset=".233" stop-color="#5a5d62"/><stop offset=".5873" stop-color="#6f7176"/><stop offset=".8408" stop-color="#828488"/><stop offset=".8454" stop-color="#727478"/><stop offset=".8514" stop-color="#65676c"/><stop offset=".8592" stop-color="#5d6065"/><stop offset=".8756" stop-color="#5b5e63"/></linearGradient><path d="m137 276.7c0 .1 0 .2-.1.4.2-1-.4-2-1.6-2.8-2.2-1.3-5.9-1.3-8.1 0-1.1.7-1.7 1.5-1.7 2.4v33.1c0 .9.6 1.7 1.7 2.4 2.3 1.3 5.9 1.3 8.1 0 1.1-.7 1.7-1.5 1.7-2.4z" fill="url(#b)"/><path d="m137 308.7c0 .9-.6 1.7-1.7 2.4-2.2 1.3-5.9 1.3-8.1 0-1.1-.7-1.7-1.5-1.7-2.4v1c0 .9.6 1.7 1.7 2.4 2.3 1.3 5.9 1.3 8.1 0 1.1-.7 1.7-1.5 1.7-2.4z" fill="#282828"/><path d="m240.4 216.7c0 .1 0 .2-.1.4.2-1-.4-2-1.6-2.8-2.2-1.3-5.9-1.3-8.1 0-1.1.7-1.7 1.5-1.7 2.4v33.1c0 .9.6 1.7 1.7 2.4 2.3 1.3 5.9 1.3 8.1 0 1.1-.7 1.7-1.5 1.7-2.4z" fill="url(#c)"/><path d="m240.4 248.8c0 .9-.6 1.7-1.7 2.4-2.2 1.3-5.9 1.3-8.1 0-1.1-.7-1.7-1.5-1.7-2.4v1c0 .9.6 1.7 1.7 2.4 2.3 1.3 5.9 1.3 8.1 0 1.1-.7 1.7-1.5 1.7-2.4z" fill="#282828"/><path d="m62.3 230.7c0 .1 0 .2-.1.4.2-1-.4-2-1.6-2.8-2.2-1.3-5.9-1.3-8.1 0-1.1.7-1.7 1.5-1.7 2.4v33.1c0 .9.6 1.7 1.7 2.4 2.3 1.3 5.9 1.3 8.1 0 1.1-.7 1.7-1.5 1.7-2.4z" fill="url(#d)"/><path d="m62.3 262.7c0 .9-.6 1.7-1.7 2.4-2.2 1.3-5.9 1.3-8.1 0-1.1-.7-1.7-1.5-1.7-2.4v1c0 .9.6 1.7 1.7 2.4 2.3 1.3 5.9 1.3 8.1 0 1.1-.7 1.7-1.5 1.7-2.4z" fill="#282828"/><path d="m159.9 170.7c0 .1 0 .2-.1.4.2-1-.4-2-1.6-2.8-2.2-1.3-5.9-1.3-8.1 0-1.1.7-1.7 1.5-1.7 2.4v33.1c0 .9.6 1.7 1.7 2.4 2.3 1.3 5.9 1.3 8.1 0 1.1-.7 1.7-1.5 1.7-2.4z" fill="url(#e)"/><path d="m159.9 202.7c0 .9-.6 1.7-1.7 2.4-2.2 1.3-5.9 1.3-8.1 0-1.1-.7-1.7-1.5-1.7-2.4v1c0 .9.6 1.7 1.7 2.4 2.3 1.3 5.9 1.3 8.1 0 1.1-.7 1.7-1.5 1.7-2.4z" fill="#282828"/><g enable-background="new"><path d="m148.4 145.7c-.9-.5-1.7-.6-2.2-.2l-100.6 59.5c.6-.3 1.4-.3 2.2.2l26.4 15.5 100.6-59.5z" fill="url(#f)"/><path d="m174.9 161.3-100.6 59.4 53.2 20.1 100.6-59.5z" fill="url(#g)"/><path d="m142.7 271.1-.1 23.5c0 1.4-.5 2.3-1.2 2.8l103.5-61.2c.8-.4 1.2-1.4 1.2-2.8l.1-23.5z" fill="#ad623e"/><path d="m133.8 244.7.6.6c.3.3.7.6 1 .9.2.2.4.4.6.7.3.3.6.7.9 1 .2.2.4.4.6.7.5.6 1 1.2 1.4 1.8.1.1.2.2.2.3.5.7 1 1.5 1.5 2.2.1.2.3.4.4.6.4.6.7 1.2 1 1.8.1.2.3.5.4.7.4.8.8 1.5 1.1 2.3v.1c.4.9.7 1.8 1 2.7.1.2.2.5.2.7.3.9.6 1.8.8 2.7.2.9.4 1.8.5 2.7 0 .2.1.5.1.7.1.9.2 1.8.2 2.7l100.6-59.5c0-.9-.1-1.8-.2-2.7 0-.2-.1-.5-.1-.7-.1-.9-.3-1.8-.5-2.8-.2-.9-.5-1.8-.8-2.7-.1-.2-.1-.5-.2-.7-.3-.9-.7-1.8-1-2.7v-.1c-.3-.8-.7-1.6-1.1-2.3-.1-.2-.2-.5-.4-.7-.3-.6-.7-1.2-1-1.8-.1-.2-.3-.4-.4-.6-.5-.8-1-1.5-1.5-2.2-.1-.1-.1-.2-.2-.3-.5-.6-.9-1.2-1.4-1.8-.1-.1-.1-.2-.2-.3s-.2-.3-.4-.4c-.3-.3-.6-.7-.9-1-.2-.2-.4-.4-.6-.7-.3-.3-.7-.6-1-.9-.2-.2-.4-.4-.6-.6-.4-.3-.8-.6-1.1-.9-.2-.1-.4-.3-.6-.4-.6-.4-1.2-.8-1.7-1.1-1-.6-1.9-1-2.9-1.4l-100.6 59.5c1 .4 1.9.8 2.9 1.4.6.3 1.2.7 1.7 1.1.2.1.4.3.6.4.4.3.7.6 1.1 1z" fill="url(#i)"/><path d="m132.2 242c-1-.6-2-1-3-1.4l-54.1-20.4-26.9-15.8c-1.7-1-3.1-.2-3.1 1.8l-.1 27.6c0 2.4 1.7 5.4 3.8 6.7l95.6 56.1c2.3 1.3 4.1.3 4.1-2.3l.1-23.3c0-10.9-7.6-23.7-16.4-29z" fill="#7a4023"/></g><g enable-background="new"><path d="m54.9 133.2 86.2-51c.6-.4 1.4-.3 2.4.2l-86.2 51c-.9-.5-1.8-.5-2.4-.2z" fill="#ad623e"/><path d="m153.7 93.3-86.2 51 11.7 70.3c.1.6-.1 1-.4 1.2l86.2-51c.3-.2.5-.6.4-1.2z" fill="#ad623e"/><path d="m64.4 138.2c.1.1.2.2.3.3.4.4.7.9 1 1.4.1.1.1.2.2.3.3.4.5.9.7 1.3.1.1.1.2.2.3.1.3.2.6.3.8 0 .1.1.3.1.4.1.4.2.9.3 1.3l86.2-51c-.1-.4-.2-.9-.3-1.3 0-.1-.1-.3-.1-.4-.1-.3-.2-.6-.3-.8v-.1c0-.1-.1-.1-.1-.2-.2-.5-.4-.9-.7-1.3-.1-.1-.1-.2-.2-.3-.3-.5-.6-.9-1-1.4 0 0-.1-.1-.1-.1-.1-.1-.1-.1-.2-.2-.2-.3-.5-.5-.7-.7-.1-.1-.2-.2-.3-.3-.4-.3-.7-.6-1.1-.8l-4.9-2.9-86.2 51 4.9 2.9c.4.2.7.5 1.1.8.1.1.2.2.3.3s.3.4.6.7z" fill="url(#j)"/><path d="m70 144.3c-.5-3.2-2.7-6.5-5.2-8l-4.9-2.9c-1.8-1.1-3.3-.2-3.3 1.9l-.2 64c0 1.3.9 2.8 2 3.5l22 12.9c.9.5 1.5 0 1.3-1.1z" fill="#7a4023"/></g><path d="m375.1 387c-1.2-.7-1.2-.7-.3-.2-27.1-14.5-66.2-3.8-67.4 18.5v1.1c0 .6.1 1.3.2 1.9-.1-.6-.2-1.3-.2-1.9 0 1.3.1 3.6 1.3 6.5 0 .1.1.2.1.3.1.2.2.4.3.6.5 1.1 1.1 2.2 1.9 3.2v.1c.5.7 1 1.3 1.6 2l.9.9c.8.8 1.6 1.5 2.3 2.1 1.1.9 3.9 3 8.4 5.1.2.1.4.2.7.3s.6.2.9.3c.8.3 1.5.6 2.3.9.2.1.5.2.7.2.9.3 1.9.6 2.9.9.3.1.5.1.8.2 1.2.3 2.4.6 3.6.8.1 0 .2 0 .3.1h.1c.4.1.8.1 1.2.2 7.2 1.2 14.5 1.1 21.7-.2h.3c.3 0 2.3-.4 5-1.2 2.3-.6 4.5-1.4 6.6-2.4.6-.3 1.3-.6 2-.9.1 0 .1-.1.2-.1 3.3-1.7 6.7-4 9.4-7 .2-.2.4-.5.6-.7 1.6-1.9 2.5-3.6 2.8-4.3.4-1 1-2.3 1.2-3.3.4-1.7.4-2 .5-4.2v-1.1c-.5-9.6-7.2-15-12.9-18.7z" fill="url(#k)"/><path d="m384.7 409.9c0 .1 0 .1 0 0-.1.5-.2.9-.3 1.2-1.5 4.3-5 8.4-10.7 11.8-15.4 9.1-40.4 9.1-56 0-6.7-3.9-10.5-8.9-11.4-14 0-.2-.1-.5-.1-.7-.1-.6-.2-1.3-.1-1.9 0 1.3.1 3.5 1.3 6.4 0 .1.1.2.1.3.1.2.2.4.3.6.5 1.1 1.1 2.1 1.8 3.1v.1c.5.7 1 1.3 1.6 1.9l.8.8c.8.8 1.5 1.5 2.2 2.1 1 .9 3.8 3 8.2 5l.6.3c.3.1.6.2.8.3.7.3 1.5.6 2.3.9.2.1.5.2.7.2.9.3 1.8.6 2.8.9.2.1.5.1.8.2 1.1.3 2.3.6 3.5.8.1 0 .2 0 .3.1h.1c.4.1.8.1 1.2.2 7.1 1.2 14.3 1.1 21.3-.2h.3c.3 0 2.2-.4 4.9-1.2 2.3-.6 4.4-1.4 6.5-2.3.6-.3 1.3-.6 1.9-.9.1 0 .1-.1.2-.1 3.3-1.7 6.6-3.9 9.2-6.9.2-.2.4-.5.6-.7 1.6-1.9 2.4-3.5 2.7-4.2.4-.9 1-2.2 1.2-3.2.4-1.7.4-1.9.5-4.1.3 1.1.2 2.2-.1 3.2z" fill="url(#l)"/><path d="m376.1 421.9c-15.6 9.2-41.1 9.3-56.9 0-7.9-4.7-11.9-10.8-11.9-16.9v1.1c0 6.1 3.9 12.2 11.9 16.9 15.8 9.3 41.2 9.2 56.9 0 7.8-4.6 11.7-10.6 11.7-16.6v-1.1c0 6-3.9 12-11.7 16.6z" fill="url(#m)" opacity=".6"/><path d="m375.3 415.3c.1.1.2.3.2.4.3 1.6-2.4 3.1-3.4 3.8-2.9 1.8-6.2 3-9.4 4-4.1 1.2-8.3 2.1-12.5 2.4-2.2.2-4.3.2-6.5 0-.7-.1-1.6 0-1.9-.9-.3-1.1.8-1.2 1.6-1.3 1.9-.3 3.8-.5 5.7-.8 3.2-.5 6.5-1 9.7-1.9 7.5-2 10.2-3.3 14.4-5.4.7-.4 1.6-1 2.1-.3z" fill="url(#o)" opacity=".7"/><path d="m366.8 387.8c-11.8-6.9-30.8-6.9-42.5 0-2.6 1.5-4.6 3.3-6 5.2l28.7.4-.3 12.3-30.1-.7c1.3 2.9 3.9 5.7 7.8 8 11.8 6.9 30.8 6.9 42.5 0 11.8-7 11.7-18.3-.1-25.2z" fill="url(#p)" opacity=".7"/><path d="m341.8 301.1v101.3c-2.8 1.4-1.6 2.8.9 3.6 1.9.6 3.9.6 5.8 0 2.5-.8 3.7-2.1 4.8-3.5v-101.4z" fill="url(#q)"/><path d="m353.3 366.4v-65.4h-11.5v71.3c.3-4.4 5.5-6.7 11.5-5.9z" fill="url(#r)"/><path d="m424.2 331.1c-43.6 25.8-114.5 25.8-158.4 0-16.6-9.7-26.9-21.7-31-34.3-1.4-4.2-2.1-8.4-2-12.7v5.4c0 17 11 34 33.1 47 43.9 25.8 114.8 25.8 158.4 0 21.7-12.8 32.5-29.6 32.6-46.4v-5.4c-.2 16.8-11.1 33.6-32.7 46.4z" fill="#393b40"/><path d="m424.4 237.9c-43.8-25.7-114.6-25.7-158.1 0s-43.3 67.4.5 93.2c43.8 25.7 114.6 25.7 158.1 0 43.6-25.8 43.3-67.5-.5-93.2z" fill="url(#s)"/></svg>