<svg enable-background="new 0 0 1000 1000" viewBox="0 0 1000 1000" xmlns="http://www.w3.org/2000/svg" xmlns:xlink="http://www.w3.org/1999/xlink"><linearGradient id="a"><stop offset=".1261" stop-color="#a8c4c4"/><stop offset=".1272" stop-color="#b4d2d2"/><stop offset=".4378" stop-color="#b4d2d2"/><stop offset=".4407" stop-color="#aac6c6"/><stop offset=".8367" stop-color="#aac6c6"/><stop offset=".8387" stop-color="#8fa6a6"/></linearGradient><linearGradient id="b" gradientTransform="matrix(-1 0 0 1 978.1827 0)" gradientUnits="userSpaceOnUse" x1="359.6455" x2="366.8502" xlink:href="#a" y1="562.6434" y2="562.6434"/><linearGradient id="c" gradientTransform="matrix(-1 0 0 1 978.1827 0)" gradientUnits="userSpaceOnUse" x1="336.7578" x2="343.9626" xlink:href="#a" y1="641.1505" y2="641.1505"/><linearGradient id="d" gradientTransform="matrix(-1 0 0 1 978.1827 0)" gradientUnits="userSpaceOnUse" x1="415.0825" x2="422.2873" xlink:href="#a" y1="594.4492" y2="594.4492"/><linearGradient id="e" gradientTransform="matrix(-1 0 0 1 978.1827 0)" gradientUnits="userSpaceOnUse" x1="284.9116" x2="292.1163" xlink:href="#a" y1="605.1096" y2="605.1096"/><linearGradient id="f" gradientTransform="matrix(-1 0 0 1 978.1827 0)" gradientUnits="userSpaceOnUse" x1="457.5359" x2="464.7407" xlink:href="#a" y1="509.723" y2="509.723"/><linearGradient id="g" gradientTransform="matrix(-1 0 0 1 978.1827 0)" gradientUnits="userSpaceOnUse" x1="434.6482" x2="441.853" xlink:href="#a" y1="588.23" y2="588.23"/><linearGradient id="h" gradientTransform="matrix(-1 0 0 1 978.1827 0)" gradientUnits="userSpaceOnUse" x1="512.9729" x2="520.1777" xlink:href="#a" y1="541.5288" y2="541.5288"/><linearGradient id="i" gradientTransform="matrix(-1 0 0 1 978.1827 0)" gradientUnits="userSpaceOnUse" x1="382.802" x2="390.0067" xlink:href="#a" y1="552.1892" y2="552.1892"/><linearGradient id="j" gradientTransform="matrix(-1 0 0 1 978.1827 0)" gradientUnits="userSpaceOnUse" x1="637.7505" x2="644.955" xlink:href="#a" y1="700.6069" y2="700.6069"/><linearGradient id="k" gradientTransform="matrix(-1 0 0 1 978.1827 0)" gradientUnits="userSpaceOnUse" x1="716.0752" x2="723.2797" xlink:href="#a" y1="653.9056" y2="653.9056"/><linearGradient id="l" gradientTransform="matrix(-1 0 0 1 978.1827 0)" gradientUnits="userSpaceOnUse" x1="582.3135" x2="589.5183" xlink:href="#a" y1="667.5704" y2="667.5704"/><linearGradient id="m" gradientTransform="matrix(-1 0 0 1 978.1827 0)" gradientUnits="userSpaceOnUse" x1="660.6382" x2="667.843" xlink:href="#a" y1="620.8693" y2="620.8693"/><linearGradient id="n" gradientTransform="matrix(1 -.001 .001 1 -376.8886 189.7035)" gradientUnits="userSpaceOnUse" x1="756.1078" x2="822.0762" y1="459.8474" y2="459.8474"><stop offset=".1613" stop-color="#969696"/><stop offset=".1633" stop-color="#b6b6b6"/><stop offset=".5593" stop-color="#b6b6b6"/><stop offset=".5622" stop-color="#c2c2c2"/><stop offset=".8728" stop-color="#c2c2c2"/><stop offset=".8739" stop-color="#b4b4b4"/></linearGradient><linearGradient id="o" gradientTransform="matrix(-1 0 0 1 978.1827 0)" gradientUnits="userSpaceOnUse" x1="549.8401" x2="580.7332" y1="638.3363" y2="638.3363"><stop offset=".1261" stop-color="#b4b4b4"/><stop offset=".1272" stop-color="#c2c2c2"/><stop offset=".4378" stop-color="#c2c2c2"/><stop offset=".4407" stop-color="#b6b6b6"/><stop offset=".8367" stop-color="#b6b6b6"/><stop offset=".8387" stop-color="#969696"/></linearGradient><linearGradient id="p"><stop offset=".1261" stop-color="#bababa"/><stop offset=".1272" stop-color="#c8c8c8"/><stop offset=".4378" stop-color="#c8c8c8"/><stop offset=".4407" stop-color="#bcbcbc"/><stop offset=".8367" stop-color="#bcbcbc"/><stop offset=".8387" stop-color="#9c9c9c"/></linearGradient><linearGradient id="q" gradientTransform="matrix(-1 0 0 1 978.1827 0)" gradientUnits="userSpaceOnUse" x1="554.9665" x2="575.6074" xlink:href="#p" y1="561.8292" y2="561.8292"/><linearGradient id="r" gradientTransform="matrix(1 -.001 .001 1 -376.8886 189.7035)" gradientUnits="userSpaceOnUse" x1="896.1584" x2="962.1265" y1="541.1868" y2="541.1868"><stop offset=".1613" stop-color="#bababa"/><stop offset=".1633" stop-color="#dadada"/><stop offset=".5593" stop-color="#dadada"/><stop offset=".5622" stop-color="#e6e6e6"/><stop offset=".8728" stop-color="#e6e6e6"/><stop offset=".8739" stop-color="#d8d8d8"/></linearGradient><linearGradient id="s"><stop offset=".1261" stop-color="#d8d8d8"/><stop offset=".1272" stop-color="#e6e6e6"/><stop offset=".4378" stop-color="#e6e6e6"/><stop offset=".4407" stop-color="#dadada"/><stop offset=".8367" stop-color="#dadada"/><stop offset=".8387" stop-color="#bababa"/></linearGradient><linearGradient id="t" gradientTransform="matrix(-1 0 0 1 978.1827 0)" gradientUnits="userSpaceOnUse" x1="409.7081" x2="440.6012" xlink:href="#s" y1="719.5358" y2="719.5358"/><linearGradient id="u" gradientTransform="matrix(-1 0 0 1 978.1827 0)" gradientUnits="userSpaceOnUse" x1="414.8345" x2="435.4754" xlink:href="#s" y1="643.0287" y2="643.0287"/><linearGradient id="v" gradientTransform="matrix(-1 0 0 1 978.1827 0)" gradientUnits="userSpaceOnUse" x1="414.8345" x2="435.4754" xlink:href="#p" y1="576.9366" y2="576.9366"/><linearGradient id="w" gradientUnits="userSpaceOnUse" x1="481.2046" x2="589.4178" y1="545.9626" y2="545.9626"><stop offset=".0335435" stop-color="#9b6b42"/><stop offset=".3608" stop-color="#a5764a"/><stop offset=".3608" stop-color="#af8051"/><stop offset=".6549" stop-color="#bf925d"/><stop offset=".6588" stop-color="#c69a62"/><stop offset="1" stop-color="#cca067"/></linearGradient><linearGradient id="x" gradientTransform="matrix(-1 0 0 1 978.1827 0)" gradientUnits="userSpaceOnUse" x1="530.9109" x2="538.1157" xlink:href="#a" y1="760.9678" y2="760.9678"/><linearGradient id="y" gradientTransform="matrix(-1 0 0 1 978.1827 0)" gradientUnits="userSpaceOnUse" x1="609.2355" x2="616.4403" xlink:href="#a" y1="714.2665" y2="714.2665"/><linearGradient id="z" gradientTransform="matrix(-1 0 0 1 978.1827 0)" gradientUnits="userSpaceOnUse" x1="475.4742" x2="482.6786" xlink:href="#a" y1="727.9311" y2="727.9311"/><linearGradient id="A" gradientTransform="matrix(-1 0 0 1 978.1827 0)" gradientUnits="userSpaceOnUse" x1="553.7989" x2="561.0032" xlink:href="#a" y1="681.2298" y2="681.2298"/><g clip-rule="evenodd" fill-rule="evenodd"><path d="m512.1 384.7-484.2 279.6 443.6 255.8 485.4-279.2z" fill="#bda67d"/><path d="m543.3 375.2-478.1 277.8-28.1 16.3.7-236.6 28.1-16.4 451.6-262.4z" fill="#e8d7b7"/><path d="m936.3 416.2-.7 236.7-436.5-252.1.7-236.7z" fill="#f2e4cb"/><path d="m488.7 385.2-204.9 119.5-1.3-196 205.1-119.7z" fill="#fff"/><path d="m284 504.6-.1-12.8 193.6-113v-.7l11.1 6.9z" fill="#fcf0d8"/><path d="m488.6 385.2-11.1-6.4-1-183.4 11.1-6.4z" fill="#f2e4cb"/><path d="m282.7 412.9-.2-12.2 194.2-111.3 10.4 6.4z" fill="#fcf0d8"/><path d="m282.7 397.8-.2-12.2 194.2-111.3 10.4 6.5z" fill="#fcf0d8"/><path d="m282.7 382.8-.2-12.3 194.2-111.2 10.4 6.4z" fill="#fcf0d8"/><path d="m282.7 367.7-.2-12.2 194.2-111.3 10.4 6.4z" fill="#fcf0d8"/><path d="m282.7 352.6-.2-12.2 194.2-111.3 10.4 6.5z" fill="#fcf0d8"/><path d="m282.7 337.6-.2-12.3 194.2-111.2 10.4 6.4z" fill="#fcf0d8"/><path d="m282.7 322.5-.2-12.2 194.2-111.3 10.4 6.5z" fill="#fcf0d8"/><path d="m263 515.8-204.9 119.6-1.3-196 205.1-119.7z" fill="#fff"/><path d="m58.3 635.2-.2-12.7 193.7-113.1v-.6l11.1 6.9z" fill="#fcf0d8"/><path d="m262.9 515.9-11.1-6.5-1-183.3 11.1-6.4z" fill="#f2e4cb"/><path d="m57 543.6-.2-12.3 194.2-111.3 10.4 6.5z" fill="#fcf0d8"/><path d="m57 528.5-.2-12.2 194.2-111.3 10.4 6.4z" fill="#fcf0d8"/><path d="m57 513.4-.2-12.2 194.2-111.3 10.4 6.5z" fill="#fcf0d8"/><path d="m57 498.4-.2-12.3 194.2-111.3 10.4 6.5z" fill="#fcf0d8"/><path d="m57 483.3-.2-12.2 194.2-111.3 10.4 6.4z" fill="#fcf0d8"/><path d="m57 468.2-.2-12.2 194.2-111.3 10.4 6.5z" fill="#fcf0d8"/><path d="m57 453.2-.2-12.3 194.2-111.3 10.4 6.5z" fill="#fcf0d8"/><path d="m510.2 224.7 7.5-4.3-.3 90.1-5.2 4.3h-2.3l-1.5-20.1z" fill="#1a1a1a"/><path d="m509.9 314.8 7.5-4.3 124.5 71.8-7.5 4.4-90.9-48.4z" fill="#363636"/><path d="m513.3 222.9-.2 90.1 124.4 71.8.2-90.1z" fill="#131313"/><path d="m639.4 293 9.1-4.4-.3 104.7-7.5 4.4z" fill="#1a1a1a"/><path d="m503.8 213.8 7.5-4.4 137.2 79.2-7.5 4.4-120.6-67.3z" fill="#363636"/><path d="m634.4 386.7-124.4-71.8.3-90.1 124.4 71.8zm-130.6-172.9-.3 104.7 137.1 79.2.4-104.7z" fill="#252525"/><path d="m934.9 415.4-435.1-251.3-433.9 252.2-28.1 16.4-28.3-16.4 491-285.3 464.8 268.3z" fill="#fcf0d8"/><path d="m445.8 696.5.6 238.5 29.5-17.1v-237.1z" fill="#e8d7b7"/></g><path d="m618.5 525.1v73.1c0 1.1-1.6 2-3.6 2s-3.6-.9-3.6-2v-73.1z" fill="url(#b)"/><path d="m641.4 603.6v73.1c0 1.1-1.6 2-3.6 2s-3.6-.9-3.6-2v-73.1z" fill="url(#c)"/><path d="m563.1 556.9v73.1c0 1.1-1.6 2-3.6 2s-3.6-.9-3.6-2v-73.1z" fill="url(#d)"/><path d="m693.3 562.6v82.9c0 1.1-1.6 2-3.6 2s-3.6-.9-3.6-2v-73.1z" fill="url(#e)"/><path d="m608.2 537.4 24.6 52.2-2.5 1.2-26.2-55.5c-.6-1.3-1.5-2.4-2.6-3.3 3 .8 5.4 2.7 6.7 5.4z" fill="#976d6b"/><path d="m698.1 485.1-45.8 27c-3.5 2.7-39.3-39-39.5-34.6l2.3 32c-.8 12.6-7.8 23.9-18.7 30.2l-34.6 20c-7.9 4.6 71.6 51.2 71.6 51.2l41.4-25.4c10.9-6.3 18.7-13.1 18.7-20.6l-2.3-41.7c.2-4.4 6.2-30.4 9.7-33z" fill="#6ba008"/><path d="m698.1 485.1-78.3-45.7-2.7 2c-3.5 2.7-9.5 28.6-9.7 33l2.2 32c0 .8-.1 1.6-.2 2.4-1.5 11.6-8.2 21.9-18.5 27.8h-.1l-34.5 19.9c-.6.3-1.1.7-1.6 1l78.7 45.5c.4-.3.9-.5 1.3-.8l34.6-20c.1 0 .2-.1.3-.2 10.2-6 16.9-16.4 18.2-28 .1-.7.1-1.4.2-2l-2.2-32c.3-4.4 6.3-30.4 9.7-33zm-57.5-21.8 25.9 15.2c2.5 1.5 3.6 4.5 2.6 7.2l-1.3 3.4c-.1.4-.3.7-.5 1-.5 0-1-.2-1.5-.5l-25.9-15.2c-2.5-1.5-3.6-4.5-2.5-7.2l1.2-3.4c.1-.4.3-.7.6-1 .4 0 .9.2 1.4.5z" fill="#aae849"/><path d="m590.8 536.8 78.7 45.5c10.2-6 20.2-12.5 18.2-28l-78.3-45.4c-1.5 11.6-8.3 21.9-18.6 27.9z" fill="#9ed941"/><path d="m698.1 485.1-78.3-45.7-2.7 2c-3.5 2.7-9.5 28.6-9.7 33l2.2 32c0 .8-.1 1.6-.2 2.4l78.3 45.4c.1-.7.1-1.4.2-2l-2.2-32c.3-4.4 6.3-30.4 9.7-33zm-57.5-21.8 25.9 15.2c2.5 1.5 3.6 4.5 2.6 7.2l-1.3 3.4c-.1.4-.3.7-.5 1-.5 0-1-.2-1.5-.5l-25.9-15.2c-2.5-1.5-3.6-4.5-2.5-7.2l1.2-3.4c.1-.4.3-.7.6-1 .4 0 .9.2 1.4.5z" fill="#88bd20"/><path d="m619.8 439.4-2.7 2c-3.5 2.7-9.5 28.6-9.7 33l78.3 46.1v-.3c.3-4.4 6.3-30.4 9.7-33l2.7-2zm45.9 50.1-25.9-15.2c-2.5-1.5-3.6-4.5-2.5-7.2l1.2-3.4c.1-.4.3-.7.6-1 .5.1 1 .2 1.5.5l25.9 15.2c2.5 1.5 3.6 4.5 2.6 7.2l-1.3 3.4c-.1.4-.3.7-.5 1-.6-.1-1.1-.2-1.6-.5z" fill="#9ed941"/><path d="m633.3 611-78.7-45.5v-7.8l78.7 45.5z" fill="#6ba008"/><path d="m667.2 490c-1.2 1.8-3.7 2.4-5.6 1.2l-25.8-15.2c-2.5-1.5-3.6-4.5-2.6-7.2l1.3-3.4c.7-2 2.7-3.1 4.7-2.7-.2.3-.4.6-.6 1l-1.2 3.4c-1 2.7.1 5.7 2.5 7.2l25.9 15.2c.4.3.9.4 1.4.5z" fill="#88bd20"/><path d="m552.1 518.2 89.3 51.6-106.4 61.5-89.4-51.6z" fill="#d1d0be"/><path d="m520.6 472.1v73.1c0 1.1-1.6 2-3.6 2s-3.6-.9-3.6-2v-73.1z" fill="url(#f)"/><path d="m543.5 550.6v73.1c0 1.1-1.6 2-3.6 2s-3.6-.9-3.6-2v-73.1z" fill="url(#g)"/><path d="m465.2 503.9v73.1c0 1.1-1.6 2-3.6 2s-3.6-.9-3.6-2v-73.1z" fill="url(#h)"/><path d="m595.4 509.7v82.9c0 1.1-1.6 2-3.6 2s-3.6-.9-3.6-2v-73.1z" fill="url(#i)"/><path d="m510.3 484.5 24.6 52.2-2.5 1.2-26.2-55.5c-.6-1.3-1.5-2.4-2.6-3.3 3 .8 5.4 2.7 6.7 5.4z" fill="#976d6b"/><path d="m600.2 432.2-45.8 27c-3.5 2.7-39.3-39-39.5-34.6l2.3 32c-.8 12.6-7.8 23.9-18.7 30.2l-34.6 20c-7.9 4.6 71.6 51.2 71.6 51.2l41.4-25.4c10.9-6.3 18.7-13.1 18.7-20.6l-2.3-41.7c.2-4.4 6.2-30.4 9.7-33z" fill="#6ba008"/><path d="m600.2 432.2-78.3-45.7-2.7 2c-3.5 2.7-9.5 28.6-9.7 33l2.2 32c0 .8-.1 1.6-.2 2.4-1.5 11.6-8.2 21.9-18.5 27.8h-.1l-34.5 19.9c-.6.3-1.1.7-1.6 1l78.7 45.5c.4-.3.9-.5 1.3-.8l34.6-20c.1 0 .2-.1.3-.2 10.2-6 16.9-16.4 18.2-28 .1-.7.1-1.4.2-2l-2.2-32c.3-4.4 6.3-30.4 9.7-33zm-57.5-21.9 25.9 15.2c2.5 1.5 3.6 4.5 2.6 7.2l-1.3 3.4c-.1.4-.3.7-.5 1-.5 0-1-.2-1.5-.5l-25.9-15.2c-2.5-1.5-3.6-4.5-2.5-7.2l1.2-3.4c.1-.4.3-.7.6-1 .4.1 1 .2 1.4.5z" fill="#aae849"/><path d="m492.9 483.9 78.7 45.5c10.2-6 20.2-12.5 18.2-28l-78.3-45.4c-1.5 11.6-8.3 21.9-18.6 27.9z" fill="#9ed941"/><path d="m600.2 432.2-78.3-45.7-2.7 2c-3.5 2.7-9.5 28.6-9.7 33l2.2 32c0 .8-.1 1.6-.2 2.4l78.3 45.4c.1-.7.1-1.4.2-2l-2.2-32c.3-4.4 6.3-30.4 9.7-33zm-57.5-21.9 25.9 15.2c2.5 1.5 3.6 4.5 2.6 7.2l-1.3 3.4c-.1.4-.3.7-.5 1-.5 0-1-.2-1.5-.5l-25.9-15.2c-2.5-1.5-3.6-4.5-2.5-7.2l1.2-3.4c.1-.4.3-.7.6-1 .4.1 1 .2 1.4.5z" fill="#88bd20"/><path d="m521.9 386.5-2.7 2c-3.5 2.7-9.5 28.6-9.7 33l78.3 46.1v-.3c.3-4.4 6.3-30.4 9.7-33l2.7-2zm45.9 50.1-25.8-15.2c-2.5-1.5-3.6-4.5-2.5-7.2l1.2-3.4c.1-.4.3-.7.6-1 .5.1 1 .2 1.5.5l25.9 15.2c2.5 1.5 3.6 4.5 2.6 7.2l-1.3 3.4c-.1.4-.3.7-.5 1-.7-.1-1.2-.3-1.7-.5z" fill="#9ed941"/><path d="m535.4 558.1-78.6-45.5v-7.8l78.6 45.5z" fill="#6ba008"/><path d="m569.3 437.1c-1.2 1.8-3.7 2.4-5.6 1.2l-25.9-15.1c-2.5-1.5-3.6-4.5-2.6-7.2l1.3-3.4c.7-2 2.7-3.1 4.7-2.7-.2.3-.4.6-.6 1l-1.2 3.4c-1 2.7.1 5.7 2.5 7.2l25.9 15.2c.5.1 1 .3 1.5.4z" fill="#88bd20"/><path d="m340.4 663v73.1c0 1.1-1.6 2-3.6 2s-3.6-.9-3.6-2v-73.1z" fill="url(#j)"/><path d="m262.1 616.3v73.1c0 1.1-1.6 2-3.6 2s-3.6-.9-3.6-2v-73.1z" fill="url(#k)"/><path d="m395.9 630v73.1c0 1.1-1.6 2-3.6 2s-3.6-.9-3.6-2v-73.1z" fill="url(#l)"/><path d="m317.5 583.3v73.1c0 1.1-1.6 2-3.6 2s-3.6-.9-3.6-2v-73.1z" fill="url(#m)"/><path d="m320.7 592.1 24.1 51-2.4 1.1-25.6-54.2c-.6-1.3-1.5-2.3-2.5-3.2 2.8.8 5.1 2.6 6.4 5.3z" fill="#976d6b"/><path d="m324.8 586.1.5.3c-1.6.1-3.3.6-4.8 1.4l-3.9 2.2-.3-1.3-.9-3.6 2.7-1.6c.4-.2.8-.4 1.2-.6z" fill="#aae849"/><path d="m337.1 593.2-.3-.2z" fill="#aae849"/><path d="m395.9 627.2c-4.7 2.5-15.5 12.7-28 19.9-3.2 1.8-6.3 3.6-9 5.2-6.3 3.8-11.4 4.8-15.2 4.7-5.7-.2-8.5-2.8-8.5-2.8s-2-1.9-5.1-5c-9.9-10-31.4-32.6-35.6-44.4-1-3.1-1-5.5.8-6.7 4.8-3.4 13.3-6.7 21-9.2 3-1 6-1.9 8.5-2.7l.5.3 11.5 6.7.3.1z" fill="#aae849"/><path d="m291.7 605.6c4.1 11.9 28.3 41.4 38.3 51.4l10.9.9c3.8.1 8.9-.9 15.2-4.7 2.7-1.6 5.8-3.4 8.9-5.2z" fill="#88bd20"/><path d="m260.8 613.3-4.7 8.3c1.2 1 2.6-9.2 4.1-8.6.3.2.5.3.6.3z" fill="#6b4be6"/><path d="m256.1 621.6c-.1 0-.1-.1-.2-.1z" fill="#4c2ecf"/><path d="m325.6 643-2.1-9.4.1-35.5c0-.1 0-.1 0-.1-1.3-5.4-19.4-26.7-22.4-29.6l-70.6-39.9c2.5 3 15.1 19.9 16 23.7.1.2.1.4.2.6l.1.7-.3 34.2.3 1.4 1.9 8.5c1 4.7 3.5 19.7 7.2 22.5 0 0 .1.1.2.1l4.7-8.3 69.1 39.7c-2.2-2.3-3.6-5.2-4.4-8.6zm-33.4-70.5.5 2.4-25.7-15.1c-2.5-1.5-4.7-4.1-5.2-6.4l-.5-2.4 25.8 15.1c2.5 1.5 4.7 4.1 5.1 6.4z" fill="#88bd20"/><path d="m301.2 568.4-76.6-43.9c2.5 3 21.1 23.9 22 27.8.1.2.1.4.2.6l.1.7 76.7 44.4c-1.3-5.4-19.4-26.6-22.4-29.6zm-39.4-15-.5-2.4 25.8 15.1c2.5 1.5 4.7 4.1 5.2 6.4l.5 2.4-25.8-15.1c-2.6-1.5-4.7-4.1-5.2-6.4z" fill="#7cab21"/><path d="m224.6 524.5 76.6 43.9 2.7-4-76.9-44.1z" fill="#9ed941"/><path d="m334.7 669-15.8-9.1-.6-3-46.5-26.4h-4l-5.7-3.3s-6.1-3.3-6.1-3.4c-3.6-2.8-6.2-20.3-7.2-24.9l-2.2-9.9.3.2 76.7 44.4 2.1 9.4c.7 3.3 2.2 6.3 4.3 8.8 1 1.2 3.4 16.3 4.7 17.2z" fill="#7cab21"/><path d="m395.9 627.2-43 24.8c-4.3 2.5-11.6 7-16.1 5s-5.4-10.2-6.5-15l-2-44.9c-1.8-8.1-23.6-31.9-24.1-32.4l-.5-.3-2.7 4c3.1 3 21.3 24.4 22.5 29.7l-.1 35.5c1.4 6.3 5.2 32.7 11.1 35.3 2.6 1.2 17.5-9.3 20.6-11.1l40.9-24.8z" fill="#6ba008"/><path d="m292.9 575.3c.4 2.1-1.2 2.7-3.5 1.3l-26-15.1c-2.5-1.5-4.7-4.2-5.2-6.4l-.6-2.8c-.4-2.1 1.2-2.7 3.5-1.4l.1.1.5 2.4c.5 2.2 2.7 4.9 5.2 6.4l25.8 15.1z" fill="#9ed941"/><path d="m267.6 628.2-3.4-24 48.4 28.3 5.7 24.5z" fill="#6d9c11"/><path d="m266.7 605.6 5.1 25h-4.4l.2-2.4-3.4-24z" fill="#6ba008"/><path d="m379.7 638.2v2.6c0 10.3 14.8 18.6 33 18.6s33-8.4 33-18.7v-2.6z" fill="url(#n)"/><path d="m379.7 638.2c0 10.3 14.8 18.6 33 18.6s33-8.4 33-18.7-14.8-18.6-33-18.6-33 8.4-33 18.7z" fill="#c1c1c1"/><path d="m428.3 633v1.9c0 4.8-6.9 8.7-15.4 8.7s-15.4-3.9-15.4-8.7v-1.9z" fill="url(#o)"/><path d="m428.3 633c0 4.8-6.9 8.7-15.4 8.7s-15.4-3.9-15.4-8.7 6.9-8.7 15.4-8.7 15.4 3.9 15.4 8.7z" fill="#cdcdcd"/><path d="m423.2 486.1v145.7c0 3.2-4.6 5.8-10.3 5.8s-10.3-2.6-10.3-5.8v-145.7z" fill="url(#q)"/><path d="m438.2 640.7c0 .6-.8 1-1.8 1s-1.8-.5-1.8-1c0-.6.8-1 1.8-1s1.8.4 1.8 1z" fill="#aeaeae"/><path d="m412.7 650.2c0 .6-.8 1-1.8 1s-1.8-.5-1.8-1c0-.6.8-1 1.8-1 .9 0 1.8.4 1.8 1z" fill="#aeaeae"/><path d="m390.9 640.7c0 .6-.8 1-1.8 1s-1.8-.5-1.8-1c0-.6.8-1 1.8-1s1.8.4 1.8 1z" fill="#aeaeae"/><path d="m431.9 626.3c0 .6-.8 1-1.8 1s-1.8-.5-1.8-1c0-.6.8-1 1.8-1s1.8.5 1.8 1z" fill="#aeaeae"/><path d="m399.2 624.3c0 .6-.8 1-1.8 1s-1.8-.5-1.8-1c0-.6.8-1 1.8-1s1.8.4 1.8 1z" fill="#aeaeae"/><path d="m412.2 683.9 142.9 28.2c3.2.6 4.8 5.7 3.7 11.3s-4.6 9.6-7.7 9l-142.9-28.2z" fill="#d1d0be"/><path d="m510.6 719.6c0 10.3 14.8 18.6 33 18.6s33-8.4 33-18.7-14.8-18.6-33-18.6c-18.3 0-33.1 8.4-33 18.7z" fill="#d1d0be"/><path d="m519.8 719.4v2.6c0 10.3 14.8 18.6 33 18.6s33-8.4 33-18.7v-2.6z" fill="url(#r)"/><path d="m519.8 719.4c0 10.3 14.8 18.6 33 18.6s33-8.4 33-18.7-14.8-18.6-33-18.6c-18.3.1-33 8.4-33 18.7z" fill="#e5e5e5"/><path d="m568.5 714.2v1.9c0 4.8-6.9 8.7-15.4 8.7s-15.4-3.9-15.4-8.7v-1.9z" fill="url(#t)"/><path d="m568.5 714.2c0 4.8-6.9 8.7-15.4 8.7s-15.4-3.9-15.4-8.7 6.9-8.7 15.4-8.7 15.4 3.9 15.4 8.7z" fill="#f1f1f1"/><path d="m563.3 567.3v145.7c0 3.2-4.6 5.8-10.3 5.8s-10.3-2.6-10.3-5.8v-145.7z" fill="url(#u)"/><path d="m563.3 501.2v145.7c0 3.2-4.6 5.8-10.3 5.8s-10.3-2.6-10.3-5.8v-145.7z" fill="url(#v)"/><path d="m578.3 721.9c0 .6-.8 1-1.8 1s-1.8-.5-1.8-1c0-.6.8-1 1.8-1s1.8.4 1.8 1z" fill="#bdbdbd"/><path d="m552.8 731.4c0 .6-.8 1-1.8 1s-1.8-.5-1.8-1c0-.6.8-1 1.8-1s1.8.4 1.8 1z" fill="#bdbdbd"/><path d="m531 721.9c0 .6-.8 1-1.8 1s-1.8-.5-1.8-1c0-.6.8-1 1.8-1s1.8.4 1.8 1z" fill="#bdbdbd"/><path d="m572.1 707.5c0 .6-.8 1-1.8 1s-1.8-.5-1.8-1c0-.6.8-1 1.8-1s1.8.5 1.8 1z" fill="#bdbdbd"/><path d="m539.4 705.5c0 .6-.8 1-1.8 1s-1.8-.5-1.8-1c0-.6.8-1 1.8-1s1.8.4 1.8 1z" fill="#bdbdbd"/><path d="m658.5 569.3v-13.5h-14l-174.3-100.8c-9.3-5.4-20.7-5.4-30 0l-94.2 54.4h-13.5v14.8h.2c.4 2.6 1.9 5.1 4.5 6.6l183.6 106.2c9.3 5.4 20.7 5.4 30 0l103-59.5c3.2-1.8 4.7-5 4.7-8.2z" fill="url(#w)"/><path d="m655.4 564.6c-.5.5-1 .8-1.5 1.1l-1.7 1-3.6 2.1-3.4 2-15 8.7-3.4 2-8.6 5-3.4 2-3.6 2.1-3.4 2-15 8.7-3.4 2-8.6 5-3.4 2-3.6 2.1-3.4 2-15 8.7-3.4 2-.7.4c-3.1 1.8-6.3 2.9-9.7 3.5-2 .4-4 .5-6 .5-4.9-.1-9.8-1.4-14.3-4l-179-103.6-4.6-2.7c-2-1.2-3.4-2.9-4.1-4.9-1.1-3-.6-6.5 1.5-9.1.7-.9 1.6-1.6 2.6-2.3l.2-.1 4.5-2.6 3.4-2 14.2-8.2 3.4-2 8.6-5 3.4-2 4.5-2.6 3.4-2 7.2-4.1 3.4-2 3.6-2.1 3.4-2 8.6-5 3.4-2 4.5-2.6 3.4-2 7.2-4.1 3.4-2 3.6-2.1 3.4-2 2.3-1.3c2.4-1.4 4.9-2.4 7.5-3.1 1.8-.5 3.5-.7 5.3-.9 5.9-.5 11.9.9 17.2 3.9l183.6 106.2c.7.4 1.4.9 1.9 1.5 1.5 1.5 2.4 3.5 2.7 5.5-.1 3.2-1.1 6.3-3.5 8.4z" fill="#e5c385"/><path d="m447.3 723.4v73.1c0 1.1-1.6 2-3.6 2s-3.6-.9-3.6-2v-73.1z" fill="url(#x)"/><path d="m368.9 676.7v73.1c0 1.1-1.6 2-3.6 2s-3.6-.9-3.6-2v-73.1z" fill="url(#y)"/><path d="m502.7 690.3v73.1c0 1.1-1.6 2-3.6 2s-3.6-.9-3.6-2v-73.1z" fill="url(#z)"/><path d="m424.4 643.6v73.1c0 1.1-1.6 2-3.6 2s-3.6-.9-3.6-2v-73.1z" fill="url(#A)"/><path d="m427.5 652.5 24.1 51-2.4 1.1-25.6-54.2c-.6-1.3-1.5-2.3-2.5-3.2 2.9.7 5.2 2.6 6.4 5.3z" fill="#976d6b"/><path d="m431.6 646.4.5.3c-1.6.1-3.3.6-4.8 1.4l-3.9 2.2-.3-1.3-.9-3.6 2.7-1.6c.4-.2.8-.4 1.2-.6z" fill="#aae849"/><path d="m444 653.5-.1.1-.2-.2z" fill="#aae849"/><path d="m502.7 687.5c-4.7 2.5-15.5 12.7-28 19.9-3.2 1.8-6.3 3.6-9 5.2-6.3 3.8-11.4 4.8-15.2 4.7-5.7-.2-8.5-2.8-8.5-2.8s-2-1.9-5.1-5c-9.9-10-31.4-32.6-35.6-44.4-1-3.1-1-5.5.8-6.7 4.8-3.4 13.3-6.7 21-9.2 3-1 6-1.9 8.5-2.7l.5.3 11.5 6.7.3.1z" fill="#aae849"/><path d="m398.5 666c4.2 11.9 28.3 41.3 38.3 51.4l10.9.9c3.8.1 8.9-.9 15.2-4.7 2.7-1.6 5.8-3.4 8.9-5.2z" fill="#88bd20"/><path d="m367.7 673.7-4.7 8.3c1.2 1 2.6-9.2 4.1-8.6z" fill="#6b4be6"/><path d="m363 682c-.1 0-.1-.1-.2-.1z" fill="#4c2ecf"/><path d="m432.5 703.4-2.1-9.4.1-35.5c0-.1 0-.1 0-.1-1.3-5.4-19.4-26.7-22.4-29.6l-70.6-39.9c2.5 3 15.1 19.9 16 23.7.1.2.1.4.2.6l.1.7-.3 34.2.3 1.4 1.9 8.5c1 4.7 3.5 19.7 7.2 22.5 0 0 .1.1.2.1l4.7-8.3 69.1 39.7c-2.2-2.3-3.7-5.3-4.4-8.6zm-33.4-70.6.5 2.4-25.8-15.1c-2.5-1.5-4.7-4.1-5.2-6.4l-.5-2.4 25.8 15.1c2.5 1.5 4.7 4.2 5.2 6.4z" fill="#88bd20"/><path d="m408 628.8-76.6-43.9c2.5 3 21.1 23.9 22 27.8.1.2.1.4.2.6l.1.7 76.7 44.4c-1.2-5.4-19.3-26.7-22.4-29.6zm-39.4-15-.5-2.4 25.8 15.1c2.5 1.5 4.7 4.1 5.2 6.4l.5 2.4-25.8-15.1c-2.5-1.5-4.7-4.2-5.2-6.4z" fill="#7cab21"/><path d="m331.4 584.9 76.6 43.9 2.7-4-76.9-44.1z" fill="#9ed941"/><path d="m441.5 729.4-15.8-9.1-.6-3-46.5-26.4h-4l-5.7-3.3s-6.1-3.3-6.1-3.4c-3.6-2.8-6.2-20.3-7.2-24.9l-2.2-9.9.3.2 76.7 44.4 2.1 9.4c.7 3.3 2.2 6.3 4.3 8.8 1 1.2 3.4 16.2 4.7 17.2z" fill="#7cab21"/><path d="m502.7 687.5-43 24.8c-4.3 2.5-11.6 7-16.1 5s-5.4-10.2-6.5-15l-2-44.9c-1.8-8.1-23.6-31.9-24.1-32.4l-.5-.3-2.7 4c3.1 3 21.3 24.4 22.5 29.7l-.1 35.5c1.4 6.3 5.2 32.7 11.1 35.3 2.6 1.2 17.5-9.3 20.6-11.1l40.9-24.8z" fill="#6ba008"/><path d="m399.7 635.6c.4 2.1-1.2 2.7-3.5 1.3l-26-15.1c-2.5-1.5-4.7-4.2-5.2-6.4l-.6-2.8c-.4-2.1 1.2-2.7 3.5-1.4l.2.1.5 2.4c.5 2.2 2.7 4.9 5.2 6.4l25.8 15.1z" fill="#9ed941"/><path d="m374.5 688.6-3.5-24.1 48.5 28.4 5.6 24.5z" fill="#6d9c11"/><path d="m373.5 666 5.1 24.9h-4.3l.2-2.3-3.5-24.1z" fill="#6ba008"/><path d="m453 453.2-3.4 2-15.1-8.7 3.4-2z" fill="#dbac6e"/><path d="m482 456.1-3.4 2-30.9-17.9c1.8-.5 3.5-.7 5.3-.9z" fill="#d19e64"/><path d="m517.8 492.8-43.7-25.2 3.4-2 43.7 25.2z" fill="#dbac6e"/><path d="m472.3 472.5-3.4 2-41.4-23.9 3.4-2z" fill="#deb671"/><path d="m546.9 495.6-43.7-25.2 3.4-2 43.7 25.3z" fill="#d19e64"/><path d="m586.1 530.4-43.7-25.2 3.4-2 43.7 25.2z" fill="#dbac6e"/><path d="m537.1 512.1-43.6-25.2 3.4-2 43.7 25.2z" fill="#deb671"/><path d="m615.1 533.2-43.7-25.2 3.4-2 43.7 25.2z" fill="#d19e64"/><path d="m655.4 564.6c-.5.5-1 .8-1.5 1.1l-1.7 1-41.5-24 3.4-2z" fill="#dbac6e"/><path d="m605.4 549.7-43.7-25.2 3.4-2 43.7 25.2z" fill="#deb671"/><path d="m658.4 556.4-18.8-10.8 3.4-2 12.7 7.3c1.6 1.6 2.5 3.5 2.7 5.5z" fill="#d19e64"/><path d="m648.5 568.8-3.4 2-15.1-8.8 3.4-1.9z" fill="#deb671"/><path d="m430.5 460.6-3.4 2-10.2-5.9 3.4-2z" fill="#edcd93"/><path d="m416.6 475.6-3.4 2-16.2-9.4 3.4-2z" fill="#dbac6e"/><path d="m445.7 478.4-3.4 2-33.3-19.2 3.4-2z" fill="#d19e64"/><path d="m495.3 500.2-43.6-25.3 3.4-1.9 43.7 25.2z" fill="#edcd93"/><path d="m481.5 515.2-43.7-25.3 3.4-1.9 43.7 25.2z" fill="#dbac6e"/><path d="m436 494.9-3.5 2-42.6-24.6 3.4-2z" fill="#deb671"/><path d="m510.5 518-43.7-25.2 3.4-2 43.7 25.2z" fill="#d19e64"/><path d="m563.6 537.8-43.7-25.3 3.4-1.9 43.7 25.2z" fill="#edcd93"/><path d="m549.7 552.8-43.7-25.3 3.4-1.9 43.7 25.2z" fill="#dbac6e"/><path d="m500.8 534.5-43.7-25.3 3.4-1.9 43.7 25.2z" fill="#deb671"/><path d="m578.8 555.6-43.7-25.2 3.4-2 43.7 25.2z" fill="#d19e64"/><path d="m631.8 575.3-43.6-25.2 3.4-1.9 43.7 25.2z" fill="#edcd93"/><path d="m618 586.4-3.4 2-40.3-23.3 3.4-2z" fill="#dbac6e"/><path d="m569 572.1-43.6-25.3 3.4-1.9 43.7 25.2z" fill="#deb671"/><path d="m630.1 579.5-3.5 1.9-23.3-13.4 3.4-2z" fill="#d19e64"/><path d="m611 590.5-3.4 2-14-8.1 3.4-1.9z" fill="#deb671"/><path d="m394.2 483-3.5 2-11.4-6.6 3.5-2z" fill="#edcd93"/><path d="m380.3 498-3.4 2-17.5-10.1 3.4-2z" fill="#dbac6e"/><path d="m409.3 500.8-3.4 2-34.4-19.9 3.4-2z" fill="#d19e64"/><path d="m459 522.6-43.7-25.3 3.4-1.9 43.7 25.2z" fill="#edcd93"/><path d="m445.1 537.6-43.7-25.3 3.4-1.9 43.7 25.2z" fill="#dbac6e"/><path d="m396.2 519.3-43.7-25.3 3.4-1.9 43.7 25.2z" fill="#deb671"/><path d="m474.2 540.4-43.7-25.2 3.4-2 43.7 25.2z" fill="#d19e64"/><path d="m527.2 560.1-43.6-25.2 3.4-2 43.7 25.3z" fill="#edcd93"/><path d="m513.4 575.1-43.7-25.2 3.4-2 43.7 25.3z" fill="#dbac6e"/><path d="m464.5 556.8-43.7-25.2 3.4-1.9 43.7 25.2z" fill="#deb671"/><path d="m542.4 578-43.7-25.2 3.4-2 43.7 25.2z" fill="#d19e64"/><path d="m595.5 597.7-43.7-25.2 3.4-2 43.7 25.3z" fill="#edcd93"/><path d="m580.5 608.1-3.5 2-39.1-22.6 3.5-2z" fill="#dbac6e"/><path d="m532.7 594.4-43.7-25.2 3.4-2 43.7 25.3z" fill="#deb671"/><path d="m592.5 601.2-3.4 1.9-22.1-12.7 3.4-2z" fill="#d19e64"/><path d="m573.4 612.2-3.4 2-12.7-7.4 3.4-2z" fill="#deb671"/><path d="m357.8 505.4-3.4 1.9-12.6-7.2 3.4-2z" fill="#edcd93"/><path d="m344 520.4-2.2 1.3-4.6-2.7c-2-1.2-3.4-2.9-4.1-4.9z" fill="#dbac6e"/><path d="m373 523.2-3.4 2-35-20.2c.7-.9 1.6-1.6 2.6-2.3l.2-.1z" fill="#d19e64"/><path d="m422.7 544.9-43.7-25.2 3.4-2 43.7 25.3z" fill="#edcd93"/><path d="m408.8 559.9-43.7-25.2 3.4-2 43.7 25.3z" fill="#dbac6e"/><path d="m437.8 562.8-43.7-25.2 3.5-2 43.6 25.2z" fill="#d19e64"/><path d="m490.9 582.5-43.7-25.2 3.4-2 43.7 25.3z" fill="#edcd93"/><path d="m477 597.5-43.7-25.2 3.4-2 43.7 25.3z" fill="#dbac6e"/><path d="m506.1 600.4-43.7-25.2 3.4-2 43.7 25.2z" fill="#d19e64"/><path d="m559.1 620.1-43.6-25.2 3.4-2 43.7 25.2z" fill="#edcd93"/><path d="m541.1 628.8c-2 .4-4 .5-6 .5l-33.5-19.3 3.4-2z" fill="#dbac6e"/><path d="m555 622.9-3.5 1.9-20.9-12.1 3.5-1.9z" fill="#d19e64"/><path clip-rule="evenodd" d="m805.5 536.9-5.9-3.4.5 191 5.9 3.5z" fill="#a09d9c" fill-rule="evenodd"/><path clip-rule="evenodd" d="m740 574.8-5.9-3.5.5 191.1 5.9 3.4z" fill="#a09d9c" fill-rule="evenodd"/><path clip-rule="evenodd" d="m674 607.3-5.9-3.4.5 196.5 5.9 3.5z" fill="#a09d9c" fill-rule="evenodd"/><path clip-rule="evenodd" d="m809.8 528.9-5.9-3.4-135.8 78.4 5.9 3.4z" fill="#b2afaf" fill-rule="evenodd"/><path clip-rule="evenodd" d="m810.4 711.4-5.9-3.5v6.4l5.9 3.5z" fill="#a09d9c" fill-rule="evenodd"/><path clip-rule="evenodd" d="m928.1 426.2-5.9-3.4.7 225.1 5.9 3.5z" fill="#a09d9c" fill-rule="evenodd"/><path clip-rule="evenodd" d="m928.8 651.4-5.9-3.5-118.4 67.7 5.9 3.5z" fill="#b2afaf" fill-rule="evenodd"/><path clip-rule="evenodd" d="m674.6 797.5-5.9-3.5-194.5 113.6 5.9 3.4z" fill="#b2afaf" fill-rule="evenodd"/><path clip-rule="evenodd" d="m670.9 794.3-195.3 114 3 1.8 194.4-113.6z" fill="#d5e3e4" fill-rule="evenodd"/><path clip-rule="evenodd" d="m927.3 650.4-3-1.7-118.4 67.6 2.9 1.8z" fill="#d5e3e4" fill-rule="evenodd"/><path clip-rule="evenodd" d="m672.5 606.3-2.9-1.7.5 190.2 2.9 1.7z" fill="#becccb" fill-rule="evenodd"/><path clip-rule="evenodd" d="m808.3 527.9-2.9-1.7.5 190.1 2.9 1.8z" fill="#becccb" fill-rule="evenodd"/><path clip-rule="evenodd" d="m926.6 425.2-3-1.7.7 225.2 3 1.7z" fill="#becccb" fill-rule="evenodd"/><path clip-rule="evenodd" d="m926.6 425.2-3-1.7-448.7 259.7 3 1.7z" fill="#d5e3e4" fill-rule="evenodd"/><path clip-rule="evenodd" d="m477.9 684.9.7 225.1 194.4-113.5-.5-190.2 135.8-78.4.5 190.2 118.5-67.7-.7-225.2z" fill="#e0f5ff" fill-rule="evenodd" opacity=".5"/><path clip-rule="evenodd" d="m472.7 683.4-5.9-3.5.7 238 5.9 3.4z" fill="#a09d9c" fill-rule="evenodd"/><path clip-rule="evenodd" d="m934.8 416-5.9-3.5-462.1 267.4 5.9 3.5z" fill="#b2afaf" fill-rule="evenodd"/><path clip-rule="evenodd" d="m472.7 683.4.7 237.9 201.2-117.4v-6.4l-194.5 113.5-.7-225.1 448.7-259.7.7 225.2-118.4 67.7v6.4l125.1-71.6-.7-237.9z" fill="#736f6e" fill-rule="evenodd"/><path clip-rule="evenodd" d="m674 607.3.5 196.6 4.4-2.5-.6-191 61.7-35.6.5 191 3.9-2.3-.5-191 61.6-35.6.5 191.1 4.3-2.5-.5-196.6z" fill="#736f6e" fill-rule="evenodd"/></svg>