<svg enable-background="new 0 0 500 500" viewBox="0 0 500 500" xmlns="http://www.w3.org/2000/svg"><path d="m169.9 227.7-.2-.1-6 3.5 6.1 3.5 113.8-65.3-5.8-3.3z" fill="#6d3c30"/><path d="m189.9 230.2 93.7-53.7v-7.2l-115.8 66.3v7.4z" fill="#4f2920"/><path d="m167.7 241.5v-92.1l5.8 3.8-.3 86.7z" fill="#4f2920"/><path d="m161.8 239.5 6 3.5v-93.7l-6-3.5z" fill="#6d3c30"/><path d="m211.9 125.6h3.1v83.4h-3.1z" fill="#6d3c30"/><path d="m283.6 82.3-115.8 67v7.4l115.8-67.2z" fill="#4f2920"/><path d="m161.8 145.9 6 3.4 115.8-67-6-3.5z" fill="#824938"/><path d="m238.1 196.8-23.1 13.4v-85.1l23.1-13.3z" fill="#4f2920"/><path d="m454.5 261.3h7.7v8.9h-7.7z" fill="#4f2920"/><path d="m475.3 207.5-25.7-14.8v-7.4l25.7 14.9z" fill="#4f2920"/><path d="m444.9 176.4-5.4 3.1 41.8 24.1 5.3-3.1z" fill="#824938"/><path d="m475.5 294.6-37.2-21.4v-7.3l37.2 21.4z" fill="#4f2920"/><path d="m444.9 263.5-5.4 3.1 41.8 24 5.3-3z" fill="#6d3c30"/><path d="m449.7 144-199.5-114.6s10-8.3 17.9-6c4.6 2.6 199.5 114.7 199.5 114.7z" fill="#ffe6cf"/><path d="m367.2 325.5-194.9-112.3 95.1-55.3 194.9 112.3z" fill="#4f2920"/><path d="m239.1 75.3c.6-17.6 0-25 5.4-37.6 1.5-3.6 3.5-6.3 5.7-8.3l198.6 114.2c-2.3 2.1-4.4 4.8-6 8.6-5.4 12.7-4.8 20-5.4 37.6-.7 23.2 7.7 57.7 7.7 57.7s-.4.1-1.1.4c0 0-197.2-115.4-197.3-115.6.1-.2-8.3-35.1-7.6-57z" fill="#e5bca4"/><path d="m372.5 292.3-204.3-118.5c11.1-20.4 78.6-41.6 78.6-41.6l198.3 115.3z" fill="#ffe6cf"/><path d="m168.5 173.9s46.3 20.2 198.3 114.3z" fill="#fff6ee"/><path d="m366.8 288.2c12.3-21.1 78.4-40.7 78.4-40.7s-8.4-34.5-7.7-57.7c.6-17.6 0-25 5.4-37.6 7.1-16.7 24.8-14.3 24.8-14.3 3.5 8.7-5.1 42.9-5.7 67.5-.6 21.4-2 38.3 2.6 57.6-.2.1-95.5 54.6-97.6 55.8-.2-.1-10.6-12.8-.2-30.6z" fill="#e0ba9e"/><path d="m366.8 288.2c-10.2 17.6-.3 30.3 0 30.6l-198.4-114.4s-10.5-12.6-.2-30.6c2.1 1.1 198.6 114.4 198.6 114.4z" fill="#e5bca4"/><g fill="#e0ba9e"><path d="m168.4 204.4s-10.7-14.6 0-30.5l198.3 114.3s-11.1 15.9 0 30.6c0 0-40.8-46.3-112.2-87-52.8-30.2-86.1-27.4-86.1-27.4z" opacity=".2"/><path d="m364.6 290.8c.6-.8 1.2-1.5 1.9-2.1.1-.2.2-.3.3-.5 0 0-190.4-109.7-198.3-114.3-.2.2-.5.4-.7.6-.4.7-.8 1.4-1.1 2.1 26.7 12.6 187.2 103.6 197.9 114.2z" opacity=".24"/><path d="m366.8 288.2c12.3-21.1 78.4-40.7 78.4-40.7s-8.4-34.5-7.7-57.7c.6-17.6 0-25 5.4-37.6 7.1-16.7 24.8-14.3 24.8-14.3-33.7 7.1-21.3 88.4-14.9 115.5-.1.1-42.1 8.7-72 28.2-19.4 12.7-13 36.8-13.9 37.3-.1-.2-10.5-12.9-.1-30.7z" opacity=".6"/><path d="m246.8 132.1s125 61.7 198.3 115.3z" opacity=".3"/></g><path d="m372.9 346-.2-.1-6 3.5 6 3.5 113.9-65.3-5.8-3.4z" fill="#6d3c30"/><path d="m392.9 348.5 93.7-53.7v-7.2l-115.8 66.3v7.4z" fill="#4f2920"/><path d="m370.7 359.8v-92.1l5.8 3.7-.3 86.8z" fill="#4f2920"/><path d="m364.8 357.7 6 3.5v-93.6l-6-3.5z" fill="#6d3c30"/><path d="m414.9 243.9h3.1v83.4h-3.1z" fill="#6d3c30"/><path d="m486.6 200.6-115.8 67v7.4l115.8-67.2z" fill="#4f2920"/><path d="m364.8 264.1 6 3.5 115.8-67-6-3.5z" fill="#824938"/><path d="m441 315.1-23 13.3v-85l23-13.3z" fill="#4f2920"/><path d="m446.1 146.4c.6-.8 1.3-1.5 2-2.2.6-.6.7-.6.7-.6l-198.6-114.2c-1.6 1.4-2.5 2.7-2.5 2.7 25.1 11.6 187.7 103.8 198.4 114.3z" fill="#e0ba9e" opacity=".24"/><path d="m282.6 97.5c.2-.2.3-.6.3-1 0-.5-.1-1-.4-1.5 3.3-2.5 7.5-3.7 6.7-4.8-1.5-1.8-6.6 3.7-7.1 4.2-.3-.5-.8-.9-1.2-1.2-.4-.2-.8-.3-1.1-.2-3.5-4.9-5.6-12.3-7-12.3-1.5 0 3.2 9.9 6.6 12.5-.3.2-.4.6-.4 1.1s.1 1 .4 1.5c-1 .4-8.1 3.1-6.6 4.8 1.2.9 4.5-2.8 7-4.1.3.5.7.8 1.1 1.1.5.3.9.3 1.2.2 2.1 6.2 5.6 12.3 7.1 12.3 1.7-.1-4.6-7.5-6.6-12.6z" fill="#e0ba9e" opacity=".6"/><path d="m282.5 96.4c0 1.6-2 1.6-3.1 0-1.2-1.9-.2-3.8 1.4-2.9 1 .5 1.7 1.8 1.7 2.9z" fill="#e5bca4"/><path d="m281.3 95.8c0 1-1.2 1-1.9 0-.7-1.1-.1-2.3.8-1.7.7.2 1.1 1 1.1 1.7z" fill="#e5bca4" opacity=".2"/><path d="m343 132c.2-.2.3-.6.3-1 0-.5-.1-1-.4-1.5 3.3-2.5 7.5-3.7 6.7-4.8-1.5-1.8-6.6 3.7-7.1 4.2-.3-.5-.8-.9-1.2-1.2-.4-.2-.8-.3-1.1-.2-3.5-4.9-5.6-12.3-7-12.3-1.5 0 3.2 9.9 6.6 12.5-.3.2-.4.6-.4 1.1s.1 1 .4 1.5c-1 .4-8.1 3.1-6.6 4.8 1.2.9 4.5-2.8 7-4.1.3.5.7.8 1.1 1.1.5.3.9.3 1.2.2 2.1 6.2 5.6 12.3 7.1 12.3 1.7-.1-4.6-7.5-6.6-12.6z" fill="#e0ba9e" opacity=".6"/><path d="m342.9 130.9c0 1.6-2 1.6-3.1 0-1.2-1.9-.2-3.8 1.4-2.9 1 .5 1.7 1.8 1.7 2.9z" fill="#e5bca4"/><path d="m341.7 130.3c0 1-1.2 1-1.9 0-.7-1.1-.1-2.3.8-1.7.7.2 1.1 1 1.1 1.7z" fill="#e5bca4" opacity=".2"/><path d="m403.6 166c.2-.2.3-.6.3-1 0-.5-.1-1-.4-1.5 3.3-2.5 7.5-3.7 6.7-4.8-1.5-1.8-6.6 3.7-7.1 4.2-.3-.5-.8-.9-1.2-1.2-.4-.2-.8-.3-1.1-.2-3.5-4.9-5.6-12.3-7-12.3-1.5 0 3.2 9.9 6.6 12.5-.3.2-.4.6-.4 1.1s.1 1 .4 1.5c-1 .4-8.1 3.1-6.6 4.8 1.2.9 4.5-2.8 7-4.1.3.5.7.8 1.1 1.1.5.3.9.3 1.2.2 2.1 6.2 5.6 12.3 7.1 12.3 1.7-.1-4.6-7.5-6.6-12.6z" fill="#e0ba9e" opacity=".6"/><path d="m403.5 164.9c0 1.6-2 1.6-3.1 0-1.2-1.9-.2-3.8 1.4-2.9 1 .5 1.7 1.8 1.7 2.9z" fill="#e5bca4"/><path d="m402.3 164.3c0 1-1.2 1-1.9 0-.7-1.1-.1-2.3.8-1.7.6.3 1.1 1.1 1.1 1.7z" fill="#e5bca4" opacity=".2"/><path d="m250.2 29.4 198.6 114.2s-138.5-85.2-198.6-114.2z" fill="#fff6ee"/><path d="m286.2 367.3v.1l.1-.1z" fill="#a35c43"/><path d="m286.3 367.3-.1.1v37.3l2.3 1.3v-37.3z" fill="#d7b37f"/><path d="m290.7 367.4-2.3-1.4-2.2 1.3 2.3 1.4z" fill="#b26750"/><path d="m288.5 368.7v37.3l2.2-1.2v-37.4z" fill="#987847"/><path d="m286.2 330.1h.1z" fill="#a35c43"/><path d="m286.3 330.1h-.1v37.3l2.3 1.4v-37.4z" fill="#d7b37f"/><path d="m290.7 330.2-2.3-1.4-2.2 1.3 2.3 1.3z" fill="#b26750"/><path d="m288.5 331.4v37.4l2.2-1.2v-37.5z" fill="#987847"/><path d="m155.2 307.7 87.2 50.3 24.2-13.9 24.2-14-87.3-50.3-87.3-50.4-24.1 13.9-24.2 14z" fill="#f9d7a4"/><path d="m290.8 330.1-24.2 14-24.2 13.9v6.6l48.3-27.9z" fill="#987847"/><path d="m240.8 360.5c0 .8-.5 1.1-1.2.7l-169-97.6c-.7-.4-1.2-1.3-1.2-2v-.7c0-.8.5-1.1 1.2-.7l169 97.6c.7.4 1.2 1.3 1.2 2z" fill="#b26750" opacity=".5"/><path d="m192 421.7v.1l.1-.1z" fill="#a35c43"/><path d="m192.1 421.7-.1.1v37.3l2.3 1.3v-37.4z" fill="#d7b37f"/><path d="m196.5 421.8-2.3-1.4-2.1 1.3 2.2 1.4z" fill="#b26750"/><path d="m194.3 423.1v37.3l2.2-1.2v-37.4z" fill="#987847"/><path d="m192 384.5h.1z" fill="#a35c43"/><path d="m192.1 384.5h-.1v37.3l2.3 1.4v-37.4z" fill="#d7b37f"/><path d="m196.5 384.5-2.3-1.3-2.1 1.3 2.2 1.3z" fill="#b26750"/><path d="m194.3 385.8v37.4l2.2-1.3v-37.4z" fill="#987847"/><path d="m19.8 322.6v.1z" fill="#a35c43"/><path d="m19.8 322.6v.1 37.3l2.3 1.3v-37.3z" fill="#d7b37f"/><path d="m24.3 322.7-2.4-1.4-2.1 1.3 2.3 1.4z" fill="#b26750"/><path d="m22.1 324v37.3l2.2-1.2v-37.4z" fill="#987847"/><path d="m19.8 285.4v37.3l2.3 1.4v-37.4z" fill="#d7b37f"/><path d="m24.3 285.5-2.4-1.4-2.1 1.3 2.3 1.3z" fill="#b26750"/><path d="m22.1 286.7v37.4l2.2-1.2v-37.5z" fill="#987847"/><path d="m194.3 385.8-87.3-50.4-87.2-50.4v6.3l174.5 101.2z" fill="#d7b37f"/><path d="m107.1 335.4 87.2 50.4 24.2-13.9 24.1-14-87.2-50.4-87.3-50.4-24.1 14-24.2 13.9z" fill="#f9d7a4"/><path d="m242.6 357.9-24.1 14v-.1l-24.2 14v6.5l48.3-27.9z" fill="#987847"/><path d="m201.3 280.3-84-48.5-23.2 13.4-23 13.3-23.3 13.4-23.2 13.5 84 48.4 83.9 48.5 23.2-13.4 23.1-13.3 23.2-13.4 23.3-13.4z" fill="#efd289" opacity=".3"/><g fill="#efd289" opacity=".3"><path d="m52.5 271.1-1.1.7 164.9 95.2 1.1-.6z"/><path d="m55.7 269.3-1.1.6 164.9 95.2 1.2-.6z"/><path d="m59 267.4-1.1.7 164.9 95.2 1.1-.7z"/><path d="m62.2 265.5-1.1.7 164.9 95.2 1.1-.7z"/><path d="m65.5 263.7-1.2.6 164.9 95.2 1.2-.6z"/><path d="m68.7 261.8-1.1.6 164.9 95.2 1.1-.6z"/><path d="m72 259.9-1.2.7 164.9 95.2 1.1-.7z"/><path d="m30.2 284-1.2.7 165.1 95.3 1.1-.7z"/><path d="m33.4 282.2-1.1.6 165 95.3 1.1-.7z"/><path d="m36.7 280.3-1.2.6 165 95.3 1.2-.7z"/><path d="m39.9 278.4-1.1.7 165 95.2 1.1-.6z"/><path d="m43.2 276.5-1.2.7 165 95.2 1.1-.6z"/><path d="m46.4 274.7-1.1.6 164.9 95.3 1.2-.7z"/><path d="m49.6 272.8-1.1.6 165 95.3 1.1-.7z"/></g><g fill="#efd289" opacity=".3"><path d="m98.5 245.1-1.2.6 164.4 94.9 1.1-.6z"/><path d="m101.7 243.2-1.1.7 164.4 94.9 1.1-.7z"/><path d="m105 241.3-1.2.7 164.4 94.9 1.1-.7z"/><path d="m108.2 239.5-1.1.6 164.3 94.9 1.2-.7z"/><path d="m111.5 237.6-1.2.6 164.4 94.9 1.1-.6z"/><path d="m114.7 235.7-1.1.7 164.3 94.8 1.1-.6z"/><path d="m117.9 233.8-1.1.7 164.3 94.9 1.2-.7z"/><path d="m76.2 258-1.2.6 164.5 95 1.1-.7z"/><path d="m79.4 256.1-1.1.6 164.4 95 1.1-.7z"/><path d="m82.6 254.2-1.1.7 164.4 94.9 1.2-.7z"/><path d="m85.9 252.3-1.1.7 164.4 94.9 1.1-.6z"/><path d="m89.1 250.5-1.1.6 164.4 94.9 1.1-.6z"/><path d="m92.4 248.6-1.2.6 164.4 95 1.2-.7z"/><path d="m95.6 246.7-1.1.7 164.4 94.9 1.1-.7z"/></g></svg>