<?xml version="1.0" encoding="utf-8"?>
<!-- Generator: Adobe Illustrator 22.0.0, SVG Export Plug-In . SVG Version: 6.00 Build 0)  -->
<svg version="1.1" id="Layer_1" xmlns="http://www.w3.org/2000/svg" xmlns:xlink="http://www.w3.org/1999/xlink" x="0px" y="0px"
	 viewBox="0 0 500 350" style="enable-background:new 0 0 500 350;" xml:space="preserve">
<style type="text/css">
	.st0{fill:#CCCCCC;}
	.st1{fill-rule:evenodd;clip-rule:evenodd;fill:#CCCCCC;}
	.st2{fill:#1A1A1A;}
	.st3{fill:#CCCCCC;stroke:#CCCCCC;stroke-miterlimit:10;}
</style>
<g>
	<path class="st0" d="M12.4,201.9v7.7c0,1.4,1.1,2.5,2.5,2.5h2.3v-12.7H15C13.6,199.4,12.4,200.5,12.4,201.9z M16.5,211.4H15
		c-1,0-1.8-0.8-1.8-1.8v-7.7c0-1,0.8-1.8,1.8-1.8h1.5V211.4z"/>
	<path class="st0" d="M50.4,199.4h-2.3v12.7h2.3c1.4,0,2.5-1.1,2.5-2.5v-7.7C52.9,200.5,51.8,199.4,50.4,199.4z M52.1,209.6
		c0,1-0.8,1.8-1.8,1.8h-1.5v-11.2h1.5c1,0,1.8,0.8,1.8,1.8V209.6z"/>
	<path class="st0" d="M39,188.1c0-1.4-1.1-2.5-2.5-2.5h-7.7c-1.4,0-2.5,1.1-2.5,2.5v2.3H39V188.1z M38.3,189.6H27.1v-1.5
		c0-1,0.8-1.8,1.8-1.8h7.7c1,0,1.8,0.8,1.8,1.8V189.6z"/>
	<path class="st0" d="M26.3,223.5c0,1.4,1.1,2.5,2.5,2.5h7.7c1.4,0,2.5-1.1,2.5-2.5v-2.3H26.3V223.5z M27.1,222h11.2v1.5
		c0,1-0.8,1.8-1.8,1.8h-7.7c-1,0-1.8-0.8-1.8-1.8V222z"/>
	<path class="st0" d="M19.1,219.3h27.1v-27.1H19.1V219.3z M19.9,193h25.6v25.6H19.9V193z"/>
</g>
<g>
	<polygon class="st1" points="0,178.2 0,180.6 70.8,180.6 70.8,178.2 0,178.2 	"/>
</g>
<g>
	<polygon class="st1" points="71.2,179.4 68.7,179.4 68.7,235.8 71.2,235.8 71.2,179.4 	"/>
</g>
<g>
	<path class="st0" d="M12.4,259.5v7.7c0,1.4,1.1,2.5,2.5,2.5h2.3V257H15C13.6,257,12.4,258.2,12.4,259.5z M16.5,269H15
		c-1,0-1.8-0.8-1.8-1.8v-7.7c0-1,0.8-1.8,1.8-1.8h1.5V269z"/>
	<path class="st0" d="M50.4,257h-2.3v12.7h2.3c1.4,0,2.5-1.1,2.5-2.5v-7.7C52.9,258.2,51.8,257,50.4,257z M52.1,267.2
		c0,1-0.8,1.8-1.8,1.8h-1.5v-11.2h1.5c1,0,1.8,0.8,1.8,1.8V267.2z"/>
	<path class="st0" d="M39,245.7c0-1.4-1.1-2.5-2.5-2.5h-7.7c-1.4,0-2.5,1.1-2.5,2.5v2.3H39V245.7z M38.3,247.2H27.1v-1.5
		c0-1,0.8-1.8,1.8-1.8h7.7c1,0,1.8,0.8,1.8,1.8V247.2z"/>
	<path class="st0" d="M26.3,281.1c0,1.4,1.1,2.5,2.5,2.5h7.7c1.4,0,2.5-1.1,2.5-2.5v-2.3H26.3V281.1z M27.1,279.6h11.2v1.5
		c0,1-0.8,1.8-1.8,1.8h-7.7c-1,0-1.8-0.8-1.8-1.8V279.6z"/>
	<path class="st0" d="M19.1,277h27.1v-27.1H19.1V277z M19.9,250.6h25.6v25.6H19.9V250.6z"/>
</g>
<g>
	<polygon class="st1" points="0,235.8 0,238.2 70.8,238.2 70.8,235.8 0,235.8 	"/>
</g>
<g>
	<polygon class="st1" points="71.2,237 68.7,237 68.7,293.4 71.2,293.4 71.2,237 	"/>
</g>
<g>
	<path class="st0" d="M12.4,317.2v7.7c0,1.4,1.1,2.5,2.5,2.5h2.3v-12.7H15C13.6,314.7,12.4,315.8,12.4,317.2z M16.5,326.6H15
		c-1,0-1.8-0.8-1.8-1.8v-7.7c0-1,0.8-1.8,1.8-1.8h1.5V326.6z"/>
	<path class="st0" d="M50.4,314.7h-2.3v12.7h2.3c1.4,0,2.5-1.1,2.5-2.5v-7.7C52.9,315.8,51.8,314.7,50.4,314.7z M52.1,324.9
		c0,1-0.8,1.8-1.8,1.8h-1.5v-11.2h1.5c1,0,1.8,0.8,1.8,1.8V324.9z"/>
	<path class="st0" d="M39,303.3c0-1.4-1.1-2.5-2.5-2.5h-7.7c-1.4,0-2.5,1.1-2.5,2.5v2.3H39V303.3z M38.3,304.8H27.1v-1.5
		c0-1,0.8-1.8,1.8-1.8h7.7c1,0,1.8,0.8,1.8,1.8V304.8z"/>
	<path class="st0" d="M26.3,338.7c0,1.4,1.1,2.5,2.5,2.5h7.7c1.4,0,2.5-1.1,2.5-2.5v-2.3H26.3V338.7z M27.1,337.2h11.2v1.5
		c0,1-0.8,1.8-1.8,1.8h-7.7c-1,0-1.8-0.8-1.8-1.8V337.2z"/>
	<path class="st0" d="M19.1,334.6h27.1v-27.1H19.1V334.6z M19.9,308.2h25.6v25.6H19.9V308.2z"/>
</g>
<g>
	<polygon class="st1" points="0,293.4 0,295.8 70.8,295.8 70.8,293.4 0,293.4 	"/>
</g>
<g>
	<polygon class="st1" points="71.2,294.6 68.7,294.6 68.7,350 71.2,350 71.2,294.6 	"/>
</g>
<g>
	<path class="st0" d="M12.4,146.8v7.7c0,1.4,1.1,2.5,2.5,2.5h2.3v-12.7H15C13.6,144.3,12.4,145.4,12.4,146.8z M16.5,156.2H15
		c-1,0-1.8-0.8-1.8-1.8v-7.7c0-1,0.8-1.8,1.8-1.8h1.5V156.2z"/>
	<path class="st0" d="M50.4,144.3h-2.3V157h2.3c1.4,0,2.5-1.1,2.5-2.5v-7.7C52.9,145.4,51.8,144.3,50.4,144.3z M52.1,154.5
		c0,1-0.8,1.8-1.8,1.8h-1.5V145h1.5c1,0,1.8,0.8,1.8,1.8V154.5z"/>
	<path class="st0" d="M39,132.9c0-1.4-1.1-2.5-2.5-2.5h-7.7c-1.4,0-2.5,1.1-2.5,2.5v2.3H39V132.9z M38.3,134.4H27.1v-1.5
		c0-1,0.8-1.8,1.8-1.8h7.7c1,0,1.8,0.8,1.8,1.8V134.4z"/>
	<path class="st0" d="M26.3,168.3c0,1.4,1.1,2.5,2.5,2.5h7.7c1.4,0,2.5-1.1,2.5-2.5v-2.3H26.3V168.3z M27.1,166.8h11.2v1.5
		c0,1-0.8,1.8-1.8,1.8h-7.7c-1,0-1.8-0.8-1.8-1.8V166.8z"/>
	<path class="st0" d="M19.1,164.2h27.1v-27.1H19.1V164.2z M19.9,137.8h25.6v25.6H19.9V137.8z"/>
</g>
<g>
	<polygon class="st1" points="0,123 0,125.5 70.8,125.5 70.8,123 0,123 	"/>
</g>
<g>
	<polygon class="st1" points="71.2,124.2 68.7,124.2 68.7,180.6 71.2,180.6 71.2,124.2 	"/>
</g>
<g>
	<g>
		<path class="st0" d="M135.5,331.6h59.7v-25.4h-59.7V331.6z M136.5,306.9h57.8v24h-57.8V306.9z"/>
		<path class="st0" d="M161.7,299.9c-1.3,0-2.4,1.1-2.4,2.3v2.1h11.9v-2.1c0-1.3-1.1-2.3-2.4-2.3H161.7z M170.6,302.3v1.4h-10.5
			v-1.4c0-0.9,0.7-1.6,1.6-1.6h7.2C169.8,300.6,170.6,301.4,170.6,302.3z"/>
		<path class="st0" d="M187,302.3c0-1.3-1.1-2.3-2.3-2.3h-7.2c-1.3,0-2.4,1.1-2.4,2.3v2.1H187V302.3z M186.3,303.7h-10.5v-1.4
			c0-0.9,0.7-1.6,1.6-1.6h7.2c0.9,0,1.6,0.7,1.6,1.6V303.7z"/>
		<path class="st0" d="M159.4,335.6c0,1.3,1.1,2.4,2.4,2.4h7.2c1.3,0,2.4-1.1,2.4-2.4v-2.1h-11.9V335.6z M160.1,334.2h10.5v1.4
			c0,0.9-0.7,1.6-1.6,1.6h-7.2c-0.9,0-1.6-0.7-1.6-1.6V334.2z"/>
		<path class="st0" d="M129.6,315.3v7.2c0,1.3,1.1,2.3,2.4,2.3h2.1V313h-2.1C130.6,313,129.6,314,129.6,315.3z M133.4,324.1h-1.4
			c-0.9,0-1.6-0.7-1.6-1.6v-7.2c0-0.9,0.7-1.6,1.6-1.6h1.4V324.1z"/>
		<path class="st0" d="M198.5,313h-2.1v11.9h2.1c1.3,0,2.4-1.1,2.4-2.3v-7.2C200.8,314,199.8,313,198.5,313z M200.1,322.5
			c0,0.9-0.7,1.6-1.6,1.6h-1.4v-10.5h1.4c0.9,0,1.6,0.7,1.6,1.6V322.5z"/>
		<path class="st0" d="M175.1,335.6c0,1.3,1.1,2.4,2.4,2.4h7.2c1.3,0,2.3-1.1,2.3-2.4v-2.1h-11.9V335.6z M175.8,334.2h10.5v1.4
			c0,0.9-0.7,1.6-1.6,1.6h-7.2c-0.9,0-1.6-0.7-1.6-1.6V334.2z"/>
		<path class="st0" d="M156.1,302.3c0-1.3-1.1-2.3-2.3-2.3h-7.2c-1.3,0-2.4,1.1-2.4,2.3v2.1h11.9V302.3z M155.4,303.7h-10.5v-1.4
			c0-0.9,0.7-1.6,1.6-1.6h7.2c0.9,0,1.6,0.7,1.6,1.6V303.7z"/>
		<path class="st0" d="M144.4,335.6c0,1.3,1.1,2.4,2.4,2.4h7.2c1.3,0,2.4-1.1,2.4-2.4v-2.1h-11.9V335.6z M145.1,334.2h10.5v1.4
			c0,0.9-0.7,1.6-1.6,1.6h-7.2c-0.9,0-1.6-0.7-1.6-1.6V334.2z"/>
	</g>
	<g>
		<polygon class="st1" points="122.1,287 119.6,287 119.6,350 122.1,350 122.1,287 		"/>
	</g>
	<g>
		<polygon class="st1" points="120,286.3 120,288.8 215,288.8 215,286.3 120,286.3 		"/>
	</g>
	<g>
		<polygon class="st1" points="215.1,287 212.6,287 212.6,350 215.1,350 215.1,287 		"/>
	</g>
	<g>
		<polygon class="st1" points="215,286.3 215,288.8 310,288.8 310,286.3 215,286.3 		"/>
	</g>
	<g>
		<polygon class="st1" points="310.1,287 307.6,287 307.6,350 310.1,350 310.1,287 		"/>
	</g>
	<g>
		<polygon class="st1" points="310,286.3 310,288.8 405,288.8 405,286.3 310,286.3 		"/>
	</g>
	<g>
		<polygon class="st1" points="405.1,287 402.6,287 402.6,350 405.1,350 405.1,287 		"/>
	</g>
	<g>
		<polygon class="st1" points="405,286.3 405,288.8 500,288.8 500,286.3 405,286.3 		"/>
	</g>
</g>
<g>
	<g>
		<path class="st0" d="M486,237.9v-85.2h-27.8v85.2H486z M459,236.5V154h26.2v82.5H459z"/>
		<path class="st0" d="M490.8,232.8c1.1,0,2.1-1,2.1-2.3v-7c0-1.3-0.9-2.3-2.1-2.3H489v11.6H490.8z M489.6,232.1v-10.3h1.2
			c0.8,0,1.4,0.7,1.4,1.6v7c0,0.9-0.6,1.6-1.4,1.6H489.6z"/>
		<path class="st0" d="M490.8,217.4c1.1,0,2.1-1,2.1-2.3v-7c0-1.3-0.9-2.3-2.1-2.3H489v11.6H490.8z M489.6,216.7v-10.3h1.2
			c0.8,0,1.4,0.7,1.4,1.6v7c0,0.9-0.6,1.6-1.4,1.6H489.6z"/>
		<path class="st0" d="M490.8,200.6c1.1,0,2.1-1,2.1-2.3v-7c0-1.3-0.9-2.3-2.1-2.3H489v11.6H490.8z M489.6,199.9v-10.3h1.2
			c0.8,0,1.4,0.7,1.4,1.6v7c0,0.9-0.6,1.6-1.4,1.6H489.6z"/>
		<path class="st0" d="M490.8,185.2c1.1,0,2.1-1,2.1-2.3v-7c0-1.3-0.9-2.3-2.1-2.3H489v11.6H490.8z M489.6,184.5v-10.3h1.2
			c0.8,0,1.4,0.7,1.4,1.6v7c0,0.9-0.6,1.6-1.4,1.6H489.6z"/>
		<path class="st0" d="M490.8,168.7c1.1,0,2.1-1,2.1-2.3v-7c0-1.3-0.9-2.3-2.1-2.3H489v11.6H490.8z M489.6,168v-10.3h1.2
			c0.8,0,1.4,0.7,1.4,1.6v7c0,0.9-0.6,1.6-1.4,1.6H489.6z"/>
		<path class="st0" d="M451.5,157c-1.1,0-2.1,1-2.1,2.3v7c0,1.3,0.9,2.3,2.1,2.3h1.9V157H451.5z M452.7,157.7V168h-1.2
			c-0.8,0-1.4-0.7-1.4-1.6v-7c0-0.9,0.6-1.6,1.4-1.6H452.7z"/>
		<path class="st0" d="M451.5,172.4c-1.1,0-2.1,1-2.1,2.3v7c0,1.3,0.9,2.3,2.1,2.3h1.9v-11.6H451.5z M452.7,173.1v10.3h-1.2
			c-0.8,0-1.4-0.7-1.4-1.6v-7c0-0.9,0.6-1.6,1.4-1.6H452.7z"/>
		<path class="st0" d="M451.5,189.2c-1.1,0-2.1,1-2.1,2.3v7c0,1.3,0.9,2.3,2.1,2.3h1.9v-11.6H451.5z M452.7,189.9v10.3h-1.2
			c-0.8,0-1.4-0.7-1.4-1.6v-7c0-0.9,0.6-1.6,1.4-1.6H452.7z"/>
		<path class="st0" d="M451.5,204.6c-1.1,0-2.1,1-2.1,2.3v7c0,1.3,0.9,2.3,2.1,2.3h1.9v-11.6H451.5z M452.7,205.3v10.3h-1.2
			c-0.8,0-1.4-0.7-1.4-1.6v-7c0-0.9,0.6-1.6,1.4-1.6H452.7z"/>
		<path class="st0" d="M451.5,221.2c-1.1,0-2.1,1-2.1,2.3v7c0,1.3,0.9,2.3,2.1,2.3h1.9v-11.6H451.5z M452.7,221.8v10.3h-1.2
			c-0.8,0-1.4-0.7-1.4-1.6v-7c0-0.9,0.6-1.6,1.4-1.6H452.7z"/>
	</g>
	<g>
		<polygon class="st1" points="439,256.1 439,258.4 500.6,258.4 500.6,256.1 439,256.1 		"/>
	</g>
	<g>
		<polygon class="st1" points="437.4,258.4 439.7,258.4 439.7,132.4 437.4,132.4 437.4,258.4 		"/>
	</g>
	<g>
		<polygon class="st1" points="439,132.8 439,135.1 500.6,135.1 500.6,132.8 439,132.8 		"/>
	</g>
</g>
<path class="st0" d="M473,110.7v9.4c0,1.7,1.4,3.1,3.1,3.1h2.8v-15.5h-2.8C474.4,107.6,473,109,473,110.7z M477.9,122.2h-1.8
	c-1.2,0-2.1-1-2.1-2.1v-9.4c0-1.2,1-2.1,2.1-2.1h1.8V122.2z"/>
<path class="st0" d="M473,89.7v9.4c0,1.7,1.4,3.1,3.1,3.1h2.8V86.6h-2.8C474.4,86.6,473,88,473,89.7z M477.9,101.2h-1.8
	c-1.2,0-2.1-1-2.1-2.1v-9.4c0-1.2,1-2.1,2.1-2.1h1.8V101.2z"/>
<path class="st0" d="M473,68.7v9.4c0,1.7,1.4,3.1,3.1,3.1h2.8V65.6h-2.8C474.4,65.6,473,67,473,68.7z M477.9,80.2h-1.8
	c-1.2,0-2.1-1-2.1-2.1v-9.4c0-1.2,1-2.1,2.1-2.1h1.8V80.2z"/>
<path class="st0" d="M473,47.7v9.4c0,1.7,1.4,3.1,3.1,3.1h2.8V44.6h-2.8C474.4,44.6,473,46,473,47.7z M477.9,59.2h-1.8
	c-1.2,0-2.1-1-2.1-2.1v-9.4c0-1.2,1-2.1,2.1-2.1h1.8V59.2z"/>
<path class="st0" d="M473,26.7v9.4c0,1.7,1.4,3.1,3.1,3.1h2.8V23.6h-2.8C474.4,23.6,473,25,473,26.7z M477.9,38.2h-1.8
	c-1.2,0-2.1-1-2.1-2.1v-9.4c0-1.2,1-2.1,2.1-2.1h1.8V38.2z"/>
<path class="st0" d="M449.2,24.3h9.4c1.7,0,3.1-1.4,3.1-3.1v-2.8h-15.5v2.8C446.2,22.9,447.5,24.3,449.2,24.3z M460.7,19.4v1.8
	c0,1.2-1,2.1-2.1,2.1h-9.4c-1.2,0-2.1-1-2.1-2.1v-1.8H460.7z"/>
<path class="st0" d="M428.2,24.3h9.4c1.7,0,3.1-1.4,3.1-3.1v-2.8h-15.5v2.8C425.2,22.9,426.5,24.3,428.2,24.3z M439.7,19.4v1.8
	c0,1.2-1,2.1-2.1,2.1h-9.4c-1.2,0-2.1-1-2.1-2.1v-1.8H439.7z"/>
<path class="st0" d="M407.2,24.3h9.4c1.7,0,3.1-1.4,3.1-3.1v-2.8h-15.5v2.8C404.2,22.9,405.5,24.3,407.2,24.3z M418.7,19.4v1.8
	c0,1.2-1,2.1-2.1,2.1h-9.4c-1.2,0-2.1-1-2.1-2.1v-1.8H418.7z"/>
<path class="st0" d="M386.2,24.3h9.4c1.7,0,3.1-1.4,3.1-3.1v-2.8h-15.5v2.8C383.2,22.9,384.5,24.3,386.2,24.3z M397.7,19.4v1.8
	c0,1.2-1,2.1-2.1,2.1h-9.4c-1.2,0-2.1-1-2.1-2.1v-1.8H397.7z"/>
<path class="st0" d="M365.2,24.3h9.4c1.7,0,3.1-1.4,3.1-3.1v-2.8h-15.5v2.8C362.2,22.9,363.5,24.3,365.2,24.3z M376.7,19.4v1.8
	c0,1.2-1,2.1-2.1,2.1h-9.4c-1.2,0-2.1-1-2.1-2.1v-1.8H376.7z"/>
<g>
	<path class="st0" d="M230.5,331.6h59.7v-25.4h-59.7V331.6z M231.5,306.9h57.8v24h-57.8V306.9z"/>
	<path class="st0" d="M256.7,299.9c-1.3,0-2.4,1.1-2.4,2.3v2.1h11.9v-2.1c0-1.3-1.1-2.3-2.4-2.3H256.7z M265.6,302.3v1.4h-10.5v-1.4
		c0-0.9,0.7-1.6,1.6-1.6h7.2C264.8,300.6,265.6,301.4,265.6,302.3z"/>
	<path class="st0" d="M282,302.3c0-1.3-1.1-2.3-2.3-2.3h-7.2c-1.3,0-2.4,1.1-2.4,2.3v2.1H282V302.3z M281.3,303.7h-10.5v-1.4
		c0-0.9,0.7-1.6,1.6-1.6h7.2c0.9,0,1.6,0.7,1.6,1.6V303.7z"/>
	<path class="st0" d="M254.4,335.6c0,1.3,1.1,2.4,2.4,2.4h7.2c1.3,0,2.4-1.1,2.4-2.4v-2.1h-11.9V335.6z M255.1,334.2h10.5v1.4
		c0,0.9-0.7,1.6-1.6,1.6h-7.2c-0.9,0-1.6-0.7-1.6-1.6V334.2z"/>
	<path class="st0" d="M224.6,315.3v7.2c0,1.3,1.1,2.3,2.4,2.3h2.1V313h-2.1C225.6,313,224.6,314,224.6,315.3z M228.4,324.1h-1.4
		c-0.9,0-1.6-0.7-1.6-1.6v-7.2c0-0.9,0.7-1.6,1.6-1.6h1.4V324.1z"/>
	<path class="st0" d="M293.5,313h-2.1v11.9h2.1c1.3,0,2.4-1.1,2.4-2.3v-7.2C295.8,314,294.8,313,293.5,313z M295.1,322.5
		c0,0.9-0.7,1.6-1.6,1.6h-1.4v-10.5h1.4c0.9,0,1.6,0.7,1.6,1.6V322.5z"/>
	<path class="st0" d="M270.1,335.6c0,1.3,1.1,2.4,2.4,2.4h7.2c1.3,0,2.3-1.1,2.3-2.4v-2.1h-11.9V335.6z M270.8,334.2h10.5v1.4
		c0,0.9-0.7,1.6-1.6,1.6h-7.2c-0.9,0-1.6-0.7-1.6-1.6V334.2z"/>
	<path class="st0" d="M251.1,302.3c0-1.3-1.1-2.3-2.3-2.3h-7.2c-1.3,0-2.4,1.1-2.4,2.3v2.1h11.9V302.3z M250.4,303.7h-10.5v-1.4
		c0-0.9,0.7-1.6,1.6-1.6h7.2c0.9,0,1.6,0.7,1.6,1.6V303.7z"/>
	<path class="st0" d="M239.4,335.6c0,1.3,1.1,2.4,2.4,2.4h7.2c1.3,0,2.4-1.1,2.4-2.4v-2.1h-11.9V335.6z M240.1,334.2h10.5v1.4
		c0,0.9-0.7,1.6-1.6,1.6h-7.2c-0.9,0-1.6-0.7-1.6-1.6V334.2z"/>
</g>
<g>
	<path class="st0" d="M326.5,331.6h59.7v-25.4h-59.7V331.6z M327.5,306.9h57.8v24h-57.8V306.9z"/>
	<path class="st0" d="M352.7,299.9c-1.3,0-2.4,1.1-2.4,2.3v2.1h11.9v-2.1c0-1.3-1.1-2.3-2.4-2.3H352.7z M361.6,302.3v1.4h-10.5v-1.4
		c0-0.9,0.7-1.6,1.6-1.6h7.2C360.8,300.6,361.6,301.4,361.6,302.3z"/>
	<path class="st0" d="M378,302.3c0-1.3-1.1-2.3-2.3-2.3h-7.2c-1.3,0-2.4,1.1-2.4,2.3v2.1H378V302.3z M377.3,303.7h-10.5v-1.4
		c0-0.9,0.7-1.6,1.6-1.6h7.2c0.9,0,1.6,0.7,1.6,1.6V303.7z"/>
	<path class="st0" d="M350.4,335.6c0,1.3,1.1,2.4,2.4,2.4h7.2c1.3,0,2.4-1.1,2.4-2.4v-2.1h-11.9V335.6z M351.1,334.2h10.5v1.4
		c0,0.9-0.7,1.6-1.6,1.6h-7.2c-0.9,0-1.6-0.7-1.6-1.6V334.2z"/>
	<path class="st0" d="M320.6,315.3v7.2c0,1.3,1.1,2.3,2.4,2.3h2.1V313h-2.1C321.6,313,320.6,314,320.6,315.3z M324.4,324.1h-1.4
		c-0.9,0-1.6-0.7-1.6-1.6v-7.2c0-0.9,0.7-1.6,1.6-1.6h1.4V324.1z"/>
	<path class="st0" d="M389.5,313h-2.1v11.9h2.1c1.3,0,2.4-1.1,2.4-2.3v-7.2C391.8,314,390.8,313,389.5,313z M391.1,322.5
		c0,0.9-0.7,1.6-1.6,1.6h-1.4v-10.5h1.4c0.9,0,1.6,0.7,1.6,1.6V322.5z"/>
	<path class="st0" d="M366.1,335.6c0,1.3,1.1,2.4,2.4,2.4h7.2c1.3,0,2.3-1.1,2.3-2.4v-2.1h-11.9V335.6z M366.8,334.2h10.5v1.4
		c0,0.9-0.7,1.6-1.6,1.6h-7.2c-0.9,0-1.6-0.7-1.6-1.6V334.2z"/>
	<path class="st0" d="M347.1,302.3c0-1.3-1.1-2.3-2.3-2.3h-7.2c-1.3,0-2.4,1.1-2.4,2.3v2.1h11.9V302.3z M346.4,303.7h-10.5v-1.4
		c0-0.9,0.7-1.6,1.6-1.6h7.2c0.9,0,1.6,0.7,1.6,1.6V303.7z"/>
	<path class="st0" d="M335.4,335.6c0,1.3,1.1,2.4,2.4,2.4h7.2c1.3,0,2.4-1.1,2.4-2.4v-2.1h-11.9V335.6z M336.1,334.2h10.5v1.4
		c0,0.9-0.7,1.6-1.6,1.6h-7.2c-0.9,0-1.6-0.7-1.6-1.6V334.2z"/>
</g>
<g>
	<path class="st0" d="M423.5,331.6h59.7v-25.4h-59.7V331.6z M424.5,306.9h57.8v24h-57.8V306.9z"/>
	<path class="st0" d="M449.7,299.9c-1.3,0-2.4,1.1-2.4,2.3v2.1h11.9v-2.1c0-1.3-1.1-2.3-2.4-2.3H449.7z M458.6,302.3v1.4h-10.5v-1.4
		c0-0.9,0.7-1.6,1.6-1.6h7.2C457.8,300.6,458.6,301.4,458.6,302.3z"/>
	<path class="st0" d="M475,302.3c0-1.3-1.1-2.3-2.3-2.3h-7.2c-1.3,0-2.4,1.1-2.4,2.3v2.1H475V302.3z M474.3,303.7h-10.5v-1.4
		c0-0.9,0.7-1.6,1.6-1.6h7.2c0.9,0,1.6,0.7,1.6,1.6V303.7z"/>
	<path class="st0" d="M447.4,335.6c0,1.3,1.1,2.4,2.4,2.4h7.2c1.3,0,2.4-1.1,2.4-2.4v-2.1h-11.9V335.6z M448.1,334.2h10.5v1.4
		c0,0.9-0.7,1.6-1.6,1.6h-7.2c-0.9,0-1.6-0.7-1.6-1.6V334.2z"/>
	<path class="st0" d="M417.6,315.3v7.2c0,1.3,1.1,2.3,2.4,2.3h2.1V313h-2.1C418.6,313,417.6,314,417.6,315.3z M421.4,324.1h-1.4
		c-0.9,0-1.6-0.7-1.6-1.6v-7.2c0-0.9,0.7-1.6,1.6-1.6h1.4V324.1z"/>
	<path class="st0" d="M486.5,313h-2.1v11.9h2.1c1.3,0,2.4-1.1,2.4-2.3v-7.2C488.8,314,487.8,313,486.5,313z M488.1,322.5
		c0,0.9-0.7,1.6-1.6,1.6h-1.4v-10.5h1.4c0.9,0,1.6,0.7,1.6,1.6V322.5z"/>
	<path class="st0" d="M463.1,335.6c0,1.3,1.1,2.4,2.4,2.4h7.2c1.3,0,2.3-1.1,2.3-2.4v-2.1h-11.9V335.6z M463.8,334.2h10.5v1.4
		c0,0.9-0.7,1.6-1.6,1.6h-7.2c-0.9,0-1.6-0.7-1.6-1.6V334.2z"/>
	<path class="st0" d="M444.1,302.3c0-1.3-1.1-2.3-2.3-2.3h-7.2c-1.3,0-2.4,1.1-2.4,2.3v2.1h11.9V302.3z M443.4,303.7h-10.5v-1.4
		c0-0.9,0.7-1.6,1.6-1.6h7.2c0.9,0,1.6,0.7,1.6,1.6V303.7z"/>
	<path class="st0" d="M432.4,335.6c0,1.3,1.1,2.4,2.4,2.4h7.2c1.3,0,2.4-1.1,2.4-2.4v-2.1h-11.9V335.6z M433.1,334.2h10.5v1.4
		c0,0.9-0.7,1.6-1.6,1.6h-7.2c-0.9,0-1.6-0.7-1.6-1.6V334.2z"/>
</g>
<g>
	<polygon class="st1" points="1,98.3 1,100.8 162,100.8 162,98.3 1,98.3 	"/>
</g>
<g>
	<polygon class="st1" points="162.2,0 159.7,0 159.7,99.6 162.2,99.6 162.2,0 	"/>
</g>
<g>
	<g>
		<path class="st2" d="M280.9,233.9c0-2.5-2-4.5-4.5-4.5s-4.5,2-4.5,4.5c0,2.5,2,4.5,4.5,4.5S280.9,236.3,280.9,233.9z M272.4,233.9
			c0-2.2,1.8-4.1,4.1-4.1c2.3,0,4.1,1.8,4.1,4.1c0,2.2-1.8,4.1-4.1,4.1C274.2,238,272.4,236.1,272.4,233.9z"/>
		<path class="st2" d="M268.9,233.9c0,0.3,0,0.6,0.1,0.9l0,0.2h2.5l0-0.2c0-0.3-0.1-0.6-0.1-0.8c0-2.8,2.3-5.1,5.1-5.1
			c2.8,0,5.1,2.3,5.1,5.1c0,0.2,0,0.5-0.1,0.8l0,0.2h2.5l0-0.2c0-0.3,0.1-0.6,0.1-0.9c0-4.2-3.4-7.6-7.6-7.6
			S268.9,229.7,268.9,233.9z M283.6,233.9c0,0.2,0,0.4,0,0.6h-1.7c0-0.2,0-0.4,0-0.6c0-3-2.5-5.5-5.5-5.5s-5.5,2.5-5.5,5.5
			c0,0.2,0,0.4,0,0.6h-1.7c0-0.2,0-0.4,0-0.6c0-3.9,3.2-7.2,7.2-7.2S283.6,229.9,283.6,233.9z"/>
		<path class="st2" d="M268.9,249.7c0,3.8,3.1,6.8,6.8,6.8c3.8,0,6.8-3.1,6.8-6.8c0-3.8-3.1-6.8-6.8-6.8
			C271.9,242.9,268.9,246,268.9,249.7z M282.1,249.7c0,3.6-2.9,6.4-6.4,6.4s-6.4-2.9-6.4-6.4c0-3.6,2.9-6.4,6.4-6.4
			S282.1,246.2,282.1,249.7z"/>
		<g>
			<path class="st2" d="M299.9,249c0,2.5,2,4.5,4.5,4.5s4.5-2,4.5-4.5s-2-4.5-4.5-4.5S299.9,246.5,299.9,249z M308.5,249
				c0,2.2-1.8,4.1-4.1,4.1s-4.1-1.8-4.1-4.1s1.8-4.1,4.1-4.1S308.5,246.7,308.5,249z"/>
			<path class="st2" d="M312,249c0-0.3,0-0.6-0.1-0.9l0-0.2h-2.5l0,0.2c0,0.3,0.1,0.6,0.1,0.8c0,2.8-2.3,5.1-5.1,5.1
				s-5.1-2.3-5.1-5.1c0-0.2,0-0.5,0.1-0.8l0-0.2h-2.5l0,0.2c0,0.3-0.1,0.6-0.1,0.9c0,4.2,3.4,7.6,7.6,7.6S312,253.2,312,249z
				 M297.3,249c0-0.2,0-0.4,0-0.6h1.7c0,0.2,0,0.4,0,0.6c0,3,2.5,5.5,5.5,5.5s5.5-2.5,5.5-5.5c0-0.2,0-0.4,0-0.6h1.7
				c0,0.2,0,0.4,0,0.6c0,3.9-3.2,7.2-7.2,7.2S297.3,252.9,297.3,249z"/>
			<path class="st2" d="M312,233.1c0-3.8-3.1-6.8-6.8-6.8c-3.8,0-6.8,3.1-6.8,6.8c0,3.8,3.1,6.8,6.8,6.8
				C308.9,239.9,312,236.9,312,233.1z M298.7,233.1c0-3.6,2.9-6.4,6.4-6.4s6.4,2.9,6.4,6.4c0,3.6-2.9,6.4-6.4,6.4
				S298.7,236.7,298.7,233.1z"/>
		</g>
		<g>
			<path class="st2" d="M243.9,249c0,2.5,2,4.5,4.5,4.5c2.5,0,4.5-2,4.5-4.5s-2-4.5-4.5-4.5C246,244.5,243.9,246.5,243.9,249z
				 M252.5,249c0,2.2-1.8,4.1-4.1,4.1s-4.1-1.8-4.1-4.1s1.8-4.1,4.1-4.1S252.5,246.7,252.5,249z"/>
			<path class="st2" d="M256,249c0-0.3,0-0.6-0.1-0.9l0-0.2h-2.5l0,0.2c0,0.3,0.1,0.6,0.1,0.8c0,2.8-2.3,5.1-5.1,5.1
				s-5.1-2.3-5.1-5.1c0-0.2,0-0.5,0.1-0.8l0-0.2h-2.5l0,0.2c0,0.3-0.1,0.6-0.1,0.9c0,4.2,3.4,7.6,7.6,7.6S256,253.2,256,249z
				 M241.3,249c0-0.2,0-0.4,0-0.6h1.7c0,0.2,0,0.4,0,0.6c0,3,2.5,5.5,5.5,5.5c3,0,5.5-2.5,5.5-5.5c0-0.2,0-0.4,0-0.6h1.7
				c0,0.2,0,0.4,0,0.6c0,3.9-3.2,7.2-7.2,7.2C244.5,256.1,241.3,252.9,241.3,249z"/>
			<path class="st2" d="M256,233.1c0-3.8-3.1-6.8-6.8-6.8c-3.8,0-6.8,3.1-6.8,6.8c0,3.8,3.1,6.8,6.8,6.8
				C252.9,239.9,256,236.9,256,233.1z M242.7,233.1c0-3.6,2.9-6.4,6.4-6.4c3.6,0,6.4,2.9,6.4,6.4c0,3.6-2.9,6.4-6.4,6.4
				C245.6,239.6,242.7,236.7,242.7,233.1z"/>
		</g>
		<g>
			<path class="st2" d="M336.9,233.9c0-2.5-2-4.5-4.5-4.5s-4.5,2-4.5,4.5c0,2.5,2,4.5,4.5,4.5S336.9,236.3,336.9,233.9z
				 M328.4,233.9c0-2.2,1.8-4.1,4.1-4.1c2.3,0,4.1,1.8,4.1,4.1c0,2.2-1.8,4.1-4.1,4.1C330.2,238,328.4,236.1,328.4,233.9z"/>
			<path class="st2" d="M324.9,233.9c0,0.3,0,0.6,0.1,0.9l0,0.2h2.5l0-0.2c0-0.3-0.1-0.6-0.1-0.8c0-2.8,2.3-5.1,5.1-5.1
				c2.8,0,5.1,2.3,5.1,5.1c0,0.2,0,0.5-0.1,0.8l0,0.2h2.5l0-0.2c0-0.3,0.1-0.6,0.1-0.9c0-4.2-3.4-7.6-7.6-7.6
				S324.9,229.7,324.9,233.9z M339.6,233.9c0,0.2,0,0.4,0,0.6h-1.7c0-0.2,0-0.4,0-0.6c0-3-2.5-5.5-5.5-5.5s-5.5,2.5-5.5,5.5
				c0,0.2,0,0.4,0,0.6h-1.7c0-0.2,0-0.4,0-0.6c0-3.9,3.2-7.2,7.2-7.2S339.6,229.9,339.6,233.9z"/>
			<path class="st2" d="M324.9,249.7c0,3.8,3.1,6.8,6.8,6.8c3.8,0,6.8-3.1,6.8-6.8c0-3.8-3.1-6.8-6.8-6.8
				C327.9,242.9,324.9,246,324.9,249.7z M338.1,249.7c0,3.6-2.9,6.4-6.4,6.4s-6.4-2.9-6.4-6.4c0-3.6,2.9-6.4,6.4-6.4
				S338.1,246.2,338.1,249.7z"/>
		</g>
		<g>
			<path class="st2" d="M224.9,233.9c0-2.5-2-4.5-4.5-4.5c-2.5,0-4.5,2-4.5,4.5c0,2.5,2,4.5,4.5,4.5
				C222.9,238.4,224.9,236.3,224.9,233.9z M216.4,233.9c0-2.2,1.8-4.1,4.1-4.1c2.3,0,4.1,1.8,4.1,4.1c0,2.2-1.8,4.1-4.1,4.1
				C218.2,238,216.4,236.1,216.4,233.9z"/>
			<path class="st2" d="M212.9,233.9c0,0.3,0,0.6,0.1,0.9l0,0.2h2.5l0-0.2c0-0.3-0.1-0.6-0.1-0.8c0-2.8,2.3-5.1,5.1-5.1
				c2.8,0,5.1,2.3,5.1,5.1c0,0.2,0,0.5-0.1,0.8l0,0.2h2.5l0-0.2c0-0.3,0.1-0.6,0.1-0.9c0-4.2-3.4-7.6-7.6-7.6
				S212.9,229.7,212.9,233.9z M227.6,233.9c0,0.2,0,0.4,0,0.6h-1.7c0-0.2,0-0.4,0-0.6c0-3-2.5-5.5-5.5-5.5c-3,0-5.5,2.5-5.5,5.5
				c0,0.2,0,0.4,0,0.6h-1.7c0-0.2,0-0.4,0-0.6c0-3.9,3.2-7.2,7.2-7.2C224.4,226.7,227.6,229.9,227.6,233.9z"/>
			<path class="st2" d="M212.9,249.7c0,3.8,3.1,6.8,6.8,6.8c3.8,0,6.8-3.1,6.8-6.8c0-3.8-3.1-6.8-6.8-6.8
				C215.9,242.9,212.9,246,212.9,249.7z M226.1,249.7c0,3.6-2.9,6.4-6.4,6.4c-3.6,0-6.4-2.9-6.4-6.4c0-3.6,2.9-6.4,6.4-6.4
				C223.2,243.3,226.1,246.2,226.1,249.7z"/>
		</g>
		<g>
			<path class="st2" d="M188.9,249c0,2.5,2,4.5,4.5,4.5c2.5,0,4.5-2,4.5-4.5s-2-4.5-4.5-4.5C191,244.5,188.9,246.5,188.9,249z
				 M197.5,249c0,2.2-1.8,4.1-4.1,4.1s-4.1-1.8-4.1-4.1s1.8-4.1,4.1-4.1S197.5,246.7,197.5,249z"/>
			<path class="st2" d="M201,249c0-0.3,0-0.6-0.1-0.9l0-0.2h-2.5l0,0.2c0,0.3,0.1,0.6,0.1,0.8c0,2.8-2.3,5.1-5.1,5.1
				s-5.1-2.3-5.1-5.1c0-0.2,0-0.5,0.1-0.8l0-0.2h-2.5l0,0.2c0,0.3-0.1,0.6-0.1,0.9c0,4.2,3.4,7.6,7.6,7.6S201,253.2,201,249z
				 M186.3,249c0-0.2,0-0.4,0-0.6h1.7c0,0.2,0,0.4,0,0.6c0,3,2.5,5.5,5.5,5.5c3,0,5.5-2.5,5.5-5.5c0-0.2,0-0.4,0-0.6h1.7
				c0,0.2,0,0.4,0,0.6c0,3.9-3.2,7.2-7.2,7.2C189.5,256.1,186.3,252.9,186.3,249z"/>
			<path class="st2" d="M201,233.1c0-3.8-3.1-6.8-6.8-6.8c-3.8,0-6.8,3.1-6.8,6.8c0,3.8,3.1,6.8,6.8,6.8
				C197.9,239.9,201,236.9,201,233.1z M187.7,233.1c0-3.6,2.9-6.4,6.4-6.4c3.6,0,6.4,2.9,6.4,6.4c0,3.6-2.9,6.4-6.4,6.4
				C190.6,239.6,187.7,236.7,187.7,233.1z"/>
		</g>
		<g>
			<path class="st2" d="M355.9,249c0,2.5,2,4.5,4.5,4.5s4.5-2,4.5-4.5s-2-4.5-4.5-4.5S355.9,246.5,355.9,249z M364.5,249
				c0,2.2-1.8,4.1-4.1,4.1s-4.1-1.8-4.1-4.1s1.8-4.1,4.1-4.1S364.5,246.7,364.5,249z"/>
			<path class="st2" d="M368,249c0-0.3,0-0.6-0.1-0.9l0-0.2h-2.5l0,0.2c0,0.3,0.1,0.6,0.1,0.8c0,2.8-2.3,5.1-5.1,5.1
				s-5.1-2.3-5.1-5.1c0-0.2,0-0.5,0.1-0.8l0-0.2h-2.5l0,0.2c0,0.3-0.1,0.6-0.1,0.9c0,4.2,3.4,7.6,7.6,7.6S368,253.2,368,249z
				 M353.3,249c0-0.2,0-0.4,0-0.6h1.7c0,0.2,0,0.4,0,0.6c0,3,2.5,5.5,5.5,5.5s5.5-2.5,5.5-5.5c0-0.2,0-0.4,0-0.6h1.7
				c0,0.2,0,0.4,0,0.6c0,3.9-3.2,7.2-7.2,7.2S353.3,252.9,353.3,249z"/>
			<path class="st2" d="M368,233.1c0-3.8-3.1-6.8-6.8-6.8c-3.8,0-6.8,3.1-6.8,6.8c0,3.8,3.1,6.8,6.8,6.8
				C364.9,239.9,368,236.9,368,233.1z M354.7,233.1c0-3.6,2.9-6.4,6.4-6.4s6.4,2.9,6.4,6.4c0,3.6-2.9,6.4-6.4,6.4
				S354.7,236.7,354.7,233.1z"/>
		</g>
		<g>
			<path class="st2" d="M169.9,233.9c0-2.5-2-4.5-4.5-4.5c-2.5,0-4.5,2-4.5,4.5c0,2.5,2,4.5,4.5,4.5
				C167.9,238.4,169.9,236.3,169.9,233.9z M161.4,233.9c0-2.2,1.8-4.1,4.1-4.1c2.3,0,4.1,1.8,4.1,4.1c0,2.2-1.8,4.1-4.1,4.1
				C163.2,238,161.4,236.1,161.4,233.9z"/>
			<path class="st2" d="M157.9,233.9c0,0.3,0,0.6,0.1,0.9l0,0.2h2.5l0-0.2c0-0.3-0.1-0.6-0.1-0.8c0-2.8,2.3-5.1,5.1-5.1
				c2.8,0,5.1,2.3,5.1,5.1c0,0.2,0,0.5-0.1,0.8l0,0.2h2.5l0-0.2c0-0.3,0.1-0.6,0.1-0.9c0-4.2-3.4-7.6-7.6-7.6
				S157.9,229.7,157.9,233.9z M172.6,233.9c0,0.2,0,0.4,0,0.6h-1.7c0-0.2,0-0.4,0-0.6c0-3-2.5-5.5-5.5-5.5c-3,0-5.5,2.5-5.5,5.5
				c0,0.2,0,0.4,0,0.6h-1.7c0-0.2,0-0.4,0-0.6c0-3.9,3.2-7.2,7.2-7.2C169.4,226.7,172.6,229.9,172.6,233.9z"/>
			<path class="st2" d="M157.9,249.7c0,3.8,3.1,6.8,6.8,6.8c3.8,0,6.8-3.1,6.8-6.8c0-3.8-3.1-6.8-6.8-6.8
				C160.9,242.9,157.9,246,157.9,249.7z M171.1,249.7c0,3.6-2.9,6.4-6.4,6.4c-3.6,0-6.4-2.9-6.4-6.4c0-3.6,2.9-6.4,6.4-6.4
				C168.2,243.3,171.1,246.2,171.1,249.7z"/>
		</g>
	</g>
</g>
<path class="st0" d="M288,9.8v2.7h6c1.7,0,3,1.4,3,3v7.8c0,1.7-1.4,3-3,3h-6V29h6c3.2,0,5.7-2.6,5.7-5.7v-7.8c0-3.2-2.6-5.7-5.7-5.7
	H288z M294,10.3c2.9,0,5.2,2.3,5.2,5.2v7.8c0,2.9-2.3,5.2-5.2,5.2h-5.4v-1.6h5.4c2,0,3.6-1.6,3.6-3.6v-7.8c0-2-1.6-3.6-3.6-3.6h-5.4
	v-1.6H294z"/>
<path class="st0" d="M290,23.7h6.7c0.7,0,1.3-0.6,1.3-1.3v-6.7c0-0.7-0.6-1.3-1.3-1.3H290c-0.7,0-1.3,0.6-1.3,1.3v6.7
	C288.7,23.1,289.2,23.7,290,23.7z M290,14.9h6.7c0.5,0,0.8,0.4,0.8,0.8v6.7c0,0.5-0.4,0.8-0.8,0.8H290c-0.5,0-0.8-0.4-0.8-0.8v-6.7
	C289.1,15.3,289.5,14.9,290,14.9z"/>
<path class="st0" d="M252.8,197.2h3.6V182h-3.6V197.2z M253.4,182.6h2.5v14.1h-2.5V182.6z"/>
<path class="st0" d="M227.9,197.2H252v-3.6h-24.1V197.2z M228.5,194.2h23v2.5h-23V194.2z"/>
<path class="st0" d="M223.6,197.2h3.6V182h-3.6V197.2z M224.2,182.6h2.5v14.1h-2.5V182.6z"/>
<path class="st0" d="M240.6,193h10.6v-10.6h-10.6V193z M241.1,182.9h9.5v9.5h-9.5V182.9z"/>
<path class="st0" d="M228.9,193h10.6v-10.6h-10.6V193z M229.4,182.9h9.5v9.5h-9.5V182.9z"/>
<path class="st0" d="M175.2,158.7h-3.6v15.2h3.6V158.7z M174.6,173.3h-2.5v-14.1h2.5V173.3z"/>
<path class="st0" d="M200.2,158.7H176v3.6h24.1V158.7z M199.6,161.7h-23v-2.5h23V161.7z"/>
<path class="st0" d="M204.4,158.7h-3.6v15.2h3.6V158.7z M203.9,173.3h-2.5v-14.1h2.5V173.3z"/>
<path class="st0" d="M187.5,162.9h-10.6v10.6h10.6V162.9z M186.9,172.9h-9.5v-9.5h9.5V172.9z"/>
<path class="st0" d="M199.2,162.9h-10.6v10.6h10.6V162.9z M198.6,172.9h-9.5v-9.5h9.5V172.9z"/>
<path class="st0" d="M255.4,173v-14.3H227V173H255.4z M227.8,172.2v-12.7h26.8v12.7H227.8z"/>
<path class="st0" d="M174.6,182.9v14.3H203v-14.3H174.6z M202.3,183.7v12.7h-26.8v-12.7H202.3z"/>
<path class="st0" d="M356.8,197.2h3.6V182h-3.6V197.2z M357.4,182.6h2.5v14.1h-2.5V182.6z"/>
<path class="st0" d="M331.9,197.2H356v-3.6h-24.1V197.2z M332.5,194.2h23v2.5h-23V194.2z"/>
<path class="st0" d="M327.6,197.2h3.6V182h-3.6V197.2z M328.2,182.6h2.5v14.1h-2.5V182.6z"/>
<path class="st0" d="M344.6,193h10.6v-10.6h-10.6V193z M345.1,182.9h9.5v9.5h-9.5V182.9z"/>
<path class="st0" d="M332.9,193h10.6v-10.6h-10.6V193z M333.4,182.9h9.5v9.5h-9.5V182.9z"/>
<path class="st0" d="M279.2,158.7h-3.6v15.2h3.6V158.7z M278.6,173.3h-2.5v-14.1h2.5V173.3z"/>
<path class="st0" d="M304.2,158.7H280v3.6h24.1V158.7z M303.6,161.7h-23v-2.5h23V161.7z"/>
<path class="st0" d="M308.4,158.7h-3.6v15.2h3.6V158.7z M307.9,173.3h-2.5v-14.1h2.5V173.3z"/>
<path class="st0" d="M291.5,162.9h-10.6v10.6h10.6V162.9z M290.9,172.9h-9.5v-9.5h9.5V172.9z"/>
<path class="st0" d="M303.2,162.9h-10.6v10.6h10.6V162.9z M302.6,172.9h-9.5v-9.5h9.5V172.9z"/>
<path class="st0" d="M359.4,173v-14.3H331V173H359.4z M331.8,172.2v-12.7h26.8v12.7H331.8z"/>
<path class="st0" d="M278.6,182.9v14.3H307v-14.3H278.6z M306.3,183.7v12.7h-26.8v-12.7H306.3z"/>
<path class="st0" d="M277.3,42.1c-3,0-5.5,2.4-5.5,5.5c0,3,2.4,5.5,5.5,5.5c3,0,5.5-2.4,5.5-5.5C282.7,44.5,280.3,42.1,277.3,42.1z
	 M277.3,52.7c-2.8,0-5.2-2.3-5.2-5.2c0-2.8,2.3-5.2,5.2-5.2c2.8,0,5.2,2.3,5.2,5.2C282.4,50.4,280.1,52.7,277.3,52.7z"/>
<path class="st0" d="M288,37.8v2.7h6c1.7,0,3,1.4,3,3v7.8c0,1.7-1.4,3-3,3h-6V57h6c3.2,0,5.7-2.6,5.7-5.7v-7.8
	c0-3.2-2.6-5.7-5.7-5.7H288z M294,38.3c2.9,0,5.2,2.3,5.2,5.2v7.8c0,2.9-2.3,5.2-5.2,5.2h-5.4v-1.6h5.4c2,0,3.6-1.6,3.6-3.6v-7.8
	c0-2-1.6-3.6-3.6-3.6h-5.4v-1.6H294z"/>
<path class="st0" d="M290,51.7h6.7c0.7,0,1.3-0.6,1.3-1.3v-6.7c0-0.7-0.6-1.3-1.3-1.3H290c-0.7,0-1.3,0.6-1.3,1.3v6.7
	C288.7,51.1,289.2,51.7,290,51.7z M290,42.9h6.7c0.5,0,0.8,0.4,0.8,0.8v6.7c0,0.5-0.4,0.8-0.8,0.8H290c-0.5,0-0.8-0.4-0.8-0.8v-6.7
	C289.1,43.3,289.5,42.9,290,42.9z"/>
<path class="st0" d="M277.3,70.1c-3,0-5.5,2.4-5.5,5.5s2.4,5.5,5.5,5.5c3,0,5.5-2.4,5.5-5.5S280.3,70.1,277.3,70.1z M277.3,80.7
	c-2.8,0-5.2-2.3-5.2-5.2s2.3-5.2,5.2-5.2c2.8,0,5.2,2.3,5.2,5.2S280.1,80.7,277.3,80.7z"/>
<path class="st0" d="M288,65.8v2.7h6c1.7,0,3,1.4,3,3v7.8c0,1.7-1.4,3-3,3h-6V85h6c3.2,0,5.7-2.6,5.7-5.7v-7.8
	c0-3.2-2.6-5.7-5.7-5.7H288z M294,66.3c2.9,0,5.2,2.3,5.2,5.2v7.8c0,2.9-2.3,5.2-5.2,5.2h-5.4v-1.6h5.4c2,0,3.6-1.6,3.6-3.6v-7.8
	c0-2-1.6-3.6-3.6-3.6h-5.4v-1.6H294z"/>
<path class="st0" d="M290,79.7h6.7c0.7,0,1.3-0.6,1.3-1.3v-6.7c0-0.7-0.6-1.3-1.3-1.3H290c-0.7,0-1.3,0.6-1.3,1.3v6.7
	C288.7,79.1,289.2,79.7,290,79.7z M290,70.9h6.7c0.5,0,0.8,0.4,0.8,0.8v6.7c0,0.5-0.4,0.8-0.8,0.8H290c-0.5,0-0.8-0.4-0.8-0.8v-6.7
	C289.1,71.3,289.5,70.9,290,70.9z"/>
<path class="st0" d="M277.3,98.1c-3,0-5.5,2.4-5.5,5.5s2.4,5.5,5.5,5.5c3,0,5.5-2.4,5.5-5.5S280.3,98.1,277.3,98.1z M277.3,108.7
	c-2.8,0-5.2-2.3-5.2-5.2s2.3-5.2,5.2-5.2c2.8,0,5.2,2.3,5.2,5.2S280.1,108.7,277.3,108.7z"/>
<path class="st0" d="M288,93.8v2.7h6c1.7,0,3,1.4,3,3v7.8c0,1.7-1.4,3-3,3h-6v2.7h6c3.2,0,5.7-2.6,5.7-5.7v-7.8
	c0-3.2-2.6-5.7-5.7-5.7H288z M294,94.3c2.9,0,5.2,2.3,5.2,5.2v7.8c0,2.9-2.3,5.2-5.2,5.2h-5.4v-1.6h5.4c2,0,3.6-1.6,3.6-3.6v-7.8
	c0-2-1.6-3.6-3.6-3.6h-5.4v-1.6H294z"/>
<path class="st0" d="M290,107.7h6.7c0.7,0,1.3-0.6,1.3-1.3v-6.7c0-0.7-0.6-1.3-1.3-1.3H290c-0.7,0-1.3,0.6-1.3,1.3v6.7
	C288.7,107.1,289.2,107.7,290,107.7z M290,98.9h6.7c0.5,0,0.8,0.4,0.8,0.8v6.7c0,0.5-0.4,0.8-0.8,0.8H290c-0.5,0-0.8-0.4-0.8-0.8
	v-6.7C289.1,99.3,289.5,98.9,290,98.9z"/>
<path class="st0" d="M339.3,95.7c3,0,5.5-2.4,5.5-5.5s-2.4-5.5-5.5-5.5c-3,0-5.5,2.4-5.5,5.5S336.2,95.7,339.3,95.7z M339.3,85.1
	c2.8,0,5.2,2.3,5.2,5.2s-2.3,5.2-5.2,5.2c-2.8,0-5.2-2.3-5.2-5.2S336.4,85.1,339.3,85.1z"/>
<path class="st0" d="M328.5,100v-2.7h-6c-1.7,0-3-1.4-3-3v-7.8c0-1.7,1.4-3,3-3h6v-2.7h-6c-3.2,0-5.7,2.6-5.7,5.7v7.8
	c0,3.2,2.6,5.7,5.7,5.7H328.5z M322.6,99.5c-2.9,0-5.2-2.3-5.2-5.2v-7.8c0-2.9,2.3-5.2,5.2-5.2h5.4v1.6h-5.4c-2,0-3.6,1.6-3.6,3.6
	v7.8c0,2,1.6,3.6,3.6,3.6h5.4v1.6H322.6z"/>
<path class="st0" d="M326.6,86.1h-6.7c-0.7,0-1.3,0.6-1.3,1.3V94c0,0.7,0.6,1.3,1.3,1.3h6.7c0.7,0,1.3-0.6,1.3-1.3v-6.7
	C327.9,86.6,327.3,86.1,326.6,86.1z M326.6,94.8h-6.7c-0.5,0-0.8-0.4-0.8-0.8v-6.7c0-0.5,0.4-0.8,0.8-0.8h6.7c0.5,0,0.8,0.4,0.8,0.8
	V94C327.4,94.5,327,94.8,326.6,94.8z"/>
<path class="st0" d="M339.3,67.7c3,0,5.5-2.4,5.5-5.5c0-3-2.4-5.5-5.5-5.5c-3,0-5.5,2.4-5.5,5.5C333.8,65.2,336.2,67.7,339.3,67.7z
	 M339.3,57.1c2.8,0,5.2,2.3,5.2,5.2c0,2.8-2.3,5.2-5.2,5.2c-2.8,0-5.2-2.3-5.2-5.2C334.1,59.4,336.4,57.1,339.3,57.1z"/>
<path class="st0" d="M328.5,72v-2.7h-6c-1.7,0-3-1.4-3-3v-7.8c0-1.7,1.4-3,3-3h6v-2.7h-6c-3.2,0-5.7,2.6-5.7,5.7v7.8
	c0,3.2,2.6,5.7,5.7,5.7H328.5z M322.6,71.5c-2.9,0-5.2-2.3-5.2-5.2v-7.8c0-2.9,2.3-5.2,5.2-5.2h5.4v1.6h-5.4c-2,0-3.6,1.6-3.6,3.6
	v7.8c0,2,1.6,3.6,3.6,3.6h5.4v1.6H322.6z"/>
<path class="st0" d="M326.6,58.1h-6.7c-0.7,0-1.3,0.6-1.3,1.3V66c0,0.7,0.6,1.3,1.3,1.3h6.7c0.7,0,1.3-0.6,1.3-1.3v-6.7
	C327.9,58.6,327.3,58.1,326.6,58.1z M326.6,66.8h-6.7c-0.5,0-0.8-0.4-0.8-0.8v-6.7c0-0.5,0.4-0.8,0.8-0.8h6.7c0.5,0,0.8,0.4,0.8,0.8
	V66C327.4,66.5,327,66.8,326.6,66.8z"/>
<path class="st0" d="M339.3,39.7c3,0,5.5-2.4,5.5-5.5c0-3-2.4-5.5-5.5-5.5c-3,0-5.5,2.4-5.5,5.5C333.8,37.2,336.2,39.7,339.3,39.7z
	 M339.3,29.1c2.8,0,5.2,2.3,5.2,5.2c0,2.8-2.3,5.2-5.2,5.2c-2.8,0-5.2-2.3-5.2-5.2C334.1,31.4,336.4,29.1,339.3,29.1z"/>
<path class="st0" d="M328.5,44v-2.7h-6c-1.7,0-3-1.4-3-3v-7.8c0-1.7,1.4-3,3-3h6v-2.7h-6c-3.2,0-5.7,2.6-5.7,5.7v7.8
	c0,3.2,2.6,5.7,5.7,5.7H328.5z M322.6,43.5c-2.9,0-5.2-2.3-5.2-5.2v-7.8c0-2.9,2.3-5.2,5.2-5.2h5.4v1.6h-5.4c-2,0-3.6,1.6-3.6,3.6
	v7.8c0,2,1.6,3.6,3.6,3.6h5.4v1.6H322.6z"/>
<path class="st0" d="M326.6,30.1h-6.7c-0.7,0-1.3,0.6-1.3,1.3V38c0,0.7,0.6,1.3,1.3,1.3h6.7c0.7,0,1.3-0.6,1.3-1.3v-6.7
	C327.9,30.6,327.3,30.1,326.6,30.1z M326.6,38.8h-6.7c-0.5,0-0.8-0.4-0.8-0.8v-6.7c0-0.5,0.4-0.8,0.8-0.8h6.7c0.5,0,0.8,0.4,0.8,0.8
	V38C327.4,38.5,327,38.8,326.6,38.8z"/>
<line class="st3" x1="355" y1="14" x2="483" y2="14"/>
<line class="st3" x1="483" y1="132.5" x2="483" y2="14"/>
<line class="st3" x1="355.5" y1="14.5" x2="355.5" y2="-0.5"/>
<path class="st0" d="M160.6-1.5v7.1H172v-7.1H160.6z M171.7-1.1v6.3H161v-6.3H171.7z"/>
<path class="st0" d="M172-1.5v7.1h89v-7.1H172z M258.6-1.1v6.3h-84.1v-6.3H258.6z"/>
<path class="st0" d="M259-1.5v7.1h96v-7.1H259z M352.4-1.1v6.3h-90.7v-6.3H352.4z"/>
<path class="st0" d="M277.3,14.1c-3,0-5.5,2.4-5.5,5.5c0,3,2.4,5.5,5.5,5.5c3,0,5.5-2.4,5.5-5.5C282.7,16.5,280.3,14.1,277.3,14.1z
	 M277.3,24.7c-2.8,0-5.2-2.3-5.2-5.2c0-2.8,2.3-5.2,5.2-5.2c2.8,0,5.2,2.3,5.2,5.2C282.4,22.4,280.1,24.7,277.3,24.7z"/>
<g>
	<path d="M147.9,270.4c0.1,0.1,0.2,0.2,0.3,0.3s0.3,0.2,0.4,0.2c0.1,0.1,0.3,0.1,0.4,0.1s0.3,0,0.4,0c0.1,0,0.3,0,0.5,0
		c0.2,0,0.3-0.1,0.5-0.1c0.1-0.1,0.3-0.1,0.4-0.2c0.1-0.1,0.2-0.2,0.2-0.4c0-0.2-0.1-0.3-0.2-0.4c-0.1-0.1-0.3-0.2-0.5-0.3
		c-0.2-0.1-0.4-0.2-0.7-0.2c-0.3-0.1-0.6-0.2-0.9-0.2c-0.2-0.1-0.4-0.1-0.7-0.2c-0.2-0.1-0.4-0.2-0.7-0.3c-0.2-0.1-0.4-0.2-0.6-0.3
		c-0.2-0.1-0.4-0.3-0.5-0.4s-0.3-0.3-0.3-0.5c-0.1-0.2-0.1-0.4-0.1-0.7c0-0.3,0-0.6,0.1-0.8s0.2-0.4,0.4-0.6
		c0.2-0.2,0.3-0.3,0.6-0.5c0.2-0.1,0.5-0.2,0.7-0.3c0.3-0.1,0.5-0.1,0.8-0.2c0.3,0,0.6-0.1,0.9-0.1c0.3,0,0.6,0,0.9,0.1
		s0.6,0.1,0.9,0.2c0.3,0.1,0.5,0.2,0.7,0.4c0.2,0.1,0.4,0.3,0.6,0.5c0.1,0.1,0.1,0.2,0.2,0.3s0.1,0.2,0.1,0.4c0,0.1,0,0.3-0.1,0.4
		c0,0.1-0.1,0.2-0.2,0.3s-0.2,0.1-0.3,0.2c-0.1,0-0.2,0.1-0.4,0.1c-0.1,0-0.2,0-0.3,0c-0.1,0-0.2-0.1-0.3-0.1
		c-0.1,0-0.2-0.1-0.2-0.2c-0.1-0.1-0.2-0.1-0.2-0.2c-0.1-0.1-0.2-0.1-0.3-0.2s-0.2-0.1-0.3-0.1c-0.1,0-0.3-0.1-0.4-0.1
		c-0.1,0-0.3,0-0.4,0c-0.2,0-0.3,0-0.4,0s-0.3,0.1-0.4,0.1c-0.1,0-0.2,0.1-0.3,0.2c-0.1,0.1-0.1,0.2-0.1,0.3c0,0.1,0,0.1,0,0.2
		c0,0.1,0.1,0.1,0.1,0.2c0.1,0.1,0.1,0.1,0.3,0.2c0.1,0.1,0.2,0.1,0.4,0.2c0.2,0.1,0.4,0.1,0.6,0.2s0.5,0.2,0.9,0.2
		c0.1,0,0.2,0.1,0.4,0.1c0.2,0,0.3,0.1,0.5,0.2c0.2,0.1,0.4,0.2,0.6,0.3s0.4,0.3,0.5,0.4c0.2,0.2,0.3,0.4,0.4,0.6s0.1,0.5,0.1,0.8
		c0,0.4-0.1,0.8-0.2,1.1c-0.2,0.3-0.4,0.6-0.7,0.8c-0.3,0.2-0.7,0.4-1.2,0.5c-0.5,0.1-1,0.2-1.6,0.2c-0.4,0-0.7,0-1.1-0.1
		c-0.3-0.1-0.7-0.2-1-0.3s-0.6-0.3-0.8-0.5c-0.2-0.2-0.4-0.4-0.6-0.7c0-0.1-0.1-0.2-0.1-0.2c0-0.1,0-0.2,0-0.3c0-0.1,0-0.3,0.1-0.4
		c0-0.1,0.1-0.2,0.2-0.3c0.1-0.1,0.2-0.1,0.3-0.2s0.2-0.1,0.4-0.1c0.1,0,0.2,0,0.3,0.1c0.1,0,0.2,0.1,0.3,0.1s0.2,0.1,0.2,0.2
		C147.8,270.3,147.8,270.3,147.9,270.4z"/>
	<path d="M163.3,271.7c0,0.1,0,0.3-0.1,0.4c-0.1,0.1-0.1,0.2-0.2,0.3c-0.1,0.1-0.2,0.2-0.3,0.2c-0.1,0.1-0.3,0.1-0.4,0.1
		s-0.3,0-0.4-0.1c-0.1-0.1-0.2-0.1-0.3-0.2c-0.1-0.1-0.2-0.2-0.2-0.3c-0.1-0.1-0.1-0.3-0.1-0.4l0-4.5l-1.7,4.9
		c0,0.1-0.1,0.2-0.1,0.2c-0.1,0.1-0.1,0.1-0.2,0.2c-0.1,0.1-0.2,0.1-0.2,0.1c-0.1,0-0.2,0-0.3,0c-0.1,0-0.2,0-0.3,0
		c-0.1,0-0.2-0.1-0.2-0.1s-0.1-0.1-0.2-0.2s-0.1-0.2-0.1-0.2l-1.7-4.9l0,4.4c0,0.1,0,0.3-0.1,0.4c-0.1,0.1-0.1,0.2-0.2,0.3
		c-0.1,0.1-0.2,0.2-0.3,0.2c-0.1,0.1-0.3,0.1-0.4,0.1s-0.3,0-0.4-0.1c-0.1-0.1-0.2-0.1-0.3-0.2c-0.1-0.1-0.2-0.2-0.2-0.3
		c-0.1-0.1-0.1-0.3-0.1-0.4v-5.8c0-0.2,0-0.4,0.1-0.6c0.1-0.2,0.2-0.3,0.3-0.5c0.1-0.1,0.3-0.2,0.5-0.3c0.2-0.1,0.4-0.1,0.7-0.1
		c0.9,0,1.4,0.4,1.7,1.2l1.4,4l1.3-4c0.3-0.8,0.8-1.2,1.7-1.2c0.2,0,0.5,0,0.7,0.1s0.4,0.2,0.5,0.3c0.1,0.1,0.2,0.3,0.3,0.5
		s0.1,0.4,0.1,0.6L163.3,271.7z"/>
	<path d="M168.5,268.5c0.1,0,0.2,0,0.3,0c0.1,0,0.2,0.1,0.3,0.1c0.1,0.1,0.1,0.1,0.2,0.2c0,0.1,0.1,0.2,0.1,0.4c0,0.1,0,0.3-0.1,0.4
		c0,0.1-0.1,0.2-0.2,0.2c-0.1,0.1-0.2,0.1-0.3,0.1c-0.1,0-0.2,0-0.3,0h-3.4c-0.1,0-0.2,0-0.3,0c-0.1,0-0.2-0.1-0.3-0.1
		c-0.1-0.1-0.1-0.1-0.2-0.2s-0.1-0.2-0.1-0.4c0-0.1,0-0.3,0.1-0.4s0.1-0.2,0.2-0.2c0.1-0.1,0.2-0.1,0.3-0.1c0.1,0,0.2,0,0.3,0H168.5
		z"/>
	<path d="M169.8,268.5c0-0.3,0-0.6,0-0.9c0-0.3,0.1-0.7,0.2-1c0.1-0.3,0.2-0.6,0.3-0.9c0.1-0.3,0.3-0.5,0.6-0.8
		c0.2-0.2,0.5-0.4,0.9-0.5c0.3-0.1,0.8-0.2,1.2-0.2c0.5,0,0.9,0.1,1.2,0.2s0.6,0.3,0.9,0.5c0.2,0.2,0.4,0.5,0.6,0.8
		c0.1,0.3,0.3,0.6,0.3,0.9c0.1,0.3,0.1,0.6,0.2,1c0,0.3,0,0.6,0,0.9c0,0.3,0,0.6,0,1c0,0.3-0.1,0.7-0.2,1c-0.1,0.3-0.2,0.6-0.3,0.9
		c-0.1,0.3-0.3,0.5-0.6,0.7c-0.2,0.2-0.5,0.4-0.9,0.5s-0.8,0.2-1.2,0.2c-0.5,0-0.9-0.1-1.2-0.2c-0.3-0.1-0.6-0.3-0.9-0.5
		c-0.2-0.2-0.4-0.5-0.6-0.7c-0.1-0.3-0.3-0.6-0.3-0.9c-0.1-0.3-0.1-0.6-0.2-1C169.8,269.1,169.8,268.8,169.8,268.5z M171.9,268.5
		c0,0.2,0,0.3,0,0.5c0,0.2,0,0.4,0,0.6c0,0.2,0.1,0.4,0.1,0.6c0,0.2,0.1,0.3,0.2,0.5c0.1,0.1,0.2,0.2,0.3,0.3
		c0.1,0.1,0.3,0.1,0.5,0.1c0.2,0,0.3,0,0.5-0.1c0.1-0.1,0.2-0.2,0.3-0.3c0.1-0.1,0.2-0.3,0.2-0.5c0-0.2,0.1-0.4,0.1-0.6
		c0-0.2,0-0.4,0-0.6s0-0.4,0-0.5c0-0.2,0-0.3,0-0.5s0-0.4,0-0.6c0-0.2-0.1-0.4-0.1-0.6s-0.1-0.3-0.2-0.5c-0.1-0.1-0.2-0.2-0.3-0.3
		s-0.3-0.1-0.5-0.1c-0.2,0-0.3,0-0.5,0.1c-0.1,0.1-0.2,0.2-0.3,0.3c-0.1,0.1-0.1,0.3-0.2,0.5s-0.1,0.4-0.1,0.6c0,0.2,0,0.4,0,0.6
		C171.9,268.2,171.9,268.3,171.9,268.5z"/>
	<path d="M179.3,267.1c-0.1,0.1-0.3,0.1-0.4,0.1s-0.3,0.1-0.4,0.1s-0.2,0-0.4,0c-0.1,0-0.2,0-0.3,0c-0.2,0-0.4-0.1-0.5-0.2
		c-0.1-0.1-0.2-0.3-0.2-0.5c0-0.1,0-0.2,0-0.3c0-0.1,0.1-0.1,0.1-0.2c0.1-0.1,0.2-0.1,0.3-0.1s0.3-0.1,0.5-0.1
		c0.2,0,0.4-0.1,0.5-0.1c0.1-0.1,0.3-0.1,0.4-0.2c0.1-0.1,0.2-0.2,0.3-0.3s0.2-0.2,0.3-0.3c0.1-0.1,0.2-0.2,0.2-0.3
		c0.1-0.1,0.1-0.2,0.2-0.2c0.1-0.1,0.1-0.1,0.2-0.1c0.1,0,0.2,0,0.3,0c0.2,0,0.4,0.1,0.6,0.2c0.1,0.1,0.2,0.3,0.2,0.5v6.8
		c0,0.2,0,0.3-0.1,0.5c-0.1,0.1-0.1,0.2-0.2,0.3c-0.1,0.1-0.2,0.1-0.3,0.2c-0.1,0-0.3,0.1-0.4,0.1c-0.1,0-0.3,0-0.4-0.1
		c-0.1,0-0.2-0.1-0.3-0.2c-0.1-0.1-0.2-0.2-0.2-0.3c-0.1-0.1-0.1-0.3-0.1-0.5V267.1z"/>
</g>
<g>
	<path d="M179.8,216.2c0.2,0.3,0.4,0.6,0.7,0.8c0.3,0.2,0.6,0.3,1.1,0.3c0.1,0,0.2,0,0.4,0s0.3,0,0.4,0c0.1,0,0.2-0.1,0.4-0.1
		c0.1,0,0.2-0.1,0.3-0.2s0.2-0.2,0.2-0.3c0.1-0.1,0.1-0.2,0.1-0.4c0-0.1,0-0.3-0.1-0.4c-0.1-0.1-0.2-0.2-0.3-0.3
		c-0.1-0.1-0.2-0.1-0.4-0.2s-0.3-0.1-0.5-0.2s-0.4-0.1-0.6-0.1c-0.2,0-0.4-0.1-0.6-0.1c-0.3-0.1-0.6-0.2-0.9-0.3s-0.6-0.3-0.8-0.5
		c-0.2-0.2-0.4-0.4-0.5-0.7c-0.1-0.3-0.2-0.6-0.2-1c0-0.3,0-0.5,0.1-0.8c0.1-0.2,0.2-0.4,0.4-0.6c0.1-0.2,0.3-0.3,0.5-0.5
		s0.4-0.3,0.7-0.3s0.5-0.2,0.7-0.2c0.3,0,0.5-0.1,0.8-0.1c0.3,0,0.7,0,1,0.1s0.6,0.2,0.9,0.3s0.5,0.3,0.7,0.5
		c0.2,0.2,0.4,0.4,0.5,0.7c0,0.1,0,0.1,0.1,0.2c0,0.1,0,0.1,0,0.2c0,0.1,0,0.2-0.1,0.3c0,0.1-0.1,0.2-0.2,0.3
		c-0.1,0.1-0.2,0.1-0.3,0.2s-0.2,0.1-0.3,0.1c-0.1,0-0.2,0-0.3,0c-0.1,0-0.2-0.1-0.3-0.1s-0.1-0.1-0.2-0.2c-0.1-0.1-0.1-0.1-0.2-0.2
		c-0.1-0.3-0.3-0.4-0.6-0.6s-0.6-0.2-0.9-0.2c-0.2,0-0.3,0-0.5,0s-0.3,0.1-0.4,0.2c-0.1,0.1-0.2,0.2-0.3,0.3
		c-0.1,0.1-0.1,0.2-0.1,0.4c0,0.1,0,0.2,0,0.3s0.1,0.2,0.1,0.2c0.1,0.1,0.2,0.1,0.3,0.2s0.3,0.1,0.4,0.2c0.2,0.1,0.4,0.1,0.7,0.2
		c0.3,0.1,0.6,0.2,0.9,0.2c0.1,0,0.2,0.1,0.4,0.1c0.2,0,0.3,0.1,0.5,0.2c0.2,0.1,0.4,0.2,0.5,0.3c0.2,0.1,0.3,0.2,0.5,0.4
		c0.1,0.2,0.3,0.4,0.4,0.6s0.1,0.5,0.1,0.8c0,0.4-0.1,0.7-0.2,1.1s-0.4,0.6-0.7,0.8s-0.7,0.4-1.1,0.6c-0.4,0.1-0.9,0.2-1.5,0.2
		c-0.4,0-0.7,0-1.1-0.1c-0.4-0.1-0.7-0.2-1-0.4s-0.6-0.4-0.8-0.6s-0.4-0.5-0.5-0.9c0-0.1,0-0.1-0.1-0.2s0-0.1,0-0.2
		c0-0.1,0-0.2,0.1-0.3c0-0.1,0.1-0.2,0.2-0.3s0.2-0.1,0.3-0.2c0.1,0,0.2-0.1,0.3-0.1c0.2,0,0.4,0.1,0.5,0.2
		C179.6,215.9,179.7,216.1,179.8,216.2z"/>
	<path d="M195.2,217.9c0,0.1,0,0.2-0.1,0.3c0,0.1-0.1,0.2-0.2,0.3s-0.2,0.1-0.3,0.2c-0.1,0-0.2,0.1-0.3,0.1s-0.2,0-0.3-0.1
		c-0.1,0-0.2-0.1-0.3-0.2c-0.1-0.1-0.1-0.2-0.2-0.3c0-0.1-0.1-0.2-0.1-0.3v-5.2l0,0.1l-2,5.4c-0.1,0.2-0.2,0.3-0.3,0.4
		c-0.1,0.1-0.3,0.1-0.5,0.1c-0.2,0-0.3-0.1-0.5-0.2c-0.1-0.1-0.2-0.2-0.3-0.4l-2-5.4l0-0.1v5.1c0,0.1,0,0.2-0.1,0.3
		c0,0.1-0.1,0.2-0.2,0.3s-0.2,0.1-0.3,0.2s-0.2,0.1-0.3,0.1c-0.1,0-0.2,0-0.3-0.1s-0.2-0.1-0.3-0.2s-0.1-0.2-0.2-0.3
		c0-0.1-0.1-0.2-0.1-0.3l0-6.2c0-0.2,0-0.4,0.1-0.5c0.1-0.2,0.2-0.3,0.3-0.4c0.1-0.1,0.3-0.2,0.5-0.3c0.2-0.1,0.4-0.1,0.6-0.1
		c0.2,0,0.3,0,0.4,0.1c0.1,0,0.3,0.1,0.4,0.2s0.2,0.2,0.3,0.3s0.2,0.2,0.2,0.4l1.8,4.8h0l1.6-4.8c0.1-0.1,0.1-0.3,0.2-0.4
		c0.1-0.1,0.2-0.2,0.3-0.3c0.1-0.1,0.2-0.1,0.4-0.2c0.1,0,0.3-0.1,0.4-0.1c0.2,0,0.4,0,0.6,0.1c0.2,0.1,0.3,0.1,0.5,0.3
		c0.1,0.1,0.2,0.2,0.3,0.4c0.1,0.2,0.1,0.3,0.1,0.5V217.9z"/>
	<path d="M200.5,214.6c0.1,0,0.2,0,0.3,0c0.1,0,0.2,0.1,0.3,0.1c0.1,0.1,0.1,0.1,0.2,0.2c0,0.1,0.1,0.2,0.1,0.3c0,0.1,0,0.2-0.1,0.3
		c0,0.1-0.1,0.2-0.2,0.2c-0.1,0.1-0.2,0.1-0.3,0.1c-0.1,0-0.2,0-0.3,0h-3.4c-0.1,0-0.2,0-0.3,0c-0.1,0-0.2-0.1-0.2-0.1
		c-0.1-0.1-0.1-0.1-0.2-0.2c0-0.1-0.1-0.2-0.1-0.3c0-0.1,0-0.2,0.1-0.3s0.1-0.2,0.2-0.2c0.1-0.1,0.2-0.1,0.2-0.1c0.1,0,0.2,0,0.3,0
		H200.5z"/>
	<path d="M201.9,214.5c0-0.2,0-0.5,0-0.7s0-0.5,0.1-0.7c0-0.2,0.1-0.5,0.1-0.7c0.1-0.2,0.1-0.5,0.2-0.7c0.1-0.2,0.2-0.4,0.4-0.6
		c0.1-0.2,0.3-0.3,0.5-0.5c0.2-0.1,0.5-0.2,0.7-0.3c0.3-0.1,0.6-0.1,0.9-0.1c0.5,0,0.9,0.1,1.2,0.2c0.3,0.1,0.6,0.3,0.8,0.5
		c0.2,0.2,0.4,0.5,0.5,0.8s0.2,0.6,0.3,0.9c0.1,0.3,0.1,0.6,0.1,1c0,0.3,0,0.6,0,0.9c0,0.3,0,0.6,0,1c0,0.3-0.1,0.7-0.1,1
		c-0.1,0.3-0.2,0.6-0.3,0.9c-0.1,0.3-0.3,0.5-0.5,0.7c-0.2,0.2-0.5,0.4-0.8,0.5c-0.3,0.1-0.7,0.2-1.2,0.2c-0.4,0-0.7,0-0.9-0.1
		c-0.3-0.1-0.5-0.2-0.7-0.3c-0.2-0.1-0.4-0.3-0.5-0.5c-0.1-0.2-0.3-0.4-0.4-0.6s-0.2-0.4-0.2-0.7c-0.1-0.2-0.1-0.5-0.1-0.7
		c0-0.2-0.1-0.5-0.1-0.7C201.9,215,201.9,214.7,201.9,214.5z M203.6,214.5c0,0.2,0,0.4,0,0.6c0,0.2,0,0.4,0,0.6
		c0,0.2,0.1,0.4,0.1,0.6c0.1,0.2,0.1,0.4,0.2,0.5c0.1,0.1,0.2,0.3,0.4,0.4c0.1,0.1,0.3,0.1,0.5,0.1c0.2,0,0.4,0,0.6-0.1
		c0.1-0.1,0.3-0.2,0.4-0.4c0.1-0.1,0.2-0.3,0.2-0.5c0.1-0.2,0.1-0.4,0.1-0.6c0-0.2,0-0.4,0-0.6c0-0.2,0-0.4,0-0.6c0-0.2,0-0.4,0-0.6
		c0-0.2,0-0.4,0-0.6c0-0.2-0.1-0.4-0.1-0.6c-0.1-0.2-0.1-0.4-0.2-0.5c-0.1-0.1-0.2-0.3-0.4-0.3c-0.1-0.1-0.3-0.1-0.6-0.1
		c-0.2,0-0.4,0-0.5,0.1c-0.1,0.1-0.3,0.2-0.4,0.3c-0.1,0.1-0.2,0.3-0.2,0.5c-0.1,0.2-0.1,0.4-0.1,0.6c0,0.2,0,0.4,0,0.6
		C203.6,214.1,203.6,214.3,203.6,214.5z"/>
	<path d="M213.8,217.2c0.1,0,0.2,0,0.3,0s0.2,0.1,0.2,0.1c0.1,0.1,0.1,0.1,0.2,0.2c0,0.1,0.1,0.2,0.1,0.3c0,0.3-0.1,0.5-0.2,0.6
		s-0.4,0.2-0.6,0.2h-4.3c-0.2,0-0.3,0-0.4-0.1c-0.1-0.1-0.2-0.1-0.3-0.2c-0.1-0.1-0.1-0.2-0.2-0.3c0-0.1-0.1-0.2-0.1-0.3
		c0-0.4,0.2-0.9,0.5-1.3s0.9-0.9,1.6-1.4c0.3-0.2,0.5-0.3,0.7-0.5s0.4-0.3,0.6-0.4c0.2-0.1,0.3-0.2,0.4-0.3c0.1-0.1,0.2-0.2,0.3-0.3
		c0.1-0.1,0.1-0.2,0.2-0.4c0-0.1,0-0.3,0-0.4c0-0.2,0-0.4-0.1-0.5c-0.1-0.1-0.2-0.3-0.3-0.4c-0.1-0.1-0.2-0.2-0.4-0.2
		c-0.1,0-0.3-0.1-0.5-0.1c-0.2,0-0.4,0-0.5,0.1c-0.2,0-0.3,0.1-0.4,0.2c-0.1,0.1-0.2,0.2-0.3,0.4c-0.1,0.2-0.2,0.4-0.2,0.6
		c0,0.1-0.1,0.2-0.1,0.3c0,0.1-0.1,0.1-0.1,0.2c-0.1,0.1-0.1,0.1-0.2,0.1s-0.2,0-0.3,0s-0.2,0-0.3,0c-0.1,0-0.2-0.1-0.3-0.1
		c-0.1-0.1-0.1-0.1-0.2-0.2c0-0.1-0.1-0.2-0.1-0.4c0-0.2,0-0.5,0.1-0.7c0.1-0.2,0.2-0.4,0.3-0.6c0.1-0.2,0.3-0.4,0.5-0.5
		c0.2-0.2,0.4-0.3,0.6-0.4c0.2-0.1,0.5-0.2,0.7-0.2c0.3-0.1,0.5-0.1,0.8-0.1c0.5,0,0.9,0.1,1.2,0.2c0.4,0.1,0.7,0.3,0.9,0.5
		c0.3,0.2,0.4,0.5,0.6,0.8c0.1,0.3,0.2,0.6,0.2,0.9c0,0.3,0,0.5-0.1,0.7c0,0.2-0.1,0.4-0.2,0.5s-0.2,0.3-0.3,0.5
		c-0.1,0.1-0.2,0.3-0.4,0.4s-0.3,0.2-0.5,0.3c-0.2,0.1-0.4,0.2-0.6,0.3c-0.3,0.2-0.6,0.4-0.9,0.5c-0.3,0.2-0.5,0.3-0.7,0.4
		c-0.2,0.1-0.3,0.3-0.5,0.4s-0.2,0.2-0.2,0.3H213.8z"/>
</g>
<g>
	<path d="M232.8,216.2c0.2,0.3,0.4,0.6,0.7,0.8c0.3,0.2,0.6,0.3,1.1,0.3c0.1,0,0.2,0,0.4,0s0.3,0,0.4,0c0.1,0,0.2-0.1,0.4-0.1
		c0.1,0,0.2-0.1,0.3-0.2s0.2-0.2,0.2-0.3c0.1-0.1,0.1-0.2,0.1-0.4c0-0.1,0-0.3-0.1-0.4c-0.1-0.1-0.2-0.2-0.3-0.3
		c-0.1-0.1-0.2-0.1-0.4-0.2s-0.3-0.1-0.5-0.2s-0.4-0.1-0.6-0.1c-0.2,0-0.4-0.1-0.6-0.1c-0.3-0.1-0.6-0.2-0.9-0.3s-0.6-0.3-0.8-0.5
		c-0.2-0.2-0.4-0.4-0.5-0.7c-0.1-0.3-0.2-0.6-0.2-1c0-0.3,0-0.5,0.1-0.8c0.1-0.2,0.2-0.4,0.4-0.6c0.1-0.2,0.3-0.3,0.5-0.5
		s0.4-0.3,0.7-0.3s0.5-0.2,0.7-0.2c0.3,0,0.5-0.1,0.8-0.1c0.3,0,0.7,0,1,0.1s0.6,0.2,0.9,0.3s0.5,0.3,0.7,0.5
		c0.2,0.2,0.4,0.4,0.5,0.7c0,0.1,0,0.1,0.1,0.2c0,0.1,0,0.1,0,0.2c0,0.1,0,0.2-0.1,0.3c0,0.1-0.1,0.2-0.2,0.3
		c-0.1,0.1-0.2,0.1-0.3,0.2s-0.2,0.1-0.3,0.1c-0.1,0-0.2,0-0.3,0c-0.1,0-0.2-0.1-0.3-0.1s-0.1-0.1-0.2-0.2c-0.1-0.1-0.1-0.1-0.2-0.2
		c-0.1-0.3-0.3-0.4-0.6-0.6s-0.6-0.2-0.9-0.2c-0.2,0-0.3,0-0.5,0s-0.3,0.1-0.4,0.2c-0.1,0.1-0.2,0.2-0.3,0.3
		c-0.1,0.1-0.1,0.2-0.1,0.4c0,0.1,0,0.2,0,0.3s0.1,0.2,0.1,0.2c0.1,0.1,0.2,0.1,0.3,0.2s0.3,0.1,0.4,0.2c0.2,0.1,0.4,0.1,0.7,0.2
		c0.3,0.1,0.6,0.2,0.9,0.2c0.1,0,0.2,0.1,0.4,0.1c0.2,0,0.3,0.1,0.5,0.2c0.2,0.1,0.4,0.2,0.5,0.3c0.2,0.1,0.3,0.2,0.5,0.4
		c0.1,0.2,0.3,0.4,0.4,0.6s0.1,0.5,0.1,0.8c0,0.4-0.1,0.7-0.2,1.1s-0.4,0.6-0.7,0.8s-0.7,0.4-1.1,0.6c-0.4,0.1-0.9,0.2-1.5,0.2
		c-0.4,0-0.7,0-1.1-0.1c-0.4-0.1-0.7-0.2-1-0.4s-0.6-0.4-0.8-0.6s-0.4-0.5-0.5-0.9c0-0.1,0-0.1-0.1-0.2s0-0.1,0-0.2
		c0-0.1,0-0.2,0.1-0.3c0-0.1,0.1-0.2,0.2-0.3s0.2-0.1,0.3-0.2c0.1,0,0.2-0.1,0.3-0.1c0.2,0,0.4,0.1,0.5,0.2
		C232.6,215.9,232.7,216.1,232.8,216.2z"/>
	<path d="M248.2,217.9c0,0.1,0,0.2-0.1,0.3c0,0.1-0.1,0.2-0.2,0.3s-0.2,0.1-0.3,0.2c-0.1,0-0.2,0.1-0.3,0.1s-0.2,0-0.3-0.1
		c-0.1,0-0.2-0.1-0.3-0.2c-0.1-0.1-0.1-0.2-0.2-0.3c0-0.1-0.1-0.2-0.1-0.3v-5.2l0,0.1l-2,5.4c-0.1,0.2-0.2,0.3-0.3,0.4
		c-0.1,0.1-0.3,0.1-0.5,0.1c-0.2,0-0.3-0.1-0.5-0.2c-0.1-0.1-0.2-0.2-0.3-0.4l-2-5.4l0-0.1v5.1c0,0.1,0,0.2-0.1,0.3
		c0,0.1-0.1,0.2-0.2,0.3s-0.2,0.1-0.3,0.2s-0.2,0.1-0.3,0.1c-0.1,0-0.2,0-0.3-0.1s-0.2-0.1-0.3-0.2s-0.1-0.2-0.2-0.3
		c0-0.1-0.1-0.2-0.1-0.3l0-6.2c0-0.2,0-0.4,0.1-0.5c0.1-0.2,0.2-0.3,0.3-0.4c0.1-0.1,0.3-0.2,0.5-0.3c0.2-0.1,0.4-0.1,0.6-0.1
		c0.2,0,0.3,0,0.4,0.1c0.1,0,0.3,0.1,0.4,0.2s0.2,0.2,0.3,0.3s0.2,0.2,0.2,0.4l1.8,4.8h0l1.6-4.8c0.1-0.1,0.1-0.3,0.2-0.4
		c0.1-0.1,0.2-0.2,0.3-0.3c0.1-0.1,0.2-0.1,0.4-0.2c0.1,0,0.3-0.1,0.4-0.1c0.2,0,0.4,0,0.6,0.1c0.2,0.1,0.3,0.1,0.5,0.3
		c0.1,0.1,0.2,0.2,0.3,0.4c0.1,0.2,0.1,0.3,0.1,0.5V217.9z"/>
	<path d="M253.5,214.6c0.1,0,0.2,0,0.3,0c0.1,0,0.2,0.1,0.3,0.1c0.1,0.1,0.1,0.1,0.2,0.2s0.1,0.2,0.1,0.3c0,0.1,0,0.2-0.1,0.3
		c0,0.1-0.1,0.2-0.2,0.2c-0.1,0.1-0.2,0.1-0.3,0.1c-0.1,0-0.2,0-0.3,0h-3.4c-0.1,0-0.2,0-0.3,0c-0.1,0-0.2-0.1-0.2-0.1
		c-0.1-0.1-0.1-0.1-0.2-0.2c0-0.1-0.1-0.2-0.1-0.3c0-0.1,0-0.2,0.1-0.3s0.1-0.2,0.2-0.2c0.1-0.1,0.2-0.1,0.2-0.1c0.1,0,0.2,0,0.3,0
		H253.5z"/>
	<path d="M254.9,214.5c0-0.2,0-0.5,0-0.7s0-0.5,0.1-0.7c0-0.2,0.1-0.5,0.1-0.7c0.1-0.2,0.1-0.5,0.2-0.7c0.1-0.2,0.2-0.4,0.4-0.6
		c0.2-0.2,0.3-0.3,0.5-0.5c0.2-0.1,0.5-0.2,0.7-0.3c0.3-0.1,0.6-0.1,0.9-0.1c0.5,0,0.9,0.1,1.2,0.2c0.3,0.1,0.6,0.3,0.8,0.5
		c0.2,0.2,0.4,0.5,0.5,0.8s0.2,0.6,0.3,0.9c0.1,0.3,0.1,0.6,0.1,1c0,0.3,0,0.6,0,0.9c0,0.3,0,0.6,0,1c0,0.3-0.1,0.7-0.1,1
		c-0.1,0.3-0.2,0.6-0.3,0.9c-0.1,0.3-0.3,0.5-0.5,0.7c-0.2,0.2-0.5,0.4-0.8,0.5c-0.3,0.1-0.7,0.2-1.2,0.2c-0.4,0-0.7,0-0.9-0.1
		c-0.3-0.1-0.5-0.2-0.7-0.3c-0.2-0.1-0.4-0.3-0.5-0.5c-0.1-0.2-0.3-0.4-0.4-0.6s-0.2-0.4-0.2-0.7c-0.1-0.2-0.1-0.5-0.1-0.7
		c0-0.2-0.1-0.5-0.1-0.7C254.9,215,254.9,214.7,254.9,214.5z M256.6,214.5c0,0.2,0,0.4,0,0.6c0,0.2,0,0.4,0,0.6
		c0,0.2,0.1,0.4,0.1,0.6c0.1,0.2,0.1,0.4,0.2,0.5c0.1,0.1,0.2,0.3,0.4,0.4c0.1,0.1,0.3,0.1,0.5,0.1c0.2,0,0.4,0,0.5-0.1
		c0.1-0.1,0.3-0.2,0.4-0.4c0.1-0.1,0.2-0.3,0.2-0.5c0.1-0.2,0.1-0.4,0.1-0.6c0-0.2,0-0.4,0-0.6c0-0.2,0-0.4,0-0.6c0-0.2,0-0.4,0-0.6
		c0-0.2,0-0.4,0-0.6c0-0.2-0.1-0.4-0.1-0.6c-0.1-0.2-0.1-0.4-0.2-0.5s-0.2-0.3-0.4-0.3c-0.1-0.1-0.3-0.1-0.5-0.1
		c-0.2,0-0.4,0-0.5,0.1c-0.1,0.1-0.3,0.2-0.4,0.3s-0.2,0.3-0.2,0.5c-0.1,0.2-0.1,0.4-0.1,0.6c0,0.2,0,0.4,0,0.6
		C256.6,214.1,256.6,214.3,256.6,214.5z"/>
	<path d="M265,216.8h-2.8c-0.1,0-0.3,0-0.4-0.1c-0.1-0.1-0.2-0.1-0.3-0.2c-0.1-0.1-0.1-0.2-0.2-0.3s-0.1-0.2-0.1-0.3
		c0-0.2,0-0.3,0.1-0.4c0-0.1,0.1-0.2,0.2-0.3l3.5-4.6c0.1-0.1,0.2-0.2,0.3-0.3c0.1,0,0.3-0.1,0.4-0.1c0.2,0,0.3,0,0.4,0.1
		c0.1,0,0.2,0.1,0.3,0.2c0.1,0.1,0.1,0.2,0.2,0.3c0,0.1,0,0.2,0,0.3v4.3h0.6c0.1,0,0.2,0,0.3,0.1s0.1,0.1,0.2,0.2s0.1,0.1,0.1,0.2
		s0,0.2,0,0.3s0,0.2,0,0.3c0,0.1-0.1,0.2-0.1,0.2s-0.1,0.1-0.2,0.2s-0.2,0.1-0.3,0.1h-0.6v1.1c0,0.1,0,0.2,0,0.3
		c0,0.1-0.1,0.2-0.1,0.3c-0.1,0.1-0.2,0.1-0.3,0.2c-0.1,0-0.2,0.1-0.4,0.1c-0.2,0-0.3,0-0.4-0.1c-0.1,0-0.2-0.1-0.3-0.2
		c-0.1-0.1-0.1-0.2-0.1-0.3c0-0.1,0-0.2,0-0.3V216.8z M265,212.9L265,212.9l-2,2.5h2V212.9z"/>
</g>
<g>
	<path d="M285.8,216.2c0.2,0.3,0.4,0.6,0.7,0.8c0.3,0.2,0.6,0.3,1.1,0.3c0.1,0,0.2,0,0.4,0s0.3,0,0.4,0c0.1,0,0.2-0.1,0.4-0.1
		c0.1,0,0.2-0.1,0.3-0.2s0.2-0.2,0.2-0.3c0.1-0.1,0.1-0.2,0.1-0.4c0-0.1,0-0.3-0.1-0.4c-0.1-0.1-0.2-0.2-0.3-0.3
		c-0.1-0.1-0.2-0.1-0.4-0.2c-0.2-0.1-0.3-0.1-0.5-0.2s-0.4-0.1-0.6-0.1c-0.2,0-0.4-0.1-0.6-0.1c-0.3-0.1-0.6-0.2-0.9-0.3
		c-0.3-0.1-0.6-0.3-0.8-0.5c-0.2-0.2-0.4-0.4-0.5-0.7c-0.1-0.3-0.2-0.6-0.2-1c0-0.3,0-0.5,0.1-0.8c0.1-0.2,0.2-0.4,0.4-0.6
		c0.1-0.2,0.3-0.3,0.5-0.5s0.4-0.3,0.7-0.3s0.5-0.2,0.7-0.2c0.3,0,0.5-0.1,0.8-0.1c0.3,0,0.7,0,1,0.1c0.3,0.1,0.6,0.2,0.9,0.3
		s0.5,0.3,0.7,0.5c0.2,0.2,0.4,0.4,0.5,0.7c0,0.1,0,0.1,0.1,0.2c0,0.1,0,0.1,0,0.2c0,0.1,0,0.2-0.1,0.3c0,0.1-0.1,0.2-0.2,0.3
		s-0.2,0.1-0.3,0.2s-0.2,0.1-0.3,0.1c-0.1,0-0.2,0-0.3,0c-0.1,0-0.2-0.1-0.3-0.1s-0.1-0.1-0.2-0.2c-0.1-0.1-0.1-0.1-0.2-0.2
		c-0.1-0.3-0.3-0.4-0.6-0.6c-0.3-0.1-0.6-0.2-0.9-0.2c-0.2,0-0.3,0-0.5,0s-0.3,0.1-0.4,0.2c-0.1,0.1-0.2,0.2-0.3,0.3
		c-0.1,0.1-0.1,0.2-0.1,0.4c0,0.1,0,0.2,0,0.3s0.1,0.2,0.1,0.2c0.1,0.1,0.2,0.1,0.3,0.2c0.1,0.1,0.3,0.1,0.4,0.2
		c0.2,0.1,0.4,0.1,0.7,0.2c0.3,0.1,0.6,0.2,0.9,0.2c0.1,0,0.2,0.1,0.4,0.1c0.2,0,0.3,0.1,0.5,0.2c0.2,0.1,0.4,0.2,0.5,0.3
		c0.2,0.1,0.3,0.2,0.5,0.4c0.1,0.2,0.3,0.4,0.4,0.6s0.1,0.5,0.1,0.8c0,0.4-0.1,0.7-0.2,1.1s-0.4,0.6-0.7,0.8s-0.7,0.4-1.1,0.6
		c-0.4,0.1-0.9,0.2-1.5,0.2c-0.4,0-0.7,0-1.1-0.1c-0.4-0.1-0.7-0.2-1-0.4c-0.3-0.2-0.6-0.4-0.8-0.6c-0.2-0.2-0.4-0.5-0.5-0.9
		c0-0.1,0-0.1-0.1-0.2c0-0.1,0-0.1,0-0.2c0-0.1,0-0.2,0.1-0.3s0.1-0.2,0.2-0.3c0.1-0.1,0.2-0.1,0.3-0.2c0.1,0,0.2-0.1,0.3-0.1
		c0.2,0,0.4,0.1,0.5,0.2C285.6,215.9,285.7,216.1,285.8,216.2z"/>
	<path d="M301.2,217.9c0,0.1,0,0.2-0.1,0.3c0,0.1-0.1,0.2-0.2,0.3c-0.1,0.1-0.2,0.1-0.3,0.2c-0.1,0-0.2,0.1-0.3,0.1s-0.2,0-0.3-0.1
		c-0.1,0-0.2-0.1-0.3-0.2c-0.1-0.1-0.1-0.2-0.2-0.3c0-0.1-0.1-0.2-0.1-0.3v-5.2l0,0.1l-2,5.4c-0.1,0.2-0.2,0.3-0.3,0.4
		c-0.1,0.1-0.3,0.1-0.5,0.1s-0.3-0.1-0.5-0.2c-0.1-0.1-0.2-0.2-0.3-0.4l-2-5.4l0-0.1v5.1c0,0.1,0,0.2-0.1,0.3c0,0.1-0.1,0.2-0.2,0.3
		c-0.1,0.1-0.2,0.1-0.3,0.2c-0.1,0-0.2,0.1-0.3,0.1c-0.1,0-0.2,0-0.3-0.1c-0.1,0-0.2-0.1-0.3-0.2c-0.1-0.1-0.1-0.2-0.2-0.3
		c0-0.1-0.1-0.2-0.1-0.3l0-6.2c0-0.2,0-0.4,0.1-0.5c0.1-0.2,0.2-0.3,0.3-0.4c0.1-0.1,0.3-0.2,0.5-0.3c0.2-0.1,0.4-0.1,0.6-0.1
		c0.2,0,0.3,0,0.4,0.1c0.1,0,0.3,0.1,0.4,0.2s0.2,0.2,0.3,0.3c0.1,0.1,0.2,0.2,0.2,0.4l1.8,4.8h0l1.6-4.8c0.1-0.1,0.1-0.3,0.2-0.4
		c0.1-0.1,0.2-0.2,0.3-0.3c0.1-0.1,0.2-0.1,0.4-0.2c0.1,0,0.3-0.1,0.4-0.1c0.2,0,0.4,0,0.6,0.1c0.2,0.1,0.3,0.1,0.5,0.3
		c0.1,0.1,0.2,0.2,0.3,0.4c0.1,0.2,0.1,0.3,0.1,0.5V217.9z"/>
	<path d="M306.5,214.6c0.1,0,0.2,0,0.3,0c0.1,0,0.2,0.1,0.3,0.1c0.1,0.1,0.1,0.1,0.2,0.2s0.1,0.2,0.1,0.3c0,0.1,0,0.2-0.1,0.3
		c0,0.1-0.1,0.2-0.2,0.2c-0.1,0.1-0.2,0.1-0.3,0.1c-0.1,0-0.2,0-0.3,0h-3.4c-0.1,0-0.2,0-0.3,0c-0.1,0-0.2-0.1-0.2-0.1
		c-0.1-0.1-0.1-0.1-0.2-0.2c0-0.1-0.1-0.2-0.1-0.3c0-0.1,0-0.2,0.1-0.3s0.1-0.2,0.2-0.2c0.1-0.1,0.2-0.1,0.2-0.1c0.1,0,0.2,0,0.3,0
		H306.5z"/>
	<path d="M307.9,214.5c0-0.2,0-0.5,0-0.7s0-0.5,0.1-0.7c0-0.2,0.1-0.5,0.1-0.7c0.1-0.2,0.1-0.5,0.2-0.7c0.1-0.2,0.2-0.4,0.4-0.6
		c0.2-0.2,0.3-0.3,0.5-0.5c0.2-0.1,0.5-0.2,0.7-0.3c0.3-0.1,0.6-0.1,0.9-0.1c0.5,0,0.9,0.1,1.2,0.2c0.3,0.1,0.6,0.3,0.8,0.5
		c0.2,0.2,0.4,0.5,0.5,0.8s0.2,0.6,0.3,0.9c0.1,0.3,0.1,0.6,0.1,1c0,0.3,0,0.6,0,0.9c0,0.3,0,0.6,0,1c0,0.3-0.1,0.7-0.1,1
		c-0.1,0.3-0.2,0.6-0.3,0.9c-0.1,0.3-0.3,0.5-0.5,0.7c-0.2,0.2-0.5,0.4-0.8,0.5c-0.3,0.1-0.7,0.2-1.2,0.2c-0.4,0-0.7,0-0.9-0.1
		c-0.3-0.1-0.5-0.2-0.7-0.3c-0.2-0.1-0.4-0.3-0.5-0.5c-0.1-0.2-0.3-0.4-0.4-0.6s-0.2-0.4-0.2-0.7c-0.1-0.2-0.1-0.5-0.1-0.7
		c0-0.2-0.1-0.5-0.1-0.7C307.9,215,307.9,214.7,307.9,214.5z M309.6,214.5c0,0.2,0,0.4,0,0.6c0,0.2,0,0.4,0,0.6
		c0,0.2,0.1,0.4,0.1,0.6c0.1,0.2,0.1,0.4,0.2,0.5c0.1,0.1,0.2,0.3,0.4,0.4c0.1,0.1,0.3,0.1,0.5,0.1c0.2,0,0.4,0,0.5-0.1
		c0.1-0.1,0.3-0.2,0.4-0.4c0.1-0.1,0.2-0.3,0.2-0.5c0.1-0.2,0.1-0.4,0.1-0.6c0-0.2,0-0.4,0-0.6c0-0.2,0-0.4,0-0.6c0-0.2,0-0.4,0-0.6
		c0-0.2,0-0.4,0-0.6c0-0.2-0.1-0.4-0.1-0.6c-0.1-0.2-0.1-0.4-0.2-0.5s-0.2-0.3-0.4-0.3c-0.1-0.1-0.3-0.1-0.5-0.1
		c-0.2,0-0.4,0-0.5,0.1c-0.1,0.1-0.3,0.2-0.4,0.3s-0.2,0.3-0.2,0.5c-0.1,0.2-0.1,0.4-0.1,0.6c0,0.2,0,0.4,0,0.6
		C309.6,214.1,309.6,214.3,309.6,214.5z"/>
	<path d="M316.2,214c0.1-0.1,0.3-0.2,0.4-0.3s0.3-0.2,0.4-0.2s0.3-0.1,0.5-0.1s0.3,0,0.5,0c0.4,0,0.8,0.1,1.1,0.2
		c0.3,0.1,0.6,0.3,0.8,0.6c0.2,0.2,0.4,0.5,0.5,0.8s0.2,0.7,0.2,1c0,0.5-0.1,0.9-0.2,1.3s-0.4,0.7-0.6,0.9c-0.3,0.2-0.6,0.4-1,0.5
		c-0.4,0.1-0.8,0.2-1.2,0.2c-0.4,0-0.8-0.1-1.1-0.2c-0.3-0.1-0.6-0.2-0.8-0.4c-0.2-0.2-0.4-0.4-0.6-0.6c-0.2-0.2-0.3-0.5-0.4-0.8
		c-0.1-0.3-0.2-0.6-0.2-0.9c0-0.3-0.1-0.6-0.1-0.9c0-0.9,0.1-1.6,0.2-2.2c0.2-0.6,0.4-1.1,0.7-1.5c0.3-0.4,0.7-0.6,1.1-0.8
		c0.4-0.2,0.9-0.2,1.5-0.2c0.3,0,0.7,0,0.9,0.1c0.3,0.1,0.5,0.2,0.7,0.4c0.2,0.1,0.4,0.3,0.5,0.5s0.2,0.4,0.2,0.5c0,0.1,0,0.2,0,0.2
		c0,0.1-0.1,0.2-0.1,0.2c-0.1,0.1-0.1,0.1-0.2,0.2c-0.1,0-0.2,0.1-0.3,0.1c-0.1,0-0.3,0-0.4-0.1c-0.1-0.1-0.2-0.1-0.3-0.2
		c-0.2-0.2-0.4-0.3-0.6-0.4s-0.5-0.1-0.7-0.1c-0.2,0-0.4,0-0.5,0.1c-0.2,0.1-0.3,0.1-0.4,0.2c-0.1,0.1-0.2,0.2-0.3,0.4
		c-0.1,0.1-0.2,0.3-0.2,0.5c-0.1,0.2-0.1,0.3-0.1,0.5c0,0.2,0,0.4,0,0.5V214z M316.3,216c0,0.2,0,0.4,0.1,0.6
		c0.1,0.2,0.2,0.3,0.3,0.5c0.1,0.1,0.3,0.2,0.4,0.3c0.2,0.1,0.4,0.1,0.6,0.1s0.4,0,0.6-0.1c0.2-0.1,0.3-0.2,0.4-0.3
		c0.1-0.1,0.2-0.3,0.3-0.5s0.1-0.4,0.1-0.6c0-0.2,0-0.5-0.1-0.6c-0.1-0.2-0.2-0.3-0.3-0.5c-0.1-0.1-0.3-0.2-0.4-0.3
		c-0.2-0.1-0.3-0.1-0.5-0.1c-0.2,0-0.4,0-0.5,0.1c-0.2,0.1-0.3,0.2-0.4,0.3c-0.1,0.1-0.2,0.3-0.3,0.5
		C316.3,215.5,316.3,215.7,316.3,216z"/>
</g>
<g>
	<path d="M344.8,216.2c0.2,0.3,0.4,0.6,0.7,0.8c0.3,0.2,0.6,0.3,1.1,0.3c0.1,0,0.2,0,0.4,0s0.3,0,0.4,0c0.1,0,0.2-0.1,0.4-0.1
		c0.1,0,0.2-0.1,0.3-0.2s0.2-0.2,0.2-0.3c0.1-0.1,0.1-0.2,0.1-0.4c0-0.1,0-0.3-0.1-0.4c-0.1-0.1-0.2-0.2-0.3-0.3
		c-0.1-0.1-0.2-0.1-0.4-0.2c-0.2-0.1-0.3-0.1-0.5-0.2s-0.4-0.1-0.6-0.1c-0.2,0-0.4-0.1-0.6-0.1c-0.3-0.1-0.6-0.2-0.9-0.3
		c-0.3-0.1-0.6-0.3-0.8-0.5c-0.2-0.2-0.4-0.4-0.5-0.7c-0.1-0.3-0.2-0.6-0.2-1c0-0.3,0-0.5,0.1-0.8c0.1-0.2,0.2-0.4,0.4-0.6
		c0.1-0.2,0.3-0.3,0.5-0.5s0.4-0.3,0.7-0.3s0.5-0.2,0.7-0.2c0.3,0,0.5-0.1,0.8-0.1c0.3,0,0.7,0,1,0.1c0.3,0.1,0.6,0.2,0.9,0.3
		s0.5,0.3,0.7,0.5c0.2,0.2,0.4,0.4,0.5,0.7c0,0.1,0,0.1,0.1,0.2c0,0.1,0,0.1,0,0.2c0,0.1,0,0.2-0.1,0.3c0,0.1-0.1,0.2-0.2,0.3
		s-0.2,0.1-0.3,0.2s-0.2,0.1-0.3,0.1c-0.1,0-0.2,0-0.3,0c-0.1,0-0.2-0.1-0.3-0.1s-0.1-0.1-0.2-0.2c-0.1-0.1-0.1-0.1-0.2-0.2
		c-0.1-0.3-0.3-0.4-0.6-0.6c-0.3-0.1-0.6-0.2-0.9-0.2c-0.2,0-0.3,0-0.5,0s-0.3,0.1-0.4,0.2c-0.1,0.1-0.2,0.2-0.3,0.3
		c-0.1,0.1-0.1,0.2-0.1,0.4c0,0.1,0,0.2,0,0.3s0.1,0.2,0.1,0.2c0.1,0.1,0.2,0.1,0.3,0.2c0.1,0.1,0.3,0.1,0.4,0.2
		c0.2,0.1,0.4,0.1,0.7,0.2c0.3,0.1,0.6,0.2,0.9,0.2c0.1,0,0.2,0.1,0.4,0.1c0.2,0,0.3,0.1,0.5,0.2c0.2,0.1,0.4,0.2,0.5,0.3
		c0.2,0.1,0.3,0.2,0.5,0.4c0.1,0.2,0.3,0.4,0.4,0.6s0.1,0.5,0.1,0.8c0,0.4-0.1,0.7-0.2,1.1s-0.4,0.6-0.7,0.8s-0.7,0.4-1.1,0.6
		c-0.4,0.1-0.9,0.2-1.5,0.2c-0.4,0-0.7,0-1.1-0.1c-0.4-0.1-0.7-0.2-1-0.4c-0.3-0.2-0.6-0.4-0.8-0.6c-0.2-0.2-0.4-0.5-0.5-0.9
		c0-0.1,0-0.1-0.1-0.2c0-0.1,0-0.1,0-0.2c0-0.1,0-0.2,0.1-0.3s0.1-0.2,0.2-0.3c0.1-0.1,0.2-0.1,0.3-0.2c0.1,0,0.2-0.1,0.3-0.1
		c0.2,0,0.4,0.1,0.5,0.2C344.6,215.9,344.7,216.1,344.8,216.2z"/>
	<path d="M360.2,217.9c0,0.1,0,0.2-0.1,0.3c0,0.1-0.1,0.2-0.2,0.3c-0.1,0.1-0.2,0.1-0.3,0.2c-0.1,0-0.2,0.1-0.3,0.1s-0.2,0-0.3-0.1
		c-0.1,0-0.2-0.1-0.3-0.2c-0.1-0.1-0.1-0.2-0.2-0.3c0-0.1-0.1-0.2-0.1-0.3v-5.2l0,0.1l-2,5.4c-0.1,0.2-0.2,0.3-0.3,0.4
		c-0.1,0.1-0.3,0.1-0.5,0.1s-0.3-0.1-0.5-0.2c-0.1-0.1-0.2-0.2-0.3-0.4l-2-5.4l0-0.1v5.1c0,0.1,0,0.2-0.1,0.3c0,0.1-0.1,0.2-0.2,0.3
		c-0.1,0.1-0.2,0.1-0.3,0.2c-0.1,0-0.2,0.1-0.3,0.1c-0.1,0-0.2,0-0.3-0.1c-0.1,0-0.2-0.1-0.3-0.2c-0.1-0.1-0.1-0.2-0.2-0.3
		c0-0.1-0.1-0.2-0.1-0.3l0-6.2c0-0.2,0-0.4,0.1-0.5c0.1-0.2,0.2-0.3,0.3-0.4c0.1-0.1,0.3-0.2,0.5-0.3c0.2-0.1,0.4-0.1,0.6-0.1
		c0.2,0,0.3,0,0.4,0.1c0.1,0,0.3,0.1,0.4,0.2s0.2,0.2,0.3,0.3c0.1,0.1,0.2,0.2,0.2,0.4l1.8,4.8h0l1.6-4.8c0.1-0.1,0.1-0.3,0.2-0.4
		c0.1-0.1,0.2-0.2,0.3-0.3c0.1-0.1,0.2-0.1,0.4-0.2c0.1,0,0.3-0.1,0.4-0.1c0.2,0,0.4,0,0.6,0.1c0.2,0.1,0.3,0.1,0.5,0.3
		c0.1,0.1,0.2,0.2,0.3,0.4c0.1,0.2,0.1,0.3,0.1,0.5V217.9z"/>
	<path d="M365.5,214.6c0.1,0,0.2,0,0.3,0c0.1,0,0.2,0.1,0.3,0.1c0.1,0.1,0.1,0.1,0.2,0.2s0.1,0.2,0.1,0.3c0,0.1,0,0.2-0.1,0.3
		c0,0.1-0.1,0.2-0.2,0.2c-0.1,0.1-0.2,0.1-0.3,0.1c-0.1,0-0.2,0-0.3,0h-3.4c-0.1,0-0.2,0-0.3,0c-0.1,0-0.2-0.1-0.2-0.1
		c-0.1-0.1-0.1-0.1-0.2-0.2c0-0.1-0.1-0.2-0.1-0.3c0-0.1,0-0.2,0.1-0.3s0.1-0.2,0.2-0.2c0.1-0.1,0.2-0.1,0.2-0.1c0.1,0,0.2,0,0.3,0
		H365.5z"/>
	<path d="M366.9,214.5c0-0.2,0-0.5,0-0.7s0-0.5,0.1-0.7c0-0.2,0.1-0.5,0.1-0.7c0.1-0.2,0.1-0.5,0.2-0.7c0.1-0.2,0.2-0.4,0.4-0.6
		c0.2-0.2,0.3-0.3,0.5-0.5c0.2-0.1,0.5-0.2,0.7-0.3c0.3-0.1,0.6-0.1,0.9-0.1c0.5,0,0.9,0.1,1.2,0.2c0.3,0.1,0.6,0.3,0.8,0.5
		c0.2,0.2,0.4,0.5,0.5,0.8s0.2,0.6,0.3,0.9c0.1,0.3,0.1,0.6,0.1,1c0,0.3,0,0.6,0,0.9c0,0.3,0,0.6,0,1c0,0.3-0.1,0.7-0.1,1
		c-0.1,0.3-0.2,0.6-0.3,0.9c-0.1,0.3-0.3,0.5-0.5,0.7c-0.2,0.2-0.5,0.4-0.8,0.5c-0.3,0.1-0.7,0.2-1.2,0.2c-0.4,0-0.7,0-0.9-0.1
		c-0.3-0.1-0.5-0.2-0.7-0.3c-0.2-0.1-0.4-0.3-0.5-0.5c-0.1-0.2-0.3-0.4-0.4-0.6s-0.2-0.4-0.2-0.7c-0.1-0.2-0.1-0.5-0.1-0.7
		c0-0.2-0.1-0.5-0.1-0.7C366.9,215,366.9,214.7,366.9,214.5z M368.6,214.5c0,0.2,0,0.4,0,0.6c0,0.2,0,0.4,0,0.6
		c0,0.2,0.1,0.4,0.1,0.6c0.1,0.2,0.1,0.4,0.2,0.5c0.1,0.1,0.2,0.3,0.4,0.4c0.1,0.1,0.3,0.1,0.5,0.1c0.2,0,0.4,0,0.5-0.1
		c0.1-0.1,0.3-0.2,0.4-0.4c0.1-0.1,0.2-0.3,0.2-0.5c0.1-0.2,0.1-0.4,0.1-0.6c0-0.2,0-0.4,0-0.6c0-0.2,0-0.4,0-0.6c0-0.2,0-0.4,0-0.6
		c0-0.2,0-0.4,0-0.6c0-0.2-0.1-0.4-0.1-0.6c-0.1-0.2-0.1-0.4-0.2-0.5s-0.2-0.3-0.4-0.3c-0.1-0.1-0.3-0.1-0.5-0.1
		c-0.2,0-0.4,0-0.5,0.1c-0.1,0.1-0.3,0.2-0.4,0.3s-0.2,0.3-0.2,0.5c-0.1,0.2-0.1,0.4-0.1,0.6c0,0.2,0,0.4,0,0.6
		C368.6,214.1,368.6,214.3,368.6,214.5z"/>
	<path d="M373.5,216.1c0-0.2,0-0.4,0.1-0.6s0.1-0.4,0.2-0.6c0.1-0.2,0.2-0.3,0.4-0.4c0.2-0.1,0.3-0.2,0.6-0.3
		c-0.2-0.1-0.3-0.2-0.4-0.3c-0.1-0.1-0.2-0.3-0.3-0.4c-0.1-0.1-0.2-0.3-0.2-0.5c0-0.2-0.1-0.4-0.1-0.5c0-0.3,0.1-0.6,0.2-0.9
		c0.1-0.3,0.3-0.5,0.6-0.7c0.2-0.2,0.5-0.4,0.9-0.5c0.4-0.1,0.7-0.2,1.2-0.2c0.4,0,0.8,0.1,1.2,0.2c0.4,0.1,0.6,0.3,0.9,0.5
		c0.2,0.2,0.4,0.4,0.6,0.7c0.1,0.3,0.2,0.6,0.2,0.9c0,0.2,0,0.4-0.1,0.5c0,0.2-0.1,0.3-0.2,0.5c-0.1,0.2-0.2,0.3-0.3,0.4
		c-0.1,0.1-0.3,0.2-0.4,0.3c0.2,0.1,0.4,0.2,0.6,0.3s0.3,0.3,0.4,0.4c0.1,0.2,0.2,0.4,0.2,0.6s0.1,0.4,0.1,0.6c0,0.3,0,0.6-0.1,0.9
		s-0.2,0.5-0.4,0.7c-0.1,0.2-0.3,0.4-0.5,0.5c-0.2,0.1-0.4,0.2-0.6,0.3c-0.2,0.1-0.5,0.1-0.7,0.2s-0.5,0.1-0.7,0.1s-0.5,0-0.7-0.1
		s-0.5-0.1-0.7-0.2c-0.2-0.1-0.4-0.2-0.6-0.3c-0.2-0.1-0.4-0.3-0.5-0.5c-0.1-0.2-0.3-0.4-0.4-0.7S373.5,216.5,373.5,216.1z
		 M375.1,216.2c0,0.2,0,0.4,0.1,0.5c0.1,0.2,0.2,0.3,0.3,0.4c0.1,0.1,0.3,0.2,0.4,0.3c0.2,0.1,0.4,0.1,0.6,0.1s0.4,0,0.6-0.1
		c0.2-0.1,0.3-0.1,0.4-0.3c0.1-0.1,0.2-0.2,0.3-0.4c0.1-0.2,0.1-0.3,0.1-0.5c0-0.1,0-0.3-0.1-0.4s-0.1-0.3-0.2-0.4
		c-0.1-0.1-0.3-0.3-0.4-0.3s-0.4-0.1-0.7-0.1c-0.3,0-0.5,0-0.7,0.1s-0.3,0.2-0.4,0.3c-0.1,0.1-0.2,0.3-0.2,0.4
		C375.2,215.9,375.1,216,375.1,216.2z M375.3,212.6c0,0.2,0,0.3,0.1,0.5c0.1,0.1,0.2,0.2,0.3,0.3s0.2,0.2,0.4,0.2
		c0.1,0,0.3,0.1,0.5,0.1s0.3,0,0.5-0.1s0.3-0.1,0.4-0.2s0.2-0.2,0.3-0.3c0.1-0.1,0.1-0.3,0.1-0.5c0-0.2,0-0.3-0.1-0.5
		c-0.1-0.1-0.2-0.2-0.3-0.3s-0.2-0.2-0.4-0.2s-0.3-0.1-0.5-0.1s-0.3,0-0.5,0.1c-0.2,0-0.3,0.1-0.4,0.2s-0.2,0.2-0.3,0.3
		C375.3,212.3,375.3,212.4,375.3,212.6z"/>
</g>
<g>
	<path d="M204.9,270.4c0.1,0.1,0.2,0.2,0.3,0.3s0.3,0.2,0.4,0.2c0.1,0.1,0.3,0.1,0.4,0.1s0.3,0,0.4,0c0.1,0,0.3,0,0.5,0
		c0.2,0,0.3-0.1,0.5-0.1c0.1-0.1,0.3-0.1,0.4-0.2c0.1-0.1,0.2-0.2,0.2-0.4c0-0.2-0.1-0.3-0.2-0.4c-0.1-0.1-0.3-0.2-0.5-0.3
		c-0.2-0.1-0.4-0.2-0.7-0.2c-0.3-0.1-0.6-0.2-0.9-0.2c-0.2-0.1-0.4-0.1-0.7-0.2c-0.2-0.1-0.4-0.2-0.7-0.3c-0.2-0.1-0.4-0.2-0.6-0.3
		c-0.2-0.1-0.4-0.3-0.5-0.4s-0.3-0.3-0.3-0.5c-0.1-0.2-0.1-0.4-0.1-0.7c0-0.3,0-0.6,0.1-0.8s0.2-0.4,0.4-0.6
		c0.2-0.2,0.3-0.3,0.6-0.5c0.2-0.1,0.5-0.2,0.7-0.3c0.3-0.1,0.5-0.1,0.8-0.2c0.3,0,0.6-0.1,0.9-0.1c0.3,0,0.6,0,0.9,0.1
		s0.6,0.1,0.9,0.2c0.3,0.1,0.5,0.2,0.7,0.4c0.2,0.1,0.4,0.3,0.6,0.5c0.1,0.1,0.1,0.2,0.2,0.3s0.1,0.2,0.1,0.4c0,0.1,0,0.3-0.1,0.4
		c0,0.1-0.1,0.2-0.2,0.3s-0.2,0.1-0.3,0.2c-0.1,0-0.2,0.1-0.4,0.1c-0.1,0-0.2,0-0.3,0c-0.1,0-0.2-0.1-0.3-0.1
		c-0.1,0-0.2-0.1-0.2-0.2c-0.1-0.1-0.2-0.1-0.2-0.2c-0.1-0.1-0.2-0.1-0.3-0.2s-0.2-0.1-0.3-0.1c-0.1,0-0.3-0.1-0.4-0.1
		c-0.1,0-0.3,0-0.4,0c-0.2,0-0.3,0-0.4,0s-0.3,0.1-0.4,0.1c-0.1,0-0.2,0.1-0.3,0.2c-0.1,0.1-0.1,0.2-0.1,0.3c0,0.1,0,0.1,0,0.2
		c0,0.1,0.1,0.1,0.1,0.2c0.1,0.1,0.1,0.1,0.3,0.2c0.1,0.1,0.2,0.1,0.4,0.2c0.2,0.1,0.4,0.1,0.6,0.2s0.5,0.2,0.9,0.2
		c0.1,0,0.2,0.1,0.4,0.1c0.2,0,0.3,0.1,0.5,0.2c0.2,0.1,0.4,0.2,0.6,0.3s0.4,0.3,0.5,0.4c0.2,0.2,0.3,0.4,0.4,0.6s0.1,0.5,0.1,0.8
		c0,0.4-0.1,0.8-0.2,1.1c-0.2,0.3-0.4,0.6-0.7,0.8c-0.3,0.2-0.7,0.4-1.2,0.5c-0.5,0.1-1,0.2-1.6,0.2c-0.4,0-0.7,0-1.1-0.1
		c-0.3-0.1-0.7-0.2-1-0.3s-0.6-0.3-0.8-0.5c-0.2-0.2-0.4-0.4-0.6-0.7c0-0.1-0.1-0.2-0.1-0.2c0-0.1,0-0.2,0-0.3c0-0.1,0-0.3,0.1-0.4
		c0-0.1,0.1-0.2,0.2-0.3c0.1-0.1,0.2-0.1,0.3-0.2s0.2-0.1,0.4-0.1c0.1,0,0.2,0,0.3,0.1c0.1,0,0.2,0.1,0.3,0.1s0.2,0.1,0.2,0.2
		C204.8,270.3,204.8,270.3,204.9,270.4z"/>
	<path d="M220.3,271.7c0,0.1,0,0.3-0.1,0.4c-0.1,0.1-0.1,0.2-0.2,0.3c-0.1,0.1-0.2,0.2-0.3,0.2c-0.1,0.1-0.3,0.1-0.4,0.1
		s-0.3,0-0.4-0.1c-0.1-0.1-0.2-0.1-0.3-0.2c-0.1-0.1-0.2-0.2-0.2-0.3c-0.1-0.1-0.1-0.3-0.1-0.4l0-4.5l-1.7,4.9
		c0,0.1-0.1,0.2-0.1,0.2c-0.1,0.1-0.1,0.1-0.2,0.2c-0.1,0.1-0.2,0.1-0.2,0.1c-0.1,0-0.2,0-0.3,0c-0.1,0-0.2,0-0.3,0
		c-0.1,0-0.2-0.1-0.2-0.1s-0.1-0.1-0.2-0.2s-0.1-0.2-0.1-0.2l-1.7-4.9l0,4.4c0,0.1,0,0.3-0.1,0.4c-0.1,0.1-0.1,0.2-0.2,0.3
		c-0.1,0.1-0.2,0.2-0.3,0.2c-0.1,0.1-0.3,0.1-0.4,0.1s-0.3,0-0.4-0.1c-0.1-0.1-0.2-0.1-0.3-0.2c-0.1-0.1-0.2-0.2-0.2-0.3
		c-0.1-0.1-0.1-0.3-0.1-0.4v-5.8c0-0.2,0-0.4,0.1-0.6c0.1-0.2,0.2-0.3,0.3-0.5c0.1-0.1,0.3-0.2,0.5-0.3c0.2-0.1,0.4-0.1,0.7-0.1
		c0.9,0,1.4,0.4,1.7,1.2l1.4,4l1.3-4c0.3-0.8,0.8-1.2,1.7-1.2c0.2,0,0.5,0,0.7,0.1s0.4,0.2,0.5,0.3c0.1,0.1,0.2,0.3,0.3,0.5
		s0.1,0.4,0.1,0.6L220.3,271.7z"/>
	<path d="M225.5,268.5c0.1,0,0.2,0,0.3,0c0.1,0,0.2,0.1,0.3,0.1c0.1,0.1,0.1,0.1,0.2,0.2c0,0.1,0.1,0.2,0.1,0.4c0,0.1,0,0.3-0.1,0.4
		c0,0.1-0.1,0.2-0.2,0.2c-0.1,0.1-0.2,0.1-0.3,0.1c-0.1,0-0.2,0-0.3,0h-3.4c-0.1,0-0.2,0-0.3,0c-0.1,0-0.2-0.1-0.3-0.1
		c-0.1-0.1-0.1-0.1-0.2-0.2s-0.1-0.2-0.1-0.4c0-0.1,0-0.3,0.1-0.4s0.1-0.2,0.2-0.2c0.1-0.1,0.2-0.1,0.3-0.1c0.1,0,0.2,0,0.3,0H225.5
		z"/>
	<path d="M226.8,268.5c0-0.3,0-0.6,0-0.9c0-0.3,0.1-0.7,0.2-1c0.1-0.3,0.2-0.6,0.3-0.9c0.1-0.3,0.3-0.5,0.6-0.8
		c0.2-0.2,0.5-0.4,0.9-0.5c0.3-0.1,0.8-0.2,1.2-0.2c0.5,0,0.9,0.1,1.2,0.2s0.6,0.3,0.9,0.5c0.2,0.2,0.4,0.5,0.6,0.8
		c0.1,0.3,0.3,0.6,0.3,0.9c0.1,0.3,0.1,0.6,0.2,1c0,0.3,0,0.6,0,0.9c0,0.3,0,0.6,0,1c0,0.3-0.1,0.7-0.2,1c-0.1,0.3-0.2,0.6-0.3,0.9
		c-0.1,0.3-0.3,0.5-0.6,0.7c-0.2,0.2-0.5,0.4-0.9,0.5s-0.8,0.2-1.2,0.2c-0.5,0-0.9-0.1-1.2-0.2c-0.3-0.1-0.6-0.3-0.9-0.5
		c-0.2-0.2-0.4-0.5-0.6-0.7c-0.1-0.3-0.3-0.6-0.3-0.9c-0.1-0.3-0.1-0.6-0.2-1C226.8,269.1,226.8,268.8,226.8,268.5z M228.9,268.5
		c0,0.2,0,0.3,0,0.5c0,0.2,0,0.4,0,0.6c0,0.2,0.1,0.4,0.1,0.6c0,0.2,0.1,0.3,0.2,0.5c0.1,0.1,0.2,0.2,0.3,0.3
		c0.1,0.1,0.3,0.1,0.5,0.1c0.2,0,0.3,0,0.5-0.1c0.1-0.1,0.2-0.2,0.3-0.3c0.1-0.1,0.2-0.3,0.2-0.5c0-0.2,0.1-0.4,0.1-0.6
		c0-0.2,0-0.4,0-0.6s0-0.4,0-0.5c0-0.2,0-0.3,0-0.5s0-0.4,0-0.6c0-0.2-0.1-0.4-0.1-0.6s-0.1-0.3-0.2-0.5c-0.1-0.1-0.2-0.2-0.3-0.3
		s-0.3-0.1-0.5-0.1c-0.2,0-0.3,0-0.5,0.1c-0.1,0.1-0.2,0.2-0.3,0.3c-0.1,0.1-0.1,0.3-0.2,0.5s-0.1,0.4-0.1,0.6c0,0.2,0,0.4,0,0.6
		C228.9,268.2,228.9,268.3,228.9,268.5z"/>
	<path d="M237.9,270c0-0.2,0-0.3-0.1-0.4c0-0.1-0.1-0.2-0.2-0.3s-0.2-0.1-0.3-0.2c-0.1,0-0.2-0.1-0.4-0.1c-0.3,0-0.6-0.1-0.7-0.2
		c-0.1-0.1-0.2-0.3-0.2-0.4c0-0.1,0-0.2,0.1-0.3c0-0.1,0.1-0.2,0.2-0.2c0.1-0.1,0.2-0.1,0.3-0.1c0.1,0,0.2,0,0.3,0
		c0.1,0,0.2,0,0.3-0.1c0.1,0,0.2-0.1,0.3-0.2s0.1-0.2,0.2-0.3s0.1-0.3,0.1-0.4c0-0.2,0-0.3-0.1-0.4c-0.1-0.1-0.1-0.2-0.2-0.3
		c-0.1-0.1-0.2-0.1-0.4-0.2s-0.3-0.1-0.5-0.1c-0.1,0-0.2,0-0.3,0c-0.1,0-0.2,0.1-0.3,0.1c-0.1,0.1-0.2,0.1-0.3,0.2
		c-0.1,0.1-0.2,0.2-0.3,0.4c-0.1,0.1-0.1,0.2-0.2,0.2s-0.1,0.1-0.2,0.1c-0.1,0-0.1,0.1-0.2,0.1c-0.1,0-0.1,0-0.2,0
		c-0.2,0-0.3,0-0.4-0.1c-0.1-0.1-0.2-0.1-0.3-0.2c-0.1-0.1-0.1-0.2-0.2-0.3c0-0.1-0.1-0.2-0.1-0.3c0-0.2,0.1-0.5,0.2-0.7
		c0.1-0.2,0.3-0.4,0.6-0.6c0.3-0.2,0.6-0.3,1-0.4c0.4-0.1,0.8-0.1,1.3-0.1c0.4,0,0.8,0.1,1.2,0.2s0.7,0.3,0.9,0.5
		c0.3,0.2,0.5,0.4,0.6,0.7c0.1,0.3,0.2,0.6,0.2,0.9c0,0.2,0,0.4-0.1,0.6c0,0.2-0.1,0.3-0.2,0.5c-0.1,0.2-0.2,0.3-0.3,0.4
		c-0.1,0.1-0.3,0.2-0.4,0.3c0.2,0.1,0.4,0.2,0.5,0.3c0.1,0.1,0.3,0.3,0.4,0.4s0.2,0.3,0.2,0.5s0.1,0.4,0.1,0.6c0,0.2,0,0.4-0.1,0.6
		s-0.1,0.4-0.2,0.6c-0.1,0.2-0.2,0.4-0.4,0.6c-0.2,0.2-0.4,0.4-0.6,0.5c-0.3,0.1-0.6,0.3-0.9,0.4c-0.4,0.1-0.8,0.1-1.3,0.1
		c-0.4,0-0.8-0.1-1.2-0.2c-0.4-0.1-0.7-0.3-0.9-0.5s-0.5-0.4-0.6-0.6c-0.1-0.2-0.2-0.5-0.2-0.7c0-0.2,0-0.3,0.1-0.4
		c0-0.1,0.1-0.2,0.2-0.3c0.1-0.1,0.2-0.2,0.3-0.2s0.3-0.1,0.4-0.1c0.1,0,0.2,0,0.3,0.1c0.1,0,0.2,0.1,0.2,0.1s0.1,0.1,0.2,0.2
		c0,0.1,0.1,0.1,0.1,0.2c0,0.1,0.1,0.2,0.1,0.3c0.1,0.1,0.1,0.2,0.2,0.2s0.2,0.1,0.3,0.2s0.2,0.1,0.4,0.1c0.5,0,0.8-0.1,1-0.3
		S237.9,270.4,237.9,270z"/>
</g>
<g>
	<path d="M257.9,270.4c0.1,0.1,0.2,0.2,0.3,0.3c0.1,0.1,0.3,0.2,0.4,0.2c0.1,0.1,0.3,0.1,0.4,0.1s0.3,0,0.4,0s0.3,0,0.5,0
		c0.2,0,0.3-0.1,0.5-0.1c0.2-0.1,0.3-0.1,0.4-0.2c0.1-0.1,0.2-0.2,0.2-0.4c0-0.2-0.1-0.3-0.2-0.4c-0.1-0.1-0.3-0.2-0.5-0.3
		c-0.2-0.1-0.4-0.2-0.7-0.2c-0.3-0.1-0.6-0.2-0.9-0.2c-0.2-0.1-0.4-0.1-0.7-0.2c-0.2-0.1-0.4-0.2-0.7-0.3c-0.2-0.1-0.4-0.2-0.6-0.3
		c-0.2-0.1-0.4-0.3-0.5-0.4s-0.3-0.3-0.3-0.5s-0.1-0.4-0.1-0.7c0-0.3,0-0.6,0.1-0.8c0.1-0.2,0.2-0.4,0.4-0.6
		c0.2-0.2,0.3-0.3,0.6-0.5c0.2-0.1,0.5-0.2,0.7-0.3c0.3-0.1,0.5-0.1,0.8-0.2s0.6-0.1,0.9-0.1c0.3,0,0.6,0,0.9,0.1
		c0.3,0,0.6,0.1,0.9,0.2c0.3,0.1,0.5,0.2,0.7,0.4c0.2,0.1,0.4,0.3,0.6,0.5c0.1,0.1,0.1,0.2,0.2,0.3c0,0.1,0.1,0.2,0.1,0.4
		c0,0.1,0,0.3-0.1,0.4c0,0.1-0.1,0.2-0.2,0.3s-0.2,0.1-0.3,0.2c-0.1,0-0.2,0.1-0.4,0.1c-0.1,0-0.2,0-0.3,0c-0.1,0-0.2-0.1-0.3-0.1
		c-0.1,0-0.2-0.1-0.2-0.2c-0.1-0.1-0.2-0.1-0.2-0.2c-0.1-0.1-0.2-0.1-0.3-0.2s-0.2-0.1-0.3-0.1c-0.1,0-0.3-0.1-0.4-0.1
		c-0.1,0-0.3,0-0.4,0c-0.2,0-0.3,0-0.4,0s-0.3,0.1-0.4,0.1c-0.1,0-0.2,0.1-0.3,0.2c-0.1,0.1-0.1,0.2-0.1,0.3c0,0.1,0,0.1,0,0.2
		c0,0.1,0.1,0.1,0.1,0.2c0.1,0.1,0.1,0.1,0.3,0.2c0.1,0.1,0.2,0.1,0.4,0.2c0.2,0.1,0.4,0.1,0.6,0.2s0.5,0.2,0.9,0.2
		c0.1,0,0.2,0.1,0.4,0.1c0.2,0,0.3,0.1,0.5,0.2c0.2,0.1,0.4,0.2,0.6,0.3s0.4,0.3,0.5,0.4c0.2,0.2,0.3,0.4,0.4,0.6
		c0.1,0.2,0.1,0.5,0.1,0.8c0,0.4-0.1,0.8-0.2,1.1c-0.2,0.3-0.4,0.6-0.7,0.8c-0.3,0.2-0.7,0.4-1.2,0.5c-0.5,0.1-1,0.2-1.6,0.2
		c-0.4,0-0.7,0-1.1-0.1c-0.3-0.1-0.7-0.2-1-0.3s-0.6-0.3-0.8-0.5c-0.2-0.2-0.4-0.4-0.6-0.7c0-0.1-0.1-0.2-0.1-0.2c0-0.1,0-0.2,0-0.3
		c0-0.1,0-0.3,0.1-0.4c0-0.1,0.1-0.2,0.2-0.3c0.1-0.1,0.2-0.1,0.3-0.2s0.2-0.1,0.4-0.1c0.1,0,0.2,0,0.3,0.1c0.1,0,0.2,0.1,0.3,0.1
		s0.2,0.1,0.2,0.2C257.8,270.3,257.8,270.3,257.9,270.4z"/>
	<path d="M273.3,271.7c0,0.1,0,0.3-0.1,0.4c-0.1,0.1-0.1,0.2-0.2,0.3c-0.1,0.1-0.2,0.2-0.3,0.2c-0.1,0.1-0.3,0.1-0.4,0.1
		c-0.1,0-0.3,0-0.4-0.1c-0.1-0.1-0.2-0.1-0.3-0.2c-0.1-0.1-0.2-0.2-0.2-0.3c-0.1-0.1-0.1-0.3-0.1-0.4l0-4.5l-1.7,4.9
		c0,0.1-0.1,0.2-0.1,0.2c-0.1,0.1-0.1,0.1-0.2,0.2c-0.1,0.1-0.2,0.1-0.2,0.1c-0.1,0-0.2,0-0.3,0c-0.1,0-0.2,0-0.3,0
		c-0.1,0-0.2-0.1-0.2-0.1c-0.1-0.1-0.1-0.1-0.2-0.2s-0.1-0.2-0.1-0.2l-1.7-4.9l0,4.4c0,0.1,0,0.3-0.1,0.4c-0.1,0.1-0.1,0.2-0.2,0.3
		c-0.1,0.1-0.2,0.2-0.3,0.2c-0.1,0.1-0.3,0.1-0.4,0.1c-0.1,0-0.3,0-0.4-0.1c-0.1-0.1-0.2-0.1-0.3-0.2c-0.1-0.1-0.2-0.2-0.2-0.3
		c-0.1-0.1-0.1-0.3-0.1-0.4v-5.8c0-0.2,0-0.4,0.1-0.6c0.1-0.2,0.2-0.3,0.3-0.5c0.1-0.1,0.3-0.2,0.5-0.3c0.2-0.1,0.4-0.1,0.7-0.1
		c0.9,0,1.4,0.4,1.7,1.2l1.4,4l1.3-4c0.3-0.8,0.8-1.2,1.7-1.2c0.2,0,0.5,0,0.7,0.1s0.4,0.2,0.5,0.3c0.1,0.1,0.2,0.3,0.3,0.5
		s0.1,0.4,0.1,0.6L273.3,271.7z"/>
	<path d="M278.5,268.5c0.1,0,0.2,0,0.3,0c0.1,0,0.2,0.1,0.3,0.1c0.1,0.1,0.1,0.1,0.2,0.2s0.1,0.2,0.1,0.4c0,0.1,0,0.3-0.1,0.4
		s-0.1,0.2-0.2,0.2c-0.1,0.1-0.2,0.1-0.3,0.1c-0.1,0-0.2,0-0.3,0h-3.4c-0.1,0-0.2,0-0.3,0s-0.2-0.1-0.3-0.1
		c-0.1-0.1-0.1-0.1-0.2-0.2s-0.1-0.2-0.1-0.4c0-0.1,0-0.3,0.1-0.4s0.1-0.2,0.2-0.2c0.1-0.1,0.2-0.1,0.3-0.1s0.2,0,0.3,0H278.5z"/>
	<path d="M279.8,268.5c0-0.3,0-0.6,0-0.9c0-0.3,0.1-0.7,0.2-1c0.1-0.3,0.2-0.6,0.3-0.9c0.1-0.3,0.3-0.5,0.6-0.8s0.5-0.4,0.9-0.5
		c0.3-0.1,0.8-0.2,1.2-0.2c0.5,0,0.9,0.1,1.2,0.2s0.6,0.3,0.9,0.5s0.4,0.5,0.6,0.8s0.3,0.6,0.3,0.9c0.1,0.3,0.1,0.6,0.2,1
		c0,0.3,0,0.6,0,0.9c0,0.3,0,0.6,0,1c0,0.3-0.1,0.7-0.2,1c-0.1,0.3-0.2,0.6-0.3,0.9c-0.1,0.3-0.3,0.5-0.6,0.7
		c-0.2,0.2-0.5,0.4-0.9,0.5s-0.8,0.2-1.2,0.2c-0.5,0-0.9-0.1-1.2-0.2c-0.3-0.1-0.6-0.3-0.9-0.5c-0.2-0.2-0.4-0.5-0.6-0.7
		c-0.1-0.3-0.3-0.6-0.3-0.9c-0.1-0.3-0.1-0.6-0.2-1C279.8,269.1,279.8,268.8,279.8,268.5z M281.9,268.5c0,0.2,0,0.3,0,0.5
		s0,0.4,0,0.6c0,0.2,0.1,0.4,0.1,0.6c0,0.2,0.1,0.3,0.2,0.5c0.1,0.1,0.2,0.2,0.3,0.3c0.1,0.1,0.3,0.1,0.5,0.1c0.2,0,0.3,0,0.5-0.1
		c0.1-0.1,0.2-0.2,0.3-0.3c0.1-0.1,0.2-0.3,0.2-0.5c0-0.2,0.1-0.4,0.1-0.6c0-0.2,0-0.4,0-0.6s0-0.4,0-0.5c0-0.2,0-0.3,0-0.5
		s0-0.4,0-0.6c0-0.2-0.1-0.4-0.1-0.6c0-0.2-0.1-0.3-0.2-0.5c-0.1-0.1-0.2-0.2-0.3-0.3c-0.1-0.1-0.3-0.1-0.5-0.1
		c-0.2,0-0.3,0-0.5,0.1c-0.1,0.1-0.2,0.2-0.3,0.3c-0.1,0.1-0.1,0.3-0.2,0.5s-0.1,0.4-0.1,0.6c0,0.2,0,0.4,0,0.6
		S281.9,268.3,281.9,268.5z"/>
	<path d="M289.2,266.1l-0.3,1.4c0.2-0.1,0.3-0.2,0.4-0.2s0.2-0.1,0.4-0.1c0.1,0,0.2-0.1,0.4-0.1c0.1,0,0.3,0,0.4,0
		c0.2,0,0.4,0,0.7,0.1c0.2,0,0.4,0.1,0.6,0.2s0.4,0.2,0.5,0.3c0.2,0.1,0.3,0.3,0.4,0.5c0.1,0.2,0.2,0.4,0.3,0.7
		c0.1,0.3,0.1,0.5,0.1,0.9c0,0.4,0,0.7-0.1,1c-0.1,0.3-0.2,0.5-0.3,0.8c-0.2,0.2-0.3,0.4-0.5,0.6c-0.2,0.2-0.5,0.3-0.7,0.4
		c-0.3,0.1-0.5,0.2-0.8,0.2c-0.3,0-0.6,0.1-0.9,0.1c-0.2,0-0.4,0-0.5,0c-0.2,0-0.4,0-0.6-0.1c-0.2,0-0.4-0.1-0.6-0.2
		c-0.2-0.1-0.3-0.2-0.5-0.3c-0.1-0.1-0.3-0.3-0.3-0.4s-0.1-0.3-0.1-0.6c0-0.1,0-0.3,0.1-0.4s0.1-0.2,0.2-0.3
		c0.1-0.1,0.2-0.1,0.3-0.2c0.1,0,0.3-0.1,0.4-0.1c0.1,0,0.3,0,0.4,0.1c0.1,0,0.2,0.1,0.3,0.1c0.1,0.1,0.2,0.1,0.2,0.2
		c0.1,0.1,0.2,0.1,0.2,0.2c0.1,0.1,0.2,0.1,0.3,0.1c0.1,0,0.2,0.1,0.4,0.1c0.2,0,0.4,0,0.5-0.1s0.3-0.2,0.4-0.3
		c0.1-0.1,0.2-0.2,0.2-0.4c0-0.1,0.1-0.3,0.1-0.5c0-0.2,0-0.4-0.1-0.5c-0.1-0.1-0.1-0.3-0.2-0.4c-0.1-0.1-0.2-0.2-0.4-0.2
		c-0.1-0.1-0.3-0.1-0.4-0.1c-0.2,0-0.3,0-0.4,0.1s-0.3,0.1-0.4,0.2c-0.1,0.1-0.3,0.1-0.4,0.2s-0.3,0.1-0.5,0.1c-0.1,0-0.2,0-0.3,0
		c-0.1,0-0.2-0.1-0.3-0.2c-0.1-0.1-0.2-0.2-0.3-0.3s-0.1-0.3-0.1-0.5c0-0.1,0-0.2,0-0.3c0-0.1,0-0.3,0.1-0.4s0-0.3,0.1-0.5
		s0.1-0.4,0.1-0.5c0-0.2,0.1-0.3,0.1-0.5c0-0.2,0.1-0.3,0.1-0.4c0-0.2,0.1-0.4,0.2-0.5c0.1-0.1,0.1-0.2,0.2-0.3
		c0.1-0.1,0.2-0.1,0.4-0.2c0.1,0,0.3,0,0.5,0l3.1,0c0.3,0,0.5,0.1,0.7,0.2c0.2,0.2,0.2,0.4,0.2,0.6s-0.1,0.5-0.2,0.6
		s-0.4,0.2-0.7,0.2H289.2z"/>
</g>
<g>
	<path d="M318.9,270.4c0.1,0.1,0.2,0.2,0.3,0.3c0.1,0.1,0.3,0.2,0.4,0.2c0.1,0.1,0.3,0.1,0.4,0.1s0.3,0,0.4,0s0.3,0,0.5,0
		c0.2,0,0.3-0.1,0.5-0.1c0.2-0.1,0.3-0.1,0.4-0.2c0.1-0.1,0.2-0.2,0.2-0.4c0-0.2-0.1-0.3-0.2-0.4c-0.1-0.1-0.3-0.2-0.5-0.3
		c-0.2-0.1-0.4-0.2-0.7-0.2c-0.3-0.1-0.6-0.2-0.9-0.2c-0.2-0.1-0.4-0.1-0.7-0.2c-0.2-0.1-0.4-0.2-0.7-0.3c-0.2-0.1-0.4-0.2-0.6-0.3
		c-0.2-0.1-0.4-0.3-0.5-0.4s-0.3-0.3-0.3-0.5s-0.1-0.4-0.1-0.7c0-0.3,0-0.6,0.1-0.8c0.1-0.2,0.2-0.4,0.4-0.6
		c0.2-0.2,0.3-0.3,0.6-0.5c0.2-0.1,0.5-0.2,0.7-0.3c0.3-0.1,0.5-0.1,0.8-0.2s0.6-0.1,0.9-0.1c0.3,0,0.6,0,0.9,0.1
		c0.3,0,0.6,0.1,0.9,0.2c0.3,0.1,0.5,0.2,0.7,0.4c0.2,0.1,0.4,0.3,0.6,0.5c0.1,0.1,0.1,0.2,0.2,0.3c0,0.1,0.1,0.2,0.1,0.4
		c0,0.1,0,0.3-0.1,0.4c0,0.1-0.1,0.2-0.2,0.3s-0.2,0.1-0.3,0.2c-0.1,0-0.2,0.1-0.4,0.1c-0.1,0-0.2,0-0.3,0c-0.1,0-0.2-0.1-0.3-0.1
		c-0.1,0-0.2-0.1-0.2-0.2c-0.1-0.1-0.2-0.1-0.2-0.2c-0.1-0.1-0.2-0.1-0.3-0.2s-0.2-0.1-0.3-0.1c-0.1,0-0.3-0.1-0.4-0.1
		c-0.1,0-0.3,0-0.4,0c-0.2,0-0.3,0-0.4,0s-0.3,0.1-0.4,0.1c-0.1,0-0.2,0.1-0.3,0.2c-0.1,0.1-0.1,0.2-0.1,0.3c0,0.1,0,0.1,0,0.2
		c0,0.1,0.1,0.1,0.1,0.2c0.1,0.1,0.1,0.1,0.3,0.2c0.1,0.1,0.2,0.1,0.4,0.2c0.2,0.1,0.4,0.1,0.6,0.2s0.5,0.2,0.9,0.2
		c0.1,0,0.2,0.1,0.4,0.1c0.2,0,0.3,0.1,0.5,0.2c0.2,0.1,0.4,0.2,0.6,0.3s0.4,0.3,0.5,0.4c0.2,0.2,0.3,0.4,0.4,0.6
		c0.1,0.2,0.1,0.5,0.1,0.8c0,0.4-0.1,0.8-0.2,1.1c-0.2,0.3-0.4,0.6-0.7,0.8c-0.3,0.2-0.7,0.4-1.2,0.5c-0.5,0.1-1,0.2-1.6,0.2
		c-0.4,0-0.7,0-1.1-0.1c-0.3-0.1-0.7-0.2-1-0.3s-0.6-0.3-0.8-0.5c-0.2-0.2-0.4-0.4-0.6-0.7c0-0.1-0.1-0.2-0.1-0.2c0-0.1,0-0.2,0-0.3
		c0-0.1,0-0.3,0.1-0.4c0-0.1,0.1-0.2,0.2-0.3c0.1-0.1,0.2-0.1,0.3-0.2s0.2-0.1,0.4-0.1c0.1,0,0.2,0,0.3,0.1c0.1,0,0.2,0.1,0.3,0.1
		s0.2,0.1,0.2,0.2C318.8,270.3,318.8,270.3,318.9,270.4z"/>
	<path d="M334.3,271.7c0,0.1,0,0.3-0.1,0.4c-0.1,0.1-0.1,0.2-0.2,0.3c-0.1,0.1-0.2,0.2-0.3,0.2c-0.1,0.1-0.3,0.1-0.4,0.1
		c-0.1,0-0.3,0-0.4-0.1c-0.1-0.1-0.2-0.1-0.3-0.2c-0.1-0.1-0.2-0.2-0.2-0.3c-0.1-0.1-0.1-0.3-0.1-0.4l0-4.5l-1.7,4.9
		c0,0.1-0.1,0.2-0.1,0.2c-0.1,0.1-0.1,0.1-0.2,0.2c-0.1,0.1-0.2,0.1-0.2,0.1c-0.1,0-0.2,0-0.3,0c-0.1,0-0.2,0-0.3,0
		c-0.1,0-0.2-0.1-0.2-0.1c-0.1-0.1-0.1-0.1-0.2-0.2s-0.1-0.2-0.1-0.2l-1.7-4.9l0,4.4c0,0.1,0,0.3-0.1,0.4c-0.1,0.1-0.1,0.2-0.2,0.3
		c-0.1,0.1-0.2,0.2-0.3,0.2c-0.1,0.1-0.3,0.1-0.4,0.1c-0.1,0-0.3,0-0.4-0.1c-0.1-0.1-0.2-0.1-0.3-0.2c-0.1-0.1-0.2-0.2-0.2-0.3
		c-0.1-0.1-0.1-0.3-0.1-0.4v-5.8c0-0.2,0-0.4,0.1-0.6c0.1-0.2,0.2-0.3,0.3-0.5c0.1-0.1,0.3-0.2,0.5-0.3c0.2-0.1,0.4-0.1,0.7-0.1
		c0.9,0,1.4,0.4,1.7,1.2l1.4,4l1.3-4c0.3-0.8,0.8-1.2,1.7-1.2c0.2,0,0.5,0,0.7,0.1s0.4,0.2,0.5,0.3c0.1,0.1,0.2,0.3,0.3,0.5
		s0.1,0.4,0.1,0.6L334.3,271.7z"/>
	<path d="M339.5,268.5c0.1,0,0.2,0,0.3,0c0.1,0,0.2,0.1,0.3,0.1c0.1,0.1,0.1,0.1,0.2,0.2s0.1,0.2,0.1,0.4c0,0.1,0,0.3-0.1,0.4
		s-0.1,0.2-0.2,0.2c-0.1,0.1-0.2,0.1-0.3,0.1c-0.1,0-0.2,0-0.3,0h-3.4c-0.1,0-0.2,0-0.3,0s-0.2-0.1-0.3-0.1
		c-0.1-0.1-0.1-0.1-0.2-0.2s-0.1-0.2-0.1-0.4c0-0.1,0-0.3,0.1-0.4s0.1-0.2,0.2-0.2c0.1-0.1,0.2-0.1,0.3-0.1s0.2,0,0.3,0H339.5z"/>
	<path d="M340.8,268.5c0-0.3,0-0.6,0-0.9c0-0.3,0.1-0.7,0.2-1c0.1-0.3,0.2-0.6,0.3-0.9c0.1-0.3,0.3-0.5,0.6-0.8s0.5-0.4,0.9-0.5
		c0.3-0.1,0.8-0.2,1.2-0.2c0.5,0,0.9,0.1,1.2,0.2s0.6,0.3,0.9,0.5s0.4,0.5,0.6,0.8s0.3,0.6,0.3,0.9c0.1,0.3,0.1,0.6,0.2,1
		c0,0.3,0,0.6,0,0.9c0,0.3,0,0.6,0,1c0,0.3-0.1,0.7-0.2,1c-0.1,0.3-0.2,0.6-0.3,0.9c-0.1,0.3-0.3,0.5-0.6,0.7
		c-0.2,0.2-0.5,0.4-0.9,0.5s-0.8,0.2-1.2,0.2c-0.5,0-0.9-0.1-1.2-0.2c-0.3-0.1-0.6-0.3-0.9-0.5c-0.2-0.2-0.4-0.5-0.6-0.7
		c-0.1-0.3-0.3-0.6-0.3-0.9c-0.1-0.3-0.1-0.6-0.2-1C340.8,269.1,340.8,268.8,340.8,268.5z M342.9,268.5c0,0.2,0,0.3,0,0.5
		s0,0.4,0,0.6c0,0.2,0.1,0.4,0.1,0.6c0,0.2,0.1,0.3,0.2,0.5c0.1,0.1,0.2,0.2,0.3,0.3c0.1,0.1,0.3,0.1,0.5,0.1c0.2,0,0.3,0,0.5-0.1
		c0.1-0.1,0.2-0.2,0.3-0.3c0.1-0.1,0.2-0.3,0.2-0.5c0-0.2,0.1-0.4,0.1-0.6c0-0.2,0-0.4,0-0.6s0-0.4,0-0.5c0-0.2,0-0.3,0-0.5
		s0-0.4,0-0.6c0-0.2-0.1-0.4-0.1-0.6c0-0.2-0.1-0.3-0.2-0.5c-0.1-0.1-0.2-0.2-0.3-0.3c-0.1-0.1-0.3-0.1-0.5-0.1
		c-0.2,0-0.3,0-0.5,0.1c-0.1,0.1-0.2,0.2-0.3,0.3c-0.1,0.1-0.1,0.3-0.2,0.5s-0.1,0.4-0.1,0.6c0,0.2,0,0.4,0,0.6
		S342.9,268.3,342.9,268.5z"/>
	<path d="M348.7,266.1c-0.3,0-0.5-0.1-0.7-0.2c-0.2-0.2-0.2-0.4-0.2-0.6s0.1-0.5,0.2-0.6c0.2-0.2,0.4-0.2,0.7-0.2h4.4
		c0.2,0,0.3,0,0.4,0c0.1,0,0.2,0.1,0.3,0.2c0.1,0.1,0.2,0.2,0.2,0.3c0,0.1,0.1,0.3,0.1,0.4c0,0.1,0,0.2-0.1,0.3s-0.1,0.2-0.2,0.3
		c-0.1,0.1-0.2,0.3-0.3,0.4c-0.1,0.2-0.3,0.4-0.5,0.6c-0.1,0.1-0.2,0.2-0.3,0.4c-0.1,0.2-0.2,0.4-0.3,0.6c-0.1,0.2-0.2,0.5-0.3,0.7
		c-0.1,0.3-0.2,0.5-0.3,0.8c-0.1,0.3-0.2,0.6-0.3,0.9s-0.1,0.6-0.2,0.9c0,0.3-0.1,0.6-0.2,0.8c-0.1,0.2-0.2,0.4-0.3,0.5
		c-0.1,0.1-0.2,0.2-0.4,0.2c-0.1,0-0.3,0-0.4,0c-0.1,0-0.2,0-0.3-0.1c-0.1,0-0.2-0.1-0.3-0.2c-0.1-0.1-0.2-0.2-0.2-0.3
		c-0.1-0.1-0.1-0.3-0.1-0.4c0-0.2,0-0.4,0.1-0.7c0.1-0.2,0.1-0.5,0.2-0.8c0.1-0.3,0.2-0.6,0.3-0.8c0.1-0.3,0.2-0.6,0.4-0.9
		c0.1-0.3,0.3-0.6,0.4-0.8c0.1-0.3,0.3-0.5,0.4-0.7s0.3-0.4,0.4-0.6s0.3-0.3,0.4-0.4H348.7z"/>
</g>
</svg>
