<?xml version="1.0" encoding="utf-8"?>
<svg version="1.1" xmlns="http://www.w3.org/2000/svg" xmlns:xlink="http://www.w3.org/1999/xlink" height="128.5190306030927" width="213.9458932340326">
  <defs>
    <path id="path-0" opacity="1" fill-rule="evenodd" d="M110.89744661701616,4.587027089164252 C109.48444661701618,5.42002708916425 108.93344661701616,7.173027089164265 108.65944661701616,8.790027089164255 C108.23244661701617,11.313027089164251 108.19644661701616,13.902027089164248 108.55344661701616,16.43602708916427 C108.66344661701618,17.21402708916426 108.81444661701616,18.001027089164268 109.18944661701616,18.691027089164265 C109.56344661701615,19.381027089164263 110.19644661701616,19.968027089164252 110.96744661701618,20.11602708916425 C112.07044661701616,20.328027089164266 113.17944661701617,19.582027089164256 113.74644661701618,18.612027089164258 C114.31344661701615,17.643027089164264 114.45944661701617,16.492027089164253 114.59344661701616,15.377027089164244 C114.83544661701617,13.350027089164257 115.07844661701617,11.325027089164251 115.32144661701616,9.29902708916427 C115.51144661701616,7.711027089164247 115.78944661701615,5.65802708916425 114.98944661701617,4.18002708916427 "/>
    <path id="path-1" opacity="1" fill-rule="evenodd" d="M120.86144661701582,26.143027089164406 C123.02944661701582,25.601027089164404 124.96144661701584,24.234027089164385 126.27744661701581,22.428027089164402 C126.35444661701584,22.323027089164412 126.42444661701583,22.210027089164413 126.49644661701583,22.099027089164395 C122.91744661701583,20.10402708916439 117.68944661701582,19.407027089164387 117.68944661701582,19.407027089164387 C117.68944661701582,19.407027089164387 113.21544661701583,19.627027089164386 109.77744661701581,21.3620270891644 C111.31744661701583,23.047027089164402 113.22144661701583,24.494027089164405 114.40144661701584,25.214027089164404 "/>
    <path id="path-2" opacity="1" fill-rule="evenodd" d="M117.6784466170158,24.19402708916416 C119.0254466170158,24.19402708916416 120.11644661701581,23.102027089164174 120.11644661701581,21.75702708916418 L120.11644661701581,13.471027089164181 L115.24144661701581,13.471027089164181 L115.24144661701581,21.75702708916418 "/>
    <path id="path-3" opacity="1" fill-rule="evenodd" d="M120.1164466170166,19.85802708916424 L120.12444661701659,13.471027089164238 L120.12444661701659,19.86002708916422 "/>
    <path id="path-4" opacity="1" fill-rule="evenodd" d="M120.1164466170166,20.77702708916425 C120.1224466170166,20.778027089164254 120.1224466170166,19.859027089164243 120.12444661701659,19.860027089164248 L120.12444661701659,20.77902708916426 "/>
    <path id="path-5" opacity="1" fill-rule="evenodd" d="M120.1164466170166,20.777027089164193 C117.2994466170166,20.08602708916419 115.8944466170166,17.298027089164208 115.24944661701659,15.486027089164196 L115.24944661701659,13.694027089164194 L115.71844661701658,13.47102708916421 L120.1164466170166,13.47102708916421 "/>
    <path id="path-6" opacity="1" fill-rule="evenodd" d="M121.42744661701661,2.5700270891644266 L120.01444661701663,2.5700270891644266 C117.20544661701663,2.5700270891644266 114.92844661701662,4.846027089164437 114.92844661701662,7.655027089164435 L114.92844661701662,12.46702708916442 C114.92844661701662,15.30802708916443 117.23144661701662,17.611027089164427 120.07144661701662,17.611027089164427 L120.40444661701662,17.611027089164427 C123.77844661701661,17.611027089164427 126.51344661701663,14.87602708916444 126.51344661701663,11.502027089164416 L126.51344661701663,7.65602708916444 "/>
    <path id="path-7" opacity="1" fill-rule="evenodd" d="M117.0314466170164,11.353027089164442 C117.0314466170164,12.864027089164466 115.8064466170164,14.090027089164465 114.29544661701638,14.090027089164465 C112.78444661701639,14.090027089164465 111.5604466170164,12.864027089164466 111.5604466170164,11.353027089164442 C111.5604466170164,9.842027089164446 112.78444661701639,8.618027089164457 114.29544661701638,8.618027089164457 "/>
    <path id="path-8" opacity="1" fill-rule="evenodd" d="M122.1984466170164,13.826027089164455 L119.3484466170164,12.723027089164447 C119.3484466170164,12.723027089164447 119.62444661701639,14.378027089164448 120.5434466170164,14.653027089164453 "/>
    <path id="path-9" opacity="1" fill-rule="evenodd" d="M120.2674466170165,9.046027089164369 C120.2674466170165,9.35002708916437 120.02044661701652,9.597027089164357 119.71544661701651,9.597027089164357 C119.41144661701651,9.597027089164357 119.1644466170165,9.35002708916437 119.1644466170165,9.046027089164369 C119.1644466170165,8.741027089164362 119.41144661701651,8.494027089164376 119.71544661701651,8.494027089164376 "/>
    <path id="path-10" opacity="1" fill-rule="evenodd" d="M108.41444661701664,22.156027089164525 L101.11644661701666,26.606027089164513 L87.58844661701664,18.2400270891645 L85.80844661701664,19.48602708916451 C85.80844661701664,19.48602708916451 98.62444661701664,33.37002708916452 100.76044661701664,33.904027089164515 C102.89644661701664,34.43802708916451 113.39744661701664,26.428027089164516 113.39744661701664,26.428027089164516 "/>
    <path id="path-11" opacity="1" fill-rule="evenodd" d="M134.14744661701624,26.556027089164473 C136.74644661701626,28.148027089164486 139.57144661701625,30.043027089164497 140.25844661701626,33.01202708916449 C141.02544661701626,36.324027089164474 138.49444661701625,39.0850270891645 135.73044661701624,41.062027089164474 C132.96644661701626,43.04102708916449 129.91344661701626,44.73202708916449 127.16744661701625,46.73602708916448 C126.67744661701624,46.0910270891645 126.10744661701625,45.725027089164485 126.40144661701626,44.97002708916449 C126.69544661701624,44.2160270891645 130.30944661701625,39.991027089164476 132.32644661701624,37.91102708916449 C132.64544661701626,37.58302708916449 134.91144661701625,34.1920270891645 134.91144661701625,34.1920270891645 C134.91144661701625,34.1920270891645 123.17044661701624,27.696027089164488 125.09244661701626,24.366027089164476 "/>
    <path id="path-12" opacity="1" fill-rule="evenodd" d="M127.3074466170167,117.16502708916421 L123.34144661701671,116.27402708916422 L122.69344661701672,107.77602708916422 L125.34644661701671,107.64502708916422 L125.1424466170167,113.03202708916422 "/>
    <path id="path-13" opacity="1" fill-rule="evenodd" d="M105.00544661701701,117.16502708916421 L108.97144661701702,116.27402708916422 L109.61944661701702,107.77602708916422 L106.96644661701703,107.64502708916422 L107.16944661701703,113.03202708916422 "/>
    <path id="path-14" opacity="1" fill-rule="evenodd" d="M123.72244661701694,36.06602708916441 C124.20844661701693,33.881027089164405 130.27844661701693,26.59602708916441 129.54944661701694,24.411027089164406 C129.32444661701695,23.736027089164395 128.05444661701694,22.916027089164402 126.40844661701692,22.10402708916439 L126.27744661701692,22.301027089164393 C124.96144661701695,24.107027089164404 123.02944661701693,25.474027089164395 120.86144661701692,26.016027089164396 C118.69444661701692,26.558027089164398 116.30844661701693,26.2490270891644 114.40144661701694,25.087027089164394 C113.24944661701693,24.38402708916439 111.41144661701694,22.9870270891644 109.89244661701693,21.35402708916439 C107.62144661701694,22.391027089164396 105.62444661701693,23.526027089164387 105.32944661701694,24.411027089164406 C104.60044661701693,26.59602708916441 110.67044661701692,33.881027089164405 111.15644661701694,36.06602708916441 C111.64244661701693,38.252027089164386 108.97144661701694,41.1650270891644 108.97144661701694,43.10802708916441 L125.90744661701694,43.10802708916441 "/>
    <path id="path-15" opacity="1" fill-rule="evenodd" d="M89.30544661701686,17.59102708916447 C89.43144661701686,18.29502708916445 89.30944661701686,19.016027089164453 89.18844661701687,19.721027089164437 C89.16544661701687,19.85502708916445 89.13944661701686,19.99402708916446 89.05844661701686,20.103027089164442 C88.84444661701686,20.389027089164443 88.40244661701686,20.30702708916445 88.06244661701686,20.197027089164465 C87.38244661701687,19.97602708916446 86.67044661701686,19.735027089164447 86.18644661701686,19.21002708916447 C86.02744661701686,19.038027089164444 85.89844661701686,18.84102708916447 85.77844661701687,18.639027089164443 C85.28244661701686,17.812027089164445 84.91244661701687,16.91002708916446 84.68744661701686,15.972027089164442 C84.54644661701685,15.392027089164458 84.49644661701686,14.691027089164464 84.93644661701686,14.287027089164468 C85.11344661701686,14.124027089164457 85.34944661701687,14.036027089164463 85.58544661701686,13.989027089164466 C86.23244661701686,13.860027089164447 86.93044661701686,14.021027089164448 87.45444661701686,14.421027089164454 "/>
    <path id="path-16" opacity="1" fill-rule="evenodd" d="M109.07244661701594,42.913027089164416 C109.07244661701594,42.913027089164416 103.50044661701594,52.75002708916443 106.09944661701593,72.07402708916442 C106.33144661701593,73.79802708916444 106.96944661701593,75.62102708916441 106.63144661701594,77.45802708916443 C103.06244661701595,96.84902708916442 105.57244661701594,110.52802708916442 105.57244661701594,110.52802708916442 L110.10444661701595,110.28502708916443 L115.55744661701593,55.367027089164424 L118.01144661701593,55.367027089164424 C118.01144661701593,55.367027089164424 120.11744661701593,81.55002708916443 120.14044661701593,81.95802708916443 C120.80944661701594,93.89302708916443 120.60744661701594,103.72702708916442 122.56844661701595,108.99002708916443 L126.12944661701593,108.99002708916443 C126.12944661701593,108.99002708916443 127.47444661701593,106.88702708916443 128.76044661701593,89.84802708916443 C129.24644661701595,83.41402708916443 127.18244661701593,82.56402708916443 129.00344661701595,73.70202708916443 C130.26144661701593,67.58002708916442 130.04244661701594,54.42002708916442 125.78644661701594,43.48902708916444 C125.28144661701594,42.19202708916444 117.25844661701595,42.77502708916444 117.25844661701595,42.77502708916444 "/>
    <path id="path-17" opacity="1" fill-rule="evenodd" d="M127.66744661701662,44.00702708916438 C126.70444661701663,43.95502708916436 126.13244661701663,42.84202708916436 125.20844661701662,42.56602708916438 C124.62444661701662,42.39202708916437 123.97944661701663,42.591027089164385 123.48444661701663,42.94702708916438 C122.99044661701663,43.303027089164374 122.62144661701663,43.803027089164374 122.26844661701662,44.30002708916436 C122.02544661701663,44.64102708916437 121.78244661701663,44.99702708916436 121.69444661701661,45.40602708916438 C121.66444661701661,45.54902708916438 121.70444661701663,45.75402708916437 121.84944661701661,45.75002708916438 L122.00344661701664,45.66802708916438 C122.41044661701662,45.30402708916438 122.76544661701661,44.88302708916436 123.05144661701661,44.41902708916436 C123.16844661701663,44.50402708916437 123.09844661701663,44.72302708916436 123.00944661701661,44.839027089164375 C122.80444661701662,45.107027089164376 122.62244661701664,45.39402708916438 122.46644661701663,45.694027089164365 L122.41644661701662,45.851027089164376 C122.41644661701662,46.00002708916438 122.60744661701662,46.085027089164385 122.74944661701662,46.039027089164364 C122.89044661701661,45.994027089164376 122.98644661701661,45.86702708916437 123.07444661701663,45.74702708916436 C123.24544661701663,45.51202708916438 123.41644661701662,45.27802708916437 123.58644661701663,45.04402708916436 C123.67744661701661,44.920027089164364 123.80744661701661,44.78002708916438 123.95644661701661,44.81802708916436 C124.10644661701662,44.85602708916437 124.15444661701662,45.053027089164374 124.12044661701663,45.20502708916436 C124.01244661701662,45.690027089164374 123.40244661701661,46.03702708916438 123.51044661701661,46.52102708916436 L123.61044661701663,46.670027089164364 L123.85544661701661,46.58202708916437 C124.15144661701663,46.31602708916438 124.40644661701663,46.00502708916437 124.60944661701663,45.66202708916438 C124.70344661701662,45.50402708916437 124.81244661701663,45.319027089164365 124.99444661701662,45.29602708916437 C125.16844661701663,45.27302708916437 125.31944661701661,45.41002708916437 125.42444661701663,45.55002708916436 C125.62144661701663,45.81002708916438 125.75444661701661,46.113027089164376 125.95244661701662,46.37302708916437 C126.14944661701662,46.63302708916436 126.43844661701661,46.85602708916437 126.76544661701661,46.849027089164366 C127.20944661701662,46.841027089164385 127.52544661701663,46.43002708916438 127.77244661701661,46.061027089164384 C127.96644661701663,45.77102708916436 128.1644466170166,45.46902708916437 128.2184466170166,45.12602708916438 "/>
    <path id="path-18" opacity="1" fill-rule="evenodd" d="M98.35444661701595,16.37002708916424 L87.71944661701593,21.139027089164212 L80.69744661701594,5.484027089164214 L91.33144661701593,0.7140270891642331 "/>
    <path id="path-19" opacity="1" fill-rule="evenodd" d="M85.94044661701645,19.634027089164277 C85.73044661701645,19.34702708916427 85.52044661701645,19.0610270891643 85.31044661701645,18.774027089164292 C85.10144661701645,18.489027089164296 84.89044661701645,18.20002708916428 84.75344661701645,17.87502708916429 C84.61644661701645,17.550027089164274 84.55744661701645,17.177027089164284 84.66244661701646,16.8410270891643 C84.47444661701645,16.479027089164276 84.19744661701645,16.11702708916428 84.00944661701645,15.756027089164292 C83.84944661701645,15.448027089164299 83.68644661701644,15.131027089164292 83.64144661701646,14.786027089164293 C83.59344661701645,14.410027089164288 83.68944661701644,14.032027089164274 83.78544661701645,13.666027089164288 C83.92344661701645,13.137027089164292 84.23744661701645,13.090027089164295 84.78144661701646,13.049027089164298 C85.32544661701645,13.007027089164296 85.86044661701645,13.199027089164275 86.35244661701645,13.434027089164289 C86.60044661701644,13.552027089164284 86.85544661701645,13.69602708916429 86.98544661701645,13.937027089164275 C87.17844661701645,14.296027089164284 87.13044661701645,14.651027089164273 86.70744661701644,14.598027089164276 L84.86644661701645,14.18202708916428 C84.73644661701645,14.605027089164281 87.32244661701645,14.380027089164287 87.17144661701646,15.435027089164294 C87.07244661701645,16.133027089164273 85.17544661701645,15.676027089164279 85.29344661701646,16.018027089164292 C85.45444661701644,16.487027089164286 87.13044661701645,16.322027089164294 87.15744661701645,16.616027089164277 C87.18344661701644,16.891027089164282 87.21444661701645,17.399027089164292 86.18944661701644,17.285027089164288 C85.04344661701646,17.15802708916428 87.05944661701645,19.084027089164294 86.97944661701645,19.45002708916428 C86.95844661701645,19.544027089164274 86.93544661701645,19.642027089164287 86.87444661701645,19.717027089164276 "/>
    <path id="path-20" opacity="1" fill-rule="evenodd" d="M124.12844661701632,8.919027089164302 C124.12844661701632,9.223027089164304 123.88144661701631,9.469027089164314 123.5774466170163,9.469027089164314 C123.2724466170163,9.469027089164314 123.02544661701631,9.223027089164304 123.02544661701631,8.919027089164302 C123.02544661701631,8.614027089164324 123.2724466170163,8.36702708916431 123.5774466170163,8.36702708916431 "/>
    <path id="path-21" opacity="1" fill-rule="evenodd" d="M115.80744661701635,4.636027089164315 C118.05544661701637,5.36102708916431 120.61544661701637,4.444027089164308 122.81944661701635,5.294027089164302 C123.90244661701635,5.712027089164309 124.80244661701636,6.536027089164321 125.42044661701635,7.5180270891643195 C126.03944661701635,8.501027089164324 126.38944661701638,9.634027089164306 126.56044661701637,10.782027089164302 C127.02044661701638,10.042027089164321 127.04044661701636,9.107027089164319 127.11044661701638,8.239027089164324 C127.16844661701637,7.5200270891643015 127.22744661701637,6.798027089164321 127.16244661701637,6.080027089164304 C127.01744661701636,4.460027089164299 126.23944661701637,2.9290270891643218 125.13144661701637,1.7380270891643192 C124.63844661701637,1.2090270891643229 124.07044661701636,0.7340270891643002 123.40844661701635,0.4430270891643033 C122.69044661701636,0.12902708916431038 121.89444661701637,0.04302708916432607 121.11144661701636,0.011027089164315385 C119.59544661701636,-0.048972910835686896 117.98144661701636,0.11502708916430038 116.76744661701636,1.0240270891643206 C115.95844661701636,0.5880270891643136 114.80244661701636,0.8310270891643085 114.14144661701636,1.4690270891643138 C113.47944661701638,2.108027089164324 113.14244661701636,3.0090270891643054 112.91144661701637,3.8990270891643206 C112.53244661701638,5.36102708916431 112.39144661701636,6.934027089164317 112.87944661701636,8.364027089164324 C113.25244661701637,9.459027089164323 113.97444661701635,10.411027089164321 114.32744661701636,11.51202708916432 C114.29944661701637,11.021027089164306 114.28144661701637,10.51202708916432 114.45544661701638,10.051027089164307 C114.54444661701638,9.814027089164313 114.68344661701636,9.598027089164304 114.82244661701637,9.38502708916431 C115.28444661701636,8.678027089164317 115.76044661701636,7.967027089164304 116.02744661701635,7.1660270891643165 "/>
    <path id="path-22" opacity="1" fill-rule="evenodd" d="M126.31844661701663,115.37702708916439 C126.31844661701663,115.37702708916439 125.77244661701661,114.17302708916439 126.45944661701662,114.06202708916439 C127.14644661701661,113.95202708916439 127.51444661701663,114.37202708916439 127.51444661701663,114.37202708916439 L129.18744661701663,116.24502708916438 L130.0634466170166,117.60702708916439 L128.74144661701663,117.00802708916439 "/>
    <path id="path-23" opacity="1" fill-rule="evenodd" d="M123.65144661701626,114.80002708916419 C123.65144661701626,114.80002708916419 124.21044661701626,116.13702708916419 124.78644661701625,115.89502708916419 C125.11144661701624,115.75902708916419 125.68344661701624,114.6670270891642 126.11144661701624,114.82302708916419 C126.54144661701625,114.97902708916419 128.20244661701625,116.1970270891642 128.83144661701624,116.51302708916418 C129.45944661701625,116.8310270891642 127.51444661701626,114.37202708916419 127.51444661701626,114.37202708916419 C127.51444661701626,114.37202708916419 129.15044661701626,116.04902708916418 129.71344661701625,116.33402708916418 C130.27644661701626,116.62002708916418 135.01944661701626,117.7830270891642 135.14444661701626,119.25702708916418 L135.07944661701626,120.2090270891642 C135.07944661701626,120.2090270891642 133.54544661701624,121.64602708916419 129.88444661701624,120.46402708916419 C126.22344661701626,119.28202708916419 124.15344661701624,119.08902708916419 123.49244661701624,118.83802708916419 "/>
    <path id="path-24" opacity="1" fill-rule="evenodd" d="M130.62944661701658,119.9590270891642 C128.8864466170166,119.6940270891642 125.9794466170166,118.46602708916419 124.86144661701658,118.35402708916419 C124.21844661701658,118.29002708916418 123.5734466170166,118.07302708916419 123.14144661701658,117.90102708916419 C123.18844661701658,118.39102708916418 123.2994466170166,118.76402708916419 123.49244661701658,118.83802708916419 C124.15344661701658,119.08902708916419 126.2234466170166,119.28202708916419 129.88444661701658,120.46402708916419 C133.54544661701658,121.64602708916419 135.0794466170166,120.2090270891642 135.0794466170166,120.2090270891642 L135.1444466170166,119.25702708916418 "/>
    <path id="path-25" opacity="1" fill-rule="evenodd" d="M127.2864466170166,116.32902708916434 L127.1984466170166,116.30702708916435 L127.1224466170166,116.06202708916435 C127.1394466170166,116.03002708916435 127.54744661701659,115.27102708916435 128.12344661701658,115.15002708916434 C128.35544661701658,115.10002708916434 128.58744661701658,115.16102708916435 128.7934466170166,115.32402708916435 L128.8244466170166,115.57902708916434 L128.5684466170166,115.60902708916434 C128.4464466170166,115.51302708916434 128.32544661701658,115.47902708916435 128.1984466170166,115.50602708916435 C127.85644661701659,115.57802708916435 127.5384466170166,116.05402708916435 127.4434466170166,116.23202708916435 "/>
    <path id="path-26" opacity="1" fill-rule="evenodd" d="M127.8524466170162,116.84302708916447 L127.7644466170162,116.82202708916448 L127.68944661701619,116.57702708916447 C127.70644661701618,116.54502708916448 128.1144466170162,115.78602708916448 128.6904466170162,115.66502708916447 C128.9214466170162,115.61502708916447 129.1544466170162,115.67502708916447 129.3604466170162,115.83902708916447 L129.39144661701621,116.09302708916447 L129.13544661701619,116.12402708916447 C129.0134466170162,116.02802708916447 128.8924466170162,115.99402708916448 128.76544661701618,116.02002708916447 C128.4234466170162,116.09202708916447 128.1044466170162,116.56902708916448 128.01044661701619,116.74702708916448 "/>
    <path id="path-27" opacity="1" fill-rule="evenodd" d="M128.54744661701582,117.19202708916433 L128.45944661701583,117.17102708916433 L128.3844466170158,116.92502708916433 C128.40144661701584,116.89302708916433 128.80944661701582,116.13402708916433 129.38544661701582,116.01302708916432 C129.61744661701582,115.96502708916432 129.84944661701581,116.02502708916433 130.05544661701583,116.18702708916433 L130.08544661701583,116.44302708916433 L129.83044661701584,116.47202708916433 C129.70844661701582,116.37702708916433 129.58744661701581,116.34202708916433 129.46044661701583,116.36902708916433 C129.12044661701583,116.44002708916433 128.80044661701584,116.91802708916433 128.70544661701584,117.09502708916433 "/>
    <path id="path-28" opacity="1" fill-rule="evenodd" d="M129.27444661701662,117.5080270891644 L129.18744661701663,117.4860270891644 L129.1114466170166,117.2410270891644 C129.12844661701664,117.20902708916441 129.53644661701662,116.45002708916441 130.11244661701662,116.3290270891644 C130.34444661701662,116.2780270891644 130.57644661701661,116.3400270891644 130.78244661701663,116.5030270891644 L130.81244661701663,116.7580270891644 L130.5574466170166,116.7880270891644 C130.43544661701662,116.6920270891644 130.3144466170166,116.6580270891644 130.18744661701663,116.6840270891644 C129.84544661701662,116.7570270891644 129.52644661701663,117.2330270891644 129.4324466170166,117.4110270891644 "/>
    <path id="path-29" opacity="1" fill-rule="evenodd" d="M106.34044661701711,115.24102708916419 C106.34044661701711,115.24102708916419 106.8864466170171,114.03702708916418 106.19944661701712,113.9260270891642 C105.51344661701711,113.8160270891642 105.14544661701711,114.23602708916418 105.14544661701711,114.23602708916418 L103.47244661701711,116.10902708916419 L102.5954466170171,117.47102708916418 L103.9174466170171,116.87202708916419 "/>
    <path id="path-30" opacity="1" fill-rule="evenodd" d="M109.00744661701702,114.66502708916428 C109.00744661701702,114.66502708916428 108.44844661701703,116.00202708916429 107.87344661701701,115.76002708916428 C107.54744661701702,115.62302708916428 106.97644661701702,114.53102708916428 106.54744661701702,114.68702708916429 C106.11844661701701,114.84302708916428 104.45744661701701,116.06102708916428 103.82844661701702,116.37802708916429 C103.19944661701703,116.69502708916428 105.14544661701703,114.23602708916428 105.14544661701703,114.23602708916428 C105.14544661701703,114.23602708916428 103.50844661701703,115.91302708916429 102.94544661701701,116.19902708916429 C102.38344661701703,116.48402708916429 97.63944661701703,117.64702708916428 97.515446617017,119.12102708916429 L97.58044661701703,120.07302708916428 C97.58044661701703,120.07302708916428 99.11344661701702,121.51002708916428 102.77444661701702,120.32902708916428 C106.43644661701703,119.14602708916429 108.50644661701702,118.9530270891643 109.16644661701702,118.70202708916429 "/>
    <path id="path-31" opacity="1" fill-rule="evenodd" d="M102.02944661701684,119.82302708916448 C103.77244661701684,119.55802708916448 106.68044661701686,118.3310270891645 107.79744661701685,118.21802708916448 C108.44144661701685,118.15402708916449 109.08544661701686,117.93802708916449 109.51844661701685,117.76602708916448 C109.47044661701685,118.25702708916448 109.35944661701686,118.62902708916448 109.16644661701685,118.70202708916449 C108.50644661701685,118.9530270891645 106.43644661701686,119.14602708916449 102.77444661701685,120.32902708916448 C99.11344661701685,121.51002708916448 97.58044661701686,120.07302708916448 97.58044661701686,120.07302708916448 L97.51544661701683,119.12102708916449 "/>
    <path id="path-32" opacity="1" fill-rule="evenodd" d="M105.37344661701619,116.19302708916418 L105.46144661701621,116.17302708916418 L105.5364466170162,115.92602708916418 C105.5204466170162,115.89402708916417 105.11144661701618,115.13502708916417 104.53544661701619,115.01402708916417 C104.30344661701619,114.96502708916417 104.07144661701619,115.02502708916417 103.8654466170162,115.18802708916418 L103.8344466170162,115.44402708916418 L104.0904466170162,115.47302708916418 C104.21244661701618,115.37802708916418 104.3334466170162,115.34302708916417 104.4604466170162,115.37002708916417 C104.80244661701619,115.44202708916417 105.1214466170162,115.92002708916418 105.2154466170162,116.09702708916417 "/>
    <path id="path-33" opacity="1" fill-rule="evenodd" d="M104.80644661701592,116.70802708916426 L104.89444661701592,116.68702708916426 L104.97044661701591,116.44102708916427 C104.95344661701591,116.40902708916425 104.5454466170159,115.65102708916426 103.9694466170159,115.52902708916426 C103.7374466170159,115.47902708916426 103.5044466170159,115.54002708916425 103.29844661701591,115.70402708916426 L103.26844661701591,115.95902708916425 L103.5234466170159,115.98802708916426 C103.64544661701592,115.89202708916426 103.7664466170159,115.85802708916425 103.89444661701592,115.88402708916426 C104.23544661701592,115.95702708916426 104.55544661701592,116.43402708916426 104.6484466170159,116.61202708916426 "/>
    <path id="path-34" opacity="1" fill-rule="evenodd" d="M104.11144661701567,117.05602708916437 L104.1994466170157,117.03602708916438 L104.27544661701569,116.79002708916437 C104.2584466170157,116.75802708916437 103.85044661701568,115.99902708916437 103.27444661701568,115.87802708916438 C103.04244661701568,115.82902708916437 102.81044661701569,115.88902708916437 102.60344661701569,116.05202708916437 L102.57344661701569,116.30702708916438 L102.82944661701569,116.33802708916437 C102.95144661701568,116.24102708916438 103.07144661701568,116.20802708916437 103.1994466170157,116.23302708916437 C103.5384466170157,116.30402708916438 103.85944661701569,116.78202708916437 103.95444661701569,116.96102708916438 "/>
    <path id="path-35" opacity="1" fill-rule="evenodd" d="M103.38444661701627,117.3720270891642 L103.47244661701629,117.3500270891642 L103.54844661701628,117.1050270891642 C103.53144661701629,117.0730270891642 103.12344661701627,116.3140270891642 102.54744661701628,116.1930270891642 C102.31544661701628,116.1420270891642 102.08344661701628,116.2040270891642 101.87644661701628,116.3670270891642 L101.84644661701628,116.6220270891642 L102.10144661701628,116.6520270891642 C102.2234466170163,116.5560270891642 102.34444661701627,116.5220270891642 102.47244661701629,116.5490270891642 C102.81344661701627,116.6210270891642 103.13244661701629,117.0970270891642 103.22744661701628,117.2750270891642 "/>
    <path id="path-36" opacity="1" fill-rule="evenodd" d="M33.453446617016,124.70302708916456 L33.42744661701599,124.70602708916456 C33.010446617016,122.78102708916455 31.298446617015994,121.33202708916455 29.249446617015987,121.32802708916456 L24.798446617015987,121.31802708916456 L24.81944661701599,111.78402708916455 L23.972446617015997,111.78202708916456 L24.016446617015994,91.33502708916456 L23.456446617015988,91.33302708916456 L23.457446617015997,91.16402708916456 L23.201446617015996,91.16302708916456 L22.88344661701599,91.16302708916456 L22.62744661701599,91.16202708916455 L22.62744661701599,91.33202708916455 L21.30744661701599,91.32902708916455 L21.263446617015994,111.77602708916456 L20.585446617015997,111.77502708916455 L20.565446617015994,121.30802708916455 L15.601446617015995,121.29802708916456 C13.546446617015995,121.29402708916456 11.823446617015996,122.74402708916456 11.404446617015992,124.67502708916456 C10.441446617015991,124.76902708916455 9.685446617015991,125.57102708916456 9.68244661701599,126.55902708916456 C9.680446617015996,127.61302708916456 10.533446617015997,128.46902708916457 11.586446617015994,128.47102708916455 C12.640446617015996,128.47402708916457 13.496446617015991,127.62202708916456 13.498446617015993,126.56802708916456 C13.500446617015996,125.65002708916455 12.85344661701599,124.88402708916456 11.99044661701599,124.69902708916456 C12.389446617015992,123.07602708916455 13.855446617015993,121.86802708916456 15.599446617015992,121.87202708916456 L22.309446617015993,121.88602708916456 L22.303446617015993,124.70902708916456 C21.38644661701599,124.84502708916456 20.680446617015996,125.62902708916455 20.678446617015993,126.58402708916456 C20.675446617015993,127.63702708916456 21.528446617015994,128.49302708916457 22.58144661701599,128.49602708916456 C23.635446617015994,128.49802708916457 24.491446617015995,127.64502708916456 24.493446617015987,126.59202708916456 C24.495446617015993,125.63602708916456 23.792446617015994,124.85002708916456 22.87644661701599,124.71002708916456 L22.88244661701599,121.88702708916456 L23.391446617015994,121.88802708916455 L29.248446617015997,121.90102708916456 C31.015446617015993,121.90502708916456 32.492446617016,123.14902708916456 32.861446617016,124.80502708916455 C32.099446617016,125.05302708916456 31.543446617015984,125.76102708916456 31.54144661701599,126.60702708916456 C31.539446617015994,127.66102708916456 32.391446617016,128.51602708916454 33.44544661701599,128.51902708916455 C34.498446617016,128.52102708916453 35.354446617015995,127.66902708916456 35.357446617015995,126.61502708916456 "/>
    <path id="path-37" opacity="1" fill-rule="evenodd" d="M12.708446617016534,86.5730270891644 L27.650446617016527,86.6090270891644 C31.912446617016528,86.6190270891644 34.70744661701654,83.1730270891644 33.89444661701653,78.9120270891644 L28.167446617016537,48.92602708916439 C27.76144661701653,46.7970270891644 25.704446617016536,45.0650270891644 23.57244661701653,45.06002708916441 L3.1934466170165337,45.012027089164405 C1.0614466170165358,45.008027089164386 -0.33655338298346743,46.730027089164395 0.0704466170165361,48.861027089164395 L6.23144661701653,81.1250270891644 "/>
    <path id="path-38" opacity="1" fill-rule="evenodd" d="M46.87244661701619,85.80202708916433 C46.86244661701618,90.09602708916432 43.37444661701618,93.57002708916433 39.080446617016186,93.56002708916434 L15.821446617016186,93.50702708916432 C11.527446617016189,93.49702708916433 8.053446617016185,90.00902708916433 8.062446617016185,85.71502708916432 "/>
    <path id="path-39" opacity="1" fill-rule="evenodd" d="M44.95044661701636,90.89202708916419 C43.52144661701636,92.52902708916419 41.42344661701637,93.5660270891642 39.08044661701636,93.5600270891642 L15.821446617016356,93.50702708916418 C13.477446617016355,93.50102708916418 11.384446617016359,92.45502708916419 9.962446617016354,90.81202708916419 "/>
    <path id="path-40" opacity="1" fill-rule="evenodd" d="M24.80344661701601,118.85902708916423 L24.798446617016012,121.31802708916423 L29.24944661701601,121.32802708916424 C31.298446617016015,121.33202708916423 33.010446617016015,122.78102708916423 33.427446617016,124.70602708916424 L33.45344661701601,124.70302708916424 C34.507446617016015,124.70602708916424 35.359446617016005,125.56102708916423 35.35744661701601,126.61502708916423 C35.35444661701601,127.66902708916423 34.498446617016015,128.52102708916422 33.445446617016,128.51902708916424 C32.391446617016015,128.51602708916423 31.539446617016015,127.66102708916424 31.54144661701601,126.60702708916423 C31.543446617016006,125.76102708916423 32.099446617016014,125.05302708916423 32.861446617016014,124.80502708916423 C32.492446617016014,123.14902708916424 31.015446617016014,121.90502708916424 29.248446617016018,121.90102708916423 L23.391446617016015,121.88802708916423 L22.882446617016015,121.88702708916423 L22.876446617016015,124.71002708916423 C23.792446617016015,124.85002708916423 24.49544661701601,125.63602708916423 24.493446617016012,126.59202708916423 C24.491446617016013,127.64502708916423 23.635446617016015,128.49802708916422 22.581446617016013,128.49602708916422 C21.528446617016016,128.49302708916423 20.675446617016014,127.63702708916423 20.678446617016014,126.58402708916424 C20.680446617016017,125.62802708916423 21.386446617016013,124.84502708916423 22.303446617016014,124.70902708916424 L22.309446617016015,121.88602708916423 L15.599446617016014,121.87202708916423 C13.855446617016014,121.86802708916423 12.389446617016013,123.07602708916423 11.990446617016012,124.69902708916423 C12.853446617016012,124.88402708916423 13.500446617016017,125.65002708916423 13.498446617016015,126.56802708916423 C13.496446617016012,127.62202708916423 12.640446617016018,128.47402708916422 11.586446617016016,128.47102708916424 C10.533446617016018,128.46902708916423 9.680446617016017,127.61302708916423 9.683446617016017,126.55902708916423 C9.685446617016012,125.57102708916423 10.441446617016013,124.76902708916423 11.404446617016013,124.67502708916423 C11.823446617016018,122.74402708916423 13.546446617016016,121.29402708916423 15.601446617016016,121.29802708916424 L20.565446617016015,121.30802708916423 L20.570446617016017,118.84902708916422 "/>
    <path id="path-41" opacity="1" fill-rule="evenodd" d="M9.962446617016724,90.81202708916445 C8.778446617016726,89.44502708916444 8.059446617016725,87.66502708916444 8.062446617016725,85.71502708916444 L28.40744661701672,85.80202708916444 C28.402446617016725,87.75302708916445 27.67544661701672,89.53002708916445 26.48444661701672,90.89302708916445 C26.311446617016717,91.09202708916445 26.12744661701672,91.28002708916445 25.935446617016726,91.46102708916445 L25.88844661701673,91.50302708916445 C25.711446617016723,91.66602708916444 25.527446617016725,91.82002708916444 25.335446617016725,91.96702708916445 L25.23944661701672,92.03802708916444 C25.06244661701672,92.16902708916444 24.879446617016722,92.29202708916445 24.691446617016727,92.40702708916444 L24.54744661701672,92.49502708916444 C24.37144661701672,92.59702708916444 24.190446617016722,92.69302708916445 24.005446617016723,92.78202708916444 L23.817446617016724,92.87202708916445 C23.642446617016724,92.95102708916444 23.46244661701672,93.02102708916443 23.281446617016726,93.08802708916444 L23.05444661701672,93.17002708916445 C22.878446617016724,93.22802708916444 22.697446617016723,93.27602708916444 22.516446617016726,93.32102708916445 L22.263446617016726,93.38502708916444 C22.075446617016723,93.42502708916444 21.882446617016726,93.45402708916444 21.689446617016728,93.48002708916444 L21.449446617016722,93.51602708916444 C21.175446617016725,93.54502708916445 20.89644661701673,93.56102708916444 20.614446617016725,93.56002708916445 L15.821446617016726,93.50702708916444 C15.539446617016727,93.50602708916445 15.261446617016723,93.48802708916445 14.987446617016722,93.45802708916445 L14.747446617016726,93.42102708916444 C14.553446617016725,93.39302708916445 14.361446617016723,93.36502708916444 14.173446617016722,93.32402708916445 L13.921446617016727,93.25902708916445 C13.740446617016723,93.21302708916444 13.560446617016723,93.16402708916445 13.383446617016721,93.10502708916444 L13.155446617016729,93.02102708916443 C12.975446617016729,92.95502708916445 12.796446617016727,92.88402708916445 12.622446617016728,92.80402708916445 L12.433446617016727,92.71302708916444 C12.248446617016725,92.62302708916444 12.068446617016725,92.52702708916445 11.893446617016728,92.42302708916445 L11.749446617016723,92.33602708916445 C11.561446617016728,92.21802708916444 11.379446617016725,92.09402708916444 11.203446617016724,91.96302708916444 L11.107446617016727,91.89102708916444 C10.916446617016724,91.74402708916445 10.732446617016727,91.58902708916445 10.556446617016725,91.42502708916444 L10.510446617016726,91.38402708916445 "/>
    <path id="path-42" opacity="1" fill-rule="evenodd" d="M0.0224466170162927,47.90002708916441 C0.031446617016293046,47.75902708916439 0.04644661701629362,47.619027089164405 0.07244661701628988,47.48302708916441 C0.09144661701629535,47.38402708916439 0.11744661701629161,47.28702708916441 0.1454466170162903,47.19202708916441 C0.17544661701629144,47.09102708916441 0.21144661701629283,46.992027089164395 0.25044661701629434,46.89602708916439 C0.29544661701628894,46.78802708916439 0.3414466170162955,46.68002708916441 0.39744661701629286,46.57902708916441 L0.5074466170162923,46.40702708916439 C0.8904466170162951,45.82202708916441 1.466446617016296,45.3800270891644 2.186446617016295,45.16902708916439 C3.974446617016292,45.56602708916441 5.545446617016291,47.0940270891644 5.895446617016292,48.92502708916439 L13.0854466170163,86.57402708916442 L12.6954466170163,86.57302708916441 C9.696446617016296,86.5580270891644 6.804446617016292,84.12202708916442 6.231446617016291,81.1250270891644 L0.07044661701629454,48.861027089164395 C0.02344661701629037,48.615027089164386 0.006446617016294454,48.377027089164386 0.005446617016289679,48.14402708916441 "/>
    <path id="path-43" opacity="1" fill-rule="evenodd" d="M180.49244661701647,124.70302708916456 L180.51844661701648,124.70602708916456 C180.93544661701648,122.78102708916455 182.64744661701647,121.33202708916455 184.69544661701647,121.32802708916456 L189.14744661701647,121.31802708916456 L189.12644661701648,111.78402708916455 L189.9734466170165,111.78202708916456 L189.92944661701648,91.33502708916456 L190.48844661701648,91.33302708916456 L190.48844661701648,91.16402708916456 L190.74444661701648,91.16302708916456 L191.0624466170165,91.16302708916456 L191.3174466170165,91.16202708916455 L191.3184466170165,91.33202708916455 L192.63844661701648,91.32902708916455 L192.68244661701647,111.77602708916456 L193.3594466170165,111.77502708916455 L193.38044661701647,121.30802708916455 L198.34444661701647,121.29802708916456 C200.39944661701648,121.29402708916456 202.1224466170165,122.74402708916456 202.54144661701648,124.67502708916456 C203.50444661701647,124.76902708916455 204.26044661701647,125.57102708916456 204.26344661701648,126.55902708916456 C204.2654466170165,127.61302708916456 203.4134466170165,128.46902708916457 202.3594466170165,128.47102708916455 C201.30544661701649,128.47402708916457 200.4494466170165,127.62202708916456 200.44744661701648,126.56802708916456 C200.44544661701647,125.65002708916455 201.0924466170165,124.88402708916456 201.9554466170165,124.69902708916456 C201.5564466170165,123.07602708916455 200.09044661701648,121.86802708916456 198.34644661701648,121.87202708916456 L191.63644661701647,121.88602708916456 L191.64344661701648,124.70902708916456 C192.55944661701648,124.84502708916456 193.2654466170165,125.62902708916455 193.26744661701647,126.58402708916456 C193.2704466170165,127.63702708916456 192.41744661701648,128.49302708916457 191.36344661701648,128.49602708916456 C190.31044661701648,128.49802708916457 189.4544466170165,127.64502708916456 189.45244661701648,126.59202708916456 C189.45044661701647,125.63602708916456 190.1524466170165,124.85002708916456 191.06944661701647,124.71002708916456 L191.0624466170165,121.88702708916456 L190.55544661701649,121.88802708916455 L184.69744661701648,121.90102708916456 C182.93044661701649,121.90502708916456 181.45344661701648,123.14902708916456 181.08444661701648,124.80502708916455 C181.84644661701648,125.05302708916456 182.4024466170165,125.76102708916456 182.40444661701648,126.60702708916456 C182.40644661701648,127.66102708916456 181.55444661701648,128.51602708916454 180.50044661701648,128.51902708916455 C179.44644661701648,128.52102708916453 178.59044661701648,127.66902708916456 178.58844661701647,126.61502708916456 "/>
    <path id="path-44" opacity="1" fill-rule="evenodd" d="M201.2364466170162,86.5730270891644 L186.29444661701623,86.6090270891644 C182.03344661701624,86.6190270891644 179.23744661701622,83.1730270891644 180.0514466170162,78.9120270891644 L185.77744661701624,48.92602708916439 C186.18544661701623,46.7970270891644 188.2424466170162,45.0650270891644 190.3734466170162,45.06002708916441 L210.75244661701623,45.012027089164405 C212.88444661701624,45.008027089164386 214.28244661701623,46.730027089164395 213.87544661701622,48.861027089164395 L207.71344661701622,81.1250270891644 "/>
    <path id="path-45" opacity="1" fill-rule="evenodd" d="M167.073446617016,85.80202708916433 C167.083446617016,90.09602708916432 170.571446617016,93.57002708916433 174.865446617016,93.56002708916434 L198.124446617016,93.50702708916432 C202.418446617016,93.49702708916433 205.892446617016,90.00902708916433 205.882446617016,85.71502708916432 "/>
    <path id="path-46" opacity="1" fill-rule="evenodd" d="M168.9954466170163,90.89202708916419 C170.42444661701632,92.52902708916419 172.5224466170163,93.5660270891642 174.86544661701632,93.5600270891642 L198.1244466170163,93.50702708916418 C200.46744661701632,93.50102708916418 202.56144661701632,92.45502708916419 203.9834466170163,90.81202708916419 "/>
    <path id="path-47" opacity="1" fill-rule="evenodd" d="M189.1424466170162,118.85902708916423 L189.1474466170162,121.31802708916423 L184.6954466170162,121.32802708916424 C182.6474466170162,121.33202708916423 180.9354466170162,122.78102708916423 180.5184466170162,124.70602708916424 L180.49244661701618,124.70302708916424 C179.43844661701618,124.70602708916424 178.5864466170162,125.56102708916423 178.5884466170162,126.61502708916423 C178.5904466170162,127.66902708916423 179.4464466170162,128.52102708916422 180.5004466170162,128.51902708916424 C181.5544466170162,128.51602708916423 182.4064466170162,127.66102708916424 182.4044466170162,126.60702708916423 C182.4024466170162,125.76102708916423 181.8464466170162,125.05302708916423 181.0844466170162,124.80502708916423 C181.4534466170162,123.14902708916424 182.9304466170162,121.90502708916424 184.6974466170162,121.90102708916423 L190.5554466170162,121.88802708916423 L191.0624466170162,121.88702708916423 L191.0684466170162,124.71002708916423 C190.1524466170162,124.85002708916423 189.45044661701618,125.63602708916423 189.4524466170162,126.59202708916423 C189.4544466170162,127.64502708916423 190.3104466170162,128.49802708916422 191.3634466170162,128.49602708916422 C192.4174466170162,128.49302708916423 193.2704466170162,127.63702708916423 193.2674466170162,126.58402708916424 C193.2654466170162,125.62802708916423 192.5594466170162,124.84502708916423 191.6434466170162,124.70902708916424 L191.6364466170162,121.88602708916423 L198.3464466170162,121.87202708916423 C200.0904466170162,121.86802708916423 201.5564466170162,123.07602708916423 201.9554466170162,124.69902708916423 C201.0924466170162,124.88402708916423 200.4454466170162,125.65002708916423 200.4474466170162,126.56802708916423 C200.4494466170162,127.62202708916423 201.3054466170162,128.47402708916422 202.3594466170162,128.47102708916424 C203.4124466170162,128.46902708916423 204.2654466170162,127.61302708916423 204.2634466170162,126.55902708916423 C204.26044661701619,125.57102708916423 203.50444661701619,124.76902708916423 202.5414466170162,124.67502708916423 C202.1224466170162,122.74402708916423 200.3994466170162,121.29402708916423 198.3444466170162,121.29802708916424 L193.3804466170162,121.30802708916423 L193.3744466170162,118.84902708916422 "/>
    <path id="path-48" opacity="1" fill-rule="evenodd" d="M203.98344661701643,90.81202708916445 C205.16744661701642,89.44502708916444 205.88744661701642,87.66502708916444 205.88244661701643,85.71502708916444 L185.5394466170164,85.80202708916444 C185.54244661701642,87.75302708916445 186.27044661701643,89.53002708916445 187.46144661701643,90.89302708916445 C187.63444661701644,91.09202708916445 187.81744661701643,91.28002708916445 188.0104466170164,91.46102708916445 L188.0574466170164,91.50302708916445 C188.23444661701643,91.66602708916444 188.41844661701643,91.82002708916444 188.60944661701643,91.96702708916445 L188.7064466170164,92.03802708916444 C188.88344661701643,92.16902708916444 189.06544661701642,92.29202708916445 189.2544466170164,92.40702708916444 L189.39844661701642,92.49502708916444 C189.57444661701643,92.59702708916444 189.75544661701642,92.69302708916445 189.93944661701642,92.78202708916444 L190.12744661701643,92.87202708916445 C190.30344661701642,92.95102708916444 190.48244661701642,93.02102708916443 190.6654466170164,93.08802708916444 L190.89144661701644,93.17002708916445 C191.06744661701643,93.22802708916444 191.2484466170164,93.27602708916444 191.43044661701643,93.32102708916445 L191.6824466170164,93.38502708916444 C191.87044661701643,93.42502708916444 192.06244661701643,93.45402708916444 192.25544661701642,93.48002708916444 L192.49644661701643,93.51602708916444 C192.77044661701643,93.54502708916445 193.04844661701642,93.56102708916444 193.3314466170164,93.56002708916445 L198.12444661701642,93.50702708916444 C198.40644661701643,93.50602708916445 198.68444661701642,93.48802708916445 198.95844661701642,93.45802708916445 L199.19944661701643,93.42102708916444 C199.39244661701642,93.39302708916445 199.58444661701643,93.36502708916444 199.7724466170164,93.32402708916445 L200.02444661701642,93.25902708916445 C200.2064466170164,93.21302708916444 200.3854466170164,93.16402708916445 200.56244661701643,93.10502708916444 L200.7904466170164,93.02102708916443 C200.97144661701643,92.95502708916445 201.14944661701642,92.88402708916445 201.32344661701643,92.80402708916445 L201.51244661701642,92.71302708916444 C201.69644661701642,92.62302708916444 201.87644661701643,92.52702708916445 202.05244661701641,92.42302708916445 L202.19544661701642,92.33602708916445 C202.38344661701643,92.21802708916444 202.56544661701642,92.09402708916444 202.7424466170164,91.96302708916444 L202.83844661701642,91.89102708916444 C203.02944661701642,91.74402708916445 203.2124466170164,91.58902708916445 203.38944661701643,91.42502708916444 L203.43544661701642,91.38402708916445 "/>
    <path id="path-49" opacity="1" fill-rule="evenodd" d="M213.9234466170162,47.90002708916441 C213.9134466170162,47.75902708916439 213.8994466170162,47.619027089164405 213.87344661701619,47.48302708916441 C213.8544466170162,47.38402708916439 213.8274466170162,47.28702708916441 213.7994466170162,47.19202708916441 C213.7704466170162,47.09102708916441 213.7344466170162,46.992027089164395 213.69444661701618,46.89602708916439 C213.6504466170162,46.78802708916439 213.6044466170162,46.68002708916441 213.5474466170162,46.57902708916441 L213.43844661701618,46.40702708916439 C213.0564466170162,45.82202708916441 212.4794466170162,45.3800270891644 211.7584466170162,45.16902708916439 C209.9714466170162,45.56602708916441 208.4004466170162,47.0940270891644 208.0504466170162,48.92502708916439 L200.8604466170162,86.57402708916442 L201.2504466170162,86.57302708916441 C204.2494466170162,86.5580270891644 207.1414466170162,84.12202708916442 207.7134466170162,81.1250270891644 L213.8754466170162,48.861027089164395 C213.9224466170162,48.615027089164386 213.93844661701618,48.377027089164386 213.9394466170162,48.14402708916441 "/>
    <path id="path-50" opacity="1" fill-rule="evenodd" d="M160.77844661701658,45.078027089164266 C159.9524466170166,44.576027089164256 159.7044466170166,43.542027089164264 159.2924466170166,42.651027089164245 C159.3914466170166,41.62502708916426 159.4894466170166,40.59802708916425 159.58744661701658,39.57102708916426 L159.5824466170166,39.35302708916427 C159.5114466170166,39.08702708916425 159.1134466170166,39.04702708916426 158.8984466170166,39.21802708916425 C158.68344661701659,39.391027089164254 158.6044466170166,39.67602708916425 158.5244466170166,39.941027089164265 C158.41544661701658,40.304027089164265 158.2624466170166,40.64602708916425 158.1134466170166,40.98902708916427 L157.9944466170166,40.85202708916427 C157.42644661701658,40.252027089164244 156.8164466170166,39.675027089164246 156.0924466170166,39.27502708916427 C155.3684466170166,38.87602708916427 154.5134466170166,38.66402708916425 153.7034466170166,38.83002708916425 C153.5134466170166,38.86902708916426 153.42744661701659,39.04702708916426 153.53444661701658,39.209027089164266 C153.6404466170166,39.37002708916427 153.8454466170166,39.429027089164265 154.0294466170166,39.48702708916426 C154.6084466170166,39.671027089164255 155.15244661701658,39.96402708916426 155.62344661701658,40.34602708916427 C155.7084466170166,40.417027089164264 155.6084466170166,40.58202708916426 155.5144466170166,40.526027089164245 C154.1254466170166,39.71002708916427 153.1684466170166,39.94402708916425 153.1144466170166,40.01102708916426 L153.1454466170166,40.274027089164264 C153.2444466170166,40.413027089164245 153.6144466170166,40.50102708916427 153.7714466170166,40.566027089164265 C154.4404466170166,40.840027089164266 154.80744661701658,41.24802708916425 154.80744661701658,41.24802708916425 C154.80744661701658,41.24802708916425 155.1254466170166,41.780027089164264 153.6394466170166,40.95602708916425 C153.45644661701658,40.85402708916425 153.24244661701658,40.76502708916425 153.0414466170166,40.826027089164256 L152.9464466170166,40.87902708916425 L152.8924466170166,40.99702708916425 C152.8704466170166,41.13102708916426 152.9254466170166,41.266027089164254 153.01044661701658,41.371027089164244 C153.0954466170166,41.47602708916426 153.2084466170166,41.554027089164265 153.3184466170166,41.63102708916426 C153.8624466170166,42.008027089164244 154.4064466170166,42.38402708916425 154.95044661701658,42.76102708916426 C154.7734466170166,42.68402708916426 153.6814466170166,42.07402708916425 153.4894466170166,42.05902708916426 L153.2764466170166,42.11102708916425 C153.20044661701658,42.19202708916427 153.2454466170166,42.32402708916425 153.2984466170166,42.42202708916426 C153.6554466170166,43.07702708916426 155.1244466170166,44.141027089164254 155.7404466170166,44.564027089164256 C156.35544661701658,44.98702708916426 157.1874466170166,45.23202708916426 157.6544466170166,45.814027089164256 C158.1984466170166,46.49102708916425 158.8774466170166,47.13802708916427 159.7324466170166,47.28902708916425 "/>
    <path id="path-51" opacity="1" fill-rule="evenodd" d="M184.117446617016,46.66902708916419 C181.288446617016,48.26802708916421 175.585446617016,52.450027089164195 173.986446617016,52.327027089164204 C172.387446617016,52.204027089164214 160.905446617016,44.605027089164196 160.905446617016,44.605027089164196 L158.484446617016,47.40802708916419 C158.484446617016,47.40802708916419 165.832446617016,56.8080270891642 172.229446617016,58.6540270891642 C178.625446617016,60.499027089164194 184.880446617016,54.52102708916419 184.880446617016,54.52102708916419 "/>
    <path id="path-52" opacity="1" fill-rule="evenodd" d="M187.92244661701636,116.29202708916421 L189.55244661701636,118.8240270891642 C189.55244661701636,118.8240270891642 184.56844661701638,124.3000270891642 183.12644661701637,125.3530270891642 C181.68444661701636,126.4060270891642 181.14344661701637,125.7930270891642 181.28844661701638,124.0410270891642 C181.43344661701636,122.28902708916421 185.03944661701635,117.8830270891642 185.03944661701635,117.8830270891642 L186.41244661701637,116.8600270891642 "/>
    <path id="path-53" opacity="1" fill-rule="evenodd" d="M185.19444661701647,118.42502708916433 L187.71944661701647,116.87702708916433 L183.60044661701647,110.15702708916433 L181.0744466170165,111.70502708916433 "/>
    <path id="path-54" opacity="1" fill-rule="evenodd" d="M180.22944661701675,118.01302708916452 L177.32044661701673,114.12602708916452 C177.26944661701674,114.05702708916454 172.18444661701673,107.25802708916453 167.40444661701673,100.34502708916452 C164.56044661701674,96.22902708916452 162.36344661701673,92.86002708916452 160.87744661701674,90.32702708916452 C158.97744661701674,87.09002708916451 156.10644661701673,82.19802708916451 159.93944661701673,79.00602708916452 C161.12944661701673,78.01302708916452 163.12444661701673,76.35002708916451 186.86344661701673,75.1400270891645 L191.71344661701673,74.89202708916451 L192.20844661701673,84.59202708916452 L187.35844661701674,84.84002708916451 C181.26744661701673,85.15002708916451 174.26444661701674,85.69002708916452 169.73044661701672,86.23702708916451 C172.95344661701674,91.51302708916451 179.33844661701673,100.61202708916451 185.09544661701673,108.30502708916453 L188.00544661701673,112.19302708916453 L180.22944661701675,118.01302708916452Z"/>
    <path id="path-55" opacity="1" fill-rule="evenodd" d="M162.95244661701665,123.16102708916429 L162.69544661701664,126.16102708916429 C162.69544661701664,126.16102708916429 155.40344661701664,127.45402708916428 153.61944661701665,127.40702708916429 C151.83444661701665,127.35902708916429 151.78144661701666,126.54302708916428 152.96644661701666,125.24402708916429 C154.15044661701666,123.94602708916429 159.69744661701665,122.65902708916428 159.69744661701665,122.65902708916428 L161.40844661701664,122.6880270891643 "/>
    <path id="path-56" opacity="1" fill-rule="evenodd" d="M178.5194466170159,66.4380270891644 C178.5194466170159,68.0300270891644 179.86744661701587,69.3200270891644 181.52944661701588,69.3200270891644 C183.1924466170159,69.3200270891644 184.54044661701587,68.0300270891644 184.54044661701587,66.4380270891644 C184.54044661701587,64.84602708916441 183.1924466170159,63.55502708916441 181.52944661701588,63.55502708916441 "/>
    <path id="path-57" opacity="1" fill-rule="evenodd" d="M159.4894466170163,123.18302708916418 L162.4344466170163,123.50002708916419 L163.2754466170163,115.66302708916419 L160.33044661701632,115.34602708916418 "/>
    <path id="path-58" opacity="1" fill-rule="evenodd" d="M177.9554466170163,85.62302708916428 L187.71444661701628,85.96502708916428 C191.86244661701627,85.96502708916428 195.22444661701627,82.60202708916428 195.22444661701627,78.45502708916428 L195.22444661701627,70.41402708916428 L177.9554466170163,70.0720270891643 "/>
    <path id="path-59" opacity="1" fill-rule="evenodd" d="M168.46744661701663,121.06902708916444 L158.7724466170166,120.47502708916443 L159.0694466170166,115.62902708916442 C160.83644661701663,86.79102708916443 164.16844661701663,83.46002708916443 165.26344661701663,82.36402708916442 C169.1174466170166,78.51002708916442 179.65544661701662,76.64702708916442 184.00744661701663,76.02502708916444 L188.81244661701663,75.34002708916444 L190.18744661701663,84.95002708916442 L185.38244661701663,85.63902708916443 C180.01244661701662,86.41102708916443 174.05644661701663,87.99902708916443 172.34644661701662,89.08402708916442 C171.00244661701663,92.20402708916443 169.43044661701663,105.36002708916443 168.76444661701663,116.22202708916443 "/>
    <path id="path-60" opacity="1" fill-rule="evenodd" d="M180.17444661701643,53.40802708916425 C181.65844661701644,50.73602708916425 180.52444661701642,47.61602708916425 184.85744661701642,46.22602708916426 C185.39944661701642,46.052027089164255 187.69044661701642,45.385027089164254 187.69044661701642,45.385027089164254 C187.69044661701642,45.385027089164254 190.0044466170164,43.49902708916426 191.52944661701642,43.276027089164245 C192.5814466170164,43.12302708916425 194.16744661701642,42.74202708916425 194.16744661701642,42.74202708916425 C194.16744661701642,42.74202708916425 194.62444661701642,44.19202708916427 195.04944661701643,44.38802708916427 C195.5404466170164,44.61502708916424 197.33044661701643,44.99702708916425 197.74444661701642,45.31802708916425 C199.9324466170164,47.010027089164254 200.44644661701642,49.17402708916427 200.68744661701643,51.34102708916427 C201.08444661701643,54.909027089164255 196.47144661701643,74.52002708916424 196.47144661701643,74.52002708916424 L195.76544661701644,76.02902708916426 L176.02644661701643,76.02902708916426 L175.7724466170164,74.52002708916424 "/>
    <path id="path-61" opacity="1" fill-rule="evenodd" d="M190.76844661701648,47.233027089164466 L191.34344661701647,47.233027089164466 C192.87944661701647,47.233027089164466 194.12544661701648,45.98702708916446 194.12544661701648,44.45002708916445 L194.12544661701648,35.73402708916444 L187.9854466170165,35.73402708916444 L187.9854466170165,44.45002708916445 "/>
    <path id="path-62" opacity="1" fill-rule="evenodd" d="M194.12544661701648,38.078027089164465 C193.3124466170165,40.185027089164464 191.54044661701647,43.433027089164455 187.9854466170165,44.233027089164466 L187.9854466170165,35.73402708916444 L193.53544661701648,35.73402708916444 L194.12544661701648,35.99302708916446 "/>
    <path id="path-63" opacity="1" fill-rule="evenodd" d="M188.6374466170166,26.609027089164414 L190.0304466170166,26.844027089164427 C192.8004466170166,27.310027089164436 194.6674466170166,29.933027089164426 194.2014466170166,32.703027089164436 L193.4024466170166,37.44902708916442 C192.9314466170166,40.25002708916443 190.27844661701658,42.13802708916444 187.4784466170166,41.667027089164435 L185.0054466170166,41.25102708916444 C182.8624466170166,40.89002708916442 181.4174466170166,38.86102708916442 181.77844661701658,36.71702708916442 L182.7774466170166,30.78102708916444 "/>
    <path id="path-64" opacity="1" fill-rule="evenodd" d="M191.51444661701674,36.001027089164126 C191.26344661701674,37.491027089164106 192.26844661701674,38.90202708916411 193.75844661701674,39.15302708916411 C195.24844661701673,39.40402708916412 196.65944661701673,38.39902708916412 196.91044661701673,36.90902708916411 C197.16044661701673,35.4190270891641 196.15644661701674,34.0080270891641 194.66644661701673,33.7580270891641 "/>
    <path id="path-65" opacity="1" fill-rule="evenodd" d="M183.36144661701613,24.27202708916448 C183.27744661701615,24.95202708916449 183.19444661701613,25.644027089164496 183.32244661701614,26.317027089164498 C183.44944661701615,26.989027089164495 183.82444661701615,27.651027089164472 184.44044661701614,27.95002708916448 C184.87444661701613,28.162027089164496 185.37644661701614,28.174027089164497 185.85944661701615,28.180027089164497 C186.59944661701613,28.191027089164493 187.33944661701614,28.20202708916449 188.07944661701615,28.21302708916448 C188.42344661701614,28.21802708916448 188.77944661701613,28.225027089164485 189.09244661701615,28.368027089164485 C189.70244661701614,28.644027089164492 189.98244661701614,29.33402708916449 190.36044661701615,29.886027089164486 C190.96244661701613,30.767027089164483 191.93544661701614,31.38502708916448 192.98844661701614,31.557027089164478 C193.32044661701613,32.67702708916448 193.48444661701615,33.999027089164485 193.12844661701615,35.112027089164485 L193.74344661701613,35.2160270891645 C193.93844661701613,34.47002708916449 194.91944661701615,33.89102708916448 195.67944661701614,34.01402708916447 C196.28444661701613,33.34902708916448 196.87444661701613,32.56902708916448 197.47944661701615,31.904027089164483 C197.76444661701615,31.591027089164495 198.05344661701614,31.27002708916447 198.23144661701613,30.885027089164478 C198.40744661701615,30.505027089164482 198.46344661701613,30.081027089164476 198.48744661701613,29.66302708916447 C198.54344661701614,28.660027089164487 198.41244661701614,27.628027089164476 197.96544661701614,26.72802708916447 C197.51844661701614,25.829027089164498 196.72944661701615,25.074027089164474 195.76244661701614,24.802027089164483 C194.98444661701615,24.585027089164498 194.83844661701613,23.665027089164482 194.22344661701615,23.14102708916448 C193.08944661701614,22.179027089164492 191.38944661701615,21.941027089164493 190.03444661701613,22.556027089164473 C189.68444661701614,22.153027089164482 189.27044661701615,21.779027089164487 188.83944661701614,21.463027089164484 C187.68544661701614,20.61502708916447 186.00844661701615,20.556027089164473 184.79744661701613,21.322027089164493 C184.60444661701615,21.44402708916448 184.42144661701613,21.586027089164475 184.26744661701613,21.755027089164486 "/>
    <path id="path-66" opacity="1" fill-rule="evenodd" d="M185.1614466170159,37.00402708916431 L188.2064466170159,36.7520270891643 C188.2064466170159,36.7520270891643 187.47344661701592,38.261027089164315 186.51344661701592,38.265027089164306 "/>
    <path id="path-67" opacity="1" fill-rule="evenodd" d="M186.78944661701703,32.86502708916433 C186.73844661701702,33.166027089164345 186.94144661701702,33.45002708916434 187.24144661701703,33.50102708916435 C187.54244661701702,33.551027089164336 187.826446617017,33.34902708916434 187.87744661701703,33.049027089164355 C187.927446617017,32.74802708916434 187.725446617017,32.46402708916435 187.42444661701703,32.41302708916433 "/>
    <path id="path-68" opacity="1" fill-rule="evenodd" d="M182.9814466170165,32.22402708916417 C182.93144661701652,32.52502708916418 183.13344661701652,32.809027089164175 183.4344466170165,32.86002708916416 C183.73444661701652,32.91102708916418 184.0194466170165,32.708027089164176 184.0694466170165,32.408027089164165 C184.1204466170165,32.10702708916418 183.9174466170165,31.823027089164185 183.6174466170165,31.77202708916417 "/>
    <path id="path-69" opacity="1" fill-rule="evenodd" d="M189.00544661701608,44.12402708916443 L194.5564466170161,44.36602708916442 L193.11744661701607,47.00902708916442 L186.7694466170161,50.87402708916443 L186.8764466170161,46.953027089164436 "/>
    <path id="path-70" opacity="1" fill-rule="evenodd" d="M165.05144661701578,68.0660270891643 L144.5094466170158,68.0660270891643 L144.5094466170158,66.5600270891643 L165.05144661701578,66.5600270891643 C165.4674466170158,66.5600270891643 165.8044466170158,66.89702708916428 165.8044466170158,67.31302708916428 "/>
    <path id="path-71" opacity="1" fill-rule="evenodd" d="M159.41644661701613,68.06602708916444 L139.60744661701614,68.06602708916444 C138.73144661701613,68.06602708916444 137.96444661701614,67.47602708916443 137.73944661701614,66.63002708916443 L134.24444661701614,53.45802708916443 C133.91844661701614,52.23202708916443 134.84244661701615,51.030027089164435 136.11144661701613,51.030027089164435 L153.40844661701612,51.030027089164435 C154.28444661701613,51.030027089164435 155.05044661701615,51.62002708916444 155.27544661701614,52.46702708916442 "/>
    <path id="path-72" opacity="1" fill-rule="evenodd" d="M136.11144661701653,51.03002708916432 C134.84244661701655,51.03002708916432 133.91844661701654,52.23202708916432 134.24444661701654,53.45802708916432 L137.74044661701654,66.63002708916432 C137.84744661701654,67.03602708916432 138.08244661701653,67.38102708916432 138.39244661701653,67.63202708916432 L150.43344661701653,51.03002708916432 "/>
    <path id="path-73" opacity="1" fill-rule="evenodd" d="M147.75044661701625,60.71502708916424 C147.96744661701626,61.57402708916422 147.42644661701624,62.270027089164216 146.54244661701625,62.270027089164216 C145.65844661701624,62.270027089164216 144.76644661701624,61.57402708916422 144.54944661701626,60.71502708916424 C144.33244661701625,59.855027089164224 144.87344661701624,59.159027089164226 145.75744661701626,59.159027089164226 "/>
    <path id="path-74" opacity="1" fill-rule="evenodd" d="M194.1794466170164,42.67302708916441 C194.1794466170164,42.67302708916441 191.1464466170164,44.67002708916439 188.0024466170164,43.58002708916439 L187.8464466170164,45.1360270891644 L186.8524466170164,47.03302708916439 L188.84344661701638,44.51302708916441 L190.2714466170164,47.492027089164395 L194.87344661701638,44.27102708916439 "/>
    <path id="path-75" opacity="1" fill-rule="evenodd" d="M168.81144661701694,66.37502708916443 C169.80944661701693,66.57502708916442 170.90544661701693,66.64702708916442 171.78744661701694,66.13902708916441 C172.66944661701694,65.63302708916441 171.69044661701693,64.17102708916443 171.06644661701694,63.36602708916442 C169.83444661701694,63.55102708916442 168.74744661701695,62.63002708916443 167.59444661701693,62.157027089164416 C166.89544661701694,61.871027089164414 166.14044661701695,61.74702708916442 165.38944661701694,61.65802708916442 C164.42744661701693,61.544027089164416 163.44544661701693,61.48402708916444 162.49444661701693,61.66802708916444 C161.54244661701694,61.85202708916444 160.61544661701694,62.30302708916443 160.01144661701693,63.06102708916444 C159.87044661701694,63.23902708916444 159.92644661701692,63.46402708916443 160.14344661701693,63.52902708916443 C160.36044661701695,63.59402708916443 160.58844661701693,63.49402708916443 160.79844661701694,63.40802708916442 C161.45744661701693,63.137027089164434 162.16644661701693,62.99302708916443 162.87744661701694,62.98302708916444 C163.00644661701693,62.98202708916443 163.04044661701693,63.20602708916442 162.91344661701694,63.22602708916443 C161.05244661701693,63.536027089164435 160.36744661701692,64.46502708916444 160.37044661701694,64.56602708916444 C160.37344661701692,64.67702708916443 160.48744661701693,64.75102708916444 160.59444661701693,64.77902708916443 C160.78744661701694,64.83102708916442 161.18744661701695,64.63202708916444 161.37744661701694,64.57102708916443 C162.18444661701693,64.31502708916443 162.82044661701693,64.40602708916444 162.82044661701693,64.40602708916444 C162.82044661701693,64.40602708916444 163.50644661701693,64.64502708916442 161.55044661701695,65.02102708916442 C161.31044661701694,65.06702708916444 161.05044661701695,65.14902708916443 160.91644661701693,65.35302708916444 L160.87044661701694,65.47202708916444 L160.91044661701693,65.62002708916444 C160.99044661701694,65.75602708916443 161.14244661701693,65.83702708916442 161.29744661701693,65.86702708916442 C161.45244661701693,65.89702708916442 161.61244661701693,65.88402708916442 161.77044661701694,65.86902708916443 C162.54144661701693,65.80002708916442 163.31344661701692,65.73002708916442 164.08544661701694,65.66102708916443 C163.86944661701693,65.72402708916442 162.42844661701693,65.99502708916444 162.24444661701693,66.12702708916441 L162.09244661701695,66.33302708916443 C162.08444661701694,66.46302708916443 162.22344661701695,66.54802708916444 162.34444661701693,66.59502708916443 C163.15844661701692,66.91802708916444 165.27844661701693,66.77002708916442 166.15044661701694,66.68802708916442 "/>
    <path id="path-76" opacity="1" fill-rule="evenodd" d="M188.0424466170159,47.212027089164366 C188.0424466170159,47.212027089164366 187.3094466170159,49.12402708916437 186.8674466170159,50.813027089164365 L188.52044661701592,49.807027089164364 L188.4474466170159,47.45502708916436 L190.22844661701592,46.079027089164384 L189.4764466170159,44.14402708916438 L189.0054466170159,44.12402708916437 C188.97844661701592,44.36602708916436 187.4694466170159,46.19902708916436 187.4694466170159,46.19902708916436 "/>
    <path id="path-77" opacity="1" fill-rule="evenodd" d="M196.50244661701674,44.86602708916428 C195.15044661701674,47.52002708916427 194.26444661701674,50.31302708916428 193.88644661701673,53.26702708916429 C193.59444661701673,55.5550270891643 193.66944661701675,58.87802708916428 192.56544661701673,60.9480270891643 C191.90244661701675,62.1920270891643 188.72244661701674,61.618027089164286 187.32144661701673,61.77602708916427 C181.95644661701672,62.38302708916427 176.92544661701675,61.856027089164286 171.52844661701673,62.0250270891643 C170.97844661701674,62.0430270891643 170.35544661701672,62.0910270891643 170.00644661701673,62.51702708916429 C169.82244661701674,62.74202708916428 169.74944661701673,63.03602708916429 169.69444661701672,63.32102708916429 C169.47644661701673,64.44902708916428 169.44644661701673,65.61202708916429 169.60644661701673,66.74902708916429 C170.56944661701672,67.34202708916428 171.84044661701674,67.1380270891643 172.96544661701674,67.2570270891643 C179.86844661701673,67.98702708916429 185.97844661701674,68.9180270891643 192.37544661701673,68.6620270891643 C194.46644661701674,68.5780270891643 196.70844661701673,68.4420270891643 198.36244661701673,67.15902708916428 C200.13944661701674,65.77902708916429 200.57644661701673,61.23602708916428 200.88644661701673,59.00902708916428 C201.14244661701673,57.1680270891643 201.23744661701673,55.30402708916429 201.16844661701674,53.4480270891643 C201.10344661701674,51.675027089164274 200.88144661701673,49.87802708916428 200.16044661701673,48.25802708916427 "/>
    <path id="path-78" opacity="1" fill-rule="evenodd" d="M71.96244661701603,112.66402708916428 L76.18044661701602,120.88902708916427 L78.64444661701603,123.36502708916427 C78.64444661701603,123.36502708916427 77.15444661701602,123.87802708916428 75.58644661701602,123.62002708916427 C74.01944661701603,123.36202708916427 72.64544661701602,122.72102708916427 72.64544661701602,122.72102708916427 L68.28444661701603,116.33502708916427 L67.67144661701602,113.03102708916427 "/>
    <path id="path-79" opacity="1" fill-rule="evenodd" d="M56.776446617016504,112.1990270891643 L57.65344661701651,120.8890270891643 L60.11644661701651,123.3650270891643 C60.11644661701651,123.3650270891643 58.62644661701651,123.8780270891643 57.059446617016505,123.6200270891643 C55.49144661701651,123.3620270891643 54.1184466170165,122.7210270891643 54.1184466170165,122.7210270891643 L53.09944661701651,115.8690270891643 L52.48544661701651,112.56602708916431 "/>
    <path id="path-80" opacity="1" fill-rule="evenodd" d="M22.31644661701663,30.89002708916425 C23.22644661701663,33.80902708916426 21.597446617016637,36.913027089164245 18.678446617016633,37.82302708916427 C15.759446617016636,38.73202708916426 12.656446617016634,37.10302708916424 11.74644661701663,34.18402708916426 C10.836446617016634,31.26502708916425 12.465446617016632,28.16202708916427 15.384446617016636,27.25302708916425 "/>
    <path id="path-81" opacity="1" fill-rule="evenodd" d="M68.05644661701615,117.6450270891642 L65.79344661701614,113.3480270891642 C60.114446617016156,102.5650270891642 53.50844661701615,90.5340270891642 51.287446617016144,87.18502708916421 C48.051446617016154,86.4740270891642 38.174446617016145,85.6380270891642 29.95844661701615,85.2190270891642 L25.109446617016147,84.9720270891642 L25.603446617016154,75.2730270891642 L30.453446617016155,75.52002708916419 C54.192446617016145,76.7300270891642 56.18744661701615,78.3930270891642 57.37844661701615,79.3860270891642 C58.18144661701615,80.0550270891642 73.41744661701615,115.1310270891642 73.41744661701615,115.1310270891642 L68.05644661701615,117.6450270891642Z"/>
    <path id="path-82" opacity="1" fill-rule="evenodd" d="M52.32444661701653,116.78502708916426 C51.69444661701653,115.20002708916427 50.81944661701653,106.44602708916426 50.06844661701653,105.15302708916425 C44.21744661701653,95.07702708916426 46.30444661701653,92.07502708916425 45.08544661701652,89.58702708916425 C42.96544661701653,88.38602708916426 34.81344661701653,86.49802708916425 27.068446617016527,85.43902708916426 L22.257446617016527,84.78202708916426 L23.571446617016527,75.16002708916426 L28.382446617016534,75.81602708916427 C37.22744661701653,77.02302708916426 48.51544661701653,79.20502708916426 52.05444661701653,82.74502708916425 C54.97044661701653,85.66202708916425 57.246446617016524,116.51102708916426 57.246446617016524,116.51102708916426 "/>
    <path id="path-83" opacity="1" fill-rule="evenodd" d="M26.965446617016468,31.399027089164235 C27.637446617016465,33.55502708916424 26.434446617016462,35.84702708916424 24.278446617016463,36.51902708916424 C22.122446617016465,37.19102708916424 19.830446617016463,35.98902708916424 19.158446617016466,33.83302708916423 C18.486446617016462,31.676027089164222 19.689446617016465,29.38402708916422 21.845446617016464,28.71302708916423 "/>
    <path id="path-84" opacity="1" fill-rule="evenodd" d="M25.94244661701638,47.60302708916407 L25.372446617016386,47.52702708916405 C23.849446617016383,47.32402708916405 22.778446617016385,45.92502708916405 22.98144661701638,44.401027089164046 L24.131446617016387,35.76102708916406 L30.21844661701639,36.57202708916407 L29.068446617016384,45.21202708916405 "/>
    <path id="path-85" opacity="1" fill-rule="evenodd" d="M29.09644661701575,44.99702708916428 C25.678446617015744,43.73502708916428 24.35044661701575,40.28202708916427 23.822446617015743,38.0850270891643 L24.09744661701575,36.01802708916429 L24.717446617015746,35.83902708916429 L30.21844661701575,36.572027089164294 "/>
    <path id="path-86" opacity="1" fill-rule="evenodd" d="M27.36044661701652,27.06802708916436 L26.011446617016517,27.488027089164376 C23.33044661701652,28.32402708916436 21.83344661701652,31.17502708916436 22.66944661701652,33.857027089164376 L24.10144661701652,38.45102708916437 C24.94644661701652,41.16302708916436 27.83044661701652,42.67502708916436 30.54144661701652,41.831027089164365 L32.935446617016524,41.085027089164385 C35.00944661701652,40.438027089164365 36.16744661701652,38.232027089164376 35.52044661701652,36.158027089164364 L33.728446617016516,30.410027089164373 "/>
    <path id="path-87" opacity="1" fill-rule="evenodd" d="M26.946446617016605,46.74802708916437 C32.1454466170166,48.89402708916438 38.15244661701661,52.10602708916437 43.6714466170166,53.190027089164374 C46.2344466170166,53.694027089164365 48.92344661701661,51.05002708916436 50.4394466170166,48.92402708916438 C52.211446617016605,46.43902708916437 52.94144661701661,45.39202708916437 54.70644661701661,43.62702708916436 C55.43544661701661,43.77602708916436 57.57844661701661,45.08602708916436 58.24244661701661,45.533027089164364 C56.452446617016605,49.10202708916438 54.65344661701661,52.682027089164364 52.64644661701661,56.13402708916436 C52.2044466170166,56.89502708916436 51.74444661701661,57.66802708916438 51.0794466170166,58.24302708916437 C50.1574466170166,59.04102708916437 48.93544661701661,59.38302708916436 47.74444661701661,59.64202708916437 C44.3114466170166,60.39002708916436 35.3294466170166,60.36802708916437 35.3294466170166,60.36802708916437 C35.3294466170166,60.36802708916437 35.20044661701661,58.936027089164384 35.10244661701661,58.39602708916436 C34.6954466170166,56.14402708916438 34.080446617016605,53.89602708916436 32.9034466170166,51.932027089164364 C31.72744661701661,49.96902708916437 29.93544661701661,48.303027089164374 27.743446617016602,47.64402708916438 "/>
    <path id="path-88" opacity="1" fill-rule="evenodd" d="M58.298446617016324,44.00602708916429 C58.63144661701632,43.77302708916429 59.00244661701632,43.59902708916428 59.331446617016326,43.36102708916428 C60.287446617016315,42.66502708916428 60.77944661701632,41.489027089164296 61.00544661701632,40.3290270891643 C61.14744661701633,39.602027089164295 61.19644661701632,38.8170270891643 60.86844661701632,38.15402708916429 L60.709446617016326,37.959027089164294 C60.56544661701632,37.88002708916429 60.38944661701632,37.969027089164285 60.25044661701632,38.056027089164274 C59.462446617016326,38.550027089164274 58.674446617016315,39.044027089164274 57.88644661701632,39.538027089164274 C57.48744661701632,39.788027089164274 57.079446617016316,40.04602708916428 56.793446617016315,40.42002708916428 C56.10944661701632,41.31502708916429 56.304446617016325,42.580027089164275 56.03844661701632,43.675027089164274 C55.971446617016326,43.9480270891643 55.85544661701633,44.23802708916429 55.60844661701633,44.37402708916429 C55.51644661701633,44.4240270891643 55.406446617016314,44.453027089164294 55.34144661701632,44.53602708916429 C55.28244661701632,44.61002708916428 55.27344661701632,44.713027089164285 55.283446617016324,44.806027089164274 C55.34544661701632,45.39002708916428 56.195446617016316,45.983027089164295 56.76944661701633,45.77002708916427 "/>
    <path id="path-89" opacity="1" fill-rule="evenodd" d="M55.384446617015755,41.774027089164434 L66.73244661701575,41.774027089164434 L66.73244661701575,28.858027089164437 L55.384446617015755,28.858027089164437 L55.384446617015755,41.774027089164434Z"/>
    <path id="path-90" opacity="1" fill-rule="evenodd" d="M56.25944661701622,38.92002708916419 C56.36144661701623,38.73302708916421 56.50444661701623,38.53102708916421 56.71644661701622,38.5160270891642 C56.923446617016225,38.50302708916419 57.10044661701622,38.688027089164194 57.15144661701622,38.88802708916421 C57.203446617016226,39.089027089164205 57.161446617016225,39.30002708916419 57.12244661701622,39.5040270891642 C56.85644661701622,40.92002708916419 56.768446617016224,42.37002708916421 56.85944661701622,43.8080270891642 C56.87744661701622,44.095027089164205 56.902446617016224,44.38902708916419 56.83544661701622,44.67002708916419 C56.768446617016224,44.950027089164195 56.59044661701623,45.222027089164214 56.31844661701622,45.319027089164194 "/>
    <path id="path-91" opacity="1" fill-rule="evenodd" d="M25.777446617016402,36.761027089164344 C26.2264466170164,38.204027089164356 25.4214466170164,39.73802708916435 23.9794466170164,40.18702708916433 C22.5374466170164,40.63702708916435 21.002446617016396,39.83302708916435 20.553446617016398,38.38902708916433 C20.103446617016402,36.94702708916435 20.908446617016402,35.414027089164335 22.3514466170164,34.96402708916435 "/>
    <path id="path-92" opacity="1" fill-rule="evenodd" d="M33.54744661701703,36.651027089164245 L29.83644661701703,36.84702708916427 C29.83644661701703,36.84702708916427 30.967446617017032,38.546027089164255 32.12444661701703,38.39302708916426 "/>
    <path id="path-93" opacity="1" fill-rule="evenodd" d="M32.7514466170165,32.21702708916436 C32.84244661701649,32.50702708916438 32.679446617016495,32.81602708916438 32.38944661701649,32.90702708916436 C32.09844661701649,32.99802708916437 31.789446617016495,32.83602708916436 31.698446617016486,32.545027089164364 C31.607446617016492,32.25402708916437 31.77044661701649,31.944027089164365 32.060446617016495,31.853027089164357 "/>
    <path id="path-94" opacity="1" fill-rule="evenodd" d="M19.912446617016563,81.22502708916437 C19.583446617016563,83.65002708916437 21.46244661701656,85.80902708916437 23.91044661701656,85.80902708916437 L43.795446617016566,85.80902708916437 C43.24944661701656,83.04702708916437 40.781446617016556,79.05702708916438 39.96744661701656,75.93402708916437 L20.951446617016565,75.93402708916437 "/>
    <path id="path-95" opacity="1" fill-rule="evenodd" d="M21.094446617016935,27.8260270891642 C17.753446617016934,31.631027089164206 19.930446617016933,34.90502708916421 20.973446617016933,35.97302708916419 C21.18544661701693,35.5290270891642 21.60544661701693,35.2910270891642 22.08744661701693,35.14902708916421 C22.56844661701693,35.00902708916419 23.077446617016932,35.00302708916419 23.577446617016932,34.9980270891642 C24.46244661701693,34.99102708916419 25.451446617016934,34.37702708916419 26.213446617016928,33.92302708916421 C27.706446617016937,33.0350270891642 29.12644661701694,31.97302708916419 30.153446617016925,30.59602708916421 C30.622446617016934,29.968027089164195 31.55644661701693,27.528027089164198 31.55644661701693,27.528027089164198 C31.55644661701693,27.528027089164198 30.015446617016934,26.2960270891642 29.208446617016932,26.08402708916421 "/>
    <path id="path-96" opacity="1" fill-rule="evenodd" d="M27.36044661701635,27.068027089164275 L26.011446617016347,27.48802708916429 C23.33044661701635,28.324027089164275 21.83344661701635,31.175027089164274 22.669446617016348,33.85702708916429 L23.030446617016352,35.01502708916428 C23.212446617016347,35.00802708916427 23.395446617016347,35.00002708916429 23.57744661701635,34.99802708916428 C24.462446617016347,34.99102708916428 25.45144661701635,34.37702708916427 26.213446617016345,33.9240270891643 C27.706446617016354,33.03502708916429 29.126446617016356,31.973027089164276 30.153446617016343,30.596027089164295 C30.76844661701635,29.772027089164283 31.504446617016356,28.8470270891643 31.944446617016354,27.883027089164273 "/>
    <path id="path-97" opacity="1" fill-rule="evenodd" d="M36.64444661701635,54.48802708916426 C35.16044661701634,51.816027089164265 29.12744661701634,46.46602708916427 29.12744661701634,46.46602708916427 C29.12744661701634,46.46602708916427 26.814446617016337,44.57902708916427 25.290446617016343,44.35602708916426 C24.23744661701634,44.203027089164266 22.650446617016343,43.82302708916427 22.650446617016343,43.82302708916427 C22.650446617016343,43.82302708916427 22.193446617016342,45.272027089164254 21.769446617016342,45.46802708916425 C21.27944661701634,45.695027089164256 19.488446617016344,46.07702708916426 19.074446617016342,46.39802708916426 C16.88644661701634,48.09202708916425 16.372446617016344,50.25402708916425 16.131446617016344,52.42202708916426 C15.734446617016339,55.98902708916427 20.347446617016345,75.60002708916426 20.347446617016345,75.60002708916426 L21.05344661701634,77.10902708916427 L40.16344661701634,76.50002708916426 L39.810446617016346,74.83902708916426 C39.18744661701634,72.99102708916425 38.293446617016336,70.18002708916427 37.90744661701634,67.71002708916427 "/>
    <path id="path-98" opacity="1" fill-rule="evenodd" d="M48.007446617017095,67.4550270891643 C47.010446617017095,67.65502708916432 45.91344661701709,67.72702708916432 45.03144661701708,67.22002708916432 C44.14944661701709,66.71302708916431 45.12844661701709,65.25102708916432 45.752446617017085,64.44702708916432 C46.984446617017085,64.63202708916432 48.07144661701709,63.71002708916433 49.225446617017084,63.237027089164314 C49.92444661701708,62.95102708916431 50.67844661701709,62.82702708916432 51.42944661701709,62.73802708916432 C52.391446617017095,62.624027089164315 53.373446617017095,62.56402708916431 54.32444661701709,62.749027089164315 C55.275446617017096,62.93302708916431 56.20344661701709,63.384027089164306 56.80744661701709,64.14102708916431 C56.94844661701708,64.31902708916431 56.89344661701709,64.5440270891643 56.67544661701709,64.60902708916433 C56.45844661701709,64.6750270891643 56.230446617017094,64.5740270891643 56.020446617017086,64.48802708916432 C55.362446617017085,64.2170270891643 54.65244661701709,64.07302708916433 53.94144661701709,64.06402708916431 C53.81244661701709,64.0620270891643 53.778446617017096,64.28602708916432 53.90544661701709,64.30702708916431 C55.767446617017086,64.6160270891643 56.45144661701708,65.54502708916431 56.44944661701709,65.64702708916431 C56.44644661701709,65.7580270891643 56.33144661701709,65.83102708916431 56.224446617017094,65.85902708916433 C56.03144661701708,65.91102708916432 55.632446617017095,65.71202708916431 55.44144661701709,65.6510270891643 C54.63444661701709,65.3950270891643 53.998446617017095,65.48702708916431 53.998446617017095,65.48702708916431 C53.998446617017095,65.48702708916431 53.31244661701709,65.72602708916432 55.26844661701709,66.10102708916432 C55.50944661701709,66.14702708916431 55.76844661701709,66.2290270891643 55.90244661701709,66.43402708916432 L55.94944661701709,66.55302708916432 L55.90944661701708,66.70002708916431 C55.829446617017084,66.83702708916431 55.67644661701709,66.91802708916433 55.52144661701709,66.94702708916432 C55.36644661701709,66.97702708916432 55.20644661701709,66.96402708916432 55.04944661701708,66.9490270891643 C54.27744661701709,66.88002708916432 53.504446617017095,66.81002708916432 52.73244661701709,66.7410270891643 C52.95044661701709,66.80402708916432 54.39044661701709,67.07602708916431 54.57444661701709,67.20702708916431 L54.72644661701709,67.4130270891643 C54.734446617017085,67.54302708916433 54.59544661701709,67.6280270891643 54.474446617017094,67.6750270891643 C53.66044661701709,67.99802708916431 51.53944661701709,67.85002708916431 50.66844661701708,67.76802708916432 "/>
    <path id="path-99" opacity="1" fill-rule="evenodd" d="M20.31644661701602,45.946027089164204 C21.668446617016023,48.6000270891642 22.555446617016024,51.39302708916421 22.93244661701602,54.347027089164214 C23.22444661701602,56.6350270891642 23.149446617016025,59.95902708916421 24.253446617016024,62.0280270891642 C24.91644661701602,63.2720270891642 28.09744661701602,62.69802708916421 29.497446617016024,62.8560270891642 C34.86244661701602,63.4630270891642 39.893446617016025,62.93602708916421 45.290446617016016,63.105027089164196 C45.84144661701602,63.1230270891642 46.46344661701602,63.1710270891642 46.81244661701602,63.597027089164214 C46.99644661701602,63.82202708916421 47.06844661701602,64.11602708916419 47.12444661701602,64.40102708916419 C47.34244661701603,65.5290270891642 47.372446617016024,66.69202708916421 47.21244661701603,67.82902708916421 C46.24944661701602,68.4220270891642 44.97844661701602,68.2180270891642 43.85444661701602,68.3370270891642 C36.95044661701603,69.06702708916421 30.840446617016028,69.9990270891642 24.443446617016022,69.7420270891642 C22.35244661701602,69.6590270891642 20.110446617016024,69.5220270891642 18.45644661701602,68.23902708916421 C16.67944661701602,66.86002708916419 16.24344661701602,62.31602708916421 15.933446617016024,60.089027089164205 C15.676446617016019,58.2480270891642 15.58144661701602,56.38402708916419 15.650446617016023,54.5280270891642 C15.71544661701602,52.756027089164206 15.937446617016022,50.958027089164204 16.658446617016025,49.3380270891642 "/>
    <path id="path-100" opacity="1" fill-rule="evenodd" d="M22.134446617015897,45.15202708916436 C21.965446617015893,44.99202708916437 23.196446617015894,42.62602708916438 23.196446617015894,42.62602708916438 C23.196446617015894,42.62602708916438 27.9354466170159,44.74102708916436 29.422446617015893,44.974027089164366 L30.535446617015893,48.30002708916436 "/>
    <path id="path-101" opacity="1" fill-rule="evenodd" d="M76.1804466170164,120.8890270891643 L78.64444661701641,123.3650270891643 L82.3654466170164,124.8660270891643 C84.21444661701639,125.5240270891643 83.59044661701641,126.4490270891643 83.59044661701641,126.4490270891643 L73.5504466170164,126.1280270891643 L72.6454466170164,122.7210270891643 "/>
    <path id="path-102" opacity="1" fill-rule="evenodd" d="M57.65344661701637,120.8890270891643 L60.116446617016365,123.3650270891643 L63.83844661701636,124.8660270891643 C65.68744661701636,125.5240270891643 65.06244661701636,126.4490270891643 65.06244661701636,126.4490270891643 L55.02344661701636,126.1280270891643 L54.11844661701636,122.7210270891643 "/>
    <path id="path-103" opacity="1" fill-rule="evenodd" d="M58.526446617016845,68.0660270891643 L79.06844661701685,68.0660270891643 L79.06844661701685,66.5600270891643 L58.526446617016845,66.5600270891643 C58.11144661701685,66.5600270891643 57.773446617016845,66.89702708916428 57.773446617016845,67.31302708916428 "/>
    <path id="path-104" opacity="1" fill-rule="evenodd" d="M64.16244661701617,68.06602708916444 L83.97144661701618,68.06602708916444 C84.84744661701617,68.06602708916444 85.61344661701618,67.47602708916443 85.83844661701617,66.63002708916443 L89.33444661701618,53.45802708916443 C89.66044661701618,52.23202708916443 88.73544661701618,51.030027089164435 87.46744661701618,51.030027089164435 L70.17044661701618,51.030027089164435 C69.29444661701618,51.030027089164435 68.52744661701618,51.62002708916444 68.30344661701618,52.46702708916442 "/>
    <path id="path-105" opacity="1" fill-rule="evenodd" d="M87.46744661701626,51.03002708916432 C88.73544661701627,51.03002708916432 89.66044661701626,52.23202708916432 89.33444661701627,53.45802708916432 L85.83844661701626,66.63002708916432 C85.73044661701627,67.03602708916432 85.49644661701626,67.38102708916432 85.18644661701626,67.63202708916432 L73.14544661701626,51.03002708916432 "/>
    <path id="path-106" opacity="1" fill-rule="evenodd" d="M75.82844661701668,60.71502708916424 C75.61144661701668,61.57402708916422 76.15144661701667,62.270027089164216 77.03544661701667,62.270027089164216 C77.91944661701667,62.270027089164216 78.81244661701668,61.57402708916422 79.02944661701667,60.71502708916424 C79.24644661701667,59.855027089164224 78.70544661701668,59.159027089164226 77.82144661701668,59.159027089164226 "/>
    <path id="path-107" opacity="1" fill-rule="evenodd" d="M58.212446617016354,127.69802708916428 L61.450446617016354,127.69802708916428 L61.450446617016354,70.08202708916428 L58.212446617016354,70.08202708916428 L58.212446617016354,127.69802708916428Z"/>
    <path id="path-108" opacity="1" fill-rule="evenodd" d="M158.7514466170161,127.69802708916428 L161.98944661701609,127.69802708916428 L161.98944661701609,70.08202708916428 L158.7514466170161,70.08202708916428 L158.7514466170161,127.69802708916428Z"/>
    <path id="path-109" opacity="1" fill-rule="evenodd" d="M41.88044661701669,73.3300270891643 L178.3214466170167,73.3300270891643 L178.3214466170167,68.14902708916429 L41.88044661701669,68.14902708916429 L41.88044661701669,73.3300270891643Z"/>
  </defs>
  <g opacity="1">
    <g opacity="1">
      <use xlink:href="#path-0" fill="rgb(40,27,33)" fill-opacity="1"/>
    </g>
    <g opacity="1">
      <use xlink:href="#path-1" fill="rgb(222,154,166)" fill-opacity="1"/>
    </g>
    <g opacity="1">
      <use xlink:href="#path-2" fill="rgb(222,154,166)" fill-opacity="1"/>
    </g>
    <g opacity="1">
      <use xlink:href="#path-3" fill="rgb(210,173,177)" fill-opacity="1"/>
    </g>
    <g opacity="1">
      <use xlink:href="#path-4" fill="rgb(206,138,151)" fill-opacity="1"/>
    </g>
    <g opacity="1">
      <use xlink:href="#path-5" fill="rgb(206,138,151)" fill-opacity="1"/>
    </g>
    <g opacity="1">
      <use xlink:href="#path-6" fill="rgb(222,154,166)" fill-opacity="1"/>
    </g>
    <g opacity="1">
      <use xlink:href="#path-7" fill="rgb(222,154,166)" fill-opacity="1"/>
    </g>
    <g opacity="1">
      <use xlink:href="#path-8" fill="rgb(255,255,254)" fill-opacity="1"/>
    </g>
    <g opacity="1">
      <use xlink:href="#path-9" fill="rgb(45,39,63)" fill-opacity="1"/>
    </g>
    <g opacity="1">
      <use xlink:href="#path-10" fill="rgb(222,154,166)" fill-opacity="1"/>
    </g>
    <g opacity="1">
      <use xlink:href="#path-11" fill="rgb(222,154,166)" fill-opacity="1"/>
    </g>
    <g opacity="1">
      <use xlink:href="#path-12" fill="rgb(222,154,166)" fill-opacity="1"/>
    </g>
    <g opacity="1">
      <use xlink:href="#path-13" fill="rgb(222,154,166)" fill-opacity="1"/>
    </g>
    <g opacity="1">
      <use xlink:href="#path-14" fill="rgb(62,57,86)" fill-opacity="1"/>
    </g>
    <g opacity="1">
      <use xlink:href="#path-15" fill="rgb(222,154,166)" fill-opacity="1"/>
    </g>
    <g opacity="1">
      <use xlink:href="#path-16" fill="rgb(194,83,75)" fill-opacity="1"/>
    </g>
    <g opacity="1">
      <use xlink:href="#path-17" fill="rgb(222,154,166)" fill-opacity="1"/>
    </g>
    <g opacity="1">
      <use xlink:href="#path-18" fill="rgb(191,129,80)" fill-opacity="1"/>
    </g>
    <g opacity="1">
      <use xlink:href="#path-19" fill="rgb(222,154,166)" fill-opacity="1"/>
    </g>
    <g opacity="1">
      <use xlink:href="#path-20" fill="rgb(45,39,63)" fill-opacity="1"/>
    </g>
    <g opacity="1">
      <use xlink:href="#path-21" fill="rgb(40,27,33)" fill-opacity="1"/>
    </g>
    <g opacity="1">
      <use xlink:href="#path-22" fill="rgb(100,41,51)" fill-opacity="1"/>
    </g>
    <g opacity="1">
      <use xlink:href="#path-23" fill="rgb(194,83,75)" fill-opacity="1"/>
    </g>
    <g opacity="1">
      <use xlink:href="#path-24" fill="rgb(207,211,216)" fill-opacity="1"/>
    </g>
    <g opacity="1">
      <use xlink:href="#path-25" fill="rgb(225,230,232)" fill-opacity="1"/>
    </g>
    <g opacity="1">
      <use xlink:href="#path-26" fill="rgb(225,230,232)" fill-opacity="1"/>
    </g>
    <g opacity="1">
      <use xlink:href="#path-27" fill="rgb(225,230,232)" fill-opacity="1"/>
    </g>
    <g opacity="1">
      <use xlink:href="#path-28" fill="rgb(225,230,232)" fill-opacity="1"/>
    </g>
    <g opacity="1">
      <use xlink:href="#path-29" fill="rgb(100,41,51)" fill-opacity="1"/>
    </g>
    <g opacity="1">
      <use xlink:href="#path-30" fill="rgb(194,83,75)" fill-opacity="1"/>
    </g>
    <g opacity="1">
      <use xlink:href="#path-31" fill="rgb(207,211,216)" fill-opacity="1"/>
    </g>
    <g opacity="1">
      <use xlink:href="#path-32" fill="rgb(225,230,232)" fill-opacity="1"/>
    </g>
    <g opacity="1">
      <use xlink:href="#path-33" fill="rgb(225,230,232)" fill-opacity="1"/>
    </g>
    <g opacity="1">
      <use xlink:href="#path-34" fill="rgb(225,230,232)" fill-opacity="1"/>
    </g>
    <g opacity="1">
      <use xlink:href="#path-35" fill="rgb(225,230,232)" fill-opacity="1"/>
    </g>
    <g opacity="1">
      <use xlink:href="#path-36" fill="rgb(45,39,63)" fill-opacity="1"/>
    </g>
    <g opacity="1">
      <use xlink:href="#path-37" fill="rgb(128,132,150)" fill-opacity="1"/>
    </g>
    <g opacity="1">
      <use xlink:href="#path-38" fill="rgb(62,57,86)" fill-opacity="1"/>
    </g>
    <g opacity="1">
      <use xlink:href="#path-39" fill="rgb(188,185,198)" fill-opacity="1"/>
    </g>
    <g opacity="1">
      <use xlink:href="#path-40" fill="rgb(188,185,198)" fill-opacity="1"/>
    </g>
    <g opacity="1">
      <use xlink:href="#path-41" fill="rgb(45,39,63)" fill-opacity="1"/>
    </g>
    <g opacity="1">
      <use xlink:href="#path-42" fill="rgb(45,39,63)" fill-opacity="1"/>
    </g>
    <g opacity="1">
      <use xlink:href="#path-43" fill="rgb(45,39,63)" fill-opacity="1"/>
    </g>
    <g opacity="1">
      <use xlink:href="#path-44" fill="rgb(135,53,66)" fill-opacity="1"/>
    </g>
    <g opacity="1">
      <use xlink:href="#path-45" fill="rgb(135,53,66)" fill-opacity="1"/>
    </g>
    <g opacity="1">
      <use xlink:href="#path-46" fill="rgb(188,185,198)" fill-opacity="1"/>
    </g>
    <g opacity="1">
      <use xlink:href="#path-47" fill="rgb(188,185,198)" fill-opacity="1"/>
    </g>
    <g opacity="1">
      <use xlink:href="#path-48" fill="rgb(100,41,51)" fill-opacity="1"/>
    </g>
    <g opacity="1">
      <use xlink:href="#path-49" fill="rgb(100,41,51)" fill-opacity="1"/>
    </g>
    <g opacity="1">
      <use xlink:href="#path-50" fill="rgb(89,59,67)" fill-opacity="1"/>
    </g>
    <g opacity="1">
      <use xlink:href="#path-51" fill="rgb(255,255,254)" fill-opacity="1"/>
    </g>
    <g opacity="1">
      <use xlink:href="#path-52" fill="rgb(45,39,63)" fill-opacity="1"/>
    </g>
    <g opacity="1">
      <use xlink:href="#path-53" fill="rgb(222,154,166)" fill-opacity="1"/>
    </g>
    <g opacity="1">
      <use xlink:href="#path-54" fill="rgb(185,149,120)" fill-opacity="1"/>
    </g>
    <g opacity="1">
      <use xlink:href="#path-55" fill="rgb(45,39,63)" fill-opacity="1"/>
    </g>
    <g opacity="1">
      <use xlink:href="#path-56" fill="rgb(140,86,96)" fill-opacity="1"/>
    </g>
    <g opacity="1">
      <use xlink:href="#path-57" fill="rgb(222,154,166)" fill-opacity="1"/>
    </g>
    <g opacity="1">
      <use xlink:href="#path-58" fill="rgb(199,166,136)" fill-opacity="1"/>
    </g>
    <g opacity="1">
      <use xlink:href="#path-59" fill="rgb(199,166,136)" fill-opacity="1"/>
    </g>
    <g opacity="1">
      <use xlink:href="#path-60" fill="rgb(45,39,63)" fill-opacity="1"/>
    </g>
    <g opacity="1">
      <use xlink:href="#path-61" fill="rgb(89,59,67)" fill-opacity="1"/>
    </g>
    <g opacity="1">
      <use xlink:href="#path-62" fill="rgb(70,43,51)" fill-opacity="1"/>
    </g>
    <g opacity="1">
      <use xlink:href="#path-63" fill="rgb(89,59,67)" fill-opacity="1"/>
    </g>
    <g opacity="1">
      <use xlink:href="#path-64" fill="rgb(89,59,67)" fill-opacity="1"/>
    </g>
    <g opacity="1">
      <use xlink:href="#path-65" fill="rgb(40,27,33)" fill-opacity="1"/>
    </g>
    <g opacity="1">
      <use xlink:href="#path-66" fill="rgb(255,255,254)" fill-opacity="1"/>
    </g>
    <g opacity="1">
      <use xlink:href="#path-67" fill="rgb(45,39,63)" fill-opacity="1"/>
    </g>
    <g opacity="1">
      <use xlink:href="#path-68" fill="rgb(45,39,63)" fill-opacity="1"/>
    </g>
    <g opacity="1">
      <use xlink:href="#path-69" fill="rgb(255,255,254)" fill-opacity="1"/>
    </g>
    <g opacity="1">
      <use xlink:href="#path-70" fill="rgb(45,39,63)" fill-opacity="1"/>
    </g>
    <g opacity="1">
      <use xlink:href="#path-71" fill="rgb(62,57,86)" fill-opacity="1"/>
    </g>
    <g opacity="1">
      <use xlink:href="#path-72" fill="rgb(62,57,86)" fill-opacity="1"/>
    </g>
    <g opacity="1">
      <use xlink:href="#path-73" fill="rgb(255,255,254)" fill-opacity="1"/>
    </g>
    <g opacity="1">
      <use xlink:href="#path-74" fill="rgb(188,185,198)" fill-opacity="1"/>
    </g>
    <g opacity="1">
      <use xlink:href="#path-75" fill="rgb(89,59,67)" fill-opacity="1"/>
    </g>
    <g opacity="1">
      <use xlink:href="#path-76" fill="rgb(135,53,66)" fill-opacity="1"/>
    </g>
    <g opacity="1">
      <use xlink:href="#path-77" fill="rgb(255,255,254)" fill-opacity="1"/>
    </g>
    <g opacity="1">
      <use xlink:href="#path-78" fill="rgb(222,154,166)" fill-opacity="1"/>
    </g>
    <g opacity="1">
      <use xlink:href="#path-79" fill="rgb(222,154,166)" fill-opacity="1"/>
    </g>
    <g opacity="1">
      <use xlink:href="#path-80" fill="rgb(45,39,63)" fill-opacity="1"/>
    </g>
    <g opacity="1">
      <use xlink:href="#path-81" fill="rgb(67,117,165)" fill-opacity="1"/>
    </g>
    <g opacity="1">
      <use xlink:href="#path-82" fill="rgb(88,133,184)" fill-opacity="1"/>
    </g>
    <g opacity="1">
      <use xlink:href="#path-83" fill="rgb(191,129,80)" fill-opacity="1"/>
    </g>
    <g opacity="1">
      <use xlink:href="#path-84" fill="rgb(222,154,166)" fill-opacity="1"/>
    </g>
    <g opacity="1">
      <use xlink:href="#path-85" fill="rgb(206,138,151)" fill-opacity="1"/>
    </g>
    <g opacity="1">
      <use xlink:href="#path-86" fill="rgb(222,154,166)" fill-opacity="1"/>
    </g>
    <g opacity="1">
      <use xlink:href="#path-87" fill="rgb(242,188,130)" fill-opacity="1"/>
    </g>
    <g opacity="1">
      <use xlink:href="#path-88" fill="rgb(222,154,166)" fill-opacity="1"/>
    </g>
    <g opacity="1">
      <use xlink:href="#path-89" fill="rgb(199,166,136)" fill-opacity="1"/>
    </g>
    <g opacity="1">
      <use xlink:href="#path-90" fill="rgb(222,154,166)" fill-opacity="1"/>
    </g>
    <g opacity="1">
      <use xlink:href="#path-91" fill="rgb(222,154,166)" fill-opacity="1"/>
    </g>
    <g opacity="1">
      <use xlink:href="#path-92" fill="rgb(255,255,254)" fill-opacity="1"/>
    </g>
    <g opacity="1">
      <use xlink:href="#path-93" fill="rgb(45,39,63)" fill-opacity="1"/>
    </g>
    <g opacity="1">
      <use xlink:href="#path-94" fill="rgb(88,133,184)" fill-opacity="1"/>
    </g>
    <g opacity="1">
      <use xlink:href="#path-95" fill="rgb(45,39,63)" fill-opacity="1"/>
    </g>
    <g opacity="1">
      <use xlink:href="#path-96" fill="rgb(45,39,63)" fill-opacity="1"/>
    </g>
    <g opacity="1">
      <use xlink:href="#path-97" fill="rgb(215,150,86)" fill-opacity="1"/>
    </g>
    <g opacity="1">
      <use xlink:href="#path-98" fill="rgb(222,154,166)" fill-opacity="1"/>
    </g>
    <g opacity="1">
      <use xlink:href="#path-99" fill="rgb(242,188,130)" fill-opacity="1"/>
    </g>
    <g opacity="1">
      <use xlink:href="#path-100" fill="rgb(255,255,254)" fill-opacity="1"/>
    </g>
    <g opacity="1">
      <use xlink:href="#path-101" fill="rgb(45,39,63)" fill-opacity="1"/>
    </g>
    <g opacity="1">
      <use xlink:href="#path-102" fill="rgb(45,39,63)" fill-opacity="1"/>
    </g>
    <g opacity="1">
      <use xlink:href="#path-103" fill="rgb(45,39,63)" fill-opacity="1"/>
    </g>
    <g opacity="1">
      <use xlink:href="#path-104" fill="rgb(62,57,86)" fill-opacity="1"/>
    </g>
    <g opacity="1">
      <use xlink:href="#path-105" fill="rgb(62,57,86)" fill-opacity="1"/>
    </g>
    <g opacity="1">
      <use xlink:href="#path-106" fill="rgb(255,255,254)" fill-opacity="1"/>
    </g>
    <g opacity="1">
      <use xlink:href="#path-107" fill="rgb(45,39,63)" fill-opacity="1"/>
    </g>
    <g opacity="1">
      <use xlink:href="#path-108" fill="rgb(45,39,63)" fill-opacity="1"/>
    </g>
    <g opacity="1">
      <use xlink:href="#path-109" fill="rgb(188,185,198)" fill-opacity="1"/>
    </g>
  </g>
</svg>