<?xml version="1.0" encoding="utf-8"?>
<svg version="1.1" xmlns="http://www.w3.org/2000/svg" xmlns:xlink="http://www.w3.org/1999/xlink" height="133" width="137">
  <defs>
    <path id="path-0" opacity="1" fill-rule="evenodd" d="M85,115.36839087051263 L88.41623945758226,127 L96,124.83392590893443 L89.39308748139574,113 "/>
    <path id="path-1" opacity="1" fill-rule="evenodd" d="M107,111.6421725239617 L112.15040000000002,120 L117.08800000000001,117.85623003194891 L119,115.05271565495211 L114.31840000000003,113.1789137380192 L111.0768,108 "/>
    <path id="path-2" opacity="1" fill-rule="evenodd" d="M20,94 L77,94 L77,90 L20,90 L20,94Z"/>
    <path id="path-3" opacity="1" fill-rule="evenodd" d="M45,105 L51,105 L51,92 L45,92 L45,105Z"/>
    <path id="path-4" opacity="1" fill-rule="evenodd" d="M89,124 L52.453861764354784,104 L43.85121960924755,104 L7,124 L10.564720862679557,124 L48.00000000000001,112.63242834327981 L85.43364768612471,124 "/>
    <path id="path-5" opacity="1" fill-rule="evenodd" d="M16.35288743052022,23.02576278131414 C16.35288743052022,23.02576278131414 32.11825484128268,22.37797388431069 36.759099442090026,45.16923968135801 L37.681339675039666,49.06078337697038 C39.025175443052014,54.73374653934215 44.099143581833914,58.83053028152985 50.07394280530056,59.067839085382644 L68.97657386565066,59.374095717381756 C73.98960827475553,59.57292201250168 78.36530880858983,62.73971179364484 80.00722579475197,67.35600940372633 L85.13883394809322,81.68433015526817 L91,81.68433015526817 C91,81.68433015526817 89.39925445280883,89.99013829011437 80.86853229802459,89.99013829011437 C72.33781014324035,89.99013829011437 39.81402021373572,89.99013829011437 39.81402021373572,89.99013829011437 L21.68541220603979,89.99013829011437 C21.68541220603979,89.99013829011437 6.7566484351673735,91.02756258803831 4.0920329049664295,71.82158385460414 "/>
    <path id="path-6" opacity="1" fill-rule="evenodd" d="M21.649744998038443,90.99034747343097 L39.78768144370342,90.99034747343097 C39.78768144370342,90.99034747343097 72.32820714005494,90.99034747343097 80.86331894860729,90.99034747343097 C89.39843075715969,90.99034747343097 91,82.45322558298696 91,82.45322558298696 L85.13581796783053,82.45322558298696 L84.97928599450765,82 L7,82 "/>
    <path id="path-7" opacity="1" fill-rule="evenodd" d="M9,71 L54.55409177628276,71 C77.37477658399438,71 84.63201124610906,75.37523344347078 91,83 L17.14648057033839,83 "/>
    <path id="path-8" opacity="1" fill-rule="evenodd" d="M107.18137254901961,115 C98.8954248366013,99.29260330952836 87.87091503267973,81.08291124901174 83.9640522875817,77.73121286344707 C77.3970588235294,77.2179635509804 65.00326797385621,77.0359486190833 48.828431372549026,77.21304422849671 L48,77.22124309930288 L48,66.07241857706498 L48.70588235294118,66.06585948042 C58.75326797385621,65.95271506329475 76.94771241830065,65.8904036451679 85.91013071895425,66.7086509516242 C88.54084967320262,66.94805797916455 94.70424836601306,67.51050051646824 117,109.78551816727224 L107.18137254901961,115Z"/>
    <path id="path-9" opacity="1" fill-rule="evenodd" d="M83.87245896702305,120 C83.39840385484115,118.73210318023393 82.70886914621292,116.7801012022025 81.86450835717514,114.38902211538041 C79.2500225869598,106.99377957518858 71.60448727601265,85.36059842859676 67.87110374943533,80.08180622178875 C64.93260051197109,80.02424929741551 61.018852582442406,79.84335610652799 56.918355669326914,79.65588498142634 C51.03975304923957,79.38618967864863 44.37903930131004,79.07867125413986 41.47565125734075,79.21022993842175 L41,68.04089764289517 C44.385423881945485,67.88796067241753 51.00144556542689,68.19219012981924 57.40198765246198,68.48655268589987 C62.26544195151333,68.70855796562542 66.85914771871707,68.92069634402989 69.63644029513627,68.92069634402989 C75.51344677006475,68.92069634402989 79.37292576419216,74.66323291293126 92.06068363198315,110.56230888633297 C92.87631380816143,112.87445276258597 93.5435024845656,114.76067539847656 94,115.985815645851 "/>
    <path id="path-10" opacity="1" fill-rule="evenodd" d="M40.5985028878498,38.50854918978134 C42.54321375575916,40.12018799403122 43.97879431061071,42.225085947460514 45.38766639002316,44.29905345919216 C50.55575638748875,51.91608170675294 55.72217710523938,59.529854118345526 60.89193638241991,67.14688236590621 C61.539616911818044,68.10084230458344 62.217344476085174,69.20782653376517 61.93356692454475,70.31969451689915 C61.55297114953758,71.8076115543581 59.72844842110417,72.38877827467856 58.17267972677667,72.6183147104353 C54.17976264863144,73.204365184708 50.08335022815969,73.11482969558298 46.12214946459837,72.35459199701262 C44.805087769507836,72.1022647094785 43.46966399755289,71.76040193281948 42.37962434369469,70.99528048029677 C41.21446710266401,70.17806565228328 40.433244196070376,68.94898757429475 39.73214671579404,67.72642116824252 C38.05285132256071,64.79779671486325 36.65232564172298,61.717775888963516 35.55393958929005,58.53682414805013 C34.33536539738117,55.01238171249357 33.4873713021898,51.35933375619392 31.993365957315213,47.93745015363506 C30.869940709158126,45.36533973877167 25.199397517494507,37.47807710585182 27.576451831574282,34.80829161194297 "/>
    <path id="path-11" opacity="1" fill-rule="evenodd" d="M22.420972846536095,31 C18.542599280688997,32.67980673364523 8.36494609329252,35.03282460311368 7.649342676149339,39.131681877444564 C5.845562503121,49.456936881662685 5.54848860747211,68.19088887184601 38.31852949435455,73 L60,71.7920852826137 C60,71.7920852826137 56.93242480128302,65.77183833116035 49.09361305753111,60.41997085666081 C42.080371311079716,55.63340746989796 43.53783882122454,40.671370503873 31.06894166517696,33.763708873379876 "/>
    <path id="path-12" opacity="1" fill-rule="evenodd" d="M49.723904168253384,66.09938130264875 C48.51187254469842,66.71175493717378 47.12080879897128,67.20493175719275 45.780444415275205,66.91438952183417 C44.43849567651566,66.6238472864755 45.130858839252284,64.48277450590996 45.62200890892815,63.27441679885443 C47.288750435699164,63.04347297074893 48.33125606746278,61.51924370525229 49.638348994825975,60.5179904634012 C50.430526526561245,59.91008670942012 51.35737423869151,59.48097817719819 52.2937280812026,59.09358853005342 C53.4930848642498,58.598921749853154 54.73997229920111,58.16385337690589 56.04231216137391,58.035716801311914 C57.346236378610165,57.90758022571785 58.72304092876607,58.11468469092219 59.8019867269895,58.81198605578275 C60.055483537144795,58.975881675728644 60.071327087779494,59.269403831449885 59.81624592256074,59.43031953103311 C59.561164757341984,59.589745270435046 59.22686583894969,59.552496265901844 58.92108531169988,59.52418702245664 C57.96255049830021,59.439259292121115 56.988172134265824,59.52567698263802 56.0644931322625,59.7774802532821 C55.89813585059809,59.82366901890322 55.94091343731179,60.108251413536465 56.11360813923009,60.087391970997885 C58.643823175592544,59.77450033291944 59.89546367573427,60.65208687972051 59.93190384219409,60.775753574770526 C59.97151271878086,60.91282991145259 59.852686089020565,61.04394640740932 59.724353328879445,61.11844441647556 C59.49620619973969,61.252540832794956 58.90048869587477,61.15718338119005 58.631148335084774,61.15420346082739 C57.48565962419558,61.140793819195515 56.698235157650714,61.4879545414445 56.698235157650714,61.4879545414445 C56.698235157650714,61.4879545414445 55.906057625915444,62.03327996780983 58.583617683180655,61.76657709535242 C58.91316353638253,61.73230801118196 59.2807339111077,61.73677789172592 59.53581507632645,61.93643255602364 L59.64196686557898,62.06456913161771 L59.648304285832864,62.256773995008714 C59.5976049238018,62.45195877876248 59.43283199720087,62.60691463762037 59.242709389584405,62.702272089225275 C59.05417113703142,62.7961395806488 58.84345191358983,62.83785846572588 58.632732690148245,62.878087390621744 C57.607654964082805,63.080721975282046 56.58099288295389,63.28037663957977 55.55433080182498,63.48152126405878 C55.86011132907479,63.48003130387749 57.83104902803215,63.27590675903581 58.12098600464726,63.36828429027805 L58.3982481407546,63.561979113850434 C58.46003798822996,63.71693497270832 58.314277322390666,63.87189083156622 58.17643843186873,63.974698084077744 C57.249590719738464,64.66752956839434 54.44845096752254,65.27245340201276 53.28870306106211,65.49594742921172 "/>
    <path id="path-13" opacity="1" fill-rule="evenodd" d="M54.95895101682883,78.84162895927608 L34.92136802104648,79 L26,73.51734539969834 L54.44281120808452,66 L66,72.0920060331825 "/>
    <path id="path-14" opacity="1" fill-rule="evenodd" d="M9.04829830671645,37 C6.086373336069882,39.68301036462044 4.181442482559754,42.03683661065142 5.347146437692817,47.75920713817138 C6.126512353176331,51.587969993222345 17.000841070931262,79.5174846762699 17.94578043197886,80.67761899712427 C19.900885056872045,83.06979679095208 40.46376902869561,71.54036273452749 49,66.1711460429702 C48.80432229160608,64.72657107595595 47.04991275224512,62.933636216453735 46.855907502897296,61.48746326828124 C39.21444212125745,64.80647013386596 30.63974459189271,64.8368317758718 23.72747135435333,66.1711460429702 C21.991458864499492,58.539188031399334 15.239741695385892,44.32834159151246 12.008550818316907,39.06459165639642 "/>
    <path id="path-15" opacity="1" fill-rule="evenodd" d="M4.07287784679089,71.69363678179029 C2.883643892339544,63.12752855852651 0.33457556935817506,52.30726631458859 0,43 L6.925051759834364,58.932476878217486 C8.700621118012423,63.91228418463511 13.515527950310556,67.2499176808625 18.923395445134574,67.2499176808625 L24.286542443064178,67.2499176808625 C29.025258799171848,67.2499176808625 33.29689440993789,70.03531573649495 35.1055900621118,74.3046446982874 L40,89.99006887939659 L21.76728778467908,89.99006887939659 "/>
    <path id="path-16" opacity="1" fill-rule="evenodd" d="M25.46742671009772,37 L24.53257328990228,37 C22.029315960912054,37 20,34.94121227932867 20,32.40160013914259 L20,18 L30,18 L30,32.40160013914259 "/>
    <path id="path-17" opacity="1" fill-rule="evenodd" d="M29.001628664495115,35 C29.61726384364821,34.274309723889594 30,33.362905162064855 30,32.356302521008374 L30,22 L20.96091205211727,22 L20,22.404201680672205 L20,25.656542617046764 "/>
    <path id="path-18" opacity="1" fill-rule="evenodd" d="M24.87438399506265,20.552158696080486 C24.293873637823133,22.967795666787588 21.863294861619156,24.45598590401685 19.447516632766884,23.873865081940437 C17.031738403914616,23.293388668965896 15.545105647697829,20.86295201634167 16.12561600493735,18.447315045634664 C16.706126362176867,16.031678074927655 19.136705138380854,14.545132246800268 21.552483367233126,15.125608659774807 "/>
    <path id="path-19" opacity="1" fill-rule="evenodd" d="M35.54341249915702,7.7934370716502865 L33.26689187616464,7.239014902698185 C28.742017188106303,6.135210766329887 24.192289654818772,8.959403693628426 23.10207817743232,13.547667158501937 L21.23811478524424,21.408701487371708 C20.13796216976612,26.047366967604457 22.954617962405887,30.712913522695523 27.52919834092259,31.83015819649303 L31.56861411883773,32.81467756317774 C35.06955158345409,33.669831757106955 38.58871446790519,31.48406435769258 39.4303974929999,27.935762476399017 L41.76490808819368,18.10064921262402 "/>
    <path id="path-20" opacity="1" fill-rule="evenodd" d="M34,26.66252689925192 L30,24 C30,24 30.121346651868297,27.131505321506175 31.426563078061413,27.839644054710643 "/>
    <path id="path-21" opacity="1" fill-rule="evenodd" d="M33.972181357082306,19.23462447824616 C33.84352361923917,19.771028423967945 33.30352353646092,20.100844363567187 32.76533553449738,19.9721799036136 C32.22895961334852,19.843515443660117 31.899160905074563,19.30348714695371 32.027818642917694,18.76708320123193 C32.15647638076083,18.230679255510147 32.69647646353908,17.899051140418543 33.23466446550263,18.02771560037213 "/>
    <path id="path-22" opacity="1" fill-rule="evenodd" d="M39.972165621799405,19.850751761052997 C39.843435110244535,20.655577507345008 39.30312958287338,21.15315558697824 38.76645026709532,20.957387162204494 C38.22795784552072,20.764337743330476 37.897972590549074,19.954073985239166 38.028516207900495,19.149248238947003 C38.157246719455365,18.344422492654992 38.697552246826525,17.84684441302176 39.23423156260458,18.042612837795506 "/>
    <path id="path-23" opacity="1" fill-rule="evenodd" d="M41.33306339270652,13.020037470389301 C39.46818127034916,14.189771320695645 35.52394720383592,11.461509560955507 33.355791349091604,11.089473866445424 C31.18763549434727,10.719114008397153 28.722908089147197,10.4828210672895 27.008825060241904,11.863710311777075 C26.077221771804624,12.614485046644205 25.529318398928744,13.730592130174266 25.01157484474327,14.808154975083875 C24.502209017971815,15.86895945537603 23.994518736683144,16.926412262744556 23.485152909911687,17.985540906574897 C23.235496632974357,17.92521079395165 22.81661026227414,18.042519346274617 22.56695398533681,17.98218923365137 C22.436261437678336,17.159353530928776 22.33070207226189,16.331490318820844 22.19833397912062,15.508654616098251 C21.290188327442547,15.354477661616649 19.95980521409865,15.243872455140643 19.04328183500658,15.336043460537281 C19.69674457329892,14.193122993619175 19.574429753054456,12.544099915250365 19.462168205706796,11.231919965694818 C19.380066477049557,10.256583144952243 19.0767927446626,9.308059707597907 19.011446470833366,8.331047050393616 C18.795301103552045,5.074896805200074 21.672212697521147,1.9427584581765591 24.93617529801724,1.8841041820150275 C25.889560677730927,1.8673458173974742 26.83289278454782,2.0751495386552685 27.78292707329591,2.1622930346666602 C29.589165103755242,2.328200844380571 31.512691318010642,2.207540619134073 33.11116170860267,1.3528640236380922 C41.98987722196447,-3.3931048360573106 47.52085286069014,5.822319867143674 48.05367632422082,6.45746188614946 C49.22990925314702,7.861812841101742 49.06570579583254,9.914712506753927 48.83783161017163,11.731319231298269 C48.15253350770606,10.824691705487815 47.23098349216559,10.120840391550004 46.172038747035444,9.708584621957755 C46.54568538970004,11.843600274235989 46.401588478179164,14.079166114219639 45.81849865016445,16.167258345568747 "/>
    <path id="path-24" opacity="1" fill-rule="evenodd" d="M48.23767258382643,70 L82,70 L82,67 L48.23767258382643,67 C47.55391190006575,67 47,67.67131474103583 47,68.49999999999994 "/>
    <path id="path-25" opacity="1" fill-rule="evenodd" d="M58,70 L90.18055458372535,70 C91.60365346884544,70 92.84967726437864,69.06492134303822 93.21357469619016,67.72411364169987 L98.89297389982002,46.848086405259444 C99.4225746264743,44.905024653674566 97.91987317814545,43 95.85995378735521,43 L67.76024897465909,43 C66.33715008953904,43 65.0911262940058,43.93349377788213 64.7272288621943,45.277471237379594 "/>
    <path id="path-26" opacity="1" fill-rule="evenodd" d="M95.78940856270987,42 C97.89560672340782,42 99.43206831539965,43.95494247334498 98.89056941919496,45.948918739834944 L93.08357512124539,67.37196554424426 C92.9041828488831,68.03228721161372 92.51549959209815,68.59177158002525 92.00057732883603,69 L72,42 "/>
    <path id="path-27" opacity="1" fill-rule="evenodd" d="M76.08715219122139,58.49999999999996 C75.69222062327079,59.88014138817481 76.67681960143337,61 78.2856652515179,61 C79.8926909404598,61 81.51791624082797,59.88014138817481 81.91284780877861,58.49999999999996 C82.30777937672921,57.11985861182519 81.3231803985666,56 79.71433474848209,56 "/>
    <path id="path-28" opacity="1" fill-rule="evenodd" d="M92.72013471615699,123.06123479440508 C92.72013471615699,123.06123479440508 91.12477267684734,120.54526863404222 92.68315612584186,120.12145615248374 C94.24153957483638,119.69596187536358 95.2082655787889,120.52508708730133 95.2082655787889,120.52508708730133 L99.59639162951694,124.22167373200561 L102,127 L98.77405821631872,126.02287677862908 "/>
    <path id="path-29" opacity="1" fill-rule="evenodd" d="M86.69935692796257,121.92683108896911 C86.69935692796257,121.92683108896911 88.32441569963817,124.67779865739473 89.56042438402703,124.00530329015827 C90.25933737269258,123.62455223664941 91.25606303879448,121.1125842472662 92.26828184996528,121.34004591559614 C93.28050066113612,121.56750758392617 97.3655265776469,123.77289680295152 98.87352603102384,124.29704760388579 C100.37980402383755,124.82119840482014 95.31698850742025,120 95.31698850742025,120 C95.31698850742025,120 99.47087284645967,123.20753917804447 100.82049792802077,123.68059351725242 C102.17012300958187,124.1519995835015 113.209849601484,125.44424558328917 113.88810506339095,128.6023365725662 L114,130.68080877375536 C114,130.68080877375536 110.92030705240715,134.18833363032192 102.32161153914484,132.57632267650513 C93.72463748644576,130.96431172268834 88.99234239816586,131.08133910277118 87.43097766732923,130.70882941405688 "/>
    <path id="path-30" opacity="1" fill-rule="evenodd" d="M104.0973633360344,131.44523778624475 C100.17434395063268,131.33429505406687 93.42224022938353,129.59969044420467 90.92301938540173,129.64166877529902 C89.48407405098797,129.66715561917772 88.00137131459203,129.39279724095408 87,129.1559195154932 C87.235616779904,130.10942732177872 87.57894408776413,130.81706204594025 88.02493299258242,130.9160109692341 C89.55139313096055,131.25483607020973 94.17789690207567,131.14839101636338 102.5826840366515,132.6146341524439 C110.98915414822665,134.08087728852442 114,130.8905241253554 114,130.8905241253554 L113.89060649504455,129 "/>
    <path id="path-31" opacity="1" fill-rule="evenodd" d="M95.49433244963947,124 L95.27904901731837,123.97577963279541 C95.05472006263082,123.89273837380796 94.94255558528705,123.65226472799013 95.02939260000481,123.43774147560585 C95.06014737605068,123.35989029530519 95.81454394141119,121.52606249266574 97.1496630426967,121.09355593543947 C97.68696707126281,120.9170932600911 98.25502587587481,120.99148438793402 98.79232990444092,121.30634916159478 C98.9967587099223,121.42745099761812 99.06188647096063,121.68176485326717 98.93524915783055,121.87898784336231 C98.8104209491738,122.0744808072286 98.54267348712736,122.13676175146918 98.33824468164597,122.01565991544582 C98.01984229434754,121.83054710895303 97.72314916072855,121.78729645323034 97.42826513158282,121.88071786959128 C96.63768647675658,122.13676175146918 96.01354543347271,123.30798950843798 95.84168050851049,123.73703601320645 "/>
    <path id="path-32" opacity="1" fill-rule="evenodd" d="M97.49252334516618,125 L97.27904901731834,124.97577901262693 C97.05472006263082,124.89273562734786 96.94255558528705,124.65225582414388 97.02939260000481,124.4377270788396 C97.06014737605068,124.35987390514055 97.81454394141119,122.52599914689455 99.1496630426967,122.09348151523275 C99.68515796678952,121.91701432151469 100.25502587587481,121.99140735416053 100.79232990444092,122.30801026053695 C100.9967587099223,122.42738512687563 101.06188647096063,122.68170549429274 100.93524915783055,122.87893353433059 C100.81042094917377,123.07443150384171 100.54267348712736,123.136714042801 100.33824468164597,123.01560910593572 C100.01984229434754,122.83049155958443 99.72314916072854,122.78550972589159 99.42826513158282,122.8823936753838 C98.63768647675658,123.13844411332762 98.01354543347271,124.30797178934108 97.8398714040372,124.73702927994955 "/>
    <path id="path-33" opacity="1" fill-rule="evenodd" d="M98.49362213288106,126 L98.27832622900576,125.97576323505959 C98.05398427874917,125.89266575526396 97.94362251289714,125.65202930335576 98.02865534888149,125.43736081388377 C98.06122111585422,125.35945692657533 98.81566138405589,123.52438758108849 100.14904862066167,123.09158820715291 C100.68638377571178,122.91846845757864 101.2562846977346,122.99117875239988 101.79181064350846,123.306256696625 C101.99625129172617,123.42570932383114 102.06138282567164,123.68192655320105 101.93654738560949,123.87755187021993 C101.81171194554734,124.07317718723881 101.54394897266043,124.13550029708554 101.33769911516644,124.01431647238358 C101.02108749182042,123.82907834033911 100.72437717051329,123.7857984029456 100.42947605848244,123.87928306771563 C99.64247002330805,124.13376909958974 99.01648361372105,125.30578980420732 98.84099031392356,125.73685798064719 "/>
    <path id="path-34" opacity="1" fill-rule="evenodd" d="M99.49444101861693,126 L99.27911030414364,125.97405260957261 C99.05473208065887,125.89275078623375 98.9425429689165,125.65230496827395 99.02939905542672,125.43780654074145 C99.06016058606576,125.35996436945958 99.81472283762338,123.52461895323417 101.15013516771816,123.09389227214082 C101.68574770119793,122.91572019120657 102.25574076892131,122.99356236248855 102.79135330240108,123.30666087364477 C102.99763650786285,123.42601886961044 103.06096907094324,123.68203312182656 102.93611344658478,123.87923328907421 C102.81125782222632,124.0747036302933 102.54345155548646,124.13697736731886 102.33897785182695,124.01588954532474 C102.02050553462277,123.83079816027652 101.72555674084843,123.78582268353581 101.42879844527184,123.88096311510265 C100.63623665586599,124.13697736731886 100.013768035876,125.3080695886049 99.84186536465783,125.7370664436698 "/>
    <path id="path-35" opacity="1" fill-rule="evenodd" d="M116.08796655657844,115 C116.08796655657844,115 113.2249606340525,114.04982515915196 114.2039922341769,112.97996623696824 C115.18302383430128,111.90864775281705 116.48310723843042,112.00205971873754 116.48310723843042,112.00205971873754 L122.32378044205542,112.38154583028972 L126,113.11132681404396 L122.80183010626031,114.0396082253794 "/>
    <path id="path-36" opacity="1" fill-rule="evenodd" d="M111.07530231906456,118.5323444310447 C111.07530231906456,118.5323444310447 113.94747389223603,119.76248372623473 114.48335118233854,118.54679776480022 C114.78723281636009,117.85946144842774 114.04713399801727,115.34297544899856 114.95061003895232,114.95273543760017 C115.85408607988735,114.56249542620178 120.26690486210356,113.99078577987328 121.72259591540033,113.55236798928985 C123.17828696869714,113.11555612467932 116.46675066460823,112.20017832016457 116.46675066460823,112.20017832016457 C116.46675066460823,112.20017832016457 121.52654324828967,112.37040647328485 122.83192725680162,111.98177238785934 C124.13731126531354,111.59313830243374 133.27990064157487,106.41081518810189 135.6766444970029,108.49048932292054 L137,110.04663159059562 C137,110.04663159059562 136.75330039388572,114.50468209117979 129.27062359916147,118.068231824896 C121.78631303221131,121.63178155861223 118.26716765757463,124.37630904618368 116.86048977105551,124.96086610029491 "/>
    <path id="path-37" opacity="1" fill-rule="evenodd" d="M129.70789259560618,115.93579358028572 C126.60292921074043,118.15497153084694 120.25305126118795,120.61227289786181 118.35069161920259,122.12534877324451 C117.25223759153783,122.99681433207144 115.92758340113913,123.63181010928123 115,124.01379975650897 C115.80390561432058,124.71494092717806 116.5313262815297,125.13661781048143 116.93978844589095,124.9596788829777 C118.34092758340114,124.35775580249755 121.84621643612692,121.53169386694677 129.30105777054516,117.86227816478927 C136.75427176566313,114.19286246263177 137,109.60071852171633 137,109.60071852171633 L135.68185516680228,108 "/>
    <path id="path-38" opacity="1" fill-rule="evenodd" d="M118.79264919585223,115.88515238410095 L118.63269515845435,115.98476451436402 C118.43582865088773,116.04453179252187 118.23127204536928,115.92333703403517 118.17590334011616,115.71083115614056 C118.15590908544142,115.63280165410121 117.68835112997067,113.81155987245812 118.36507974973098,112.74404987647233 C118.63423317804472,112.31073710982795 119.06180262416599,112.0567261776572 119.59549542202241,112.00193950601249 C119.79697598836013,111.98035687778886 119.97846230002311,112.14139648838079 119.99845655469785,112.36054317495953 C120.01691278978222,112.57968986153828 119.86772488951688,112.7755937177223 119.6647063035888,112.79551614377492 C119.35095030715448,112.82872018719591 119.12486142737094,112.95987615870895 118.97413550751524,113.19396466482719 C118.57425041402051,113.8265016919976 118.77573098035823,115.0683329159438 118.88800641045482,115.49334467173291 "/>
    <path id="path-39" opacity="1" fill-rule="evenodd" d="M120.79254881052496,114.88470875685763 L120.6326150305606,114.98430906289171 C120.43577345521985,115.04572925161278 120.23124275584236,114.9212288690701 120.17588106277776,114.70874821619742 C120.15588934028222,114.63238798157131 119.68839059884793,112.80970238114757 120.36503351408177,111.74231910148238 C120.63415285536796,111.31237778043523 121.06320597661849,111.05507698984714 121.59529335996147,111.00195682662898 C121.79828623453162,110.98037676032165 121.97821173699153,111.13973724997618 121.99820345948707,111.35885792325116 C122.0181951819826,111.57963860162668 121.8690261756697,111.77385919839318 121.66603330109955,111.79543926470052 C121.35077921559288,111.82863936671185 121.12471896891249,111.95811976455622 120.97554996259957,112.19218048373625 C120.57417768788132,112.82630243215324 120.77563273764412,114.06798624737822 120.88789394858064,114.49294755312359 "/>
    <path id="path-40" opacity="1" fill-rule="evenodd" d="M122.79254881052496,114.88365932694235 L122.6326150305606,114.98489947710276 C122.43577345521985,115.04464776244319 122.23124275584236,114.92183184257662 122.17588106277776,114.70939349469911 C122.15588934028222,114.63138878883792 121.68839059884793,112.81072576054464 122.36503351408176,111.74355499737905 C122.63722850498264,111.31369927784577 123.06320597661849,111.05644971596298 123.59529335996147,111.00168045440081 C123.79828623453162,110.9817643592873 123.97974956179888,111.14109312019538 123.99820345948706,111.36182984103675 C124.0181951819826,111.57924721269261 123.8690261756697,111.7750888146421 123.66603330109955,111.79666458434838 C123.34924139078552,111.82819840161144 123.12625679371983,111.9576530198493 122.97554996259957,112.19332681202582 C122.57725333749602,112.82068380810135 122.77717056245146,114.06543975269568 122.88789394858064,114.49197612304336 "/>
    <path id="path-41" opacity="1" fill-rule="evenodd" d="M124.18887350488225,114.88366684309024 L123.95123631930485,114.98490045266658 C123.65592020518928,115.04464487799035 123.34906830536607,114.9218368926026 123.26601064827106,114.70941226922925 C123.23371044828968,114.63307217020446 122.5323346772652,112.81086719782974 123.54748381953748,111.74376537885261 C123.95123631930485,111.31227786262536 124.59493316179113,111.05670448762929 125.3932095327598,111.00193876441591 C125.6977542754415,110.9803643886045 125.96769166100027,111.1413424235047 125.99768470384011,111.36040531635848 C126.02537058953844,111.58112777658235 125.80157634681025,111.7752971588846 125.49703160412855,111.79687153469592 C125.02637154725687,111.83006288209798 124.68721944745226,111.95784956959602 124.46342520472406,112.19350813615085 C123.8635643479268,112.82746287153076 124.16580193346695,114.06715969699881 124.33191724765697,114.4920089437456 "/>
    <path id="path-42" opacity="1" fill-rule="evenodd" d="M19.218361073305058,31.614321260713343 L19.791705812409194,29 C19.791705812409194,29 22.04425309601123,33.855405031794355 26.738194149982544,34.55709151230307 C26.738194149982544,34.55709151230307 30.31606948035648,34.33646668509814 30.513422565626747,32.13519491291124 L31,33.62150953829142 L30.85538782544851,39.50705004147086 L27.934221899508408,37.21786010505948 L24.72553294416592,41 "/>
  </defs>
  <g opacity="1">
    <g opacity="1">
      <use xlink:href="#path-0" fill="rgb(222,154,166)" fill-opacity="1"/>
    </g>
    <g opacity="1">
      <use xlink:href="#path-1" fill="rgb(222,154,166)" fill-opacity="1"/>
    </g>
    <g opacity="1">
      <use xlink:href="#path-2" fill="rgb(45,39,63)" fill-opacity="1"/>
    </g>
    <g opacity="1">
      <use xlink:href="#path-3" fill="rgb(45,39,63)" fill-opacity="1"/>
    </g>
    <g opacity="1">
      <use xlink:href="#path-4" fill="rgb(45,39,63)" fill-opacity="1"/>
    </g>
    <g opacity="1">
      <use xlink:href="#path-5" fill="rgb(242,188,130)" fill-opacity="1"/>
    </g>
    <g opacity="1">
      <use xlink:href="#path-6" fill="rgb(229,170,104)" fill-opacity="1"/>
    </g>
    <g opacity="1">
      <use xlink:href="#path-7" fill="rgb(242,188,130)" fill-opacity="1"/>
    </g>
    <g opacity="1">
      <use xlink:href="#path-8" fill="rgb(106,52,70)" fill-opacity="1"/>
    </g>
    <g opacity="1">
      <use xlink:href="#path-9" fill="rgb(126,66,77)" fill-opacity="1"/>
    </g>
    <g opacity="1">
      <use xlink:href="#path-10" fill="rgb(188,185,198)" fill-opacity="1"/>
    </g>
    <g opacity="1">
      <use xlink:href="#path-11" fill="rgb(128,132,150)" fill-opacity="1"/>
    </g>
    <g opacity="1">
      <use xlink:href="#path-12" fill="rgb(222,154,166)" fill-opacity="1"/>
    </g>
    <g opacity="1">
      <use xlink:href="#path-13" fill="rgb(126,66,77)" fill-opacity="1"/>
    </g>
    <g opacity="1">
      <use xlink:href="#path-14" fill="rgb(188,185,198)" fill-opacity="1"/>
    </g>
    <g opacity="1">
      <use xlink:href="#path-15" fill="rgb(211,135,69)" fill-opacity="1"/>
    </g>
    <g opacity="1">
      <use xlink:href="#path-16" fill="rgb(222,154,166)" fill-opacity="1"/>
    </g>
    <g opacity="1">
      <use xlink:href="#path-17" fill="rgb(193,124,137)" fill-opacity="1"/>
    </g>
    <g opacity="1">
      <use xlink:href="#path-18" fill="rgb(222,154,166)" fill-opacity="1"/>
    </g>
    <g opacity="1">
      <use xlink:href="#path-19" fill="rgb(222,154,166)" fill-opacity="1"/>
    </g>
    <g opacity="1">
      <use xlink:href="#path-20" fill="rgb(255,255,254)" fill-opacity="1"/>
    </g>
    <g opacity="1">
      <use xlink:href="#path-21" fill="rgb(45,39,63)" fill-opacity="1"/>
    </g>
    <g opacity="1">
      <use xlink:href="#path-22" fill="rgb(45,39,63)" fill-opacity="1"/>
    </g>
    <g opacity="1">
      <use xlink:href="#path-23" fill="rgb(45,39,63)" fill-opacity="1"/>
    </g>
    <g opacity="1">
      <use xlink:href="#path-24" fill="rgb(148,147,169)" fill-opacity="1"/>
    </g>
    <g opacity="1">
      <use xlink:href="#path-25" fill="rgb(188,185,198)" fill-opacity="1"/>
    </g>
    <g opacity="1">
      <use xlink:href="#path-26" fill="rgb(188,185,198)" fill-opacity="1"/>
    </g>
    <g opacity="1">
      <use xlink:href="#path-27" fill="rgb(255,255,254)" fill-opacity="1"/>
    </g>
    <g opacity="1">
      <use xlink:href="#path-28" fill="rgb(99,59,70)" fill-opacity="1"/>
    </g>
    <g opacity="1">
      <use xlink:href="#path-29" fill="rgb(127,86,95)" fill-opacity="1"/>
    </g>
    <g opacity="1">
      <use xlink:href="#path-30" fill="rgb(207,211,216)" fill-opacity="1"/>
    </g>
    <g opacity="1">
      <use xlink:href="#path-31" fill="rgb(225,230,232)" fill-opacity="1"/>
    </g>
    <g opacity="1">
      <use xlink:href="#path-32" fill="rgb(225,230,232)" fill-opacity="1"/>
    </g>
    <g opacity="1">
      <use xlink:href="#path-33" fill="rgb(225,230,232)" fill-opacity="1"/>
    </g>
    <g opacity="1">
      <use xlink:href="#path-34" fill="rgb(225,230,232)" fill-opacity="1"/>
    </g>
    <g opacity="1">
      <use xlink:href="#path-35" fill="rgb(99,59,70)" fill-opacity="1"/>
    </g>
    <g opacity="1">
      <use xlink:href="#path-36" fill="rgb(127,86,95)" fill-opacity="1"/>
    </g>
    <g opacity="1">
      <use xlink:href="#path-37" fill="rgb(207,211,216)" fill-opacity="1"/>
    </g>
    <g opacity="1">
      <use xlink:href="#path-38" fill="rgb(225,230,232)" fill-opacity="1"/>
    </g>
    <g opacity="1">
      <use xlink:href="#path-39" fill="rgb(225,230,232)" fill-opacity="1"/>
    </g>
    <g opacity="1">
      <use xlink:href="#path-40" fill="rgb(225,230,232)" fill-opacity="1"/>
    </g>
    <g opacity="1">
      <use xlink:href="#path-41" fill="rgb(225,230,232)" fill-opacity="1"/>
    </g>
    <g opacity="1">
      <use xlink:href="#path-42" fill="rgb(255,255,254)" fill-opacity="1"/>
    </g>
  </g>
</svg>